<?xml version="1.0" encoding="UTF-8" standalone="no"?>
<!-- Created with sK1/UniConvertor (http://sk1project.org/) -->

<svg
   xmlns:dc="http://purl.org/dc/elements/1.1/"
   xmlns:cc="http://creativecommons.org/ns#"
   xmlns:rdf="http://www.w3.org/1999/02/22-rdf-syntax-ns#"
   xmlns:svg="http://www.w3.org/2000/svg"
   xmlns="http://www.w3.org/2000/svg"
   xmlns:sodipodi="http://sodipodi.sourceforge.net/DTD/sodipodi-0.dtd"
   xmlns:inkscape="http://www.inkscape.org/namespaces/inkscape"
   width="50"
   height="50"
   viewBox="0 0 40.000001 39.999998"
   id="svg2"
   version="1.1"
   inkscape:version="0.48.1 r9760"
   sodipodi:docname="river3.svg"
   style="fill-rule:evenodd">
  <metadata
     id="metadata116">
    <rdf:RDF>
      <cc:Work
         rdf:about="">
        <dc:format>image/svg+xml</dc:format>
        <dc:type
           rdf:resource="http://purl.org/dc/dcmitype/StillImage" />
        <dc:title />
      </cc:Work>
    </rdf:RDF>
  </metadata>
  <sodipodi:namedview
     pagecolor="#ffffff"
     bordercolor="#666666"
     borderopacity="1"
     objecttolerance="10"
     gridtolerance="10"
     guidetolerance="10"
     inkscape:pageopacity="0"
     inkscape:pageshadow="2"
     inkscape:window-width="1366"
     inkscape:window-height="710"
     id="namedview114"
     showgrid="false"
     inkscape:zoom="3.7424708"
     inkscape:cx="91.648835"
     inkscape:cy="28.24531"
     inkscape:window-x="0"
     inkscape:window-y="26"
     inkscape:window-maximized="1"
     inkscape:current-layer="svg2" />
  <defs
     id="defs4">
    <inkscape:perspective
       sodipodi:type="inkscape:persp3d"
       inkscape:vp_x="0 : 526.18127 : 1"
       inkscape:vp_y="0 : 1000 : 0"
       inkscape:vp_z="744.09497 : 526.18127 : 1"
       inkscape:persp3d-origin="372.04749 : 350.78752 : 1"
       id="perspective118" />
    <marker
       id="ArrowEnd"
       viewBox="0 0 10 10"
       refX="0"
       refY="5"
       markerUnits="strokeWidth"
       markerWidth="4"
       markerHeight="3"
       orient="auto">
      <path
         d="M 0,0 10,5 0,10 z"
         id="path7"
         inkscape:connector-curvature="0" />
    </marker>
    <marker
       id="ArrowStart"
       viewBox="0 0 10 10"
       refX="10"
       refY="5"
       markerUnits="strokeWidth"
       markerWidth="4"
       markerHeight="3"
       orient="auto">
      <path
         d="M 10,0 0,5 10,10 z"
         id="path10"
         inkscape:connector-curvature="0" />
    </marker>
    <inkscape:perspective
       id="perspective3258"
       inkscape:persp3d-origin="0.5 : 0.33333333 : 1"
       inkscape:vp_z="1 : 0.5 : 1"
       inkscape:vp_y="0 : 1000 : 0"
       inkscape:vp_x="0 : 0.5 : 1"
       sodipodi:type="inkscape:persp3d" />
  </defs>
  <g
     id="g3456"
     transform="matrix(0.22694625,0,0,0.22694625,-48.211099,-73.79793)">
    <path
       style="fill:#00ccff;stroke:none"
       d="m 212.80895,385.04528 c 0,-0.753 4.826,-2.704 8.83,-2.624 l 0.037,0 c 3.571,0.101 4.951,-3.355 1.311,-3.806 -1.87,-0.232 -3.13,-0.453 -3.897,-1.105 -1.648,-1.401 -1.08,-4.329 0.638,-5.399 5.659,-3.524 12.796,2.199 16.811,5.618 3.319,2.827 8.392,2.979 9.371,3.001 l 0.038,0.002 c 3.689,-0.352 7.882,-0.145 11.491,1.164 5.457,1.978 10.604,1.032 16.077,-0.285 7.799,-1.876 5.925,-10.644 -2.669,-10.306 -8.444,0.332 -7.887,-9.788 -0.049,-10.515 14.342,-1.329 10.355,20.573 30.146,17.867 14.793,-2.022 11.415,4.181 20.701,3.136 5.441,-0.612 11.451,-2.856 17.54,-8.042 6.657,-5.669 18.491,-15.157 27.873,-9.315 1.841,1.147 2.714,2.887 2.63,4.79 -0.207,4.683 -2.522,5.31 -8.035,5.994 -5.512,0.685 -3.087,6.198 0.665,4.668 8.92,-3.637 14.063,2.096 22.466,4.273 l 3.159,0.819 -175.134,0.065 z"
       id="path26"
       inkscape:connector-curvature="0" />
    <path
       style="fill:#00ccff;stroke:none"
       d="m 313.35495,367.87228 c 0,0 0.808,1.988 -1.345,3.535 -2.153,1.547 -2.956,0.006 -6.37,0.422 -3.415,0.416 -3.668,0.788 -4.604,1.526 -0.936,0.737 -2.546,0.451 -2.024,-1.507 0.522,-1.958 1.597,-3.432 4.62,-5.224 7.911,-3.926 9.723,1.248 9.723,1.248 z"
       id="path28"
       inkscape:connector-curvature="0" />
    <path
       style="fill:#00ccff;stroke:none"
       d="m 270.48395,379.36728 c -0.832,1.47 -5.408,0.333 -7.078,-0.452 -1.671,-0.785 -2.355,-2.624 -1.524,-4.094 0.832,-1.47 2.872,-2.028 4.543,-1.244 1.67,0.785 4.89,4.32 4.059,5.79 z"
       id="path30"
       inkscape:connector-curvature="0" />
    <path
       style="fill:#ffffff;stroke:none"
       d="m 263.21495,374.84028 c -0.084,-0.456 0.31,-0.9 0.881,-0.993 0.571,-0.092 1.102,0.203 1.187,0.658 0.085,0.456 -0.309,0.901 -0.88,0.993 -0.571,0.092 -1.103,-0.203 -1.188,-0.658 z"
       id="path32"
       inkscape:connector-curvature="0" />
    <path
       style="fill:#ffffff;stroke:none"
       d="m 266.21495,366.79828 c -0.281,2.524 2.599,2.688 2.053,0.023 -0.168,-0.821 -0.116,-1.518 0.836,-2.12 0.713,-0.451 0.087,-0.868 -0.369,-0.933 -1.069,-0.15 -2.329,1.313 -2.52,3.03 z"
       id="path34"
       inkscape:connector-curvature="0" />
    <path
       style="fill:#ffffff;stroke:none"
       d="m 270.30195,363.06828 c -0.076,-0.407 0.276,-0.805 0.787,-0.887 0.51,-0.083 0.986,0.181 1.062,0.589 0.076,0.407 -0.277,0.804 -0.788,0.887 -0.51,0.082 -0.986,-0.181 -1.061,-0.589 z"
       id="path36"
       inkscape:connector-curvature="0" />
    <path
       style="fill:#ffffff;stroke:none"
       d="m 309.29895,366.08528 c 1.822,0.272 1.114,2.076 -0.722,1.234 -0.493,-0.226 -0.978,-0.313 -1.709,0.096 -0.549,0.307 -0.613,-0.097 -0.499,-0.352 0.267,-0.596 1.712,-1.161 2.93,-0.978 z"
       id="path38"
       inkscape:connector-curvature="0" />
    <path
       style="fill:#ffffff;stroke:none"
       d="m 362.84595,364.13228 c 3.886,0.529 2.828,4.336 -2.111,2.519 -1.321,-0.485 -2.62,-0.692 -4.575,0.085 -1.467,0.583 -1.641,-0.234 -1.338,-0.739 0.712,-1.183 4.763,-2.308 8.024,-1.865 z"
       id="path40"
       inkscape:connector-curvature="0" />
    <path
       style="fill:#ffffff;stroke:none"
       d="m 351.50195,366.76928 c 0.592,-0.228 1.213,-0.042 1.388,0.416 0.175,0.458 -0.163,1.014 -0.755,1.243 -0.591,0.228 -1.213,0.042 -1.387,-0.416 -0.175,-0.457 0.163,-1.014 0.754,-1.243 z"
       id="path42"
       inkscape:connector-curvature="0" />
    <path
       style="fill:#00ccff;stroke:none"
       d="m 290.53095,361.59528 c 0,0 1.861,-0.58 3.086,1.512 1.226,2.091 -0.231,2.702 -0.127,5.857 0.103,3.154 0.419,3.416 1.01,4.33 0.592,0.915 0.205,2.364 -1.523,1.73 -1.728,-0.634 -2.973,-1.734 -4.351,-4.641 -2.915,-7.546 1.905,-8.788 1.905,-8.788 z"
       id="path44"
       inkscape:connector-curvature="0" />
    <path
       style="fill:#ffffff;stroke:none"
       d="m 289.63095,363.45128 c 1.232,-1.463 3.134,-0.309 1.186,0.991 -0.523,0.349 -0.87,0.733 -0.718,1.479 0.114,0.56 -0.421,0.491 -0.683,0.316 -0.612,-0.41 -0.609,-1.809 0.215,-2.786 z"
       id="path46"
       inkscape:connector-curvature="0" />
    <path
       style="fill:#00ccff;stroke:none"
       d="m 248.49595,358.75128 c 0,0 -1.754,0.865 -1.227,3.228 0.527,2.363 2.008,1.801 4.08,4.161 2.071,2.359 2.018,2.767 2.208,3.839 0.19,1.072 1.459,1.855 2.291,0.203 0.831,-1.652 0.993,-3.31 0.021,-6.37 -3.004,-7.486 -7.373,-5.061 -7.373,-5.061 z"
       id="path48"
       inkscape:connector-curvature="0" />
    <path
       style="fill:#ffffff;stroke:none"
       d="m 250.41695,359.47728 c -1.896,-0.211 -2.5,1.939 -0.192,1.537 0.62,-0.108 1.135,-0.068 1.532,0.578 0.297,0.485 0.641,0.065 0.713,-0.242 0.169,-0.72 -0.785,-1.733 -2.053,-1.873 z"
       id="path50"
       inkscape:connector-curvature="0" />
    <path
       style="fill:#00ccff;stroke:none"
       d="m 316.96495,378.72828 c 0.912,1.42 5.417,0.026 7.041,-0.852 1.624,-0.878 2.205,-2.753 1.293,-4.173 -0.913,-1.421 -2.981,-1.863 -4.605,-0.985 -1.624,0.878 -4.641,4.589 -3.729,6.01 z"
       id="path52"
       inkscape:connector-curvature="0" />
    <path
       style="fill:#ffffff;stroke:none"
       d="m 323.96895,373.79728 c 0.059,-0.46 -0.359,-0.881 -0.935,-0.941 -0.575,-0.06 -1.089,0.264 -1.148,0.724 -0.06,0.46 0.359,0.881 0.934,0.941 0.575,0.06 1.09,-0.265 1.149,-0.724 z"
       id="path54"
       inkscape:connector-curvature="0" />
    <path
       style="fill:#00ccff;stroke:none"
       d="m 343.53695,359.91528 c 0,0 1.53,1.495 0.17,3.78 -1.36,2.285 -2.709,1.198 -5.675,2.956 -2.966,1.759 -3.051,2.202 -3.616,3.255 -0.565,1.053 -2.156,1.44 -2.454,-0.564 -0.299,-2.004 0.102,-3.787 2.164,-6.648 5.696,-6.787 9.411,-2.779 9.411,-2.779 z"
       id="path56"
       inkscape:connector-curvature="0" />
    <path
       style="fill:#ffffff;stroke:none"
       d="m 339.10795,359.91428 c 1.78,-0.485 1.846,1.453 -0.171,1.422 -0.542,-0.008 -1.022,0.107 -1.53,0.777 -0.381,0.503 -0.601,0.159 -0.597,-0.12 0.008,-0.654 1.109,-1.754 2.298,-2.079 z"
       id="path58"
       inkscape:connector-curvature="0" />
    <path
       style="fill:#00ccff;stroke:none"
       d="m 373.28595,375.81328 c 0.598,0.992 3.715,0.124 4.846,-0.446 1.132,-0.57 1.566,-1.845 0.968,-2.837 -0.598,-0.993 -2.008,-1.337 -3.139,-0.767 -1.131,0.571 -3.273,3.057 -2.675,4.05 z"
       id="path60"
       inkscape:connector-curvature="0" />
    <path
       style="fill:#ffffff;stroke:none"
       d="m 378.18595,372.56828 c 0.05,-0.314 -0.229,-0.611 -0.622,-0.664 -0.394,-0.052 -0.753,0.16 -0.803,0.474 -0.049,0.314 0.23,0.612 0.623,0.664 0.393,0.053 0.753,-0.16 0.802,-0.474 z"
       id="path62"
       inkscape:connector-curvature="0" />
    <path
       style="fill:#00ccff;stroke:none"
       d="m 218.17995,380.46328 c -0.363,0.602 -2.253,0.076 -2.938,-0.27 -0.686,-0.346 -0.949,-1.118 -0.587,-1.72 0.363,-0.601 1.218,-0.81 1.903,-0.464 0.686,0.346 1.984,1.853 1.622,2.454 z"
       id="path64"
       inkscape:connector-curvature="0" />
    <path
       style="fill:#ffffff;stroke:none"
       d="m 215.20895,378.49628 c -0.03,-0.19 0.139,-0.37 0.378,-0.402 0.238,-0.032 0.456,0.097 0.486,0.287 0.03,0.191 -0.139,0.371 -0.378,0.403 -0.238,0.032 -0.456,-0.097 -0.486,-0.288 z"
       id="path66"
       inkscape:connector-curvature="0" />
    <path
       style="fill:#00ccff;stroke:none"
       d="m 386.25595,378.48728 c 0,0 0.098,0.795 -0.835,1.146 -0.933,0.35 -1.073,-0.284 -2.353,-0.464 -1.279,-0.18 -1.408,-0.07 -1.82,0.106 -0.412,0.175 -0.968,-0.084 -0.586,-0.74 0.382,-0.656 0.917,-1.084 2.19,-1.438 3.255,-0.653 3.404,1.39 3.404,1.39 z"
       id="path68"
       inkscape:connector-curvature="0" />
    <path
       style="fill:#ffffff;stroke:none"
       d="m 384.95995,377.45028 c 0.635,0.274 0.2,0.857 -0.383,0.376 -0.156,-0.13 -0.324,-0.208 -0.629,-0.131 -0.23,0.057 -0.213,-0.095 -0.147,-0.175 0.156,-0.19 0.735,-0.254 1.159,-0.07 z"
       id="path70"
       inkscape:connector-curvature="0" />
    <path
       style="fill:#00ccff;stroke:none"
       d="m 233.38095,363.37828 c 0,0 -1.502,1.106 -0.604,3.223 0.898,2.116 2.195,1.338 4.544,3.186 2.349,1.849 2.368,2.239 2.729,3.207 0.361,0.968 1.688,1.483 2.188,-0.202 0.5,-1.684 0.37,-3.26 -1.065,-5.95 -4.099,-6.476 -7.792,-3.464 -7.792,-3.464 z"
       id="path72"
       inkscape:connector-curvature="0" />
    <path
       style="fill:#ffffff;stroke:none"
       d="m 237.20595,363.88528 c -1.478,-0.62 -1.77,1.034 -0.024,1.24 0.469,0.055 0.87,0.209 1.228,0.842 0.268,0.474 0.499,0.204 0.53,-0.035 0.072,-0.562 -0.746,-1.632 -1.734,-2.047 z"
       id="path74"
       inkscape:connector-curvature="0" />
    <path
       style="fill:#00ccff;stroke:none"
       d="m 384.49995,363.84028 c 0,0 0.406,0.999 -0.675,1.776 -1.081,0.777 -1.485,0.003 -3.2,0.212 -1.714,0.209 -1.842,0.396 -2.312,0.766 -0.47,0.371 -1.278,0.227 -1.016,-0.757 0.262,-0.983 0.802,-1.723 2.32,-2.623 3.974,-1.972 4.883,0.626 4.883,0.626 z"
       id="path76"
       inkscape:connector-curvature="0" />
    <path
       style="fill:#ffffff;stroke:none"
       d="m 382.46295,362.94328 c 0.916,0.137 0.56,1.043 -0.362,0.62 -0.248,-0.114 -0.491,-0.158 -0.859,0.048 -0.275,0.154 -0.307,-0.049 -0.25,-0.177 0.134,-0.299 0.859,-0.583 1.471,-0.491 z"
       id="path78"
       inkscape:connector-curvature="0" />
    <path
       style="fill:#00ccff;stroke:none"
       d="m 246.89895,373.08828 c 0,0 -0.814,0.639 -0.279,1.81 0.534,1.17 1.24,0.718 2.574,1.719 1.335,1.001 1.353,1.218 1.569,1.754 0.217,0.536 0.962,0.806 1.21,-0.142 0.249,-0.948 0.149,-1.827 -0.692,-3.311 -2.385,-3.563 -4.382,-1.83 -4.382,-1.83 z"
       id="path80"
       inkscape:connector-curvature="0" />
    <path
       style="fill:#ffffff;stroke:none"
       d="m 249.02995,373.32028 c -0.831,-0.327 -0.964,0.602 0.008,0.693 0.261,0.024 0.486,0.105 0.695,0.454 0.157,0.261 0.28,0.107 0.293,-0.027 0.031,-0.315 -0.441,-0.902 -0.996,-1.12 z"
       id="path82"
       inkscape:connector-curvature="0" />
    <path
       style="fill:#ffffff;stroke:none"
       d="m 222.26795,371.92828 c -2.344,0.318 -1.705,2.614 1.273,1.519 0.797,-0.293 1.58,-0.418 2.76,0.051 0.884,0.352 0.989,-0.141 0.806,-0.445 -0.429,-0.714 -2.872,-1.393 -4.839,-1.125 z"
       id="path84"
       inkscape:connector-curvature="0" />
    <path
       style="fill:#ffffff;stroke:none"
       d="m 229.10995,373.51828 c -0.357,-0.137 -0.732,-0.025 -0.837,0.251 -0.106,0.276 0.098,0.611 0.455,0.749 0.357,0.138 0.731,0.026 0.837,-0.25 0.105,-0.276 -0.099,-0.612 -0.455,-0.75 z"
       id="path86"
       inkscape:connector-curvature="0" />
    <path
       style="fill:#00ccff;stroke:none"
       d="m 216.27195,363.50828 c 0,0 -0.478,1.092 0.702,1.989 1.181,0.896 1.65,0.052 3.55,0.341 1.9,0.288 2.037,0.5 2.549,0.925 0.512,0.426 1.414,0.294 1.15,-0.804 -0.265,-1.098 -0.845,-1.935 -2.508,-2.982 -4.361,-2.316 -5.443,0.531 -5.443,0.531 z"
       id="path88"
       inkscape:connector-curvature="0" />
    <path
       style="fill:#ffffff;stroke:none"
       d="m 218.55995,362.58228 c -1.021,0.121 -0.65,1.136 0.386,0.699 0.278,-0.118 0.55,-0.158 0.953,0.082 0.302,0.179 0.343,-0.044 0.283,-0.188 -0.141,-0.336 -0.939,-0.674 -1.622,-0.593 z"
       id="path90"
       inkscape:connector-curvature="0" />
    <path
       style="fill:#00ccff;stroke:none"
       d="m 325.55895,361.63728 c 0,0 0.838,0.678 0.266,1.881 -0.571,1.202 -1.298,0.719 -2.699,1.73 -1.401,1.012 -1.422,1.237 -1.655,1.788 -0.232,0.552 -1.01,0.816 -1.255,-0.171 -0.246,-0.988 -0.13,-1.897 0.765,-3.419 2.527,-3.645 4.578,-1.809 4.578,-1.809 z"
       id="path92"
       inkscape:connector-curvature="0" />
    <path
       style="fill:#ffffff;stroke:none"
       d="m 323.34195,361.83528 c 0.868,-0.323 0.994,0.642 -0.018,0.718 -0.272,0.02 -0.506,0.099 -0.729,0.456 -0.166,0.268 -0.293,0.106 -0.304,-0.033 -0.027,-0.328 0.471,-0.926 1.051,-1.141 z"
       id="path94"
       inkscape:connector-curvature="0" />
  </g>
  <g
     id="g112"
     transform="translate(0,-801.89001)" />
  <g
     id="g3178"
     transform="matrix(0.22694625,0,0,0.22694625,-48.211099,-54.353248)">
    <path
       id="path3180"
       d="m 212.80895,385.04528 c 0,-0.753 4.826,-2.704 8.83,-2.624 l 0.037,0 c 3.571,0.101 4.951,-3.355 1.311,-3.806 -1.87,-0.232 -3.13,-0.453 -3.897,-1.105 -1.648,-1.401 -1.08,-4.329 0.638,-5.399 5.659,-3.524 12.796,2.199 16.811,5.618 3.319,2.827 8.392,2.979 9.371,3.001 l 0.038,0.002 c 3.689,-0.352 7.882,-0.145 11.491,1.164 5.457,1.978 10.604,1.032 16.077,-0.285 7.799,-1.876 5.925,-10.644 -2.669,-10.306 -8.444,0.332 -7.887,-9.788 -0.049,-10.515 14.342,-1.329 10.355,20.573 30.146,17.867 14.793,-2.022 11.415,4.181 20.701,3.136 5.441,-0.612 11.451,-2.856 17.54,-8.042 6.657,-5.669 18.491,-15.157 27.873,-9.315 1.841,1.147 2.714,2.887 2.63,4.79 -0.207,4.683 -2.522,5.31 -8.035,5.994 -5.512,0.685 -3.087,6.198 0.665,4.668 8.92,-3.637 14.063,2.096 22.466,4.273 l 3.159,0.819 -175.134,0.065 z"
       style="fill:#000080;stroke:none"
       inkscape:connector-curvature="0" />
    <path
       id="path3182"
       d="m 313.35495,367.87228 c 0,0 0.808,1.988 -1.345,3.535 -2.153,1.547 -2.956,0.006 -6.37,0.422 -3.415,0.416 -3.668,0.788 -4.604,1.526 -0.936,0.737 -2.546,0.451 -2.024,-1.507 0.522,-1.958 1.597,-3.432 4.62,-5.224 7.911,-3.926 9.723,1.248 9.723,1.248 z"
       style="fill:#000080;stroke:none"
       inkscape:connector-curvature="0" />
    <path
       id="path3184"
       d="m 270.48395,379.36728 c -0.832,1.47 -5.408,0.333 -7.078,-0.452 -1.671,-0.785 -2.355,-2.624 -1.524,-4.094 0.832,-1.47 2.872,-2.028 4.543,-1.244 1.67,0.785 4.89,4.32 4.059,5.79 z"
       style="fill:#000080;stroke:none"
       inkscape:connector-curvature="0" />
    <path
       id="path3186"
       d="m 263.21495,374.84028 c -0.084,-0.456 0.31,-0.9 0.881,-0.993 0.571,-0.092 1.102,0.203 1.187,0.658 0.085,0.456 -0.309,0.901 -0.88,0.993 -0.571,0.092 -1.103,-0.203 -1.188,-0.658 z"
       style="fill:#ffffff;stroke:none"
       inkscape:connector-curvature="0" />
    <path
       id="path3188"
       d="m 266.21495,366.79828 c -0.281,2.524 2.599,2.688 2.053,0.023 -0.168,-0.821 -0.116,-1.518 0.836,-2.12 0.713,-0.451 0.087,-0.868 -0.369,-0.933 -1.069,-0.15 -2.329,1.313 -2.52,3.03 z"
       style="fill:#ffffff;stroke:none"
       inkscape:connector-curvature="0" />
    <path
       id="path3190"
       d="m 270.30195,363.06828 c -0.076,-0.407 0.276,-0.805 0.787,-0.887 0.51,-0.083 0.986,0.181 1.062,0.589 0.076,0.407 -0.277,0.804 -0.788,0.887 -0.51,0.082 -0.986,-0.181 -1.061,-0.589 z"
       style="fill:#ffffff;stroke:none"
       inkscape:connector-curvature="0" />
    <path
       id="path3192"
       d="m 309.29895,366.08528 c 1.822,0.272 1.114,2.076 -0.722,1.234 -0.493,-0.226 -0.978,-0.313 -1.709,0.096 -0.549,0.307 -0.613,-0.097 -0.499,-0.352 0.267,-0.596 1.712,-1.161 2.93,-0.978 z"
       style="fill:#ffffff;stroke:none"
       inkscape:connector-curvature="0" />
    <path
       id="path3194"
       d="m 362.84595,364.13228 c 3.886,0.529 2.828,4.336 -2.111,2.519 -1.321,-0.485 -2.62,-0.692 -4.575,0.085 -1.467,0.583 -1.641,-0.234 -1.338,-0.739 0.712,-1.183 4.763,-2.308 8.024,-1.865 z"
       style="fill:#ffffff;stroke:none"
       inkscape:connector-curvature="0" />
    <path
       id="path3196"
       d="m 351.50195,366.76928 c 0.592,-0.228 1.213,-0.042 1.388,0.416 0.175,0.458 -0.163,1.014 -0.755,1.243 -0.591,0.228 -1.213,0.042 -1.387,-0.416 -0.175,-0.457 0.163,-1.014 0.754,-1.243 z"
       style="fill:#ffffff;stroke:none"
       inkscape:connector-curvature="0" />
    <path
       id="path3198"
       d="m 290.53095,361.59528 c 0,0 1.861,-0.58 3.086,1.512 1.226,2.091 -0.231,2.702 -0.127,5.857 0.103,3.154 0.419,3.416 1.01,4.33 0.592,0.915 0.205,2.364 -1.523,1.73 -1.728,-0.634 -2.973,-1.734 -4.351,-4.641 -2.915,-7.546 1.905,-8.788 1.905,-8.788 z"
       style="fill:#000080;stroke:none"
       inkscape:connector-curvature="0" />
    <path
       id="path3200"
       d="m 289.63095,363.45128 c 1.232,-1.463 3.134,-0.309 1.186,0.991 -0.523,0.349 -0.87,0.733 -0.718,1.479 0.114,0.56 -0.421,0.491 -0.683,0.316 -0.612,-0.41 -0.609,-1.809 0.215,-2.786 z"
       style="fill:#ffffff;stroke:none"
       inkscape:connector-curvature="0" />
    <path
       id="path3202"
       d="m 248.49595,358.75128 c 0,0 -1.754,0.865 -1.227,3.228 0.527,2.363 2.008,1.801 4.08,4.161 2.071,2.359 2.018,2.767 2.208,3.839 0.19,1.072 1.459,1.855 2.291,0.203 0.831,-1.652 0.993,-3.31 0.021,-6.37 -3.004,-7.486 -7.373,-5.061 -7.373,-5.061 z"
       style="fill:#000080;stroke:none"
       inkscape:connector-curvature="0" />
    <path
       id="path3204"
       d="m 250.41695,359.47728 c -1.896,-0.211 -2.5,1.939 -0.192,1.537 0.62,-0.108 1.135,-0.068 1.532,0.578 0.297,0.485 0.641,0.065 0.713,-0.242 0.169,-0.72 -0.785,-1.733 -2.053,-1.873 z"
       style="fill:#ffffff;stroke:none"
       inkscape:connector-curvature="0" />
    <path
       id="path3206"
       d="m 316.96495,378.72828 c 0.912,1.42 5.417,0.026 7.041,-0.852 1.624,-0.878 2.205,-2.753 1.293,-4.173 -0.913,-1.421 -2.981,-1.863 -4.605,-0.985 -1.624,0.878 -4.641,4.589 -3.729,6.01 z"
       style="fill:#000080;stroke:none"
       inkscape:connector-curvature="0" />
    <path
       id="path3208"
       d="m 323.96895,373.79728 c 0.059,-0.46 -0.359,-0.881 -0.935,-0.941 -0.575,-0.06 -1.089,0.264 -1.148,0.724 -0.06,0.46 0.359,0.881 0.934,0.941 0.575,0.06 1.09,-0.265 1.149,-0.724 z"
       style="fill:#ffffff;stroke:none"
       inkscape:connector-curvature="0" />
    <path
       id="path3210"
       d="m 343.53695,359.91528 c 0,0 1.53,1.495 0.17,3.78 -1.36,2.285 -2.709,1.198 -5.675,2.956 -2.966,1.759 -3.051,2.202 -3.616,3.255 -0.565,1.053 -2.156,1.44 -2.454,-0.564 -0.299,-2.004 0.102,-3.787 2.164,-6.648 5.696,-6.787 9.411,-2.779 9.411,-2.779 z"
       style="fill:#000080;stroke:none"
       inkscape:connector-curvature="0" />
    <path
       id="path3212"
       d="m 339.10795,359.91428 c 1.78,-0.485 1.846,1.453 -0.171,1.422 -0.542,-0.008 -1.022,0.107 -1.53,0.777 -0.381,0.503 -0.601,0.159 -0.597,-0.12 0.008,-0.654 1.109,-1.754 2.298,-2.079 z"
       style="fill:#ffffff;stroke:none"
       inkscape:connector-curvature="0" />
    <path
       id="path3214"
       d="m 373.28595,375.81328 c 0.598,0.992 3.715,0.124 4.846,-0.446 1.132,-0.57 1.566,-1.845 0.968,-2.837 -0.598,-0.993 -2.008,-1.337 -3.139,-0.767 -1.131,0.571 -3.273,3.057 -2.675,4.05 z"
       style="fill:#000080;stroke:none"
       inkscape:connector-curvature="0" />
    <path
       id="path3216"
       d="m 378.18595,372.56828 c 0.05,-0.314 -0.229,-0.611 -0.622,-0.664 -0.394,-0.052 -0.753,0.16 -0.803,0.474 -0.049,0.314 0.23,0.612 0.623,0.664 0.393,0.053 0.753,-0.16 0.802,-0.474 z"
       style="fill:#ffffff;stroke:none"
       inkscape:connector-curvature="0" />
    <path
       id="path3218"
       d="m 218.17995,380.46328 c -0.363,0.602 -2.253,0.076 -2.938,-0.27 -0.686,-0.346 -0.949,-1.118 -0.587,-1.72 0.363,-0.601 1.218,-0.81 1.903,-0.464 0.686,0.346 1.984,1.853 1.622,2.454 z"
       style="fill:#000080;stroke:none"
       inkscape:connector-curvature="0" />
    <path
       id="path3220"
       d="m 215.20895,378.49628 c -0.03,-0.19 0.139,-0.37 0.378,-0.402 0.238,-0.032 0.456,0.097 0.486,0.287 0.03,0.191 -0.139,0.371 -0.378,0.403 -0.238,0.032 -0.456,-0.097 -0.486,-0.288 z"
       style="fill:#ffffff;stroke:none"
       inkscape:connector-curvature="0" />
    <path
       id="path3222"
       d="m 386.25595,378.48728 c 0,0 0.098,0.795 -0.835,1.146 -0.933,0.35 -1.073,-0.284 -2.353,-0.464 -1.279,-0.18 -1.408,-0.07 -1.82,0.106 -0.412,0.175 -0.968,-0.084 -0.586,-0.74 0.382,-0.656 0.917,-1.084 2.19,-1.438 3.255,-0.653 3.404,1.39 3.404,1.39 z"
       style="fill:#000080;stroke:none"
       inkscape:connector-curvature="0" />
    <path
       id="path3224"
       d="m 384.95995,377.45028 c 0.635,0.274 0.2,0.857 -0.383,0.376 -0.156,-0.13 -0.324,-0.208 -0.629,-0.131 -0.23,0.057 -0.213,-0.095 -0.147,-0.175 0.156,-0.19 0.735,-0.254 1.159,-0.07 z"
       style="fill:#ffffff;stroke:none"
       inkscape:connector-curvature="0" />
    <path
       id="path3226"
       d="m 233.38095,363.37828 c 0,0 -1.502,1.106 -0.604,3.223 0.898,2.116 2.195,1.338 4.544,3.186 2.349,1.849 2.368,2.239 2.729,3.207 0.361,0.968 1.688,1.483 2.188,-0.202 0.5,-1.684 0.37,-3.26 -1.065,-5.95 -4.099,-6.476 -7.792,-3.464 -7.792,-3.464 z"
       style="fill:#000080;stroke:none"
       inkscape:connector-curvature="0" />
    <path
       id="path3228"
       d="m 237.20595,363.88528 c -1.478,-0.62 -1.77,1.034 -0.024,1.24 0.469,0.055 0.87,0.209 1.228,0.842 0.268,0.474 0.499,0.204 0.53,-0.035 0.072,-0.562 -0.746,-1.632 -1.734,-2.047 z"
       style="fill:#ffffff;stroke:none"
       inkscape:connector-curvature="0" />
    <path
       id="path3230"
       d="m 384.49995,363.84028 c 0,0 0.406,0.999 -0.675,1.776 -1.081,0.777 -1.485,0.003 -3.2,0.212 -1.714,0.209 -1.842,0.396 -2.312,0.766 -0.47,0.371 -1.278,0.227 -1.016,-0.757 0.262,-0.983 0.802,-1.723 2.32,-2.623 3.974,-1.972 4.883,0.626 4.883,0.626 z"
       style="fill:#000080;stroke:none"
       inkscape:connector-curvature="0" />
    <path
       id="path3232"
       d="m 382.46295,362.94328 c 0.916,0.137 0.56,1.043 -0.362,0.62 -0.248,-0.114 -0.491,-0.158 -0.859,0.048 -0.275,0.154 -0.307,-0.049 -0.25,-0.177 0.134,-0.299 0.859,-0.583 1.471,-0.491 z"
       style="fill:#ffffff;stroke:none"
       inkscape:connector-curvature="0" />
    <path
       id="path3234"
       d="m 246.89895,373.08828 c 0,0 -0.814,0.639 -0.279,1.81 0.534,1.17 1.24,0.718 2.574,1.719 1.335,1.001 1.353,1.218 1.569,1.754 0.217,0.536 0.962,0.806 1.21,-0.142 0.249,-0.948 0.149,-1.827 -0.692,-3.311 -2.385,-3.563 -4.382,-1.83 -4.382,-1.83 z"
       style="fill:#000080;stroke:none"
       inkscape:connector-curvature="0" />
    <path
       id="path3236"
       d="m 249.02995,373.32028 c -0.831,-0.327 -0.964,0.602 0.008,0.693 0.261,0.024 0.486,0.105 0.695,0.454 0.157,0.261 0.28,0.107 0.293,-0.027 0.031,-0.315 -0.441,-0.902 -0.996,-1.12 z"
       style="fill:#ffffff;stroke:none"
       inkscape:connector-curvature="0" />
    <path
       id="path3238"
       d="m 222.26795,371.92828 c -2.344,0.318 -1.705,2.614 1.273,1.519 0.797,-0.293 1.58,-0.418 2.76,0.051 0.884,0.352 0.989,-0.141 0.806,-0.445 -0.429,-0.714 -2.872,-1.393 -4.839,-1.125 z"
       style="fill:#ffffff;stroke:none"
       inkscape:connector-curvature="0" />
    <path
       id="path3240"
       d="m 229.10995,373.51828 c -0.357,-0.137 -0.732,-0.025 -0.837,0.251 -0.106,0.276 0.098,0.611 0.455,0.749 0.357,0.138 0.731,0.026 0.837,-0.25 0.105,-0.276 -0.099,-0.612 -0.455,-0.75 z"
       style="fill:#ffffff;stroke:none"
       inkscape:connector-curvature="0" />
    <path
       id="path3242"
       d="m 216.27195,363.50828 c 0,0 -0.478,1.092 0.702,1.989 1.181,0.896 1.65,0.052 3.55,0.341 1.9,0.288 2.037,0.5 2.549,0.925 0.512,0.426 1.414,0.294 1.15,-0.804 -0.265,-1.098 -0.845,-1.935 -2.508,-2.982 -4.361,-2.316 -5.443,0.531 -5.443,0.531 z"
       style="fill:#000080;stroke:none"
       inkscape:connector-curvature="0" />
    <path
       id="path3244"
       d="m 218.55995,362.58228 c -1.021,0.121 -0.65,1.136 0.386,0.699 0.278,-0.118 0.55,-0.158 0.953,0.082 0.302,0.179 0.343,-0.044 0.283,-0.188 -0.141,-0.336 -0.939,-0.674 -1.622,-0.593 z"
       style="fill:#ffffff;stroke:none"
       inkscape:connector-curvature="0" />
    <path
       id="path3246"
       d="m 325.55895,361.63728 c 0,0 0.838,0.678 0.266,1.881 -0.571,1.202 -1.298,0.719 -2.699,1.73 -1.401,1.012 -1.422,1.237 -1.655,1.788 -0.232,0.552 -1.01,0.816 -1.255,-0.171 -0.246,-0.988 -0.13,-1.897 0.765,-3.419 2.527,-3.645 4.578,-1.809 4.578,-1.809 z"
       style="fill:#000080;stroke:none"
       inkscape:connector-curvature="0" />
    <path
       id="path3248"
       d="m 323.34195,361.83528 c 0.868,-0.323 0.994,0.642 -0.018,0.718 -0.272,0.02 -0.506,0.099 -0.729,0.456 -0.166,0.268 -0.293,0.106 -0.304,-0.033 -0.027,-0.328 0.471,-0.926 1.051,-1.141 z"
       style="fill:#ffffff;stroke:none"
       inkscape:connector-curvature="0" />
  </g>
  <g
     id="g3600"
     transform="matrix(0.22694625,0,0,0.22694625,-47.653721,-73.79793)">
    <path
       id="path3495"
       d="m 210.35296,427.61584 c 0,-0.753 4.826,-2.704 8.83,-2.624 l 0.037,0 c 3.571,0.101 4.951,-3.355 1.311,-3.806 -1.87,-0.232 -3.13,-0.453 -3.897,-1.105 -1.648,-1.401 -1.08,-4.329 0.638,-5.399 5.659,-3.524 12.796,2.199 16.811,5.618 3.319,2.827 8.392,2.979 9.371,3.001 l 0.038,0.002 c 3.689,-0.352 7.882,-0.145 11.491,1.164 5.457,1.978 10.604,1.032 16.077,-0.285 7.799,-1.876 5.925,-10.644 -2.669,-10.306 -8.444,0.332 -7.887,-9.788 -0.049,-10.515 14.342,-1.329 10.355,20.573 30.146,17.867 14.793,-2.022 11.415,4.181 20.701,3.136 5.441,-0.612 11.451,-2.856 17.54,-8.042 6.657,-5.669 18.491,-15.157 27.873,-9.315 1.841,1.147 2.714,2.887 2.63,4.79 -0.207,4.683 -2.522,5.31 -8.035,5.994 -5.512,0.685 -3.087,6.198 0.665,4.668 8.92,-3.637 14.063,2.096 22.466,4.273 l 3.159,0.819 -175.134,0.065 z"
       style="fill:#000080;stroke:none"
       inkscape:connector-curvature="0" />
    <path
       id="path3497"
       d="m 310.89896,410.44284 c 0,0 0.808,1.988 -1.345,3.535 -2.153,1.547 -2.956,0.006 -6.37,0.422 -3.415,0.416 -3.668,0.788 -4.604,1.526 -0.936,0.737 -2.546,0.451 -2.024,-1.507 0.522,-1.958 1.597,-3.432 4.62,-5.224 7.911,-3.926 9.723,1.248 9.723,1.248 z"
       style="fill:#00ccff;stroke:none"
       inkscape:connector-curvature="0" />
    <path
       id="path3499"
       d="m 268.02796,421.93784 c -0.832,1.47 -5.408,0.333 -7.078,-0.452 -1.671,-0.785 -2.355,-2.624 -1.524,-4.094 0.832,-1.47 2.872,-2.028 4.543,-1.244 1.67,0.785 4.89,4.32 4.059,5.79 z"
       style="fill:#00ccff;stroke:none"
       inkscape:connector-curvature="0" />
    <path
       id="path3501"
       d="m 260.75896,417.41084 c -0.084,-0.456 0.31,-0.9 0.881,-0.993 0.571,-0.092 1.102,0.203 1.187,0.658 0.085,0.456 -0.309,0.901 -0.88,0.993 -0.571,0.092 -1.103,-0.203 -1.188,-0.658 z"
       style="fill:#ffffff;stroke:none"
       inkscape:connector-curvature="0" />
    <path
       id="path3503"
       d="m 263.75896,409.36884 c -0.281,2.524 2.599,2.688 2.053,0.023 -0.168,-0.821 -0.116,-1.518 0.836,-2.12 0.713,-0.451 0.087,-0.868 -0.369,-0.933 -1.069,-0.15 -2.329,1.313 -2.52,3.03 z"
       style="fill:#ffffff;stroke:none"
       inkscape:connector-curvature="0" />
    <path
       id="path3505"
       d="m 267.84596,405.63884 c -0.076,-0.407 0.276,-0.805 0.787,-0.887 0.51,-0.083 0.986,0.181 1.062,0.589 0.076,0.407 -0.277,0.804 -0.788,0.887 -0.51,0.082 -0.986,-0.181 -1.061,-0.589 z"
       style="fill:#ffffff;stroke:none"
       inkscape:connector-curvature="0" />
    <path
       id="path3507"
       d="m 306.84296,408.65584 c 1.822,0.272 1.114,2.076 -0.722,1.234 -0.493,-0.226 -0.978,-0.313 -1.709,0.096 -0.549,0.307 -0.613,-0.097 -0.499,-0.352 0.267,-0.596 1.712,-1.161 2.93,-0.978 z"
       style="fill:#ffffff;stroke:none"
       inkscape:connector-curvature="0" />
    <path
       id="path3509"
       d="m 360.38996,406.70284 c 3.886,0.529 2.828,4.336 -2.111,2.519 -1.321,-0.485 -2.62,-0.692 -4.575,0.085 -1.467,0.583 -1.641,-0.234 -1.338,-0.739 0.712,-1.183 4.763,-2.308 8.024,-1.865 z"
       style="fill:#ffffff;stroke:none"
       inkscape:connector-curvature="0" />
    <path
       id="path3511"
       d="m 349.04596,409.33984 c 0.592,-0.228 1.213,-0.042 1.388,0.416 0.175,0.458 -0.163,1.014 -0.755,1.243 -0.591,0.228 -1.213,0.042 -1.387,-0.416 -0.175,-0.457 0.163,-1.014 0.754,-1.243 z"
       style="fill:#ffffff;stroke:none"
       inkscape:connector-curvature="0" />
    <path
       id="path3513"
       d="m 288.07496,404.16584 c 0,0 1.861,-0.58 3.086,1.512 1.226,2.091 -0.231,2.702 -0.127,5.857 0.103,3.154 0.419,3.416 1.01,4.33 0.592,0.915 0.205,2.364 -1.523,1.73 -1.728,-0.634 -2.973,-1.734 -4.351,-4.641 -2.915,-7.546 1.905,-8.788 1.905,-8.788 z"
       style="fill:#00ccff;stroke:none"
       inkscape:connector-curvature="0" />
    <path
       id="path3515"
       d="m 287.17496,406.02184 c 1.232,-1.463 3.134,-0.309 1.186,0.991 -0.523,0.349 -0.87,0.733 -0.718,1.479 0.114,0.56 -0.421,0.491 -0.683,0.316 -0.612,-0.41 -0.609,-1.809 0.215,-2.786 z"
       style="fill:#ffffff;stroke:none"
       inkscape:connector-curvature="0" />
    <path
       id="path3517"
       d="m 246.03996,401.32184 c 0,0 -1.754,0.865 -1.227,3.228 0.527,2.363 2.008,1.801 4.08,4.161 2.071,2.359 2.018,2.767 2.208,3.839 0.19,1.072 1.459,1.855 2.291,0.203 0.831,-1.652 0.993,-3.31 0.021,-6.37 -3.004,-7.486 -7.373,-5.061 -7.373,-5.061 z"
       style="fill:#00ccff;stroke:none"
       inkscape:connector-curvature="0" />
    <path
       id="path3519"
       d="m 247.96096,402.04784 c -1.896,-0.211 -2.5,1.939 -0.192,1.537 0.62,-0.108 1.135,-0.068 1.532,0.578 0.297,0.485 0.641,0.065 0.713,-0.242 0.169,-0.72 -0.785,-1.733 -2.053,-1.873 z"
       style="fill:#ffffff;stroke:none"
       inkscape:connector-curvature="0" />
    <path
       id="path3521"
       d="m 314.50896,421.29884 c 0.912,1.42 5.417,0.026 7.041,-0.852 1.624,-0.878 2.205,-2.753 1.293,-4.173 -0.913,-1.421 -2.981,-1.863 -4.605,-0.985 -1.624,0.878 -4.641,4.589 -3.729,6.01 z"
       style="fill:#00ccff;stroke:none"
       inkscape:connector-curvature="0" />
    <path
       id="path3523"
       d="m 321.51296,416.36784 c 0.059,-0.46 -0.359,-0.881 -0.935,-0.941 -0.575,-0.06 -1.089,0.264 -1.148,0.724 -0.06,0.46 0.359,0.881 0.934,0.941 0.575,0.06 1.09,-0.265 1.149,-0.724 z"
       style="fill:#ffffff;stroke:none"
       inkscape:connector-curvature="0" />
    <path
       id="path3525"
       d="m 341.08096,402.48584 c 0,0 1.53,1.495 0.17,3.78 -1.36,2.285 -2.709,1.198 -5.675,2.956 -2.966,1.759 -3.051,2.202 -3.616,3.255 -0.565,1.053 -2.156,1.44 -2.454,-0.564 -0.299,-2.004 0.102,-3.787 2.164,-6.648 5.696,-6.787 9.411,-2.779 9.411,-2.779 z"
       style="fill:#00ccff;stroke:none"
       inkscape:connector-curvature="0" />
    <path
       id="path3527"
       d="m 336.65196,402.48484 c 1.78,-0.485 1.846,1.453 -0.171,1.422 -0.542,-0.008 -1.022,0.107 -1.53,0.777 -0.381,0.503 -0.601,0.159 -0.597,-0.12 0.008,-0.654 1.109,-1.754 2.298,-2.079 z"
       style="fill:#ffffff;stroke:none"
       inkscape:connector-curvature="0" />
    <path
       id="path3529"
       d="m 370.82996,418.38384 c 0.598,0.992 3.715,0.124 4.846,-0.446 1.132,-0.57 1.566,-1.845 0.968,-2.837 -0.598,-0.993 -2.008,-1.337 -3.139,-0.767 -1.131,0.571 -3.273,3.057 -2.675,4.05 z"
       style="fill:#00ccff;stroke:none"
       inkscape:connector-curvature="0" />
    <path
       id="path3531"
       d="m 375.72996,415.13884 c 0.05,-0.314 -0.229,-0.611 -0.622,-0.664 -0.394,-0.052 -0.753,0.16 -0.803,0.474 -0.049,0.314 0.23,0.612 0.623,0.664 0.393,0.053 0.753,-0.16 0.802,-0.474 z"
       style="fill:#ffffff;stroke:none"
       inkscape:connector-curvature="0" />
    <path
       id="path3533"
       d="m 215.72396,423.03384 c -0.363,0.602 -2.253,0.076 -2.938,-0.27 -0.686,-0.346 -0.949,-1.118 -0.587,-1.72 0.363,-0.601 1.218,-0.81 1.903,-0.464 0.686,0.346 1.984,1.853 1.622,2.454 z"
       style="fill:#00ccff;stroke:none"
       inkscape:connector-curvature="0" />
    <path
       id="path3535"
       d="m 212.75296,421.06684 c -0.03,-0.19 0.139,-0.37 0.378,-0.402 0.238,-0.032 0.456,0.097 0.486,0.287 0.03,0.191 -0.139,0.371 -0.378,0.403 -0.238,0.032 -0.456,-0.097 -0.486,-0.288 z"
       style="fill:#ffffff;stroke:none"
       inkscape:connector-curvature="0" />
    <path
       id="path3537"
       d="m 383.79996,421.05784 c 0,0 0.098,0.795 -0.835,1.146 -0.933,0.35 -1.073,-0.284 -2.353,-0.464 -1.279,-0.18 -1.408,-0.07 -1.82,0.106 -0.412,0.175 -0.968,-0.084 -0.586,-0.74 0.382,-0.656 0.917,-1.084 2.19,-1.438 3.255,-0.653 3.404,1.39 3.404,1.39 z"
       style="fill:#00ccff;stroke:none"
       inkscape:connector-curvature="0" />
    <path
       id="path3539"
       d="m 382.50396,420.02084 c 0.635,0.274 0.2,0.857 -0.383,0.376 -0.156,-0.13 -0.324,-0.208 -0.629,-0.131 -0.23,0.057 -0.213,-0.095 -0.147,-0.175 0.156,-0.19 0.735,-0.254 1.159,-0.07 z"
       style="fill:#ffffff;stroke:none"
       inkscape:connector-curvature="0" />
    <path
       id="path3541"
       d="m 230.92496,405.94884 c 0,0 -1.502,1.106 -0.604,3.223 0.898,2.116 2.195,1.338 4.544,3.186 2.349,1.849 2.368,2.239 2.729,3.207 0.361,0.968 1.688,1.483 2.188,-0.202 0.5,-1.684 0.37,-3.26 -1.065,-5.95 -4.099,-6.476 -7.792,-3.464 -7.792,-3.464 z"
       style="fill:#00ccff;stroke:none"
       inkscape:connector-curvature="0" />
    <path
       id="path3543"
       d="m 234.74996,406.45584 c -1.478,-0.62 -1.77,1.034 -0.024,1.24 0.469,0.055 0.87,0.209 1.228,0.842 0.268,0.474 0.499,0.204 0.53,-0.035 0.072,-0.562 -0.746,-1.632 -1.734,-2.047 z"
       style="fill:#ffffff;stroke:none"
       inkscape:connector-curvature="0" />
    <path
       id="path3545"
       d="m 382.04396,406.41084 c 0,0 0.406,0.999 -0.675,1.776 -1.081,0.777 -1.485,0.003 -3.2,0.212 -1.714,0.209 -1.842,0.396 -2.312,0.766 -0.47,0.371 -1.278,0.227 -1.016,-0.757 0.262,-0.983 0.802,-1.723 2.32,-2.623 3.974,-1.972 4.883,0.626 4.883,0.626 z"
       style="fill:#00ccff;stroke:none"
       inkscape:connector-curvature="0" />
    <path
       id="path3547"
       d="m 380.00696,405.51384 c 0.916,0.137 0.56,1.043 -0.362,0.62 -0.248,-0.114 -0.491,-0.158 -0.859,0.048 -0.275,0.154 -0.307,-0.049 -0.25,-0.177 0.134,-0.299 0.859,-0.583 1.471,-0.491 z"
       style="fill:#ffffff;stroke:none"
       inkscape:connector-curvature="0" />
    <path
       id="path3549"
       d="m 244.44296,415.65884 c 0,0 -0.814,0.639 -0.279,1.81 0.534,1.17 1.24,0.718 2.574,1.719 1.335,1.001 1.353,1.218 1.569,1.754 0.217,0.536 0.962,0.806 1.21,-0.142 0.249,-0.948 0.149,-1.827 -0.692,-3.311 -2.385,-3.563 -4.382,-1.83 -4.382,-1.83 z"
       style="fill:#00ccff;stroke:none"
       inkscape:connector-curvature="0" />
    <path
       id="path3551"
       d="m 246.57396,415.89084 c -0.831,-0.327 -0.964,0.602 0.008,0.693 0.261,0.024 0.486,0.105 0.695,0.454 0.157,0.261 0.28,0.107 0.293,-0.027 0.031,-0.315 -0.441,-0.902 -0.996,-1.12 z"
       style="fill:#ffffff;stroke:none"
       inkscape:connector-curvature="0" />
    <path
       id="path3553"
       d="m 219.81196,414.49884 c -2.344,0.318 -1.705,2.614 1.273,1.519 0.797,-0.293 1.58,-0.418 2.76,0.051 0.884,0.352 0.989,-0.141 0.806,-0.445 -0.429,-0.714 -2.872,-1.393 -4.839,-1.125 z"
       style="fill:#ffffff;stroke:none"
       inkscape:connector-curvature="0" />
    <path
       id="path3555"
       d="m 226.65396,416.08884 c -0.357,-0.137 -0.732,-0.025 -0.837,0.251 -0.106,0.276 0.098,0.611 0.455,0.749 0.357,0.138 0.731,0.026 0.837,-0.25 0.105,-0.276 -0.099,-0.612 -0.455,-0.75 z"
       style="fill:#ffffff;stroke:none"
       inkscape:connector-curvature="0" />
    <path
       id="path3557"
       d="m 213.81596,406.07884 c 0,0 -0.478,1.092 0.702,1.989 1.181,0.896 1.65,0.052 3.55,0.341 1.9,0.288 2.037,0.5 2.549,0.925 0.512,0.426 1.414,0.294 1.15,-0.804 -0.265,-1.098 -0.845,-1.935 -2.508,-2.982 -4.361,-2.316 -5.443,0.531 -5.443,0.531 z"
       style="fill:#00ccff;stroke:none"
       inkscape:connector-curvature="0" />
    <path
       id="path3559"
       d="m 216.10396,405.15284 c -1.021,0.121 -0.65,1.136 0.386,0.699 0.278,-0.118 0.55,-0.158 0.953,0.082 0.302,0.179 0.343,-0.044 0.283,-0.188 -0.141,-0.336 -0.939,-0.674 -1.622,-0.593 z"
       style="fill:#ffffff;stroke:none"
       inkscape:connector-curvature="0" />
    <path
       id="path3561"
       d="m 323.10296,404.20784 c 0,0 0.838,0.678 0.266,1.881 -0.571,1.202 -1.298,0.719 -2.699,1.73 -1.401,1.012 -1.422,1.237 -1.655,1.788 -0.232,0.552 -1.01,0.816 -1.255,-0.171 -0.246,-0.988 -0.13,-1.897 0.765,-3.419 2.527,-3.645 4.578,-1.809 4.578,-1.809 z"
       style="fill:#00ccff;stroke:none"
       inkscape:connector-curvature="0" />
    <path
       id="path3563"
       d="m 320.88596,404.40584 c 0.868,-0.323 0.994,0.642 -0.018,0.718 -0.272,0.02 -0.506,0.099 -0.729,0.456 -0.166,0.268 -0.293,0.106 -0.304,-0.033 -0.027,-0.328 0.471,-0.926 1.051,-1.141 z"
       style="fill:#ffffff;stroke:none"
       inkscape:connector-curvature="0" />
  </g>
</svg>
