<?xml version="1.0" encoding="UTF-8" standalone="no"?>
<!-- Created with Inkscape (http://www.inkscape.org/) -->

<svg
   xmlns:dc="http://purl.org/dc/elements/1.1/"
   xmlns:cc="http://creativecommons.org/ns#"
   xmlns:rdf="http://www.w3.org/1999/02/22-rdf-syntax-ns#"
   xmlns:svg="http://www.w3.org/2000/svg"
   xmlns="http://www.w3.org/2000/svg"
   xmlns:sodipodi="http://sodipodi.sourceforge.net/DTD/sodipodi-0.dtd"
   xmlns:inkscape="http://www.inkscape.org/namespaces/inkscape"
   height="50"
   id="svg2"
   inkscape:version="0.48.1 r9760"
   sodipodi:docname="tree9.svg"
   sodipodi:version="0.32"
   version="1.0"
   width="50">
  <sodipodi:namedview
     pagecolor="#ffffff"
     bordercolor="#666666"
     borderopacity="1"
     objecttolerance="10"
     gridtolerance="10"
     guidetolerance="10"
     inkscape:pageopacity="0"
     inkscape:pageshadow="2"
     inkscape:window-width="1366"
     inkscape:window-height="710"
     id="namedview3283"
     showgrid="false"
     inkscape:zoom="5.64"
     inkscape:cx="72.652398"
     inkscape:cy="27.643916"
     inkscape:window-x="0"
     inkscape:window-y="26"
     inkscape:window-maximized="1"
     inkscape:current-layer="svg2" />
  <metadata
     id="metadata3255">
    <rdf:RDF>
      <cc:Work
         rdf:about="">
        <dc:title>MaKra</dc:title>
        <dc:description />
        <dc:subject>
          <rdf:Bag>
            <rdf:li>Tanne Baum Tree Christmas</rdf:li>
          </rdf:Bag>
        </dc:subject>
        <dc:publisher>
          <cc:Agent
             rdf:about="http://www.openclipart.org/">
            <dc:title>Open Clip Art Library</dc:title>
          </cc:Agent>
        </dc:publisher>
        <dc:creator>
          <cc:Agent>
            <dc:title>MaKra</dc:title>
          </cc:Agent>
        </dc:creator>
        <dc:rights>
          <cc:Agent>
            <dc:title>MaKra</dc:title>
          </cc:Agent>
        </dc:rights>
        <dc:date />
        <dc:format>image/svg+xml</dc:format>
        <dc:type
           rdf:resource="http://purl.org/dc/dcmitype/StillImage" />
        <cc:license
           rdf:resource="http://web.resource.org/cc/PublicDomain" />
        <dc:language>en</dc:language>
      </cc:Work>
      <cc:License
         rdf:about="http://web.resource.org/cc/PublicDomain">
        <cc:permits
           rdf:resource="http://web.resource.org/cc/Reproduction" />
        <cc:permits
           rdf:resource="http://web.resource.org/cc/Distribution" />
        <cc:permits
           rdf:resource="http://web.resource.org/cc/DerivativeWorks" />
      </cc:License>
    </rdf:RDF>
  </metadata>
  <defs
     id="defs5" />
  <g
     id="g5538"
     transform="matrix(0.06253515,0,0,0.06167794,36.573745,-7.1504504)">
    <path
       d="m -215.05573,573.86113 c 2.32267,10.13527 1.90315,42.07062 1.90315,63.30183 0,23.44514 0,46.89026 0,70.3354 0,25.63638 -3.8063,44.69944 -3.8063,66.8186 0,16.5335 -5.59714,44.88791 -7.61259,59.78507 -2.63094,19.44651 0,46.81952 0,66.8186"
       id="path4884"
       style="color:#000000;fill:none;stroke:#7e4400;stroke-width:53.32240295;stroke-linecap:round;stroke-linejoin:round;stroke-miterlimit:4;stroke-opacity:1;stroke-dasharray:none;stroke-dashoffset:0;marker:none;visibility:visible;display:inline;overflow:visible"
       inkscape:connector-curvature="0" />
    <path
       d="m -215.05573,573.86113 c 2.32267,10.13527 1.90315,42.07062 1.90315,63.30183 0,23.44514 0,46.89026 0,70.3354 0,25.63638 -3.8063,44.69944 -3.8063,66.8186 0,16.5335 -5.59714,44.88791 -7.61259,59.78507 -2.63094,19.44651 0,46.81952 0,66.8186"
       id="path4886"
       style="color:#000000;fill:none;stroke:#834600;stroke-width:49.3596077;stroke-linecap:round;stroke-linejoin:round;stroke-miterlimit:4;stroke-opacity:1;stroke-dasharray:none;stroke-dashoffset:0;marker:none;visibility:visible;display:inline;overflow:visible"
       inkscape:connector-curvature="0" />
    <path
       d="m -215.05573,573.86113 c 2.32267,10.13527 1.90315,42.07062 1.90315,63.30183 0,23.44514 0,46.89026 0,70.3354 0,25.63638 -3.8063,44.69944 -3.8063,66.8186 0,16.5335 -5.59714,44.88791 -7.61259,59.78507 -2.63094,19.44651 0,46.81952 0,66.8186"
       id="path4888"
       style="color:#000000;fill:none;stroke:#884900;stroke-width:45.39678574;stroke-linecap:round;stroke-linejoin:round;stroke-miterlimit:4;stroke-opacity:1;stroke-dasharray:none;stroke-dashoffset:0;marker:none;visibility:visible;display:inline;overflow:visible"
       inkscape:connector-curvature="0" />
    <path
       d="m -215.05573,573.86113 c 2.32267,10.13527 1.90315,42.07062 1.90315,63.30183 0,23.44514 0,46.89026 0,70.3354 0,25.63638 -3.8063,44.69944 -3.8063,66.8186 0,16.5335 -5.59714,44.88791 -7.61259,59.78507 -2.63094,19.44651 0,46.81952 0,66.8186"
       id="path4890"
       style="color:#000000;fill:none;stroke:#8e4c00;stroke-width:41.43397141;stroke-linecap:round;stroke-linejoin:round;stroke-miterlimit:4;stroke-opacity:1;stroke-dasharray:none;stroke-dashoffset:0;marker:none;visibility:visible;display:inline;overflow:visible"
       inkscape:connector-curvature="0" />
    <path
       d="m -215.05573,573.86113 c 2.32267,10.13527 1.90315,42.07062 1.90315,63.30183 0,23.44514 0,46.89026 0,70.3354 0,25.63638 -3.8063,44.69944 -3.8063,66.8186 0,16.5335 -5.59714,44.88791 -7.61259,59.78507 -2.63094,19.44651 0,46.81952 0,66.8186"
       id="path4892"
       style="color:#000000;fill:none;stroke:#934f00;stroke-width:37.47117233;stroke-linecap:round;stroke-linejoin:round;stroke-miterlimit:4;stroke-opacity:1;stroke-dasharray:none;stroke-dashoffset:0;marker:none;visibility:visible;display:inline;overflow:visible"
       inkscape:connector-curvature="0" />
    <path
       d="m -213.15261,155.97921 c 9.49783,35.81352 -23.02819,56.01992 -36.15982,83.73854 1.25101,29.08181 49.50862,6.74189 67.8024,24.6595 34.74115,-7.74992 41.90635,25.08663 12.39044,41.15714 -29.05745,28.78319 -73.24576,8.70004 -107.75563,22.81525 -22.0738,2.93309 -48.18094,20.73536 -15.41704,34.57649 43.3301,24.44313 94.3195,13.15136 141.59415,15.72147 37.32958,-2.26125 79.243496,10.99491 95.506836,47.57872 9.41542,27.9731 -43.89569,30.56897 -63.388626,40.53267 -58.65422,10.07443 -118.54537,7.95115 -177.70677,12.83907 -44.85195,1.75853 -97.44822,-8.93665 -133.82488,24.65735 -15.00505,32.22643 43.9645,39.60609 67.04659,39.9707 44.55728,0.39935 89.63959,-4.68425 133.37427,6.72579 78.44302,6.17177 157.611416,-5.46152 236.0129859,3.72647 36.8087401,9.17106 62.5646701,39.66315 91.7366001,61.68885 23.579274,48.53128 -44.42553,28.91221 -81.91455,37.00388 -71.88502,19.6501 -147.604616,9.4931 -220.955786,6.21612 -96.10732,-7.71384 -192.64494,-5.3084 -288.96599,-6.74127 -24.43546,2.65724 -59.38854,18.0372 -61.30993,44.5127 24.59998,18.40552 60.32876,12.37193 89.87917,16.77074 61.14331,0.25675 122.03444,5.37107 183.03586,8.79993 112.90572,1.83992 225.811186,3.84166 338.715296,4.87728 42.76133,1.66782 85.706434,4.43213 128.426294,2.22584 0,0 1.53935,-1.20549 1.53935,-1.20549"
       id="path3071"
       style="color:#000000;fill:none;stroke:#007900;stroke-width:53.3224144;stroke-linecap:round;stroke-linejoin:round;stroke-miterlimit:4;stroke-opacity:1;stroke-dasharray:none;stroke-dashoffset:0;marker:none;visibility:visible;display:inline;overflow:visible"
       inkscape:connector-curvature="0" />
    <path
       d="m -215.05573,573.86113 c 2.32267,10.13527 1.90315,42.07062 1.90315,63.30183 0,23.44514 0,46.89026 0,70.3354 0,25.63638 -3.8063,44.69944 -3.8063,66.8186 0,16.5335 -5.59714,44.88791 -7.61259,59.78507 -2.63094,19.44651 0,46.81952 0,66.8186"
       id="path4894"
       style="color:#000000;fill:none;stroke:#985200;stroke-width:33.508358;stroke-linecap:round;stroke-linejoin:round;stroke-miterlimit:4;stroke-opacity:1;stroke-dasharray:none;stroke-dashoffset:0;marker:none;visibility:visible;display:inline;overflow:visible"
       inkscape:connector-curvature="0" />
    <path
       d="m -213.15261,155.97921 c 9.49783,35.81352 -23.02819,56.01992 -36.15982,83.73854 1.25101,29.08181 49.50862,6.74189 67.8024,24.6595 34.74115,-7.74992 41.90635,25.08663 12.39044,41.15714 -29.05745,28.78319 -73.24576,8.70004 -107.75563,22.81525 -22.0738,2.93309 -48.18094,20.73536 -15.41704,34.57649 43.3301,24.44313 94.3195,13.15136 141.59415,15.72147 37.32958,-2.26125 79.243496,10.99491 95.506836,47.57872 9.41542,27.9731 -43.89569,30.56897 -63.388626,40.53267 -58.65422,10.07443 -118.54537,7.95115 -177.70677,12.83907 -44.85195,1.75853 -97.44822,-8.93665 -133.82488,24.65735 -15.00505,32.22643 43.9645,39.60609 67.04659,39.9707 44.55728,0.39935 89.63959,-4.68425 133.37427,6.72579 78.44302,6.17177 157.611416,-5.46152 236.0129859,3.72647 36.8087401,9.17106 62.5646701,39.66315 91.7366001,61.68885 23.579274,48.53128 -44.42553,28.91221 -81.91455,37.00388 -71.88502,19.6501 -147.604616,9.4931 -220.955786,6.21612 -96.10732,-7.71384 -192.64494,-5.3084 -288.96599,-6.74127 -24.43546,2.65724 -59.38854,18.0372 -61.30993,44.5127 24.59998,18.40552 60.32876,12.37193 89.87917,16.77074 61.14331,0.25675 122.03444,5.37107 183.03586,8.79993 112.90572,1.83992 225.811186,3.84166 338.715296,4.87728 42.76133,1.66782 85.706434,4.43213 128.426294,2.22584 0,0 1.53935,-1.20549 1.53935,-1.20549"
       id="path3073"
       style="color:#000000;fill:none;stroke:#008100;stroke-width:49.03582764;stroke-linecap:round;stroke-linejoin:round;stroke-miterlimit:4;stroke-opacity:1;stroke-dasharray:none;stroke-dashoffset:0;marker:none;visibility:visible;display:inline;overflow:visible"
       inkscape:connector-curvature="0" />
    <path
       d="m -215.05573,573.86113 c 2.32267,10.13527 1.90315,42.07062 1.90315,63.30183 0,23.44514 0,46.89026 0,70.3354 0,25.63638 -3.8063,44.69944 -3.8063,66.8186 0,16.5335 -5.59714,44.88791 -7.61259,59.78507 -2.63094,19.44651 0,46.81952 0,66.8186"
       id="path4896"
       style="color:#000000;fill:none;stroke:#9e5400;stroke-width:29.54556274;stroke-linecap:round;stroke-linejoin:round;stroke-miterlimit:4;stroke-opacity:1;stroke-dasharray:none;stroke-dashoffset:0;marker:none;visibility:visible;display:inline;overflow:visible"
       inkscape:connector-curvature="0" />
    <path
       d="m -213.15261,155.97921 c 9.49783,35.81352 -23.02819,56.01992 -36.15982,83.73854 1.25101,29.08181 49.50862,6.74189 67.8024,24.6595 34.74115,-7.74992 41.90635,25.08663 12.39044,41.15714 -29.05745,28.78319 -73.24576,8.70004 -107.75563,22.81525 -22.0738,2.93309 -48.18094,20.73536 -15.41704,34.57649 43.3301,24.44313 94.3195,13.15136 141.59415,15.72147 37.32958,-2.26125 79.243496,10.99491 95.506836,47.57872 9.41542,27.9731 -43.89569,30.56897 -63.388626,40.53267 -58.65422,10.07443 -118.54537,7.95115 -177.70677,12.83907 -44.85195,1.75853 -97.44822,-8.93665 -133.82488,24.65735 -15.00505,32.22643 43.9645,39.60609 67.04659,39.9707 44.55728,0.39935 89.63959,-4.68425 133.37427,6.72579 78.44302,6.17177 157.611416,-5.46152 236.0129859,3.72647 36.8087401,9.17106 62.5646701,39.66315 91.7366001,61.68885 23.579274,48.53128 -44.42553,28.91221 -81.91455,37.00388 -71.88502,19.6501 -147.604616,9.4931 -220.955786,6.21612 -96.10732,-7.71384 -192.64494,-5.3084 -288.96599,-6.74127 -24.43546,2.65724 -59.38854,18.0372 -61.30993,44.5127 24.59998,18.40552 60.32876,12.37193 89.87917,16.77074 61.14331,0.25675 122.03444,5.37107 183.03586,8.79993 112.90572,1.83992 225.811186,3.84166 338.715296,4.87728 42.76133,1.66782 85.706434,4.43213 128.426294,2.22584 0,0 1.53935,-1.20549 1.53935,-1.20549"
       id="path3075"
       style="color:#000000;fill:none;stroke:#008900;stroke-width:44.7492485;stroke-linecap:round;stroke-linejoin:round;stroke-miterlimit:4;stroke-opacity:1;stroke-dasharray:none;stroke-dashoffset:0;marker:none;visibility:visible;display:inline;overflow:visible"
       inkscape:connector-curvature="0" />
    <path
       d="m -215.05573,573.86113 c 2.32267,10.13527 1.90315,42.07062 1.90315,63.30183 0,23.44514 0,46.89026 0,70.3354 0,25.63638 -3.8063,44.69944 -3.8063,66.8186 0,16.5335 -5.59714,44.88791 -7.61259,59.78507 -2.63094,19.44651 0,46.81952 0,66.8186"
       id="path4898"
       style="color:#000000;fill:none;stroke:#a35700;stroke-width:25.58276558;stroke-linecap:round;stroke-linejoin:round;stroke-miterlimit:4;stroke-opacity:1;stroke-dasharray:none;stroke-dashoffset:0;marker:none;visibility:visible;display:inline;overflow:visible"
       inkscape:connector-curvature="0" />
    <path
       d="m -213.15261,155.97921 c 9.49783,35.81352 -23.02819,56.01992 -36.15982,83.73854 1.25101,29.08181 49.50862,6.74189 67.8024,24.6595 34.74115,-7.74992 41.90635,25.08663 12.39044,41.15714 -29.05745,28.78319 -73.24576,8.70004 -107.75563,22.81525 -22.0738,2.93309 -48.18094,20.73536 -15.41704,34.57649 43.3301,24.44313 94.3195,13.15136 141.59415,15.72147 37.32958,-2.26125 79.243496,10.99491 95.506836,47.57872 9.41542,27.9731 -43.89569,30.56897 -63.388626,40.53267 -58.65422,10.07443 -118.54537,7.95115 -177.70677,12.83907 -44.85195,1.75853 -97.44822,-8.93665 -133.82488,24.65735 -15.00505,32.22643 43.9645,39.60609 67.04659,39.9707 44.55728,0.39935 89.63959,-4.68425 133.37427,6.72579 78.44302,6.17177 157.611416,-5.46152 236.0129859,3.72647 36.8087401,9.17106 62.5646701,39.66315 91.7366001,61.68885 23.579274,48.53128 -44.42553,28.91221 -81.91455,37.00388 -71.88502,19.6501 -147.604616,9.4931 -220.955786,6.21612 -96.10732,-7.71384 -192.64494,-5.3084 -288.96599,-6.74127 -24.43546,2.65724 -59.38854,18.0372 -61.30993,44.5127 24.59998,18.40552 60.32876,12.37193 89.87917,16.77074 61.14331,0.25675 122.03444,5.37107 183.03586,8.79993 112.90572,1.83992 225.811186,3.84166 338.715296,4.87728 42.76133,1.66782 85.706434,4.43213 128.426294,2.22584 0,0 1.53935,-1.20549 1.53935,-1.20549"
       id="path3077"
       style="color:#000000;fill:none;stroke:#009200;stroke-width:40.46266174;stroke-linecap:round;stroke-linejoin:round;stroke-miterlimit:4;stroke-opacity:1;stroke-dasharray:none;stroke-dashoffset:0;marker:none;visibility:visible;display:inline;overflow:visible"
       inkscape:connector-curvature="0" />
    <path
       d="m -215.05573,573.86113 c 2.32267,10.13527 1.90315,42.07062 1.90315,63.30183 0,23.44514 0,46.89026 0,70.3354 0,25.63638 -3.8063,44.69944 -3.8063,66.8186 0,16.5335 -5.59714,44.88791 -7.61259,59.78507 -2.63094,19.44651 0,46.81952 0,66.8186"
       id="path4900"
       style="color:#000000;fill:none;stroke:#a85a00;stroke-width:21.61994553;stroke-linecap:round;stroke-linejoin:round;stroke-miterlimit:4;stroke-opacity:1;stroke-dasharray:none;stroke-dashoffset:0;marker:none;visibility:visible;display:inline;overflow:visible"
       inkscape:connector-curvature="0" />
    <path
       d="m -213.15261,155.97921 c 9.49783,35.81352 -23.02819,56.01992 -36.15982,83.73854 1.25101,29.08181 49.50862,6.74189 67.8024,24.6595 34.74115,-7.74992 41.90635,25.08663 12.39044,41.15714 -29.05745,28.78319 -73.24576,8.70004 -107.75563,22.81525 -22.0738,2.93309 -48.18094,20.73536 -15.41704,34.57649 43.3301,24.44313 94.3195,13.15136 141.59415,15.72147 37.32958,-2.26125 79.243496,10.99491 95.506836,47.57872 9.41542,27.9731 -43.89569,30.56897 -63.388626,40.53267 -58.65422,10.07443 -118.54537,7.95115 -177.70677,12.83907 -44.85195,1.75853 -97.44822,-8.93665 -133.82488,24.65735 -15.00505,32.22643 43.9645,39.60609 67.04659,39.9707 44.55728,0.39935 89.63959,-4.68425 133.37427,6.72579 78.44302,6.17177 157.611416,-5.46152 236.0129859,3.72647 36.8087401,9.17106 62.5646701,39.66315 91.7366001,61.68885 23.579274,48.53128 -44.42553,28.91221 -81.91455,37.00388 -71.88502,19.6501 -147.604616,9.4931 -220.955786,6.21612 -96.10732,-7.71384 -192.64494,-5.3084 -288.96599,-6.74127 -24.43546,2.65724 -59.38854,18.0372 -61.30993,44.5127 24.59998,18.40552 60.32876,12.37193 89.87917,16.77074 61.14331,0.25675 122.03444,5.37107 183.03586,8.79993 112.90572,1.83992 225.811186,3.84166 338.715296,4.87728 42.76133,1.66782 85.706434,4.43213 128.426294,2.22584 0,0 1.53935,-1.20549 1.53935,-1.20549"
       id="path3079"
       style="color:#000000;fill:none;stroke:#009a00;stroke-width:36.17607498;stroke-linecap:round;stroke-linejoin:round;stroke-miterlimit:4;stroke-opacity:1;stroke-dasharray:none;stroke-dashoffset:0;marker:none;visibility:visible;display:inline;overflow:visible"
       inkscape:connector-curvature="0" />
    <path
       d="m -215.05573,573.86113 c 2.32267,10.13527 1.90315,42.07062 1.90315,63.30183 0,23.44514 0,46.89026 0,70.3354 0,25.63638 -3.8063,44.69944 -3.8063,66.8186 0,16.5335 -5.59714,44.88791 -7.61259,59.78507 -2.63094,19.44651 0,46.81952 0,66.8186"
       id="path4902"
       style="color:#000000;fill:none;stroke:#ae5d00;stroke-width:17.65714645;stroke-linecap:round;stroke-linejoin:round;stroke-miterlimit:4;stroke-opacity:1;stroke-dasharray:none;stroke-dashoffset:0;marker:none;visibility:visible;display:inline;overflow:visible"
       inkscape:connector-curvature="0" />
    <path
       d="m -213.15261,155.97921 c 9.49783,35.81352 -23.02819,56.01992 -36.15982,83.73854 1.25101,29.08181 49.50862,6.74189 67.8024,24.6595 34.74115,-7.74992 41.90635,25.08663 12.39044,41.15714 -29.05745,28.78319 -73.24576,8.70004 -107.75563,22.81525 -22.0738,2.93309 -48.18094,20.73536 -15.41704,34.57649 43.3301,24.44313 94.3195,13.15136 141.59415,15.72147 37.32958,-2.26125 79.243496,10.99491 95.506836,47.57872 9.41542,27.9731 -43.89569,30.56897 -63.388626,40.53267 -58.65422,10.07443 -118.54537,7.95115 -177.70677,12.83907 -44.85195,1.75853 -97.44822,-8.93665 -133.82488,24.65735 -15.00505,32.22643 43.9645,39.60609 67.04659,39.9707 44.55728,0.39935 89.63959,-4.68425 133.37427,6.72579 78.44302,6.17177 157.611416,-5.46152 236.0129859,3.72647 36.8087401,9.17106 62.5646701,39.66315 91.7366001,61.68885 23.579274,48.53128 -44.42553,28.91221 -81.91455,37.00388 -71.88502,19.6501 -147.604616,9.4931 -220.955786,6.21612 -96.10732,-7.71384 -192.64494,-5.3084 -288.96599,-6.74127 -24.43546,2.65724 -59.38854,18.0372 -61.30993,44.5127 24.59998,18.40552 60.32876,12.37193 89.87917,16.77074 61.14331,0.25675 122.03444,5.37107 183.03586,8.79993 112.90572,1.83992 225.811186,3.84166 338.715296,4.87728 42.76133,1.66782 85.706434,4.43213 128.426294,2.22584 0,0 1.53935,-1.20549 1.53935,-1.20549"
       id="path3081"
       style="color:#000000;fill:none;stroke:#00a300;stroke-width:31.88948631;stroke-linecap:round;stroke-linejoin:round;stroke-miterlimit:4;stroke-opacity:1;stroke-dasharray:none;stroke-dashoffset:0;marker:none;visibility:visible;display:inline;overflow:visible"
       inkscape:connector-curvature="0" />
    <path
       d="m -215.05573,573.86113 c 2.32267,10.13527 1.90315,42.07062 1.90315,63.30183 0,23.44514 0,46.89026 0,70.3354 0,25.63638 -3.8063,44.69944 -3.8063,66.8186 0,16.5335 -5.59714,44.88791 -7.61259,59.78507 -2.63094,19.44651 0,46.81952 0,66.8186"
       id="path4904"
       style="color:#000000;fill:none;stroke:#b36000;stroke-width:13.69434452;stroke-linecap:round;stroke-linejoin:round;stroke-miterlimit:4;stroke-opacity:1;stroke-dasharray:none;stroke-dashoffset:0;marker:none;visibility:visible;display:inline;overflow:visible"
       inkscape:connector-curvature="0" />
    <path
       d="m -213.15261,155.97921 c 9.49783,35.81352 -23.02819,56.01992 -36.15982,83.73854 1.25101,29.08181 49.50862,6.74189 67.8024,24.6595 34.74115,-7.74992 41.90635,25.08663 12.39044,41.15714 -29.05745,28.78319 -73.24576,8.70004 -107.75563,22.81525 -22.0738,2.93309 -48.18094,20.73536 -15.41704,34.57649 43.3301,24.44313 94.3195,13.15136 141.59415,15.72147 37.32958,-2.26125 79.243496,10.99491 95.506836,47.57872 9.41542,27.9731 -43.89569,30.56897 -63.388626,40.53267 -58.65422,10.07443 -118.54537,7.95115 -177.70677,12.83907 -44.85195,1.75853 -97.44822,-8.93665 -133.82488,24.65735 -15.00505,32.22643 43.9645,39.60609 67.04659,39.9707 44.55728,0.39935 89.63959,-4.68425 133.37427,6.72579 78.44302,6.17177 157.611416,-5.46152 236.0129859,3.72647 36.8087401,9.17106 62.5646701,39.66315 91.7366001,61.68885 23.579274,48.53128 -44.42553,28.91221 -81.91455,37.00388 -71.88502,19.6501 -147.604616,9.4931 -220.955786,6.21612 -96.10732,-7.71384 -192.64494,-5.3084 -288.96599,-6.74127 -24.43546,2.65724 -59.38854,18.0372 -61.30993,44.5127 24.59998,18.40552 60.32876,12.37193 89.87917,16.77074 61.14331,0.25675 122.03444,5.37107 183.03586,8.79993 112.90572,1.83992 225.811186,3.84166 338.715296,4.87728 42.76133,1.66782 85.706434,4.43213 128.426294,2.22584 0,0 1.53935,-1.20549 1.53935,-1.20549"
       id="path3083"
       style="color:#000000;fill:none;stroke:#00ab00;stroke-width:27.60291672;stroke-linecap:round;stroke-linejoin:round;stroke-miterlimit:4;stroke-opacity:1;stroke-dasharray:none;stroke-dashoffset:0;marker:none;visibility:visible;display:inline;overflow:visible"
       inkscape:connector-curvature="0" />
    <path
       d="m -215.05573,573.86113 c 2.32267,10.13527 1.90315,42.07062 1.90315,63.30183 0,23.44514 0,46.89026 0,70.3354 0,25.63638 -3.8063,44.69944 -3.8063,66.8186 0,16.5335 -5.59714,44.88791 -7.61259,59.78507 -2.63094,19.44651 0,46.81952 0,66.8186"
       id="path4906"
       style="color:#000000;fill:none;stroke:#b96300;stroke-width:9.73153973;stroke-linecap:round;stroke-linejoin:round;stroke-miterlimit:4;stroke-opacity:1;stroke-dasharray:none;stroke-dashoffset:0;marker:none;visibility:visible;display:inline;overflow:visible"
       inkscape:connector-curvature="0" />
    <path
       d="m -213.15261,155.97921 c 9.49783,35.81352 -23.02819,56.01992 -36.15982,83.73854 1.25101,29.08181 49.50862,6.74189 67.8024,24.6595 34.74115,-7.74992 41.90635,25.08663 12.39044,41.15714 -29.05745,28.78319 -73.24576,8.70004 -107.75563,22.81525 -22.0738,2.93309 -48.18094,20.73536 -15.41704,34.57649 43.3301,24.44313 94.3195,13.15136 141.59415,15.72147 37.32958,-2.26125 79.243496,10.99491 95.506836,47.57872 9.41542,27.9731 -43.89569,30.56897 -63.388626,40.53267 -58.65422,10.07443 -118.54537,7.95115 -177.70677,12.83907 -44.85195,1.75853 -97.44822,-8.93665 -133.82488,24.65735 -15.00505,32.22643 43.9645,39.60609 67.04659,39.9707 44.55728,0.39935 89.63959,-4.68425 133.37427,6.72579 78.44302,6.17177 157.611416,-5.46152 236.0129859,3.72647 36.8087401,9.17106 62.5646701,39.66315 91.7366001,61.68885 23.579274,48.53128 -44.42553,28.91221 -81.91455,37.00388 -71.88502,19.6501 -147.604616,9.4931 -220.955786,6.21612 -96.10732,-7.71384 -192.64494,-5.3084 -288.96599,-6.74127 -24.43546,2.65724 -59.38854,18.0372 -61.30993,44.5127 24.59998,18.40552 60.32876,12.37193 89.87917,16.77074 61.14331,0.25675 122.03444,5.37107 183.03586,8.79993 112.90572,1.83992 225.811186,3.84166 338.715296,4.87728 42.76133,1.66782 85.706434,4.43213 128.426294,2.22584 0,0 1.53935,-1.20549 1.53935,-1.20549"
       id="path3085"
       style="color:#000000;fill:none;stroke:#00b400;stroke-width:23.31632805;stroke-linecap:round;stroke-linejoin:round;stroke-miterlimit:4;stroke-opacity:1;stroke-dasharray:none;stroke-dashoffset:0;marker:none;visibility:visible;display:inline;overflow:visible"
       inkscape:connector-curvature="0" />
    <path
       d="m -213.15261,155.97921 c 9.49783,35.81352 -23.02819,56.01992 -36.15982,83.73854 1.25101,29.08181 49.50862,6.74189 67.8024,24.6595 34.74115,-7.74992 41.90635,25.08663 12.39044,41.15714 -29.05745,28.78319 -73.24576,8.70004 -107.75563,22.81525 -22.0738,2.93309 -48.18094,20.73536 -15.41704,34.57649 43.3301,24.44313 94.3195,13.15136 141.59415,15.72147 37.32958,-2.26125 79.243496,10.99491 95.506836,47.57872 9.41542,27.9731 -43.89569,30.56897 -63.388626,40.53267 -58.65422,10.07443 -118.54537,7.95115 -177.70677,12.83907 -44.85195,1.75853 -97.44822,-8.93665 -133.82488,24.65735 -15.00505,32.22643 43.9645,39.60609 67.04659,39.9707 44.55728,0.39935 89.63959,-4.68425 133.37427,6.72579 78.44302,6.17177 157.611416,-5.46152 236.0129859,3.72647 36.8087401,9.17106 62.5646701,39.66315 91.7366001,61.68885 23.579274,48.53128 -44.42553,28.91221 -81.91455,37.00388 -71.88502,19.6501 -147.604616,9.4931 -220.955786,6.21612 -96.10732,-7.71384 -192.64494,-5.3084 -288.96599,-6.74127 -24.43546,2.65724 -59.38854,18.0372 -61.30993,44.5127 24.59998,18.40552 60.32876,12.37193 89.87917,16.77074 61.14331,0.25675 122.03444,5.37107 183.03586,8.79993 112.90572,1.83992 225.811186,3.84166 338.715296,4.87728 42.76133,1.66782 85.706434,4.43213 128.426294,2.22584 0,0 1.53935,-1.20549 1.53935,-1.20549"
       id="path3087"
       style="color:#000000;fill:none;stroke:#00bc00;stroke-width:19.0297451;stroke-linecap:round;stroke-linejoin:round;stroke-miterlimit:4;stroke-opacity:1;stroke-dasharray:none;stroke-dashoffset:0;marker:none;visibility:visible;display:inline;overflow:visible"
       inkscape:connector-curvature="0" />
    <path
       d="m -213.15261,155.97921 c 9.49783,35.81352 -23.02819,56.01992 -36.15982,83.73854 1.25101,29.08181 49.50862,6.74189 67.8024,24.6595 34.74115,-7.74992 41.90635,25.08663 12.39044,41.15714 -29.05745,28.78319 -73.24576,8.70004 -107.75563,22.81525 -22.0738,2.93309 -48.18094,20.73536 -15.41704,34.57649 43.3301,24.44313 94.3195,13.15136 141.59415,15.72147 37.32958,-2.26125 79.243496,10.99491 95.506836,47.57872 9.41542,27.9731 -43.89569,30.56897 -63.388626,40.53267 -58.65422,10.07443 -118.54537,7.95115 -177.70677,12.83907 -44.85195,1.75853 -97.44822,-8.93665 -133.82488,24.65735 -15.00505,32.22643 43.9645,39.60609 67.04659,39.9707 44.55728,0.39935 89.63959,-4.68425 133.37427,6.72579 78.44302,6.17177 157.611416,-5.46152 236.0129859,3.72647 36.8087401,9.17106 62.5646701,39.66315 91.7366001,61.68885 23.579274,48.53128 -44.42553,28.91221 -81.91455,37.00388 -71.88502,19.6501 -147.604616,9.4931 -220.955786,6.21612 -96.10732,-7.71384 -192.64494,-5.3084 -288.96599,-6.74127 -24.43546,2.65724 -59.38854,18.0372 -61.30993,44.5127 24.59998,18.40552 60.32876,12.37193 89.87917,16.77074 61.14331,0.25675 122.03444,5.37107 183.03586,8.79993 112.90572,1.83992 225.811186,3.84166 338.715296,4.87728 42.76133,1.66782 85.706434,4.43213 128.426294,2.22584 0,0 1.53935,-1.20549 1.53935,-1.20549"
       id="path3089"
       style="color:#000000;fill:none;stroke:#00c500;stroke-width:14.7431612;stroke-linecap:round;stroke-linejoin:round;stroke-miterlimit:4;stroke-opacity:1;stroke-dasharray:none;stroke-dashoffset:0;marker:none;visibility:visible;display:inline;overflow:visible"
       inkscape:connector-curvature="0" />
    <path
       d="m -213.15261,155.97921 c 9.49783,35.81352 -23.02819,56.01992 -36.15982,83.73854 1.25101,29.08181 49.50862,6.74189 67.8024,24.6595 34.74115,-7.74992 41.90635,25.08663 12.39044,41.15714 -29.05745,28.78319 -73.24576,8.70004 -107.75563,22.81525 -22.0738,2.93309 -48.18094,20.73536 -15.41704,34.57649 43.3301,24.44313 94.3195,13.15136 141.59415,15.72147 37.32958,-2.26125 79.243496,10.99491 95.506836,47.57872 9.41542,27.9731 -43.89569,30.56897 -63.388626,40.53267 -58.65422,10.07443 -118.54537,7.95115 -177.70677,12.83907 -44.85195,1.75853 -97.44822,-8.93665 -133.82488,24.65735 -15.00505,32.22643 43.9645,39.60609 67.04659,39.9707 44.55728,0.39935 89.63959,-4.68425 133.37427,6.72579 78.44302,6.17177 157.611416,-5.46152 236.0129859,3.72647 36.8087401,9.17106 62.5646701,39.66315 91.7366001,61.68885 23.579274,48.53128 -44.42553,28.91221 -81.91455,37.00388 -71.88502,19.6501 -147.604616,9.4931 -220.955786,6.21612 -96.10732,-7.71384 -192.64494,-5.3084 -288.96599,-6.74127 -24.43546,2.65724 -59.38854,18.0372 -61.30993,44.5127 24.59998,18.40552 60.32876,12.37193 89.87917,16.77074 61.14331,0.25675 122.03444,5.37107 183.03586,8.79993 112.90572,1.83992 225.811186,3.84166 338.715296,4.87728 42.76133,1.66782 85.706434,4.43213 128.426294,2.22584 0,0 1.53935,-1.20549 1.53935,-1.20549"
       id="path3091"
       style="color:#000000;fill:none;stroke:#00cd00;stroke-width:10.4565773;stroke-linecap:round;stroke-linejoin:round;stroke-miterlimit:4;stroke-opacity:1;stroke-dasharray:none;stroke-dashoffset:0;marker:none;visibility:visible;display:inline;overflow:visible"
       inkscape:connector-curvature="0" />
    <path
       d="m -213.15261,155.97921 c 9.49783,35.81352 -23.02819,56.01992 -36.15982,83.73854 1.25101,29.08181 49.50862,6.74189 67.8024,24.6595 34.74115,-7.74992 41.90635,25.08663 12.39044,41.15714 -29.05745,28.78319 -73.24576,8.70004 -107.75563,22.81525 -22.0738,2.93309 -48.18094,20.73536 -15.41704,34.57649 43.3301,24.44313 94.3195,13.15136 141.59415,15.72147 37.32958,-2.26125 79.243496,10.99491 95.506836,47.57872 9.41542,27.9731 -43.89569,30.56897 -63.388626,40.53267 -58.65422,10.07443 -118.54537,7.95115 -177.70677,12.83907 -44.85195,1.75853 -97.44822,-8.93665 -133.82488,24.65735 -15.00505,32.22643 43.9645,39.60609 67.04659,39.9707 44.55728,0.39935 89.63959,-4.68425 133.37427,6.72579 78.44302,6.17177 157.611416,-5.46152 236.0129859,3.72647 36.8087401,9.17106 62.5646701,39.66315 91.7366001,61.68885 23.579274,48.53128 -44.42553,28.91221 -81.91455,37.00388 -71.88502,19.6501 -147.604616,9.4931 -220.955786,6.21612 -96.10732,-7.71384 -192.64494,-5.3084 -288.96599,-6.74127 -24.43546,2.65724 -59.38854,18.0372 -61.30993,44.5127 24.59998,18.40552 60.32876,12.37193 89.87917,16.77074 61.14331,0.25675 122.03444,5.37107 183.03586,8.79993 112.90572,1.83992 225.811186,3.84166 338.715296,4.87728 42.76133,1.66782 85.706434,4.43213 128.426294,2.22584 0,0 1.53935,-1.20549 1.53935,-1.20549"
       id="path3093"
       style="color:#000000;fill:none;stroke:#00d600;stroke-width:6.16999483;stroke-linecap:round;stroke-linejoin:round;stroke-miterlimit:4;stroke-opacity:1;stroke-dasharray:none;stroke-dashoffset:0;marker:none;visibility:visible;display:inline;overflow:visible"
       inkscape:connector-curvature="0" />
  </g>
</svg>
