<?xml version="1.0" encoding="UTF-8" standalone="no"?>
<!-- Created with Inkscape (http://www.inkscape.org/) -->

<svg
   xmlns:dc="http://purl.org/dc/elements/1.1/"
   xmlns:cc="http://creativecommons.org/ns#"
   xmlns:rdf="http://www.w3.org/1999/02/22-rdf-syntax-ns#"
   xmlns:svg="http://www.w3.org/2000/svg"
   xmlns="http://www.w3.org/2000/svg"
   xmlns:sodipodi="http://sodipodi.sourceforge.net/DTD/sodipodi-0.dtd"
   xmlns:inkscape="http://www.inkscape.org/namespaces/inkscape"
   version="1.0"
   width="50"
   height="50"
   id="svg2447"
   sodipodi:version="0.32"
   inkscape:version="0.48.1 r9760"
   sodipodi:docname="tree13.svg"
   inkscape:output_extension="org.inkscape.output.svg.inkscape">
  <metadata
     id="metadata2513">
    <rdf:RDF>
      <cc:Work
         rdf:about="">
        <dc:format>image/svg+xml</dc:format>
        <dc:type
           rdf:resource="http://purl.org/dc/dcmitype/StillImage" />
        <cc:license
           rdf:resource="http://web.resource.org/cc/PublicDomain" />
      </cc:Work>
      <cc:License
         rdf:about="http://web.resource.org/cc/PublicDomain">
        <cc:permits
           rdf:resource="http://web.resource.org/cc/Reproduction" />
        <cc:permits
           rdf:resource="http://web.resource.org/cc/Distribution" />
        <cc:permits
           rdf:resource="http://web.resource.org/cc/DerivativeWorks" />
      </cc:License>
    </rdf:RDF>
  </metadata>
  <sodipodi:namedview
     inkscape:window-height="710"
     inkscape:window-width="1366"
     inkscape:pageshadow="2"
     inkscape:pageopacity="0.0"
     guidetolerance="10.0"
     gridtolerance="10.0"
     objecttolerance="10.0"
     borderopacity="1.0"
     bordercolor="#666666"
     pagecolor="#ffffff"
     id="base"
     inkscape:zoom="9.7853891"
     inkscape:cx="54.513051"
     inkscape:cy="26.313155"
     inkscape:window-x="0"
     inkscape:window-y="26"
     inkscape:current-layer="svg2447"
     showgrid="false"
     inkscape:window-maximized="1" />
  <defs
     id="defs2449">
    <filter
       id="filter3587"
       height="1.2199417"
       y="-0.10997086"
       width="1.0283011"
       x="-0.014150559"
       color-interpolation-filters="sRGB">
      <feGaussianBlur
         id="feGaussianBlur3589"
         stdDeviation="2.0410432"
         inkscape:collect="always" />
    </filter>
  </defs>
  <g
     transform="matrix(0.0740741,0,0,0.0740741,-2.8381855,-12.564011)"
     id="layer1">
    <g
       id="g3341">
      <g
         transform="matrix(1.2580453,-0.07995843,0.07995843,1.2580453,-137.90861,157.34541)"
         style="fill:#1a1a1a"
         id="g3495">
        <g
           style="fill:#1a1a1a"
           id="g3473">
          <path
             d="m 487.90369,436.92673 c 10.80478,6.29544 -4.60386,4.30646 3.13146,9.5604 -16.91881,-11.82664 -0.3271,11.15939 8.95944,10.12035 14.96755,5.77856 32.6349,-0.72083 47.00303,7.59339 4.2397,-5.53401 26.74436,-22.32385 8.43006,-13.95888 -5.01351,4.76694 -34.02806,-1.62265 -21.98572,-2.99356 19.80861,-4.07584 11.01913,-3.46785 -3.82254,-1.86863 -16.98862,-1.02849 -14.48101,-7.46434 1.90918,-5.27991 10.73864,-1.71288 34.19391,-21.77906 7.48249,-8.91839 -14.67856,5.63406 -33.03637,7.2947 -8.3752,0.41974 35.81741,-8.22972 -21.19586,-4.84844 -15.10752,-5.68378 16.14215,-3.40261 33.20619,-3.2258 47.63166,-12.22422 -10.8522,1.60553 -21.65134,7.13062 -32.57739,3.28299 5.77673,-1.32472 35.99678,-4.87364 19.13377,-4.13827 -5.90907,-0.36107 -34.98718,1.80225 -23.29808,-0.47624 6.08536,-1.41178 37.82972,-7.10958 29.59249,-6.22111 -27.48869,-0.0646 -56.92906,4.27286 -81.49165,-11.13521 15.62077,11.33337 7.96799,6.51465 1.22646,4.15771 10.1409,8.81876 -15.45772,13.65882 7.79623,13.35522 8.12341,3.02927 10.88219,14.22199 24.23128,14.56935 19.70922,6.1232 -22.30736,-1.75691 -13.16404,3.39843 5.56677,2.17422 28.65235,18.02443 16.85806,14.7085 -7.85449,-2.75596 -15.70898,-5.51192 -23.56347,-8.26788 z"
             style="color:#000000;fill:#1a1a1a;fill-opacity:1;fill-rule:evenodd;stroke:#000000;stroke-width:0.125;stroke-linecap:butt;stroke-linejoin:miter;stroke-miterlimit:4;stroke-opacity:1;stroke-dasharray:none;stroke-dashoffset:0;marker:none;visibility:visible;display:inline;overflow:visible;enable-background:accumulate"
             id="path3471"
             inkscape:connector-curvature="0" />
          <g
             style="fill:#1a1a1a"
             id="g3451">
            <path
               d="m 422.24377,499.80875 c 7.37405,-20.10886 30.16146,-22.84094 47.47715,-30.3046 27.41474,5.33789 55.70429,3.91424 82.9595,-0.3382 10.06845,-6.62453 20.12804,-11.49177 30.11466,-1.87471 16.97937,11.85778 38.32142,10.98542 57.97251,14.33474 19.40105,-0.21437 -10.39575,0.91203 -17.04633,1.40764 -16.76782,-1.8872 -17.03195,-2.00694 -0.45716,2.63298 19.7681,2.17335 13.13008,2.11933 -2.78868,1.28247 -16.09149,-3.2418 -19.81821,1.93572 -1.96631,3.77127 11.18956,0.21779 21.66927,4.77424 32.02916,8.58331 -16.10509,-5.31899 -13.73593,-0.0787 -14.50533,0.0608 -16.59472,-7.55139 -1.37656,3.65764 -18.97117,-4.27221 4.52975,6.56281 1.28161,2.50468 -3.63782,2.01429 13.69996,12.32847 4.92706,12.67894 -4.30194,0.68188 -0.71017,15.16175 -14.03767,-5.68205 -10.10156,7.57617 -12.6245,3.19305 -3.92599,3.82452 -10.93746,-8.5863 -4.50838,5.15778 -28.30525,19.30346 -15.46863,4.14066 0.0808,-10.41376 29.57605,-8.95153 15.69696,-13.61253 -10.3889,2.89847 -25.83781,-0.3652 -26.60214,14.25422 -6.77129,8.15861 -24.16613,12.03375 -13.75265,-4.09435 -5.8378,5.92282 -19.38029,24.58593 -9.97722,5.69524 3.49285,-11.50375 -15.66863,9.88075 -23.77898,5.32946 -15.75894,2.18953 4.26988,-20.07481 -16.65236,-9.258 -14.17031,8.12658 -12.22187,12.20225 -3.39817,-3.93847 11.38511,-19.08195 -20.68708,-0.43316 -7.50991,-12.10126 -5.14763,-16.10491 -10.76952,14.17422 -7.03075,13.44189 -7.99383,-4.93792 -1.47604,12.9036 -17.96943,14.28526 12.97774,-14.80021 7.05903,-11.83831 -5.7639,-2.38665 -16.21148,11.76085 19.0272,-18.47636 -1.78128,-4.20903 -18.30054,11.16208 -7.61728,2.88953 3.25759,-5.5115 17.53808,-12.55525 4.0762,-5.3765 -7.30947,0.48057 10.85281,-10.30248 14.84206,-14.87895 -0.0679,-3.74508 -11.45062,8.39934 17.58412,-19.98042 8.61776,-13.85812 -10.75972,7.73272 -22.13317,3.34016 -9.89365,8.26604 -15.56818,0.66472 -14.94364,5.24287 -10.94804,7.10991 -8.94339,1.19761 7.02234,17.26744 -7.98941,0.71305 -5.81097,12.18839 -1.5808,7.29335 -3.49788,1.03285 -6.92183,4.64703 -16.83219,11.58211 -5.15442,1.9891 l 1.13463,-0.9928 z"
               style="color:#000000;fill:#1a1a1a;fill-opacity:1;fill-rule:evenodd;stroke:#000000;stroke-width:0.125;stroke-linecap:butt;stroke-linejoin:miter;stroke-miterlimit:4;stroke-opacity:1;stroke-dasharray:none;stroke-dashoffset:0;marker:none;visibility:visible;display:inline;overflow:visible;enable-background:accumulate"
               id="path3443"
               inkscape:connector-curvature="0" />
            <g
               style="fill:#1a1a1a"
               id="g3427">
              <g
                 style="fill:#1a1a1a;fill-opacity:1"
                 id="g3410">
                <path
                   d="m 439.28571,320.21933 c 5.93335,-7.01132 25.40058,-19.32175 4.9992,-16.02186 14.78136,-2.2312 0.57201,-4.65073 0.42252,-6.04837 11.16754,-5.16922 8.3749,-3.15588 15.62793,-1.76561 -7.51624,-8.1621 0.23469,-14.56793 -15.31541,-19.69879 -10.0196,-0.50083 -22.66398,-3.79877 -30.64533,3.90469 -12.76813,6.36075 4.68738,-15.98251 13.32443,-12.77174 10.12596,-5.14254 22.63938,2.04715 30.89804,6.95013 2.96304,11.52661 9.99834,19.41648 20.37227,24.88224 7.63834,7.22017 19.4686,16.01567 11.60076,27.19581 -8.18383,9.79047 26.27968,16.61592 11.87459,19.90443 -7.92875,-0.082 -31.45648,12.12591 -20.2175,-3.05769 -1.42149,-8.09344 -21.83679,-9.33264 -14.37877,-23.09869 -2.82361,-14.10176 25.51798,8.52099 11.43727,-9.30314 2.52712,-16.04395 -16.16925,1.58285 -24.15675,2.22019 -5.28109,2.23613 -10.56217,4.47227 -15.84325,6.7084 z"
                   style="color:#000000;fill:#1a1a1a;fill-opacity:1;fill-rule:evenodd;stroke:#000000;stroke-width:0.125;stroke-linecap:butt;stroke-linejoin:miter;stroke-miterlimit:4;stroke-opacity:1;stroke-dasharray:none;stroke-dashoffset:0;marker:none;visibility:visible;display:inline;overflow:visible;enable-background:accumulate"
                   id="path3408"
                   inkscape:connector-curvature="0" />
                <g
                   style="fill:#1a1a1a;fill-opacity:1"
                   id="g3397">
                  <g
                     style="fill:#1a1a1a;fill-opacity:1"
                     id="g3386">
                    <path
                       d="m 386.38336,215.45081 c 13.40141,-6.5396 18.63683,-5.10168 18.47796,9.38658 12.95197,16.64901 8.29132,2.38808 4.77358,-9.86708 -0.26599,-12.13665 18.18831,-4.54329 25.63393,-2.56941 13.49419,2.58162 24.63325,12.02309 33.94702,21.73773 -4.63662,7.92688 6.04135,31.58673 10.45338,15.92768 3.05007,-12.07039 19.69009,-6.80694 28.60793,-12.78568 10.43546,-0.18957 16.18509,13.34172 23.70759,16.40653 12.88553,6.92127 18.95616,-13.9583 26.94064,1.50295 1.21554,-2.29341 16.15574,-5.22072 18.97207,0.50336 -18.096,-13.06206 16.24132,6.80895 -5.49341,-6.1298 -10.49623,-8.03704 -23.53787,-8.90909 -35.37483,-3.47728 0.82149,-9.54144 28.94682,-3.60812 18.77571,-9.34657 -16.75815,-10.04958 -4.84994,-5.78422 1.16833,-5.97201 -5.24658,-2.45531 -30.94637,-16.1182 -15.85464,-9.28748 14.45684,8.58434 -8.78072,-14.26142 12.95004,-5.52446 11.47496,7.38102 9.30672,7.68519 18.8238,7.39159 8.07517,-6.20728 4.11897,-9.21747 -7.9518,-16.79342 -10.71782,-7.11016 -24.97713,1.23675 -35.18638,-2.70135 -2.38622,-13.20616 -22.53119,-4.50889 -21.64756,-18.20138 -13.4737,-9.71284 14.47574,-18.58615 -2.69139,-24.92226 -10.11759,-8.20691 -25.24111,-2.73913 -37.51214,-5.27582 -16.87913,-1.20008 -33.7857,-2.78223 -50.2051,2.41887 12.79526,5.55584 25.59051,11.11168 38.38577,16.66753 -15.32065,-3.87226 -30.64129,-7.74451 -45.96194,-11.61676 -1.64268,12.33614 -0.99181,23.01918 14.01079,23.35808 11.91058,3.92941 22.5857,10.84147 33.97148,16.03787 -19.34137,-3.97376 -38.62543,-8.2399 -58.08377,-11.61676 4.48359,9.13943 27.89365,10.9892 7.46298,15.90034 -7.03335,2.94947 -14.06669,5.89894 -21.10004,8.84841 z"
                       style="color:#000000;fill:#1a1a1a;fill-opacity:1;fill-rule:evenodd;stroke:#000000;stroke-width:0.125;stroke-linecap:butt;stroke-linejoin:miter;stroke-miterlimit:4;stroke-opacity:1;stroke-dasharray:none;stroke-dashoffset:0;marker:none;visibility:visible;display:inline;overflow:visible;enable-background:accumulate"
                       id="path3384"
                       inkscape:connector-curvature="0" />
                    <g
                       style="fill:#1a1a1a;fill-opacity:1"
                       id="g3377">
                      <g
                         style="fill:#1a1a1a;fill-opacity:1"
                         id="g3301">
                        <path
                           d="m 186.4375,193.78125 c -21.64268,0.96327 1.18787,0.92489 7.58303,9.50334 -3.70045,2.0633 -32.39834,-0.48446 -12.06957,2.37479 4.4159,3.22162 29.31863,1.39278 12.82095,4.55937 -21.137,7.3626 0.44518,0.52548 3.92895,7.62707 -0.86428,9.08955 -16.7932,15.96326 1.76568,10.45235 10.47808,-5.00542 20.23662,11.47893 2.27879,4.42058 -5.83526,-3.50095 -32.16586,7.37556 -19.73815,5.47663 12.28569,-1.74685 23.57918,4.2689 4.93228,2.35835 0.9022,7.59006 -6.857,3.50079 -19.42184,4.58592 -8.03431,0.27892 20.38997,3.43261 6.52866,6.05893 9.17843,0.10472 30.80688,5.82687 9.64345,5.76347 5.04782,7.19397 27.69807,-1.71601 18.52092,5.63383 10.87895,7.91523 1.64113,9.47345 -12.63025,10.234 -11.35686,0.60357 -22.23521,2.39207 -30.28164,11.19305 -12.15974,11.30987 -28.71931,16.01509 -41.01751,26.91457 10.6071,0.15275 6.42327,-5.21161 19.15484,-2.448 5.99477,7.97238 5.00603,-2.43388 10.50141,-10.052 3.84292,9.02244 4.40674,-1.75407 7.58247,2.78273 14.52507,-14.76614 -9.19387,19.39856 6.8426,2.28716 9.21745,-12.80721 3.08662,13.08181 8.60618,-6.68372 9.55543,-0.56008 8.52423,-2.42598 3.78523,11.75202 -15.45481,12.20442 0.77787,-0.0588 1.24485,4.14368 2.37639,-9.47835 15.02689,4.3537 8.42388,-7.74257 4.0771,-4.70144 10.22177,5.05185 8.9649,-8.45569 8.95326,5.35917 0.30155,-10.25076 12.76864,-6.64611 -7.93331,-4.87642 13.97392,-5.63311 0.31593,-8.5206 2.9392,-0.51545 20.47592,-2.28129 28.59032,-6.4794 -20.05565,-0.0286 -11.71681,-2.55175 2.89582,-5.62611 7.04466,-2.82218 30.53985,-2.38726 14.26043,4.90736 -4.70433,3.82322 -23.56552,3.9526 -8.53669,7.1568 -12.00991,6.16474 -19.98536,-4.85547 -22.84368,4.79291 23.95249,4.47561 -11.19606,2.59787 -11.4412,5.03638 8.4703,-0.57331 -12.55644,9.03663 -1.45968,8.01391 -15.40771,14.17072 7.57175,0.0428 14.98463,-2.60953 7.91614,-2.70307 -27.67987,17.64682 -8.48937,11.0327 15.93302,-4.19988 28.9489,-21.24941 46.34849,-18.79817 -10.05406,4.43207 -19.45869,8.41696 -28.97469,14.50297 -5.70267,8.26173 14.5526,-5.37186 19.34969,-7.72172 5.70657,3.9246 -21.9274,16.00686 0.6875,11.09375 8.12263,-1.66498 17.58696,11.09299 9.65625,-5 -2.86121,-4.70349 15.05947,-3.57202 16.17132,-16.05058 14.40499,-11.62921 -1.08004,16.17268 11.32868,-2.54317 7.44423,1.93481 -8.68092,17.18677 -11.85011,23.49406 -13.0699,13.44937 9.87239,-1.90702 13.438,-7.84582 5.54625,-11.31959 18.95583,-13.75629 10.06369,-3.83574 -13.13031,9.25895 -12.9934,9.05361 2.09851,4.00468 1.37261,5.1895 -10.06032,16.0214 7.38734,7.1591 5.58327,-3.41382 -0.50131,-10.24334 16.04472,-5.09188 17.52001,1.62807 -6.14149,-10.16778 -13.90189,-8.68206 -11.51293,-11.62048 1.78765,-9.76455 10.65724,-5.60859 8.01368,-18.6761 8.89127,5.76733 12.41778,14.20482 -0.70121,9.70357 -4.61178,10.47733 3.60438,15.12029 -8.83962,6.96282 13.2751,14.32046 16.67336,22.7748 6.11898,13.44866 18.82766,5.42462 29.61465,3.66242 -2.67147,15.9783 -7.19366,5.59133 1.1945,16.09028 1.2582,6.56982 12.00548,-14.41414 22.76629,-11.98013 11.49225,-11.45574 11.88094,15.69944 16.22904,-3.80998 10.76176,12.08993 11.46211,-7.51317 11.0625,-15.71875 -4.21657,-5.07951 -16.28099,2.95293 -20,-7.125 -6.64383,-14.51946 -13.67032,-9.37584 -9.26294,-7.12855 -4.48355,0.11201 -9.77808,-3.36092 -21.08081,-6.0902 6.60472,-3.16481 -10.48323,-13.9097 3.0625,-7.625 -4.63054,-15.71041 -30.7211,-50.39275 -23.33095,-56.95183 14.41832,-2.30544 -12.83917,-4.39264 -17.85129,-6.90225 -8.87498,-5.75043 -22.72803,-2.93761 -26.41822,-15.18812 -13.73997,0.38611 -11.62466,0.44019 -5.70456,4.6226 -14.76398,6.53716 -3.31231,18.51562 -8.96173,16.25736 -12.56318,6.04444 -18.24898,-2.75259 -16.54424,4.85915 -13.21767,6.57985 -10.454,-6.35926 -21.37197,-10.39182 -19.47128,-3.95311 8.40124,2.26164 9.18313,-1.12428 6.62352,1.44177 23.78469,1.38395 22.55737,-10.0278 -2.72238,-9.08504 -20.58862,-16.19441 -15.71379,-3.24676 -4.09134,-6.1227 -28.3523,-7.07865 -18.90625,-12.5 -7.51424,-6.06121 -16.91664,12.32391 -25.71875,1.4375 -9.84505,-8.18111 -23.47642,-6.82756 -35.18285,-6.07782 -8.04201,0.93964 -13.18265,-6.70893 -19.81715,-10.01593 z m 37.125,48.9375 c 6.92088,0.62954 35.96291,1.38858 15.77923,1.85945 -21.59215,0.59115 -6.74424,0.93777 6.29835,1.29651 6.10807,2.54222 35.62604,-4.14967 19.45965,0.4573 -14.97773,3.86471 9.6752,3.09297 -12.30159,3.39401 -18.13212,0.85019 15.56308,-2.92959 -10.37698,-1.66352 -11.82941,0.34956 -23.56425,-2.19887 -35.26491,0.71875 18.58547,-3.02432 8.10829,-3.49003 2.51067,-3.85247 4.63186,-0.73667 9.26372,-1.47335 13.89558,-2.21003 z m 122.15625,21.4375 c -2.62171,9.17833 14.22366,26.48751 9.77701,24.7259 -7.62784,-0.18025 15.53165,17.53305 -3.33951,6.3366 12.84325,17.37105 2.04443,2.08034 1.24923,5.63066 1.98717,6.40509 12.4783,30.47344 2.10817,14.04423 -2.69494,-12.38404 -10.71401,-25.2204 -8.38753,-36.91058 -0.46912,-4.60894 -0.93825,-9.21787 -1.40737,-13.82681 z m 39.09375,48.03125 c 14.46882,7.11096 28.63964,16.87748 45,18.375 -11.10459,1.2274 -20.95628,-3.37023 -30.875,-7.65625 9.91922,4.6075 17.83921,15.59892 29.28125,15.34375 -10.87993,5.30217 -18.49662,-8.98409 -29.75937,-9.40031 -17.12584,-8.89903 -11.31693,-6.83569 -2.8617,-3.2734 -10.08253,-8.11516 13.22506,8.11404 -3.88852,-5.36536 -18.20993,-7.56987 15.83741,6.11047 -7.99457,-5.56889 6.20399,2.33422 19.77897,11.70279 1.09791,-2.45454 z"
                           style="color:#000000;fill:#1a1a1a;fill-opacity:1;fill-rule:evenodd;stroke:#000000;stroke-width:0.125;stroke-linecap:butt;stroke-linejoin:miter;stroke-miterlimit:4;stroke-opacity:1;stroke-dasharray:none;stroke-dashoffset:0;marker:none;visibility:visible;display:inline;overflow:visible;enable-background:accumulate"
                           id="path3266"
                           inkscape:connector-curvature="0" />
                        <path
                           d="m 275.28125,409.65625 c -10.77615,1.5504 -21.04354,4.35178 -28.29779,9.7548 -21.34932,10.35501 11.32998,9.12497 -14.01471,15.8702 16.11816,1.49174 17.35629,-7.12432 10.68629,2.52052 9.86515,3.16301 17.05143,-19.0403 13.97864,-3.32159 -12.13735,5.71291 16.33182,10.62601 17.0576,6.49861 -4.68725,-6.48044 14.99578,-0.77488 4.24622,-12.01004 11.69044,-6.23104 28.19628,-0.55004 14.0343,-15.68971 -3.59389,-5.08408 -12.20141,-2.11883 -17.69055,-3.62279 z m 13,7.3125 c -9.39689,2.67683 -3.49763,10.66323 -19.84375,6.5625 -21.25511,-1.34471 19.32862,9.32189 1.90625,4.3125 -6.15292,-1.35269 -32.03078,-1.37913 -20.42751,-1.12545 8.62058,-0.13686 10.36529,-7.97465 24.38485,-4.07202 4.39914,-0.0143 7.66462,-5.82289 13.98016,-5.67753 z"
                           style="color:#000000;fill:#1a1a1a;fill-opacity:1;fill-rule:evenodd;stroke:#000000;stroke-width:0.125;stroke-linecap:butt;stroke-linejoin:miter;stroke-miterlimit:4;stroke-opacity:1;stroke-dasharray:none;stroke-dashoffset:0;marker:none;visibility:visible;display:inline;overflow:visible;enable-background:accumulate"
                           id="path3277"
                           inkscape:connector-curvature="0" />
                        <path
                           d="m 171.42857,341.64789 c 13.52092,-7.48893 28.66554,-4.5652 43.21428,-2.85715 18.96144,-11.40107 -13.54754,-3.42847 7.5,-10.35712 14.55745,-4.95126 16.49144,-9.93839 0.0569,-4.82244 -14.79509,4.11787 13.25661,-4.78419 17.50037,-9.23006 -4.90221,-0.93531 -29.65722,-2.64094 -24.37118,-3.29815 10.20927,-3.70427 21.49308,-7.17677 30.47343,0.78755 7.9369,11.36545 22.38428,-4.83391 24.55477,1.92022 13.73301,-1.73596 8.663,-4.4599 17.56564,1.6019 20.57332,5.43071 -11.43105,-3.90059 -9.6252,9.15235 0.49776,9.46259 -19.25206,-5.01546 -23.32864,8.17431 -0.95288,12.30878 -9.55644,12.58878 -20.53689,15.69848 -10.25749,-0.14284 -22.34338,-6.19464 -30.61022,4.71757 -18.1345,12.46738 4.0823,0.082 -7.03613,-4.34461 -14.36157,15.26704 -0.40308,-5.59759 -16.22294,7.34276 11.68624,-12.58923 -14.31328,-3.10299 -9.04791,-6.23943 1.78902,-5.59617 30.79742,-8.964 13.7932,-9.47088 -4.61602,0.54922 -9.23063,1.06108 -13.87949,1.2247 z"
                           style="color:#000000;fill:#1a1a1a;fill-opacity:1;fill-rule:evenodd;stroke:#000000;stroke-width:0.125;stroke-linecap:butt;stroke-linejoin:miter;stroke-miterlimit:4;stroke-opacity:1;stroke-dasharray:none;stroke-dashoffset:0;marker:none;visibility:visible;display:inline;overflow:visible;enable-background:accumulate"
                           id="path3264"
                           inkscape:connector-curvature="0" />
                      </g>
                      <path
                         d="m 317.85715,93.433609 c 3.02552,-13.36722 -14.78856,-14.6848 -1.92263,-16.692708 -8.70795,-10.075674 14.57034,-6.02619 8.06111,-8.751394 10.02395,-6.649557 12.28367,5.321239 24.58251,1.118759 5.93212,-5.69159 31.78239,-10.233446 17.70225,0.09161 -2.62269,14.10134 2.25234,-0.06697 11.25242,-5.328357 -3.83991,-2.149521 -14.41929,-11.31693 0.31402,-6.331378 7.25528,13.473631 15.22185,-25.855638 12.30236,-5.834396 -5.41058,12.070781 13.96724,2.231554 -0.74323,18.355737 12.9196,-3.225629 27.36245,-6.556714 40.95119,-9.48502 -17.31553,12.256346 -5.46528,6.219661 3.94197,12.327512 8.54227,18.453367 -4.51844,-9.815754 -14.33567,0.85151 -15.0711,12.047795 9.42207,4.393327 12.46403,7.591622 5.3737,8.181971 20.41581,6.299977 29.77354,5.568933 10.52679,-10.939727 13.98144,7.517964 25.76354,-2.656197 -11.40567,4.212193 -7.31682,20.187318 3.36093,23.067978 -12.85075,-2.69545 -1.82162,6.15473 -17.69891,1.53444 -19.42917,-8.68499 -1.33596,2.57546 7.58699,5.91393 -5.08261,-1.11089 -29.55669,-7.98153 -22.9112,0.30861 5.05732,5.34712 30.5826,4.42418 24.43751,6.00919 -1.81821,3.41582 -12.77293,4.72291 -23.87836,1.35515 -15.54951,-1.89774 13.87809,2.5501 17.031,8.98587 6.28775,6.40823 -17.111,7.51143 -23.91382,9.21735 -13.45417,-2.08771 -21.81144,8.80374 -31.62155,15.99554 -16.42456,2.08519 -8.32148,-18.91433 -11.61139,-21.85971 -5.92426,13.49469 -18.25921,4.23678 -28.98055,4.32042 -0.0512,-0.5791 22.8618,0.23234 -0.003,-2.49268 -17.5256,-2.38565 -12.84451,-0.21074 0.01,6.48931 11.63147,5.8091 -17.42176,9.06976 -21.18383,1.52906 -11.90764,-8.29727 -20.20256,-13.04032 -7.73382,2.64413 3.69393,14.48687 18.99134,5.48085 28.96011,8.86202 20.51763,7.10149 -3.32712,7.74629 -7.69821,14.46661 7.46756,14.96095 -3.86449,15.2283 -15.4081,17.82219 -10.47524,7.82836 -20.79368,15.50334 -7.42213,0.004 -8.55797,-9.74703 -22.94917,9.36762 -6.78571,-6.07143 2.68875,-24.64087 -17.31911,22.89462 -11.11402,-1.92148 0.66381,-11.44481 -10.32291,12.71433 -16.20641,15.33163 -22.16757,12.1041 12.04316,-6.54612 -0.79982,-9.90851 -9.51279,12.66855 -0.85422,-20.27243 -9.41284,-1.05818 -1.09662,11.22701 -3.3457,-23.32082 -5.32405,-2.13096 2.55117,2.49227 -15.3923,-10.24748 -12.91726,8.9935 -6.29777,4.63549 3.22432,-6.27762 -4.62433,-1.73943 9.60486,-18.36736 -7.99803,-0.37228 -7.93061,-9.91423 -17.84093,6.60531 -6.18018,0.26737 -7.59,-4.64968 -17.62558,-1.06515 -4.21918,19.47493 -11.46789,13.45599 -1.0609,14.95503 1.40853,-1.98198 -9.56031,-0.7053 6.28316,12.81102 -12.60147,9.28536 -4.98447,-0.64483 14.81956,-4.91985 -0.0373,-11.62285 -3.37168,-2.6846 -3.78602,-3.25421 -19.8816,-2.90223 -8.62488,8.64751 -11.05763,-6.17038 -20.14984,-3.45308 -6.42835,-14.74044 7.87936,-11.77476 -14.81556,1.92573 -18.92879,6.52614 16.07798,-14.64312 4.98779,-3.77767 -6.11754,2.0147 -21.54167,5.40299 12.27349,-9.74753 -9.59675,-1.3004 13.06988,-7.53444 -4.50089,-2.16791 3.15751,-6.90086 -0.16451,-0.61799 2.66826,-11.90165 18.6282,-4.52771 13.20851,5.75045 20.67161,-14.88524 6.25054,-14.82737 -10.37357,-0.0807 15.39536,-8.70837 17.67103,-16.41598 11.23057,-7.2733 11.55126,-18.56161 -2.89432,-19.94123 -20.82338,3.03617 18.68296,-3.81192 2.13964,-11.78002 12.74958,-7.97023 -19.77275,-21.78638 -2.7609,-14.239457 4.94049,-14.612874 3.8076,15.535447 14.00047,13.632627 13.47703,-0.63058 25.91829,-7.67729 38.80783,-11.428579 15.82398,-13.141783 -22.27931,-15.209123 -0.42836,-14.470595 8.20569,2.73178 7.42076,21.360384 21.14265,19.470604 5.87358,-2.79373 12.21738,-4.30728 14.64286,-11.071435 z"
                         style="color:#000000;fill:#1a1a1a;fill-opacity:1;fill-rule:evenodd;stroke:#000000;stroke-width:0.125;stroke-linecap:butt;stroke-linejoin:miter;stroke-miterlimit:4;stroke-opacity:1;stroke-dasharray:none;stroke-dashoffset:0;marker:none;visibility:visible;display:inline;overflow:visible;enable-background:accumulate"
                         id="path3375"
                         inkscape:connector-curvature="0" />
                    </g>
                  </g>
                  <path
                     d="m 274.28571,406.29074 c 17.39079,4.25296 18.80024,-38.43753 23.95791,-13.45366 9.12872,7.701 22.63351,-6.39665 14.93629,6.18032 12.98942,1.45808 19.67136,0.10079 2.53438,4.41622 17.49771,6.23765 6.0862,2.54944 0.9482,3.6597 13.446,5.58003 18.65265,12.91484 1.56465,3.69973 2.19767,7.26733 -4.6712,16.43604 -12.68027,0.71893 -4.51152,-10.95001 -20.7691,-2.63602 -30.38098,-5.22124 l -0.88018,0 z"
                     style="color:#000000;fill:#1a1a1a;fill-opacity:1;fill-rule:evenodd;stroke:#000000;stroke-width:0.125;stroke-linecap:butt;stroke-linejoin:miter;stroke-miterlimit:4;stroke-opacity:1;stroke-dasharray:none;stroke-dashoffset:0;marker:none;visibility:visible;display:inline;overflow:visible;enable-background:accumulate"
                     id="path3395"
                     inkscape:connector-curvature="0" />
                </g>
              </g>
              <path
                 d="m 285.3681,440.20975 c 10.54326,3.59879 19.6159,9.17433 25.75888,18.6878 7.12399,-0.53493 27.01161,14.11866 20.16145,12.59917 -6.12204,-3.93364 -10.25392,5.01471 -16.62592,-8.05348 3.8661,12.67017 4.55547,8.89244 -5.80909,15.56331 3.8431,1.85622 -6.40983,-29.56477 -5.36602,-13.57822 7.17936,16.33897 -2.34844,15.12667 -4.76596,1.06738 6.70409,-22.02284 -19.51395,11.78674 -8.75704,-5.46692 11.74153,-16.25292 -19.43946,-4.87152 -5.70383,-18.80535 l 0.88966,-1.61757 0.21787,-0.39612 z"
                 style="color:#000000;fill:#1a1a1a;fill-opacity:1;fill-rule:evenodd;stroke:#000000;stroke-width:0.125;stroke-linecap:butt;stroke-linejoin:miter;stroke-miterlimit:4;stroke-opacity:1;stroke-dasharray:none;stroke-dashoffset:0;marker:none;visibility:visible;display:inline;overflow:visible;enable-background:accumulate"
                 id="path3423"
                 inkscape:connector-curvature="0" />
              <path
                 d="m 372.49374,424.29984 c -3.56538,-12.08523 14.20286,-14.70691 22.9634,-15.90992 4.72315,-1.64716 -19.89879,-10.17106 1.4356,-12.07321 1.93777,-4.1577 13.05475,14.07142 20.73492,17.65466 15.27681,7.13332 17.51858,9.34161 -0.81875,6.55141 -10.92278,1.90454 -21.41039,17.10609 -4.90729,13.93557 16.53258,-9.73337 -3.75812,17.04206 16.22876,11.54198 28.08023,-1.67611 -9.41754,2.37408 -4.59152,3.70991 23.30951,3.28211 -15.45906,1.86129 2.24044,10.70254 -28.31923,-14.11581 15.74199,21.52722 -11.61676,4.04062 12.36037,15.19043 -10.70814,3.5618 -14.08828,-3.9778 -16.04765,-15.65463 5.47277,9.7407 3.8107,11.82416 -9.49182,-0.69593 0.31891,1.8432 -8.99182,-12.97398 -11.7674,-12.6283 24.18895,-19.58693 -6.90279,-17.32969 -14.57693,2.89697 8.57702,-16.04434 -12.3369,-3.45699 1.1666,-6.28992 13.91134,-12.50034 -3.15971,-14.23926 z"
                 style="color:#000000;fill:#1a1a1a;fill-opacity:1;fill-rule:evenodd;stroke:#000000;stroke-width:0.125;stroke-linecap:butt;stroke-linejoin:miter;stroke-miterlimit:4;stroke-opacity:1;stroke-dasharray:none;stroke-dashoffset:0;marker:none;visibility:visible;display:inline;overflow:visible;enable-background:accumulate"
                 id="path3425"
                 inkscape:connector-curvature="0" />
            </g>
          </g>
        </g>
        <path
           d="m 460.12448,277.57516 c 15.04926,3.47026 30.11622,6.83229 42.93327,15.6784 14.88363,1.50462 -11.38433,11.02173 10.99655,12.45932 12.61022,0.52151 21.03261,12.29886 31.42806,18.32933 -6.87422,-9.69814 -31.01839,-31.21715 -2.62796,-16.85693 14.91763,7.62683 37.94504,20.18528 10.04629,3.28299 -29.21734,-11.01589 -2.47111,-10.41471 11.74096,-12.46193 9.93114,-4.17989 21.0072,15.34413 24.91727,13.80381 -12.09644,-17.13374 11.35349,4.85091 16.81671,6.73934 6.41447,-1.17834 -14.90287,-21.64338 -25.65097,-26.64222 -11.74958,-6.6839 -27.22566,-2.0629 -40.47968,-4.80234 -13.39886,-1.17199 -23.64808,-12.72032 -37.53294,-13.72193 -12.18573,-8.75931 -19.66448,3.21257 -30.10116,5.36279 -4.16213,-0.39021 -8.32427,-0.78042 -12.4864,-1.17063 z"
           style="color:#000000;fill:#1a1a1a;fill-opacity:1;fill-rule:evenodd;stroke:#000000;stroke-width:0.125;stroke-linecap:butt;stroke-linejoin:miter;stroke-miterlimit:4;stroke-opacity:1;stroke-dasharray:none;stroke-dashoffset:0;marker:none;visibility:visible;display:inline;overflow:visible;enable-background:accumulate"
           id="path3493"
           inkscape:connector-curvature="0" />
      </g>
      <g
         transform="matrix(1.2580453,-0.07995843,0.07995843,1.2580453,-137.90861,157.34541)"
         style="fill:#000000"
         id="g3529">
        <g
           style="fill:#000000"
           id="g3523">
          <path
             d="m 373.92856,509.86218 c 19.7584,1.70415 52.8319,3.22395 17.93786,3.21288 20.13318,-0.48535 40.82438,0.40484 60.63358,5.71571 38.14182,-3.59354 -34.57848,7.1056 0,6.07141 -18.98468,1.15322 -37.98869,2.82674 -56.78571,-1.07141 19.32767,7.26622 -7.06177,4.40659 -14.04626,0.49402 -15.40426,-7.59251 -46.27403,5.46582 -39.63726,-3.90104 -12.10549,0.54044 -24.21098,1.08088 -36.31648,1.62132 5.20232,-1.87225 33.94875,-7.83528 21.63286,-6.66375 -14.35183,1.41801 -25.09246,2.32244 -4.66592,-1.20574 17.5044,-4.39834 35.1058,-6.99866 53.03306,-3.5591 l -1.71173,-0.6847 -0.074,-0.0296 z"
             style="color:#000000;fill:#000000;fill-opacity:1;fill-rule:evenodd;stroke:#000000;stroke-width:0.125;stroke-linecap:butt;stroke-linejoin:miter;stroke-miterlimit:4;stroke-opacity:1;stroke-dasharray:none;stroke-dashoffset:0;marker:none;visibility:visible;display:inline;overflow:visible;enable-background:accumulate"
             id="path3521"
             inkscape:connector-curvature="0" />
          <path
             d="m 253.21429,503.43362 c 31.79419,-3.06188 63.2516,3.01947 95,3.92856 -15.2973,2.06364 -30.60962,3.93819 -46.07144,3.92856 17.56354,-4.36058 -26.12679,-3.14448 -38.12615,-2.56044 3.735,0.23121 19.05633,-3.41603 -2.54348,-3.46633 1.65092,-3.02217 -19.41206,2.76714 -8.25893,-1.83035 z"
             style="color:#000000;fill:#000000;fill-opacity:1;fill-rule:evenodd;stroke:#000000;stroke-width:0.125;stroke-linecap:butt;stroke-linejoin:miter;stroke-miterlimit:4;stroke-opacity:1;stroke-dasharray:none;stroke-dashoffset:0;marker:none;visibility:visible;display:inline;overflow:visible;enable-background:accumulate"
             id="path3519"
             inkscape:connector-curvature="0" />
        </g>
        <path
           d="m 456.08386,528.09302 c 15.02622,1.09578 61.43396,9.8998 25.89986,-0.13174 5.82774,-1.26621 21.91433,-1.15208 31.67888,-1.88859 18.16472,3.16317 70.24261,4.89119 69.24126,8.56037 -6.24465,0.93498 -35.16466,2.18726 -23.81902,2.8761 12.11228,1.15925 24.26309,0.30989 36.40008,0.18029 -13.79987,7.86609 -60.05079,-1.42876 -38.19483,6.79465 -35.0109,6.38233 -69.82883,-8.00538 -105.05743,-5.20049 -8.45715,-0.50353 -37.15256,-5.17346 -14.39476,-4.65848 12.96777,-0.85132 25.96904,-0.32885 38.95409,-0.4712 -6.90271,-2.0203 -13.80542,-4.04061 -20.70813,-6.06091 z"
           style="color:#000000;fill:#000000;fill-opacity:1;fill-rule:evenodd;stroke:#000000;stroke-width:0.125;stroke-linecap:butt;stroke-linejoin:miter;stroke-miterlimit:4;stroke-opacity:1;stroke-dasharray:none;stroke-dashoffset:0;marker:none;visibility:visible;display:inline;overflow:visible;enable-background:accumulate"
           id="path3527"
           inkscape:connector-curvature="0" />
      </g>
      <path
         d="m 373.93479,295.84917 c -4.00843,17.24235 -12.01474,43.30661 -34.15639,32.64355 -8.59794,3.02237 7.98773,38.00188 2.46552,40.9504 -10.09608,-20.34533 -26.57869,-34.28075 -46.22901,-45.03683 -1.94496,19.39079 54.54366,41.23185 46.94189,76.36477 0.52995,51.01625 3.91668,101.88974 5.91248,152.80976 -26.9472,-29.18451 -36.5443,-69.91818 -44.51183,-107.85248 12.05749,0.73081 48.60389,13.4581 22.34379,-4.93319 -29.70717,-12.74512 -48.27393,-58.60018 -37.07988,-85.06094 23.31686,1.65924 40.8174,-8.85256 6.80184,-9.99914 -43.19264,24.32828 3.58242,-25.8121 -8.54745,-25.76915 -17.60238,27.96274 -18.36236,-1.8315 -35.60679,-10.88024 -31.01011,-7.02859 -10.0132,6.93408 7.41863,15.0035 14.3706,27.63345 -7.03394,-11.52683 -21.2087,-6.96057 -27.46305,-0.005 -35.44703,5.90531 -3.54308,6.25503 29.97973,5.31872 6.26081,13.80982 -10.36019,1.78175 -28.52163,-4.44867 -57.79926,-4.59385 -86.60344,-3.14821 30.17662,8.20934 62.6606,0.59171 92.07368,9.48889 14.16532,13.40155 43.23281,14.76558 47.59908,35.51412 -16.85511,-15.84244 -73.83874,-43.50604 -79.76384,-33.25738 51.27031,9.17292 93.19349,44.11975 97.64539,98.47453 -23.02838,-13.35882 -49.1135,-21.72488 -76.13137,-18.4502 -23.48005,-14.60454 -52.6922,-4.51521 -78.73753,-11.52411 -16.78626,-0.60329 27.5567,9.77407 38.05015,7.7737 20.08624,1.16804 37.36416,14.31133 58.37931,11.51488 30.53765,-3.37277 20.12092,13.84415 -3.23782,12.91979 -37.58345,2.79393 -76.08152,-2.82459 -113.02096,4.7247 43.89119,-4.26683 89.16294,4.79223 132.17806,-4.74947 21.01227,-11.23237 29.17027,-1.03124 24.93866,17.49557 4.1716,-20.41293 18.00112,-4.71217 18.95927,16.87772 -26.86165,-10.10054 -55.3703,1.53998 -82.9487,-5.22771 -29.08907,0.80843 -56.73568,12.75829 -80.1008,29.64305 32.0311,-6.46966 61.85652,-21.83664 95.37505,-19.94297 21.71558,-1.90233 -34.00521,25.73271 5.1934,6.16455 21.18467,-14.33044 48.50967,-4.10213 64.81119,12.11327 14.47077,17.68138 10.35782,44.15996 28.75335,60.14057 9.63956,20.32563 15.08559,41.51556 16.18972,64.06159 -17.96248,-4.60104 -23.86043,-27.96815 -37.11208,-39.0408 -6.96449,-20.04498 -19.5707,-46.48071 -44.95587,-41.6546 -21.0398,1.32575 -44.31908,-0.89662 -64.04038,4.48485 -13.39634,12.6085 29.38521,-4.37087 41.01094,-0.18138 2.12087,7.80922 7.67742,4.47448 30.98595,0.8196 22.19498,1.20608 18.24811,32.16489 32.89202,44.364 11.13783,17.29674 -41.81929,-9.16025 -3.12629,11.05367 13.64049,16.0524 31.10773,29.4982 39.83276,49.13813 -19.11326,-25.10073 -52.11603,-35.06677 -76.24859,-55.06056 -20.42457,-18.93189 -31.35699,-3.15015 -6.69021,10.24106 26.8632,16.85152 57.82192,30.07664 78.43266,54.65829 -20.28726,-14.08804 -26.08105,8.82119 -44.99418,-2.83105 -29.43248,-7.12809 -29.03904,-0.32997 -0.23491,5.83228 16.76494,11.7855 28.34726,-8.57982 43.20543,5.39479 19.47196,23.35619 -6.39004,-0.31034 -20.20769,-1.69368 -26.01304,-5.85752 -74.94732,25.92567 -66.92294,35.72619 27.91301,-54.33742 105.42618,-21.21289 93.24249,26.8626 -4.08128,19.78194 -4.81324,44.50089 -1.66453,54.34415 13.1614,-7.35466 80.48744,9.61698 40.58589,-9.60852 17.23936,-34.96776 20.67546,-94.68762 71.73753,-88.18113 29.01442,6.31318 28.90102,-8.83606 0.77022,-6.44512 -36.36578,0.29953 2.06453,-5.85345 5.09416,-26.88738 6.57268,-15.45353 3.56694,-43.87064 27.57135,-37.57454 10.22662,11.44924 52.52588,9.39575 20.67469,2.842 -31.47493,-4.38557 -15.63648,-21.58101 5.69497,-6.31 -2.05714,-7.90382 -27.46771,-18.71656 -38.4389,-4.13371 -17.85815,-27.86629 -21.53625,22.96211 -24.59806,37.44664 -9.48832,21.28577 -64.43905,65.96442 -36.50036,22.22328 16.73048,-31.48353 23.34947,-66.75393 35.19423,-100.14094 16.67318,4.67835 -4.47961,-14.95936 24.62903,-24.05649 7.51538,-11.75903 50.17911,-2.5223 32.29059,-18.79704 -21.95205,1.89124 -43.12674,5.71621 -59.33228,21.90242 -23.93154,25.92667 -18.42212,65.72403 -37.63729,94.92748 -11.00533,18.92535 -15.76191,43.03374 -31.67607,57.96741 -14.84526,-36.65077 12.01382,-72.79619 22.25084,-108.23118 11.19665,-27.59045 13.69184,-61.0929 33.06399,-83.88719 15.94352,-10.19708 22.93286,-21.31266 44.33081,-20.88027 17.82136,-2.40911 -40.30057,6.30302 -16.03519,-18.26386 -13.50537,5.01455 -37.91336,33.28343 -23.75858,2.16389 20.60345,-19.33732 -5.44238,-39.07686 -12.57957,-13.23161 -9.19465,43.23656 -25.03952,84.88026 -41.62796,125.72506 -12.37536,15.71827 -6.23212,38.15982 -18.40978,54.99156 9.47444,-14.89421 9.42234,-59.86823 6.595,-86.41379 -5.65322,-65.48904 9.06097,-129.96722 10.54572,-195.23574 21.10623,-5.60451 12.58728,-30.48325 37.39889,-34.61809 5.09495,-31.87215 -26.93027,17.22381 -23.42206,0.46834 14.23033,-20.42714 1.97829,-25.01315 -18.05907,-20.14212 z m 24.32287,390.14199 c -25.41823,-1.63059 -14.85896,28.25173 -17.70292,43.33272 -0.97991,12.72738 -34.22881,40.44144 -12.3028,16.63799 11.09989,-8.80349 9.82308,-25.78324 11.65972,-39.11222 0.0751,-14.13477 1.93682,-21.70525 18.346,-20.85849 z"
         style="color:#000000;fill:#552200;fill-opacity:1;fill-rule:evenodd;stroke:#000000;stroke-width:0.15757297;stroke-linecap:butt;stroke-linejoin:miter;stroke-miterlimit:4;stroke-opacity:1;stroke-dasharray:none;stroke-dashoffset:0;marker:none;visibility:visible;display:inline;overflow:visible;enable-background:accumulate"
         id="path2238"
         inkscape:connector-curvature="0" />
      <g
         transform="matrix(1.2580453,-0.07995843,0.07995843,1.2580453,-137.90861,157.34541)"
         style="fill:#008000"
         id="g3334">
        <path
           d="m 440.17398,121.25407 c 7.41927,-8.87227 26.74239,11.22927 19.74883,8.58161 -6.43562,-4.76233 -12.62142,-6.64261 -19.74883,-8.58161 z"
           style="color:#000000;fill:#008000;fill-opacity:1;fill-rule:evenodd;stroke:#000000;stroke-width:0.125;stroke-linecap:butt;stroke-linejoin:miter;stroke-miterlimit:4;stroke-opacity:1;stroke-dasharray:none;stroke-dashoffset:0;marker:none;visibility:visible;display:inline;overflow:visible;enable-background:accumulate"
           id="path3248"
           inkscape:connector-curvature="0" />
        <g
           style="fill:#008000"
           id="g3313">
          <path
             d="m 457.59909,158.12463 c 17.23895,-7.42497 7.17801,7.99939 1.43748,15.13305 1.99959,1.80406 13.1133,-14.45825 19.59853,-16.64827 -0.88222,16.55772 -0.14523,6.90925 10.78381,2.0203 7.19384,5.78335 17.15621,26.00737 8.69008,6.58587 -9.11999,-15.96931 -0.36536,-1.90465 9.95601,2.49343 12.6627,3.36322 35.15245,10.89078 36.69581,14.00989 9.77766,-7.99371 17.1291,7.53427 26.73296,9.23571 -15.46472,-9.61197 11.84136,-4.07653 18.95108,-8.2536 7.09241,-2.08655 28.88466,-17.32339 11.81052,-8.85574 -21.83493,3.00103 -46.37572,9.10039 -66.11688,-4.10388 20.74176,-1.62486 -5.84946,-5.52966 -15.21755,-5.99903 -13.01835,-4.65853 -18.31865,-12.25487 -1.94328,-15.96868 24.75192,-8.36057 -27.69383,1.03859 -20.89128,-3.11473 16.85281,-8.94442 -5.91958,-4.5612 -14.39027,-4.62651 2.89411,-7.43414 -13.85951,-5.14294 -22.0628,-0.21047 -9.49404,4.77488 -20.62598,-1.49408 -28.92333,6.87806 -18.43653,4.25988 11.96924,10.45952 12.79761,12.6056 -17.88491,-5.73916 12.47987,-13.1142 12.0915,-1.181 z"
             style="color:#000000;fill:#008000;fill-opacity:1;fill-rule:evenodd;stroke:#000000;stroke-width:0.125;stroke-linecap:butt;stroke-linejoin:miter;stroke-miterlimit:4;stroke-opacity:1;stroke-dasharray:none;stroke-dashoffset:0;marker:none;visibility:visible;display:inline;overflow:visible;enable-background:accumulate"
             id="path3254"
             inkscape:connector-curvature="0" />
          <g
             style="fill:#008000"
             id="g3282">
            <path
               d="m 188.39345,427.83536 c 4.13176,-22.10525 22.90226,-5.1628 33.6792,-16.1499 1.89282,0.31865 -13.53722,2.43424 -18.02184,-2.03284 -14.34921,4.12109 12.98635,-13.15511 -6.31344,-5.80838 9.7906,-8.30887 21.93749,-4.23936 30.55711,3.53555 20.11364,3.89037 3.99038,-10.742 18.51373,-5.64902 9.22508,7.89554 18.61144,-0.42025 29.0043,0.4357 12.72727,2.1211 27.02292,1.93179 37.83986,9.75901 -14.43172,8.33306 -6.98677,7.85801 -19.3155,4.45796 -15.77258,-8.49891 -21.61875,9.46507 -36.94371,3.2539 -8.1921,-5.20367 -23.6464,-0.63349 -30.98872,4.63164 -6.18601,4.37032 -9.32416,33.39704 -13.95747,16.98871 -5.00319,-7.73262 -16.62432,-8.58968 -24.05352,-13.42233 z"
               style="color:#000000;fill:#008000;fill-opacity:1;fill-rule:evenodd;stroke:#000000;stroke-width:0.125;stroke-linecap:butt;stroke-linejoin:miter;stroke-miterlimit:4;stroke-opacity:1;stroke-dasharray:none;stroke-dashoffset:0;marker:none;visibility:visible;display:inline;overflow:visible;enable-background:accumulate"
               id="path3219"
               inkscape:connector-curvature="0" />
            <path
               d="m 232.33508,462.43311 c 8.05356,-7.67829 11.40468,-23.37801 24.78649,-21.96734 11.08712,2.61159 20.408,-3.86336 29.69292,-1.89794 21.74848,2.98098 -14.75477,11.83825 3.88352,15.49165 3.41427,2.23553 -18.25473,2.6357 -21.49235,12.41424 17.77131,-4.6005 8.1495,12.56756 -2.99173,6.19816 1.09895,-6.20365 -8.22776,-10.15068 -17.18097,-5.90137 3.07962,-12.95243 -2.14879,-1.05142 -13.8181,-4.3374 l -1.84311,0 -1.03667,0 z"
               style="color:#000000;fill:#008000;fill-opacity:1;fill-rule:evenodd;stroke:#000000;stroke-width:0.125;stroke-linecap:butt;stroke-linejoin:miter;stroke-miterlimit:4;stroke-opacity:1;stroke-dasharray:none;stroke-dashoffset:0;marker:none;visibility:visible;display:inline;overflow:visible;enable-background:accumulate"
               id="path3217"
               inkscape:connector-curvature="0" />
            <path
               d="m 308.09653,388.69196 c -9.04812,17.3485 -13.57703,-8.69404 -20.68042,1.84731 -13.06114,12.86012 -10.32683,8.22531 -1.79547,-4.62524 -4.99106,1.95036 -27.56251,18.1471 -20.101,8.07053 3.39747,-11.62272 20.34396,-10.31603 21.86876,-22.46518 -7.49427,-5.67722 -19.0864,14.05054 -21.75976,12.00404 13.89073,-11.88017 7.57181,-13.97603 -5.51435,-4.68046 -11.61197,-1.61444 -21.76736,3.34959 -32.87625,3.98202 3.89976,-7.16579 3.55049,-6.14976 -10.30777,-7.01248 10.15779,-5.53394 21.15254,-2.17693 31.08879,-6.27357 7.39738,-8.09428 22.0983,0.77818 26.95894,-11.9238 5.47138,-11.22107 18.38865,-0.35726 27.44433,0.31307 9.96052,2.56759 23.12775,-0.12811 26.15629,13.00622 1.29492,17.72469 -2.00756,9.65419 -8.86533,-0.4252 -7.87154,-7.40695 -19.64267,2.8027 -14.76645,11.88336 1.04989,2.09979 2.09979,4.19958 3.14969,6.29938 z"
               style="color:#000000;fill:#008000;fill-opacity:1;fill-rule:evenodd;stroke:#000000;stroke-width:0.125;stroke-linecap:butt;stroke-linejoin:miter;stroke-miterlimit:4;stroke-opacity:1;stroke-dasharray:none;stroke-dashoffset:0;marker:none;visibility:visible;display:inline;overflow:visible;enable-background:accumulate"
               id="path3221"
               inkscape:connector-curvature="0" />
            <path
               d="m 402.54578,489.20215 c 10.66776,-14.67211 29.18447,-18.11582 42.42642,-29.29444 -10.19032,1.45806 -31.28469,-0.18172 -10.63537,-3.18836 15.9123,-1.38304 31.57316,-0.98627 46.6289,4.93659 11.01509,2.72858 28.735,10.14089 9.63433,-0.50494 -16.3053,-6.46182 -33.69231,-8.46464 -51.18371,-7.3042 8.71335,-6.56898 10.22007,-22.85974 23.93144,-15.97504 17.22203,5.45038 31.37184,17.39241 49.1249,21.03594 7.28956,4.77813 25.84858,-2.26145 26.17081,4.47749 -14.08065,3.4251 -24.1307,5.96327 -3.93045,1.8448 6.92446,0.94453 25.4333,-14.62675 18.21733,-15.01673 -13.69009,0.2355 -23.05872,-2.55726 -6.0562,-10.49262 4.86639,-3.22982 -24.69272,15.69279 -13.08996,0.21201 0.58581,-8.21766 26.64985,-18.41836 14.51311,-15.71536 -8.48123,3.23516 -30.39457,7.31967 -11.59491,-1.44508 10.76144,-3.52866 27.7405,-3.92991 10.20027,-13.80753 -7.68774,-10.61593 -17.99895,-10.80326 -28.15489,-3.34378 -0.7842,7.65275 25.86788,16.96835 8.16798,15.89218 -8.90357,-2.36393 -26.31601,6.76374 -16.41446,-6.93145 4.47454,-2.73253 -14.0279,9.76515 -20.86919,4.32438 -15.46731,11.14991 -9.0269,-4.34259 1.10035,-10.43498 10.43198,-11.33108 27.46992,-5.77222 39.33875,-14.86705 17.5751,-4.32385 11.84035,-4.39124 -3.34213,-2.55673 -12.77996,3.36312 -24.32947,10.41298 -37.81528,11.28176 15.33462,-10.69566 0.93816,-13.35431 -9.98259,-7.64781 -6.87682,-5.51644 25.037,-11.79456 8.46736,-14.07045 21.99513,-2.9814 -9.371,-10.87704 9.87114,-11.62308 17.83465,2.09338 35.45885,13.41413 54.27354,9.09769 -14.41585,12.29345 -8.07009,10.4048 5.16445,3.17825 12.26145,-6.60644 29.92631,-8.53004 41.30259,0.86237 -15.55267,-4.60013 -2.76385,8.52028 -13.34394,3.32357 17.05854,13.98947 -22.70583,-10.60799 -5.21584,2.38193 12.24044,8.3144 -7.55539,4.56532 -4.80189,9.34878 -12.6893,3.0664 13.31876,8.87178 18.52517,10.06743 20.88663,-5.37132 -16.98052,0.33587 -6.83284,-11.37949 5.28783,-9.0433 16.63732,9.66979 26.7686,3.93545 16.32631,4.75926 6.73626,8.45726 0.65406,7.46107 5.9396,3.42378 30.07975,16.56441 11.22775,9.7704 -20.05089,-6.18422 6.7233,3.61087 7.73947,12.78351 -0.70229,2.35104 -24.19127,-16.7553 -7.07861,-0.11397 15.61076,15.40999 -2.64603,0.95015 -10.38282,-4.23146 1.71276,3.43612 21.91699,26.6948 7.4427,11.85366 -6.67444,-9.80341 -17.32603,-12.04452 -27.73226,-15.80495 9.982,6.39197 20.5219,12.04486 28.78937,20.70813 -21.14626,-7.8069 2.95177,11.82563 -15.0647,-0.59509 -10.50216,-4.05457 -17.14662,-17.2781 -29.38202,-15.06226 4.42739,3.51612 30.4112,19.21345 15.03351,11.53801 -10.01546,-9.34558 -25.98576,-3.95675 -8.18118,3.91952 19.98782,11.46278 -21.66494,-8.9191 -4.66968,3.8977 4.85384,5.52312 24.77305,21.18546 6.27941,17.51532 -7.17409,-1.91354 -13.32715,-25.85063 -14.52297,-6.56598 -19.22252,2.50739 5.06871,10.6383 11.51609,14.98015 20.04542,7.22195 -1.02673,7.89053 -4.51103,11.41237 10.22732,3.80712 -9.02575,16.24649 -16.09643,13.50851 -15.95469,-12.7927 2.74382,8.89172 12.36139,3.47844 8.69665,-7.49042 14.48938,13.06637 27.12183,8.81518 20.03248,3.58609 0.76647,4.81824 -9.06396,6.10308 -19.5359,1.22669 -39.13391,3.86179 -58.70356,1.80633 6.92671,-12.53623 11.662,-22.23603 -2.51037,-7.46302 -5.96988,7.93957 -28.70541,4.58289 -16.17744,-7.18419 29.97666,12.97532 -11.44456,-20.37184 -9.59647,8.58631 -15.53635,-2.26279 -12.76186,-7.34984 -6.38186,-10.76628 -9.68122,-3.5882 -25.72623,8.15971 -10.79074,-5.39617 20.98071,-4.06718 2.53145,-8.87314 -1.95917,-3.5201 13.12805,-11.77544 -0.31331,-14.38836 -10.95738,-8.73337 -12.0293,-2.35015 -20.74372,17.44379 -22.64903,-1.18195 -14.01631,0.002 -8.50701,-7.30526 4.76196,-10.97926 3.26298,-1.95265 -19.81713,2.56193 -25.7649,7.2421 -9.28006,8.5056 -22.27925,8.082 -33.84011,11.11166 l 1.80731,0.36148 0.71805,0.14362 z"
               style="color:#000000;fill:#008000;fill-opacity:1;fill-rule:evenodd;stroke:#000000;stroke-width:0.125;stroke-linecap:butt;stroke-linejoin:miter;stroke-miterlimit:4;stroke-opacity:1;stroke-dasharray:none;stroke-dashoffset:0;marker:none;visibility:visible;display:inline;overflow:visible;enable-background:accumulate"
               id="path3223"
               inkscape:connector-curvature="0" />
            <path
               d="m 395.9798,262.42288 c 7.63089,6.69562 8.59932,22.09774 21.5181,13.58271 9.47016,-4.33165 21.13678,-0.007 31.18868,-1.74498 12.36962,3.12162 9.10924,20.0737 20.8901,24.59996 7.47216,7.5076 20.61676,-2.94069 29.07678,6.89896 8.99421,10.03928 25.4315,4.74228 9.74717,-4.73925 -5.01508,-6.95792 -31.33303,-8.45097 -18.47665,-16.37404 7.95878,-0.45177 29.69783,7.57168 16.5118,-4.93069 -9.1131,-7.94724 -20.7851,3.64963 -31.56127,-1.16853 -21.03568,-0.96855 5.24534,-2.40658 13.11717,-3.30302 11.36695,-2.94364 22.98902,0.60701 31.2267,8.89717 8.68188,-6.07041 29.14372,-0.85041 12.12183,7.07108 13.26216,6.63557 27.17252,1.50738 40.91119,-0.5051 11.15097,9.86436 24.78664,16.34967 37.88074,23.23352 -14.7896,-13.82277 -4.44073,-8.55488 7.57611,-2.02029 -9.55453,-6.42206 -18.99444,-12.96028 -24.74872,-23.23352 16.73686,-11.16581 7.7678,-8.40341 -5.82551,-3.13547 -10.53072,0.69 -26.70621,-8.8185 -10.30535,-16.59407 -3.63904,-6.89161 -15.0775,-15.13139 -23.80167,-19.31915 -5.0799,-3.93622 -30.88089,3.93899 -21.08512,-4.36123 14.40597,-3.13758 18.80501,-5.47558 1.40979,-6.59011 -10.97413,5.03281 -22.06768,2.31555 -31.61951,-2.80437 -9.8194,1.62644 -14.81061,15.38794 -27.93969,13.12437 -20.90181,0.12768 6.75356,-10.54989 -1.36024,-17.06748 -14.59518,-0.77974 -21.07815,-1.30659 -10.45645,-7.13558 -2.48604,-2.77442 19.96303,0.0248 27.38353,-0.38557 16.43072,10.2057 9.42833,-2.1725 -2.3837,-5.20369 -12.17628,-0.96618 -21.85413,0.48387 -31.34539,-5.80317 -19.88352,-0.0464 1.88359,-11.0427 -16.47014,-9.26822 -12.80274,-2.13159 -15.48629,11.9046 -27.01784,14.84321 -19.52741,-1.43214 -31.30588,15.72154 -45.3504,26.38917 -12.40793,4.48056 -27.139,-4.73352 -40.01814,1.92477 -12.60628,3.22444 -24.63439,8.2118 -36.85991,12.59725 7.00219,0.30727 31.51799,-4.45305 27.0352,-0.82259 -7.69837,4.59506 -31.18214,13.80486 -9.95906,9.94498 22.76336,-2.70499 -2.43011,1.53196 -4.91894,11.69574 4.41423,-2.82428 18.38343,-8.10119 28.2489,-4.65571 -8.3577,19.50505 5.8142,5.247 14.64721,-1.01014 10.97234,-3.19916 28.43768,-8.98918 9.52714,1.68854 -5.99225,10.92983 14.94808,6.3876 18.25204,-4.21393 -10.90539,10.24891 -9.52997,20.10477 5.67267,14.70402 1.93484,-15.15492 23.00205,-6.83562 19.77259,-8.30809 -4.5758,-5.47488 -4.49279,-9.94887 -2.21174,-16.49746 z"
               style="color:#000000;fill:#008000;fill-opacity:1;fill-rule:evenodd;stroke:#000000;stroke-width:0.125;stroke-linecap:butt;stroke-linejoin:miter;stroke-miterlimit:4;stroke-opacity:1;stroke-dasharray:none;stroke-dashoffset:0;marker:none;visibility:visible;display:inline;overflow:visible;enable-background:accumulate"
               id="path3225"
               inkscape:connector-curvature="0" />
            <path
               d="m 145.96704,358.89246 c 17.44184,-8.3408 24.74023,9.13417 41.65828,7.51144 10.43834,0.96268 19.04105,-8.21787 28.04225,-12.56219 -16.84151,5.52643 -17.30576,-1.21882 -1.90467,-6.06296 10.92412,-4.1455 22.01429,1.04647 32.32503,1.16391 15.04531,-7.74862 7.11012,-13.1276 -5.67162,-9.74817 6.09627,-8.68038 18.1322,-12.27712 27.43745,-10.28156 10.69614,-7.19076 15.26517,-1.39157 26.5792,2.70542 15.52963,-3.58807 -11.7275,13.90088 11.3749,12.59111 5.21465,-10.28301 18.34636,-9.26358 24.01451,-19.02145 6.90136,-10.01496 22.30705,-7.28404 27.73089,2.99052 15.36216,7.73094 -10.00191,8.62898 -16.9534,8.42235 -11.58338,-3.2387 -27.87689,5.12843 -7.9334,7.06257 15.91961,0.53078 31.42072,-6.39254 47.27717,-2.7012 14.32577,-0.93407 52.02047,-10.05262 41.34161,12.73079 -21.28848,-11.73916 -13.65504,0.93775 1.4636,2.16896 3.92433,8.3934 -28.27627,-5.93174 -9.67054,8.01773 12.19665,15.40354 -7.61615,0.46077 -12.42203,-5.86665 -7.38459,-12.9627 -22.71056,-6.17793 -32.96074,-0.63585 -17.11614,-0.68704 -36.01675,2.12019 -50.00254,-10.10153 -0.60558,12.5329 -10.83748,-6.8986 -1.51523,10.10153 -16.24732,6.30204 -4.69654,-15.07571 -22.46545,-9.5055 -15.98517,-8.88456 -13.85531,-8.48809 -8.63893,3.28758 -12.35762,0.85401 -14.55411,9.2273 -26.50246,11.0302 -9.53403,7.05336 -21.39968,2.96661 -32.29675,3.26893 16.13325,-8.03659 5.13596,-15.2377 -4.8574,-4.80716 -11.49011,1.24028 -20.55266,9.95986 -31.00301,14.40362 6.91349,-5.55023 27.87259,-19.74659 8.75802,-9.27459 -6.76648,5.99597 -26.64146,7.76595 -25.04423,15.97102 2.93629,8.43215 22.53324,15.06259 4.66945,12.49647 -7.36203,-18.71648 -12.87605,1.78301 -0.97349,7.12608 -3.34444,2.81103 -17.41426,0.57724 -24.78539,6.00591 -13.7792,0.47608 7.73311,-13.97391 -12.97928,-4.50542 -14.39736,4.53477 4.4812,-10.91158 10.45389,-12.16209 -7.36931,-3.43488 -29.0053,12.07481 -23.23351,1.01013 10.53397,-5.67848 22.17806,-7.52651 33.33502,-11.11166 -10.54074,-0.89635 -21.56313,-2.70685 -29.6223,4.54568 -10.02385,0.90054 13.10627,-11.0049 6.97825,-10.79767 10.46701,-5.73688 21.70694,5.74568 31.23036,-1.32415 -14.74289,-5.40333 -5.76388,-6.05393 -19.69797,-8.08124 -12.78855,1.82198 -17.41169,0.95802 -3.76249,-5.91649 l 0.22695,-0.14442 z"
               style="color:#000000;fill:#008000;fill-opacity:1;fill-rule:evenodd;stroke:#000000;stroke-width:0.125;stroke-linecap:butt;stroke-linejoin:miter;stroke-miterlimit:4;stroke-opacity:1;stroke-dasharray:none;stroke-dashoffset:0;marker:none;visibility:visible;display:inline;overflow:visible;enable-background:accumulate"
               id="path3227"
               inkscape:connector-curvature="0" />
            <path
               d="m 130.30968,311.41528 c 5.28535,-10.59925 19.57721,-26.43772 -3.03046,-17.17258 11.15123,-3.8325 21.1289,-9.22235 27.27412,-19.69799 11.3111,-16.39074 3.09552,15.48393 11.42683,0.0877 1.95878,-12.14656 18.16304,1.55723 26.16573,-1.72769 15.52126,-5.53172 32.6245,-15.0092 48.77549,-5.93614 -13.88428,1.46946 -26.02809,7.89972 -38.76845,12.52355 -6.66512,9.73175 -15.43755,8.08849 -17.7511,3.48544 -4.63533,22.10768 -16.16225,-8.96013 -19.95618,2.9382 -10.72092,12.2668 -20.33345,17.09248 -20.1,11.66423 -4.67866,4.61177 -9.35732,9.22353 -14.03598,13.83529 z"
               style="color:#000000;fill:#008000;fill-opacity:1;fill-rule:evenodd;stroke:#000000;stroke-width:0.125;stroke-linecap:butt;stroke-linejoin:miter;stroke-miterlimit:4;stroke-opacity:1;stroke-dasharray:none;stroke-dashoffset:0;marker:none;visibility:visible;display:inline;overflow:visible;enable-background:accumulate"
               id="path3229"
               inkscape:connector-curvature="0" />
            <path
               d="m 186.87822,215.95587 c 12.4098,4.73971 19.55599,-9.67159 30.33499,-8.6625 18.65381,3.3193 34.07503,14.72284 52.66365,18.65557 -12.32568,2.13467 -30.96288,8.24754 -42.08746,-2.41693 -0.84156,12.57871 -23.47172,2.22909 -18.7263,1.35971 15.58947,-7.86009 -8.12173,-0.31097 -14.06762,1.49038 -1.26561,-2.11685 11.7035,-9.74522 -6.73174,-5.48784 -20.57852,0.0842 -1.1069,4.41968 -1.38552,-4.93839 z"
               style="color:#000000;fill:#008000;fill-opacity:1;fill-rule:evenodd;stroke:#000000;stroke-width:0.125;stroke-linecap:butt;stroke-linejoin:miter;stroke-miterlimit:4;stroke-opacity:1;stroke-dasharray:none;stroke-dashoffset:0;marker:none;visibility:visible;display:inline;overflow:visible;enable-background:accumulate"
               id="path3231"
               inkscape:connector-curvature="0" />
            <path
               d="m 246.9823,160.90256 c -13.58884,-1.23892 -24.19185,6.35686 -34.85027,13.63707 12.48666,-11.43814 3.51018,-14.67902 -7.73949,-6.74603 -9.29774,5.68035 -27.12407,-6.90349 -7.91787,-5.37581 12.26358,-6.60797 28.93289,0.29674 37.53798,-13.29432 -2.23352,-4.10703 -21.22873,3.55226 -26.4263,-6.40365 -8.92439,0.15319 -33.23095,1.20309 -29.61017,2.64122 -6.09457,-6.10314 6.25067,-13.30754 17.25611,-8.13901 19.12445,-2.13865 -15.85968,-5.1349 -3.6628,-9.84825 17.44366,3.29804 11.40504,-1.03913 -1.26046,-7.4911 1.16095,-1.2636 19.90398,4.81547 24.64264,12.07958 8.80151,13.11291 15.49065,-7.25312 26.14623,-7.71247 18.68764,-2.24801 -1.80661,-13.48367 -10.93212,-8.69244 -21.28811,4.56088 0.10137,-6.55685 -15.98309,-10.50999 2.35971,-9.500624 18.05679,-1.67737 26.19287,-0.80906 8.43634,-7.691923 17.8697,8.53006 27.81994,9.18709 -6.02515,-6.96785 -26.71645,-16.136597 -6.12151,-12.72269 20.44511,0.89574 -10.85617,-8.177876 -4.71417,-13.107041 11.60775,5.39914 25.85511,3.022589 9.38914,-7.113196 -0.41533,-3.719998 15.59081,9.963024 21.51671,13.147504 11.57455,3.852978 17.54678,-4.868721 27.407,-8.488846 -18.60786,-3.612138 2.73818,-4.445591 11.04907,-3.580236 16.01446,-0.856848 29.01108,8.944017 42.99408,15.196989 -13.16693,-7.3296 -24.6734,-20.099184 -41.00345,-17.065882 -29.64205,-9.462907 21.40241,-0.545197 1.10245,-12.733618 13.5295,4.459513 17.96808,-9.985347 30.11476,-8.296571 20.8141,0.05118 -7.60105,9.545837 2.2101,18.903177 9.37486,14.899187 7.7348,12.868331 14.00926,1.1076 1.95965,-1.320967 -11.81807,-9.458183 4.17348,-6.158366 -6.24139,-8.184969 -3.94781,-16.63658 4.34201,-16.162442 5.09538,-11.25529 6.49003,7.760459 12.49614,9.846878 -14.07169,14.214777 7.06388,0.321731 10.58068,-3.575663 12.3066,-3.615479 19.03695,8.670226 14.19816,13.72024 -20.37991,2.395186 -7.98782,2.59789 5.35512,2.736981 6.42226,9.641283 -4.98273,17.865672 7.73168,3.068929 7.34316,-1.699156 14.88183,-1.706148 6.70358,-7.907744 4.11534,-8.353341 31.85469,-5.603107 27.66324,-3.242408 -13.25566,-3.89072 -24.56854,9.009626 -5.3232,3.556701 18.91369,-8.623038 1.36243,-0.148574 -2.63255,9.363847 -0.17239,16.928347 15.43327,-6.863672 17.72354,-3.624145 -2.6312,16.072333 8.95815,-16.768682 14.80378,0.805122 -13.4458,-1.821616 -10.38267,15.791071 -3.33611,17.38866 14.41543,1.68922 -10.77716,2.72592 1.41392,6.13302 -10.74189,1.74839 -19.30465,3.36736 -29.39254,-2.81355 -7.7422,-1.60508 -25.16502,20.08166 -19.49141,9.58613 9.83,-13.600419 -10.472,-14.101044 -19.59065,-14.067168 -2.68703,-15.707613 -8.89612,3.043068 -15.08333,-14.041865 1.60092,8.09504 -9.55081,22.014623 -17.55543,10.44168 9.93927,-4.588571 -13.39558,-12.817431 -14.05162,-0.213205 10.21088,14.302608 -1.59248,5.509956 -12.27574,13.111348 -19.40349,-3.49455 -8.82316,-0.69047 -2.78863,3.33252 -13.46886,3.1973 -27.5341,-7.16684 -39.5137,2.04062 -18.31354,8.55659 0.91992,7.56934 8.83206,9.84747 7.42543,6.65506 22.19221,-9.01256 29.01242,0.20218 10.99767,9.84512 22.42375,-4.67414 32.86348,-9.06886 12.37751,-2.30858 24.38362,4.10605 36.3075,7.01189 -4.70378,14.71374 7.398,17.84588 18.94601,21.35965 14.16467,3.26968 29.22918,-4.01019 43.13991,-2.01121 11.35568,1.78893 17.28657,12.48253 24.78719,20.04751 -21.97309,-11.76433 -46.96855,-3.91638 -70.53345,-7.07108 -6.34152,1.72844 -32.43013,-4.09043 -15.07697,-7.32359 -11.56207,-0.94294 7.99682,-5.97556 -11.6808,-8.13022 -15.31712,5.38512 -31.43493,-10.57588 -45.13387,0.70208 -4.91514,11.77272 16.54693,5.33868 21.94162,10.63474 5.11142,9.8765 -11.46363,19.54981 -19.42664,10.23227 -8.23197,-1.20571 -20.75367,8.31298 -27.32926,-3.85341 -18.15645,-19.12954 10.60639,11.82014 -5.92482,2.98292 -5.72741,5.19378 -25.7268,-1.88692 -19.73429,-3.84566 7.251,-2.82747 0.61361,-5.19272 11.78115,1.97985 10.88347,-3.06551 -8.85046,-20.94306 -16.53083,-14.67067 -8.99545,10.17745 -20.31096,-7.98278 -28.59269,3.25822 -0.48042,8.4596 -28.43368,16.46298 -13.63075,8.43953 14.81669,-8.82645 10.74487,-13.8751 -2.76795,-3.18831 -7.05001,8.97095 -18.11625,4.97012 -26.56608,11.36856 z"
               style="color:#000000;fill:#008000;fill-opacity:1;fill-rule:evenodd;stroke:#000000;stroke-width:0.125;stroke-linecap:butt;stroke-linejoin:miter;stroke-miterlimit:4;stroke-opacity:1;stroke-dasharray:none;stroke-dashoffset:0;marker:none;visibility:visible;display:inline;overflow:visible;enable-background:accumulate"
               id="path3242"
               inkscape:connector-curvature="0" />
            <path
               d="m 356.07877,227.06755 c 7.29545,-8.95243 19.92922,-7.72848 27.71884,-4.6671 9.40778,-7.91555 22.44822,-1.76607 28.8497,7.19248 -13.30868,-0.53219 -26.31283,4.30925 -39.18902,1.33986 -9.20062,2.97654 -28.01743,4.62678 -9.69147,-3.09979 5.22663,-4.34572 -6.23963,-0.63957 -7.68805,-0.76545 z"
               style="color:#000000;fill:#008000;fill-opacity:1;fill-rule:evenodd;stroke:#000000;stroke-width:0.125;stroke-linecap:butt;stroke-linejoin:miter;stroke-miterlimit:4;stroke-opacity:1;stroke-dasharray:none;stroke-dashoffset:0;marker:none;visibility:visible;display:inline;overflow:visible;enable-background:accumulate"
               id="path3244"
               inkscape:connector-curvature="0" />
            <path
               d="m 290.92392,175.29723 c 2.06455,-11.39706 39.49435,-2.26589 21.01783,-0.52209 -9.17103,-3.32829 -25.10608,7.20208 -18.17079,1.23732 -5.17413,1.75425 -12.34198,6.46779 -2.84704,-0.71523 z"
               style="color:#000000;fill:#008000;fill-opacity:1;fill-rule:evenodd;stroke:#000000;stroke-width:0.125;stroke-linecap:butt;stroke-linejoin:miter;stroke-miterlimit:4;stroke-opacity:1;stroke-dasharray:none;stroke-dashoffset:0;marker:none;visibility:visible;display:inline;overflow:visible;enable-background:accumulate"
               id="path3246"
               inkscape:connector-curvature="0" />
            <path
               d="m 402.04071,168.4787 c 9.47556,6.96547 18.98134,-5.94114 29.0419,-7.82868 20.2057,-2.1719 -9.33251,14.92779 1.26267,11.11168 8.91314,2.04153 10.96214,-2.98199 23.32377,-2.48058 14.26158,-4.66247 24.60088,12.19625 38.54808,12.83463 -5.14605,7.3289 -30.0444,-8.03285 -19.22097,-0.99178 8.56689,7.14845 -17.36267,-0.87378 2.19142,6.31031 13.96435,0.96084 7.65716,14.1297 -3.25823,7.80837 0.91017,6.03273 12.31171,11.74073 -5.21857,6.57109 -17.96615,1.70481 15.11261,-18.44728 -2.74712,-8.90626 -2.82324,1.38779 -21.57592,-11.35022 -15.94071,-1.70034 -14.14372,2.92749 -12.48845,10.28197 -24.74872,0.50506 -10.27261,-2.20116 -11.38678,6.11036 -24.82947,6.05357 -11.51855,1.60755 25.77173,7.19928 14.88498,7.95822 -6.47451,-0.93156 -27.92981,-6.15445 -23.138,4.67605 12.96187,3.9058 -4.6369,16.56144 -12.48529,15.6925 1.27559,-0.87773 8.50324,-16.87937 -9.99063,-9.37905 6.47292,-2.73488 23.76637,-10.22876 14.18197,-13.40019 -1.66689,-7.90598 -13.5891,2.59422 -18.83539,7.86524 -17.3616,15.28769 12.20058,-14.16132 -6.20571,-10.62748 -19.01977,8.03669 -6.16375,-8.42691 3.84304,-11.63764 9.96173,-4.99625 20.07475,4.18851 26.53404,-1.39212 16.45429,-2.49833 16.2421,-1.93672 1.09448,-3.84956 -12.45848,-4.314 17.18333,-4.17603 -4.44998,-6.85929 -8.20812,-3.44834 -29.02819,-3.84589 -9.70467,-5.5919 8.84766,0.0172 17.93118,1.75925 25.86711,-2.74185 z"
               style="color:#000000;fill:#008000;fill-opacity:1;fill-rule:evenodd;stroke:#000000;stroke-width:0.125;stroke-linecap:butt;stroke-linejoin:miter;stroke-miterlimit:4;stroke-opacity:1;stroke-dasharray:none;stroke-dashoffset:0;marker:none;visibility:visible;display:inline;overflow:visible;enable-background:accumulate"
               id="path3250"
               inkscape:connector-curvature="0" />
            <path
               d="m 477.80215,173.78201 c 4.89373,2.33127 25.63904,-1.67582 12.7919,6.39174 7.5251,1.24317 -4.04478,9.07838 12.59873,11.10018 3.96222,2.22016 -19.82597,6.01385 -14.81098,10.10505 3.86028,5.39324 19.80006,1.08602 21.55934,13.4475 3.31113,-0.26422 11.29393,-3.79421 10.45593,-0.92254 17.70466,1.19655 -13.76331,8.78921 6.22404,6.88484 4.78448,-2.98924 3.92953,12.87438 10.03785,2.17702 -2.03949,-10.00035 7.25609,-4.76604 19.25658,-3.69225 -4.12093,-1.99079 -21.95807,-13.18427 -2.67308,-6.21622 13.19375,10.59135 13.96212,0.76529 -1.01465,-2.4982 -12.92194,-6.65987 15.35852,3.66106 20.67968,-0.12532 16.04887,-1.8319 -10.78323,-5.01113 -12.73962,-11.53009 -10.32893,-0.43772 -16.45008,3.48097 -27.17955,4.07526 -8.48794,-1.45916 -15.32573,11.26576 -24.47284,1.09344 -17.54321,-5.51173 -3.70962,-5.06309 6.56731,-9.39034 12.08456,-3.31485 24.90746,5.43836 36.71305,0.81821 7.83454,1.27826 23.53164,-2.16493 25.76417,1.72096 -18.00306,-11.28635 19.47049,1.46771 6.29046,-5.45242 -6.46555,-7.66375 -19.05239,-1.97415 -28.15658,-3.34694 -10.29368,2.08932 -19.80379,-8.64187 -29.65696,0.007 -24.5367,0.16832 11.8583,-3.85365 -1.32957,-6.13419 -9.56394,-0.99073 -25.39778,-5.62691 -6.87978,-3.9221 9.72196,-3.02518 -14.67008,-6.70717 -18.81223,-10.65184 -8.34424,-4.54641 -14.61538,1.59021 -21.2132,6.06093 z"
               style="color:#000000;fill:#008000;fill-opacity:1;fill-rule:evenodd;stroke:#000000;stroke-width:0.125;stroke-linecap:butt;stroke-linejoin:miter;stroke-miterlimit:4;stroke-opacity:1;stroke-dasharray:none;stroke-dashoffset:0;marker:none;visibility:visible;display:inline;overflow:visible;enable-background:accumulate"
               id="path3252"
               inkscape:connector-curvature="0" />
            <path
               d="m 239.28571,175.21931 c 8.96475,-5.71675 17.60255,-12.01583 27.5,-16.07141 -6.67467,9.10247 -17.98924,11.08888 -27.5,16.07141 z"
               style="color:#000000;fill:#008000;fill-opacity:1;fill-rule:evenodd;stroke:#000000;stroke-width:0.125;stroke-linecap:butt;stroke-linejoin:miter;stroke-miterlimit:4;stroke-opacity:1;stroke-dasharray:none;stroke-dashoffset:0;marker:none;visibility:visible;display:inline;overflow:visible;enable-background:accumulate"
               id="path3256"
               inkscape:connector-curvature="0" />
            <path
               d="m 359.64285,378.07648 c 3.68407,-12.64566 17.25217,-2.41992 20.7143,5.35714 7.24678,21.1447 -4.0307,-12.81564 1.53855,-10.1372 4.33943,15.57142 5.01829,-14.13987 -2.63158,-13.08141 -8.28603,-0.83678 -19.49012,3.28755 -24.62127,10.00432 -1.374,4.63494 1.80893,5.53948 5,7.85715 z"
               style="color:#000000;fill:#008000;fill-opacity:1;fill-rule:evenodd;stroke:#000000;stroke-width:0.125;stroke-linecap:butt;stroke-linejoin:miter;stroke-miterlimit:4;stroke-opacity:1;stroke-dasharray:none;stroke-dashoffset:0;marker:none;visibility:visible;display:inline;overflow:visible;enable-background:accumulate"
               id="path3260"
               inkscape:connector-curvature="0" />
            <path
               d="m 311.78571,380.21933 c 9.77653,-9.22777 20.27137,6.96021 24.64285,-8.57144 12.41583,11.93723 5.99936,-4.93561 14.60859,-1.32711 15.73819,-3.92892 -1.79305,-2.18273 -11.88697,-4.84682 -9.25421,2.89938 -12.5464,-0.19585 -25.27327,0.78183 -2.69935,2.38505 -13.22376,24.16726 -2.22899,14.04774 l 0.13779,-0.0842 z"
               style="color:#000000;fill:#008000;fill-opacity:1;fill-rule:evenodd;stroke:#000000;stroke-width:0.125;stroke-linecap:butt;stroke-linejoin:miter;stroke-miterlimit:4;stroke-opacity:1;stroke-dasharray:none;stroke-dashoffset:0;marker:none;visibility:visible;display:inline;overflow:visible;enable-background:accumulate"
               id="path3258"
               inkscape:connector-curvature="0" />
            <path
               d="m 481.42856,329.14789 c 20.30536,-11.43147 -11.03541,-12.90781 3.92859,-14.28571 -12.26496,-0.23047 -1.08449,-13.14613 -19.88661,-6.41729 -7.18502,-2.04276 -32.37077,11.98645 -23.28331,5.12155 14.20683,-12.50709 34.28843,-13.86236 52.45562,-14.41855 9.78219,6.03619 18.85533,13.30448 29.28574,18.21429 -12.04262,-9.25695 16.38453,5.13804 -4.28571,-7.85714 -2.02556,-9.6104 19.2013,0.51577 22.14283,7.5 10.19541,9.22314 21.8313,0.87286 17.44588,-11.46089 1.87862,-12.87981 21.4498,-3.72807 18.98258,6.88928 7.92592,18.21154 29.61376,14.17602 45.22007,18.9673 11.59438,5.42721 -24.35723,-0.65804 -11.66582,7.3647 -7.62905,-2.82865 -31.3501,-5.27209 -15.47064,5.36424 9.45142,4.09183 17.70982,25.78985 3.03924,10.92368 -5.52799,-1.13044 1.97332,7.59535 -9.19984,-4.944 -11.25151,-0.87598 -1.62688,4.586 -15.4943,-0.96146 7.79388,13.35088 12.35503,10.94973 1.42853,12.85715 -1.7301,6.68854 -20.95174,-18.82445 -14.76014,-4.96803 10.74794,17.25822 -0.57561,7.69856 -9.29962,-0.40451 -4.77836,-5.78193 -22.47495,-16.80808 -9.96355,-5.31098 16.80588,9.92575 -14.24538,8.10434 4.02331,12.1121 5.27322,9.1052 22.12257,13.81663 4.28571,19.28571 10.65662,-13.16146 -14.36991,-3.66841 -21.36845,-8.06922 -18.27096,-1.98779 -13.36735,-3.60421 2.08274,-4.78793 -13.71601,-0.1348 -27.19448,-3.92403 -40.0258,-7.16033 -10.02715,-0.16534 -22.45787,18.0104 -11.55226,1.20241 15.02351,-17.07013 -17.42623,11.50341 -6.71957,-1.22976 18.0093,-17.64324 -13.88723,6.71305 -3.25001,-8.22889 -7.53156,-11.58738 16.70377,1.00516 20.5194,-8.14111 4.62627,-13.56325 21.71054,5.57363 3.68365,-9.69758 -7.38611,6.53258 -16.72335,13.20154 -28.72682,9.3267 20.53736,0.62419 9.40504,-6.28837 -4.33163,-1.83454 9.35255,0.90574 2.76777,-13.0686 8.99399,-10.88444 4.12443,-0.72553 7.85964,-2.64719 11.7662,-4.06675 z"
               style="color:#000000;fill:#008000;fill-opacity:1;fill-rule:evenodd;stroke:#000000;stroke-width:0.125;stroke-linecap:butt;stroke-linejoin:miter;stroke-miterlimit:4;stroke-opacity:1;stroke-dasharray:none;stroke-dashoffset:0;marker:none;visibility:visible;display:inline;overflow:visible;enable-background:accumulate"
               id="path3262"
               inkscape:connector-curvature="0" />
          </g>
        </g>
      </g>
    </g>
  </g>
</svg>
