<?xml version="1.0"?><svg width="640" height="480" xmlns="http://www.w3.org/2000/svg" xmlns:xlink="http://www.w3.org/1999/xlink">
 <defs>
  <linearGradient id="linearGradient60">
   <stop stop-color="#ffffaf" stop-opacity="0.5412" offset="0" id="stop61"/>
   <stop stop-color="#0000a2" stop-opacity="0.4471" offset="1" id="stop62"/>
  </linearGradient>
  <linearGradient y2="1" y1="0" xlink:href="#linearGradient60" x2="1" x1="0" id="linearGradient132"/>
  <linearGradient y2="1" y1="0" xlink:href="#linearGradient60" x2="1" x1="0" id="linearGradient142"/>
  <linearGradient y2="1" y1="0" xlink:href="#linearGradient60" x2="1" x1="0" id="linearGradient48"/>
  <linearGradient y2="1" y1="0" xlink:href="#linearGradient60" x2="1" x1="0" id="linearGradient49"/>
  <linearGradient y2="1" y1="0" xlink:href="#linearGradient60" x2="1" x1="0" id="linearGradient50"/>
  <linearGradient y2="1" y1="0" xlink:href="#linearGradient60" x2="1" x1="0" id="linearGradient53"/>
  <linearGradient y2="1" y1="0" xlink:href="#linearGradient60" x2="1" x1="0" id="linearGradient54"/>
  <linearGradient y2="1" y1="0" xlink:href="#linearGradient60" x2="1" x1="0" id="linearGradient165"/>
 </defs>
 <g>
  <title>Layer 1</title>
  <path fill="#a2aac4" fill-rule="evenodd" id="path19" d="m65.037788,383.714294c2.764999,5.761414 -38.461088,12.134796 -40.626987,14.537109c15.3078,4.076508 -24.446001,10.2883 -17.036801,12.114502c5.2604,1.701904 83.470788,13.356781 96.324799,13.810089c78.711006,5.613617 242.050987,1.60141 271.938011,-3.634186c35.815002,-7.454224 53.925995,-8.262512 59.626984,-11.872009c-3.375,-2.993103 -35.033997,-8.577789 -28.174988,-10.902802c-5.714996,-2.641113 -18.553009,-3.821411 -13.106018,-9.44931c-17.263977,-1.823975 24.149017,-5.826477 -2.621002,-4.845581c-4.615997,-0.426697 28.255005,-9.934113 20.313019,-11.387604c-42.088013,-10.446106 -285.467003,-11.629303 -328.945015,-2.906891c-6.202003,4.560089 -10.445999,13.643677 -17.692001,14.536682z"/>
  <path fill-opacity="0.226601" fill-rule="evenodd" id="path20" d="m83.383049,384.621307c5.602531,4.402191 -52.043789,13.662689 -41.530998,15.582489c189.583954,7.417999 150.069244,11.743591 294.333435,11.248016c7.626526,-2.089111 36.541321,-11.659698 38.171814,-19.720917c-45.731995,-3.711487 -194.505493,-9.862885 -290.974251,-7.109589z"/>
  <path fill="#003f7f" fill-rule="evenodd" stroke="#000000" stroke-width="9.999999" id="path132" d="m208.031693,107.547699c-6.552994,5.242004 4.666,252.838287 5.897003,273.151215c15.17601,0 140.862289,2.937286 158.554214,6.0383c29.658997,-84.939026 31.420776,-260.50251 19.678802,-283.120514c-11.460022,-2.874001 -170.369019,-2.645996 -184.13002,3.931z"/>
  <path fill="#dd0000" fill-rule="evenodd" stroke-width="9.663321" id="path133" d="m270.309509,40.055481c1.020691,0 123.979492,54.797699 120.542206,60.94072c-20.984406,-1.122017 -161.616211,-1.31102 -175.612015,-0.654999c19.420197,-22.762024 46.844009,-51.839024 55.069809,-60.285721z"/>
  <path fill="#ffffaa" fill-rule="evenodd" stroke="#000000" stroke-width="8.218533" id="path134" d="m339.741791,73.158821c3.226013,-9.73719 3.236023,-35.40807 1.966003,-42.932232c11.578003,1.18189 11.139008,0.088751 19.657013,0.88517c-2.352997,5.562202 -0.654999,42.637402 -0.654999,49.571491c-8.158997,-3.29818 -10.96402,-5.311684 -20.968018,-7.524429z"/>
  <path fill="#ff00ff" fill-rule="evenodd" stroke="#000000" stroke-width="7.254615" id="path135" d="m74.003433,177.164505c-19.002705,11.485291 -13.485012,112.330185 12.27565,204.940994c10.611366,0 115.973312,-2.170807 128.343918,0.1633c1.494904,-16.09021 -8.481506,-194.888199 -8.966797,-202.555893c-8.013107,-2.163208 -114.635872,-7.484512 -131.652771,-2.548401z"/>
  <path fill="#dd0000" fill-rule="evenodd" stroke-width="6.849153" id="path136" d="m163.328598,126.303802c-0.681198,0 -76.624825,41.245499 -80.45343,45.869293c14.005562,-0.844498 110.36113,0.3237 119.702332,0.817398c-1.821793,-11.235397 -33.758698,-40.328995 -39.248901,-46.686691z"/>
  <path fill="#ffaad4" fill-rule="evenodd" stroke="#000000" stroke-width="5.614373" id="path137" d="m118.904404,150.348099c-2.255707,-6.498795 -2.262703,-22.155197 -1.374702,-27.177002c-8.095505,0.788803 -7.788605,0.059204 -13.744499,0.590805c1.645195,3.712296 0.915901,26.093994 0.915901,30.721893c5.704994,-2.201294 7.208298,-2.658798 14.2033,-4.135696z"/>
  <path fill="#7f5400" fill-rule="evenodd" stroke-width="5" id="path149" d="m160.852493,318.545013l0,61.595978l32.763,0l0,-61.595978l-32.763,0z"/>
  <path fill="url(#linearGradient132)" fill-rule="evenodd" stroke="#000000" stroke-width="5" id="path150" d="m97.94648,298.886993l0,29.487l38.00602,0l0,-29.487l-38.00602,0z"/>
  <path fill="url(#linearGradient142)" fill-rule="evenodd" stroke="#000000" stroke-width="5" id="path151" d="m155.610504,242.533997l0,36.040009l39.315994,0l0,-36.040009l-39.315994,0z"/>
  <path fill="url(#linearGradient48)" fill-rule="evenodd" stroke="#000000" stroke-width="5" id="path152" d="m99.257477,241.223007l0,36.695999l37.350021,0l0,-36.695999l-37.350021,0z"/>
  <path fill="url(#linearGradient54)" fill-rule="evenodd" stroke="#000000" stroke-width="5" id="path153" d="m246.692505,156.037994l0,56.354004l43.902985,0l0,-56.354004l-43.902985,0z"/>
  <path fill="url(#linearGradient53)" fill-rule="evenodd" stroke="#000000" stroke-width="5" id="path154" d="m249.313507,241.223007l0,38.005997l42.592987,0l0,-38.005997l-42.592987,0z"/>
  <path fill="url(#linearGradient50)" fill-rule="evenodd" stroke="#000000" stroke-width="5" id="path155" d="m338.430511,240.567993l0,38.661011l30.797974,0l0,-38.661011l-30.797974,0z"/>
  <path fill="#856100" fill-rule="evenodd" stroke-width="5" id="path156" d="m295.182404,301.508087l0,78.632019l36.695007,0l0,-78.632019l-36.695007,0z"/>
  <path fill="url(#linearGradient49)" fill-rule="evenodd" stroke="#000000" stroke-width="5" id="path157" d="m331.222504,161.936005l0,53.731995l39.971985,0l0,-53.731995l-39.971985,0z"/>
  <path fill="#ffaaff" fill-rule="evenodd" stroke="#000000" stroke-width="4.999999" id="path160" d="m162.205994,317.868195l0,61.596008l32.763,0l0,-61.596008l-32.763,0z"/>
  <path fill="#aaffd4" fill-rule="evenodd" stroke="#000000" stroke-width="4.999999" id="path162" d="m293.828888,302.184906l0,78.631989l36.695007,0l0,-78.631989l-36.695007,0z"/>
  <path fill="url(#linearGradient165)" fill-rule="evenodd" stroke="#000000" stroke-width="9.75" stroke-linejoin="round" id="path164" d="m271.060913,40.056c1.016785,0 120.274597,55.321541 119.437286,62.251503c-20.906006,-1.146103 -166.401794,0.170296 -180.345306,0.840401c19.347702,-23.251625 52.712921,-54.463512 60.90802,-63.091904z"/>
  <path fill="#3f7f00" fill-rule="evenodd" stroke="#000000" stroke-width="6.85" stroke-linejoin="round" id="path167" d="m162.371506,127.260902c-0.681198,0 -76.624832,41.245491 -80.453438,45.869301c14.005562,-0.844498 117.568336,6.877304 120.357338,-1.147797c-1.167313,-7.303406 -34.413712,-38.3638 -39.9039,-44.721504z"/>
 </g>
</svg>