<?xml version="1.0" encoding="UTF-8" standalone="no"?>
<!-- Created with Inkscape (http://www.inkscape.org/) -->

<svg
   xmlns:dc="http://purl.org/dc/elements/1.1/"
   xmlns:cc="http://creativecommons.org/ns#"
   xmlns:rdf="http://www.w3.org/1999/02/22-rdf-syntax-ns#"
   xmlns:svg="http://www.w3.org/2000/svg"
   xmlns="http://www.w3.org/2000/svg"
   xmlns:xlink="http://www.w3.org/1999/xlink"
   xmlns:sodipodi="http://sodipodi.sourceforge.net/DTD/sodipodi-0.dtd"
   xmlns:inkscape="http://www.inkscape.org/namespaces/inkscape"
   height="50"
   id="svg4217"
   inkscape:export-filename="i:\red_flower.png"
   inkscape:export-xdpi="72.000000"
   inkscape:export-ydpi="72.000000"
   inkscape:version="0.48.1 r9760"
   sodipodi:docname="flor.svg"
   sodipodi:version="0.32"
   width="50"
   version="1.1">
  <metadata
     id="metadata3112">
    <rdf:RDF>
      <cc:Work
         rdf:about="">
        <dc:title>Red Flower</dc:title>
        <dc:description />
        <dc:subject>
          <rdf:Bag>
            <rdf:li />
            <rdf:li>plant</rdf:li>
            <rdf:li>flower</rdf:li>
          </rdf:Bag>
        </dc:subject>
        <dc:publisher>
          <cc:Agent
             rdf:about="http://www.openclipart.org">
            <dc:title>Jean-Victor Balin</dc:title>
          </cc:Agent>
        </dc:publisher>
        <dc:creator>
          <cc:Agent>
            <dc:title>Jean-Victor Balin</dc:title>
          </cc:Agent>
        </dc:creator>
        <dc:rights>
          <cc:Agent>
            <dc:title>Jean-Victor Balin</dc:title>
          </cc:Agent>
        </dc:rights>
        <dc:date />
        <dc:format>image/svg+xml</dc:format>
        <dc:type
           rdf:resource="http://purl.org/dc/dcmitype/StillImage" />
        <cc:license
           rdf:resource="http://web.resource.org/cc/PublicDomain" />
        <dc:language>en</dc:language>
      </cc:Work>
      <cc:License
         rdf:about="http://web.resource.org/cc/PublicDomain">
        <cc:permits
           rdf:resource="http://web.resource.org/cc/Reproduction" />
        <cc:permits
           rdf:resource="http://web.resource.org/cc/Distribution" />
        <cc:permits
           rdf:resource="http://web.resource.org/cc/DerivativeWorks" />
      </cc:License>
    </rdf:RDF>
  </metadata>
  <defs
     id="defs4219">
    <linearGradient
       id="linearGradient19932">
      <stop
         id="stop19933"
         offset="0.00000000"
         style="stop-color:#12761e;stop-opacity:1.0000000;" />
      <stop
         id="stop19934"
         offset="1.0000000"
         style="stop-color:#2f5712;stop-opacity:1.0000000;" />
    </linearGradient>
    <linearGradient
       id="linearGradient9173">
      <stop
         id="stop9174"
         offset="0.00000000"
         style="stop-color:#5c0a00;stop-opacity:1.0000000;" />
      <stop
         id="stop9175"
         offset="1.0000000"
         style="stop-color:#914412;stop-opacity:0.00000000;" />
    </linearGradient>
    <radialGradient
       cx="109.8041"
       cy="1502.953"
       fx="109.8041"
       fy="1502.953"
       id="radialGradient15564"
       inkscape:collect="always"
       r="71.718407"
       xlink:href="#linearGradient9173"
       gradientTransform="scale(3.4297015,0.29157057)"
       gradientUnits="userSpaceOnUse" />
    <linearGradient
       id="linearGradient23052"
       inkscape:collect="always"
       x1="773.45209"
       x2="773.45209"
       xlink:href="#linearGradient19932"
       y1="131.00179"
       y2="188.99573"
       gradientTransform="scale(0.4624865,2.1622253)"
       gradientUnits="userSpaceOnUse" />
    <linearGradient
       gradientTransform="scale(0.76202572,1.3122917)"
       id="linearGradient24916"
       inkscape:collect="always"
       x1="465.05087"
       x2="465.05087"
       xlink:href="#linearGradient19932"
       y1="291.87482"
       y2="340.48947"
       gradientUnits="userSpaceOnUse" />
    <linearGradient
       gradientTransform="scale(0.56431898,1.7720474)"
       id="linearGradient24917"
       inkscape:collect="always"
       x1="609.06335"
       x2="609.06335"
       xlink:href="#linearGradient19932"
       y1="215.58102"
       y2="264.19565"
       gradientUnits="userSpaceOnUse" />
    <linearGradient
       id="linearGradient26162"
       inkscape:collect="always"
       x1="570.50464"
       x2="570.50464"
       xlink:href="#linearGradient19932"
       y1="230.32202"
       y2="278.93665"
       gradientTransform="scale(0.60565725,1.6510989)"
       gradientUnits="userSpaceOnUse" />
  </defs>
  <sodipodi:namedview
     bordercolor="#666666"
     borderopacity="1.0"
     gridhicolor="0.18431373"
     gridtolerance="1.0000000px"
     id="base"
     inkscape:cx="28.076682"
     inkscape:cy="36.382448"
     inkscape:grid-bbox="true"
     inkscape:grid-points="true"
     inkscape:guide-bbox="true"
     inkscape:guide-points="true"
     inkscape:pageopacity="0.0"
     inkscape:pageshadow="2"
     inkscape:window-height="708"
     inkscape:window-width="1024"
     inkscape:window-x="0"
     inkscape:window-y="26"
     inkscape:zoom="11.827091"
     pagecolor="#ffffff"
     showgrid="true"
     inkscape:window-maximized="0"
     inkscape:current-layer="svg4217">
    <inkscape:grid
       id="GridFromPre046Settings"
       type="xygrid"
       originx="0px"
       originy="0.00000000pt"
       spacingx="1.0000000pt"
       spacingy="1.0000000pt"
       color="#3f3fff"
       empcolor="#0000ff"
       opacity="0.2"
       empopacity="0.4"
       empspacing="5"
       units="pt"
       visible="true"
       enabled="true"
       snapvisiblegridlinesonly="true" />
  </sodipodi:namedview>
  <g
     id="g993"
     transform="matrix(0.17584994,0,0,0.17584994,-1.4605864,-2.787995)">
    <path
       d="m 317.55427,415.2638 c 7.64358,18.4744 18.63207,33.35591 31.69798,45.59196 0,0 1.51359,1.46744 2.10415,1.98872 l -4.53063,-12.02376 c -9.69076,-22.85924 -22.8805,-36.54201 -35.38545,-56.99096 0,0 3.4918,15.04695 6.11395,21.43404 z"
       id="path17432"
       sodipodi:nodetypes="cccccc"
       style="fill:url(#linearGradient24916);fill-opacity:1;fill-rule:evenodd;stroke:#000000;stroke-width:0.38063893;stroke-linecap:round;stroke-linejoin:round;stroke-miterlimit:4;stroke-opacity:1"
       transform="translate(-192.5785,-173.407)"
       inkscape:connector-curvature="0" />
    <path
       d="m 335.1875,267.84448 c 25.01751,25.94547 36.35636,62.38921 37.39696,97.84864 0.63196,23.75178 -2.0563,48.09925 -12.10623,69.87846 -4.22325,9.54636 -9.42206,18.64602 -15.29073,27.2729"
       id="path9159"
       style="fill:none;stroke:url(#linearGradient23052);stroke-width:5.375;stroke-linecap:round;stroke-linejoin:miter;stroke-miterlimit:4;stroke-opacity:1"
       transform="translate(-192.5785,-173.407)"
       inkscape:connector-curvature="0" />
    <path
       d="m 386.25,339.40698 c 12.45227,43.93061 6.7032,100.84539 -38.89229,122.68003 m 0,0 c 27.55403,-34.52671 33.91243,-63.85943 38.07562,-105.05837 L 386.25,339.40698"
       id="path9178"
       sodipodi:nodetypes="ccccc"
       style="fill:url(#linearGradient26162);fill-opacity:1;fill-rule:evenodd;stroke:#000000;stroke-width:0.62499934;stroke-linecap:round;stroke-linejoin:round;stroke-miterlimit:4;stroke-opacity:1"
       transform="translate(-192.5785,-173.407)"
       inkscape:connector-curvature="0" />
    <path
       d="m 320,390.78198 c 4.57781,30.13502 16.54079,56.31751 33.28125,79.4375 0,0 1.91623,2.75163 2.6875,3.75 L 353.75,454.53198 c -6.06341,-37.37949 -22.34925,-62.67183 -34.34375,-97.625 0,0 -0.95391,23.4646 0.59375,33.875 z"
       id="path9179"
       sodipodi:nodetypes="cccccc"
       style="fill:url(#linearGradient24917);fill-opacity:1;fill-rule:evenodd;stroke:#000000;stroke-width:0.62499934;stroke-linecap:round;stroke-linejoin:round;stroke-miterlimit:4;stroke-opacity:1"
       transform="translate(-192.5785,-173.407)"
       inkscape:connector-curvature="0" />
    <path
       d="m 267.5,455.96948 c 0,-9.3198 46.17064,-16.875 103.125,-16.875 56.95437,0 103.125,7.5552 103.125,16.875 l -103.125,0 z"
       id="path9172"
       sodipodi:cx="370.625"
       sodipodi:cy="455.96948"
       sodipodi:end="6.2831853"
       sodipodi:rx="103.125"
       sodipodi:ry="16.875"
       sodipodi:start="3.1415927"
       sodipodi:type="arc"
       style="fill:#81390b;fill-opacity:1;fill-rule:evenodd;stroke:none"
       transform="matrix(0.753012,0,0,1,-120.9669,-155.282)" />
    <path
       d="m 323.75,205.34448 c 0,20.71068 -5.87626,37.5 -13.125,37.5 -7.24874,0 -13.125,-16.78932 -13.125,-37.5 0,-20.71068 5.87626,-37.5 13.125,-37.5 7.24874,0 13.125,16.78932 13.125,37.5 z"
       id="path9147"
       sodipodi:cx="310.625"
       sodipodi:cy="205.34448"
       sodipodi:rx="13.125"
       sodipodi:ry="37.5"
       sodipodi:type="arc"
       style="fill:#cb0000;fill-opacity:1;fill-rule:evenodd;stroke:#000000;stroke-width:1pt;stroke-linecap:butt;stroke-linejoin:miter;stroke-opacity:1"
       transform="matrix(0.589896,0.588202,-0.591545,0.586562,113.1557,-242.3846)" />
    <path
       d="m 323.75,205.34448 c 0,20.71068 -5.87626,37.5 -13.125,37.5 -7.24874,0 -13.125,-16.78932 -13.125,-37.5 0,-20.71068 5.87626,-37.5 13.125,-37.5 7.24874,0 13.125,16.78932 13.125,37.5 z"
       id="path9148"
       sodipodi:cx="310.625"
       sodipodi:cy="205.34448"
       sodipodi:rx="13.125"
       sodipodi:ry="37.5"
       sodipodi:type="arc"
       style="fill:#cb0000;fill-opacity:1;fill-rule:evenodd;stroke:#000000;stroke-width:1pt;stroke-linecap:butt;stroke-linejoin:miter;stroke-opacity:1"
       transform="matrix(0.899563,0.0012249,-0.00125551,0.877635,-133.8824,-129.9104)" />
    <path
       d="m 323.75,205.34448 c 0,20.71068 -5.87626,37.5 -13.125,37.5 -7.24874,0 -13.125,-16.78932 -13.125,-37.5 0,-20.71068 5.87626,-37.5 13.125,-37.5 7.24874,0 13.125,16.78932 13.125,37.5 z"
       id="path9144"
       sodipodi:cx="310.625"
       sodipodi:cy="205.34448"
       sodipodi:rx="13.125"
       sodipodi:ry="37.5"
       sodipodi:type="arc"
       style="fill:#cb0000;fill-opacity:1;fill-rule:evenodd;stroke:#000000;stroke-width:1pt;stroke-linecap:butt;stroke-linejoin:miter;stroke-opacity:1"
       transform="matrix(0.578495,-0.586552,0.576882,0.588192,-181.983,122.2393)" />
    <path
       d="m 323.75,205.34448 c 0,20.71068 -5.87626,37.5 -13.125,37.5 -7.24874,0 -13.125,-16.78932 -13.125,-37.5 0,-20.71068 5.87626,-37.5 13.125,-37.5 7.24874,0 13.125,16.78932 13.125,37.5 z"
       id="path9150"
       sodipodi:cx="310.625"
       sodipodi:cy="205.34448"
       sodipodi:rx="13.125"
       sodipodi:ry="37.5"
       sodipodi:type="arc"
       style="fill:#cb0000;fill-opacity:1;fill-rule:evenodd;stroke:#000000;stroke-width:1pt;stroke-linecap:butt;stroke-linejoin:miter;stroke-opacity:1"
       transform="matrix(0.0012261,-0.899563,0.878495,0.00125551,-74.6035,369.5006)" />
    <path
       d="m 323.75,205.34448 c 0,20.71068 -5.87626,37.5 -13.125,37.5 -7.24874,0 -13.125,-16.78932 -13.125,-37.5 0,-20.71068 5.87626,-37.5 13.125,-37.5 7.24874,0 13.125,16.78932 13.125,37.5 z"
       id="path9145"
       sodipodi:cx="310.625"
       sodipodi:cy="205.34448"
       sodipodi:rx="13.125"
       sodipodi:ry="37.5"
       sodipodi:type="arc"
       style="fill:#cb0000;fill-opacity:1;fill-rule:evenodd;stroke:#000000;stroke-width:1pt;stroke-linecap:butt;stroke-linejoin:miter;stroke-opacity:1"
       transform="matrix(-0.578509,-0.610854,0.580127,-0.60915,177.8037,434.5161)" />
    <path
       d="m 323.75,205.34448 c 0,20.71068 -5.87626,37.5 -13.125,37.5 -7.24874,0 -13.125,-16.78932 -13.125,-37.5 0,-20.71068 5.87626,-37.5 13.125,-37.5 7.24874,0 13.125,16.78932 13.125,37.5 z"
       id="path9151"
       sodipodi:cx="310.625"
       sodipodi:cy="205.34448"
       sodipodi:rx="13.125"
       sodipodi:ry="37.5"
       sodipodi:type="arc"
       style="fill:#cb0000;fill-opacity:1;fill-rule:evenodd;stroke:#000000;stroke-width:1pt;stroke-linecap:butt;stroke-linejoin:miter;stroke-opacity:1"
       transform="matrix(0.00125551,-0.899563,0.899563,0.00125551,0.6565,369.5006)" />
    <path
       d="m 323.75,205.34448 c 0,20.71068 -5.87626,37.5 -13.125,37.5 -7.24874,0 -13.125,-16.78932 -13.125,-37.5 0,-20.71068 5.87626,-37.5 13.125,-37.5 7.24874,0 13.125,16.78932 13.125,37.5 z"
       id="path9146"
       sodipodi:cx="310.625"
       sodipodi:cy="205.34448"
       sodipodi:rx="13.125"
       sodipodi:ry="37.5"
       sodipodi:type="arc"
       style="fill:#cb0000;fill-opacity:1;fill-rule:evenodd;stroke:#000000;stroke-width:1pt;stroke-linecap:butt;stroke-linejoin:miter;stroke-opacity:1"
       transform="matrix(0.604756,-0.604503,0.60307,0.606193,-136.2745,182.7328)" />
    <path
       d="m 323.75,205.34448 c 0,20.71068 -5.87626,37.5 -13.125,37.5 -7.24874,0 -13.125,-16.78932 -13.125,-37.5 0,-20.71068 5.87626,-37.5 13.125,-37.5 7.24874,0 13.125,16.78932 13.125,37.5 z"
       id="path9149"
       sodipodi:cx="310.625"
       sodipodi:cy="205.34448"
       sodipodi:rx="13.125"
       sodipodi:ry="37.5"
       sodipodi:type="arc"
       style="fill:#cb0000;fill-opacity:1;fill-rule:evenodd;stroke:#000000;stroke-width:1pt;stroke-linecap:butt;stroke-linejoin:miter;stroke-opacity:1"
       transform="matrix(0.899563,0.00124094,-0.00125551,0.889122,-132.7581,-53.672)" />
    <path
       d="m 362.5,262.21948 c 0,11.39088 -10.35342,20.625 -23.125,20.625 -12.77158,0 -23.125,-9.23412 -23.125,-20.625 0,-11.39087 10.35342,-20.625 23.125,-20.625 12.77158,0 23.125,9.23413 23.125,20.625 z"
       id="path9143"
       sodipodi:cx="339.375"
       sodipodi:cy="262.21948"
       sodipodi:rx="23.125"
       sodipodi:ry="20.625"
       sodipodi:type="arc"
       style="fill:#ffcc00;fill-opacity:1;fill-rule:evenodd;stroke:#000000;stroke-width:1pt;stroke-linecap:butt;stroke-linejoin:miter;stroke-opacity:1"
       transform="translate(-192.5785,-173.407)" />
    <path
       d="m 327.0625,249.09448 c -3.89965,3.21065 -6.4375,7.91771 -6.4375,13.25 0,9.66 8.12,17.5 18.125,17.5 5.78244,0 10.86806,-2.67458 14.1875,-6.75 -3.16497,2.60578 -7.20523,4.25 -11.6875,4.25 -10.005,0 -18.125,-7.84 -18.125,-17.5 0,-4.07696 1.51352,-7.77396 3.9375,-10.75 z"
       id="path12452"
       style="fill:#ffa700;fill-opacity:1;fill-rule:evenodd;stroke:none"
       transform="translate(-192.5785,-173.407)"
       inkscape:connector-curvature="0" />
    <path
       d="m 342.1875,245.03198 c -2.4755,0 -4.78413,0.59353 -6.875,1.5625 1.11262,-0.20732 2.26211,-0.3125 3.4375,-0.3125 9.91964,0 17.96875,7.75063 17.96875,17.28125 0,1.37436 -0.21496,2.68688 -0.53125,3.96875 1.1994,-2.15071 1.9375,-4.57838 1.9375,-7.1875 0,-8.4525 -7.13999,-15.3125 -15.9375,-15.3125 z"
       id="path14318"
       style="fill:#ffa700;fill-opacity:1;fill-rule:evenodd;stroke:none"
       transform="translate(-192.5785,-173.407)"
       inkscape:connector-curvature="0" />
    <path
       d="m 267.5,455.96948 c 0,-9.3198 46.17064,-16.875 103.125,-16.875 56.95437,0 103.125,7.5552 103.125,16.875 l -103.125,0 z"
       id="path14942"
       sodipodi:cx="370.625"
       sodipodi:cy="455.96948"
       sodipodi:end="6.2831853"
       sodipodi:rx="103.125"
       sodipodi:ry="16.875"
       sodipodi:start="3.1415927"
       sodipodi:type="arc"
       style="fill:url(#radialGradient15564);fill-opacity:1;fill-rule:evenodd;stroke:#000000;stroke-width:0.72024304;stroke-linecap:round;stroke-linejoin:round;stroke-miterlimit:4;stroke-opacity:1"
       transform="matrix(0.753012,0,0,1,-120.5679,-155.282)" />
    <path
       d="m 367.5,278.62573 c 2.39479,2.16751 4.85481,4.62273 7.25,7.46875 10.15452,12.0658 15.55843,25.15762 12.4375,29.8125 0.70785,-0.19666 1.3073,-0.52665 1.78125,-1.03125 3.79158,-4.03678 -1.88459,-16.71535 -12.6875,-28.28125 -2.91902,-3.12519 -5.88952,-5.73273 -8.78125,-7.96875 z"
       id="path20557"
       style="fill:#cb6100;fill-opacity:1;fill-rule:evenodd;stroke:none"
       transform="translate(-192.5785,-173.407)"
       inkscape:connector-curvature="0" />
    <path
       d="m 368.75,254.31725 c 3.21846,-0.2732 6.69181,-0.39788 10.40677,-0.20864 15.74974,0.80231 29.00994,5.77873 30.28583,11.23587 0.33893,-0.65182 0.50642,-1.31529 0.46061,-2.00604 -0.36647,-5.52607 -13.51012,-10.02154 -29.33646,-10.00871 -4.27638,0.003 -8.20929,0.39761 -11.81675,0.98752 z"
       id="path22424"
       style="fill:#cb6100;fill-opacity:1;fill-rule:evenodd;stroke:none"
       transform="translate(-192.5785,-173.407)"
       inkscape:connector-curvature="0" />
    <path
       d="m 327.55934,233.65947 c -0.16071,-3.22604 -0.1641,-6.70163 0.15468,-10.40772 1.35148,-15.71215 6.78765,-28.79059 12.28598,-29.87526 -0.63959,-0.36147 -1.29681,-0.55201 -1.98874,-0.53034 -5.53549,0.17339 -10.48693,13.15215 -11.02644,28.96929 -0.14579,4.2739 0.11087,8.21817 0.57452,11.84403 z"
       id="path22425"
       style="fill:#cb6100;fill-opacity:1;fill-rule:evenodd;stroke:none"
       transform="translate(-192.5785,-173.407)"
       inkscape:connector-curvature="0" />
    <path
       d="m 308.75,273.11567 c -3.21846,0.2732 -6.69181,0.39788 -10.40677,0.20864 -15.74974,-0.80231 -29.00994,-5.77873 -30.28583,-11.23587 -0.33893,0.65182 -0.50642,1.31529 -0.46061,2.00604 0.36647,5.52607 13.51012,10.02154 29.33646,10.00871 4.27638,-0.003 8.20929,-0.39761 11.81675,-0.98752 z"
       id="path22426"
       style="fill:#cb6100;fill-opacity:1;fill-rule:evenodd;stroke:none"
       transform="translate(-192.5785,-173.407)"
       inkscape:connector-curvature="0" />
    <path
       d="m 348.90468,293.8115 c 0.16071,3.22604 0.1641,6.70163 -0.15468,10.40772 -1.35148,15.71215 -6.78765,28.79059 -12.28598,29.87526 0.63959,0.36147 1.29681,0.55201 1.98874,0.53034 5.53549,-0.17339 10.48693,-13.15215 11.02644,-28.96929 0.14579,-4.2739 -0.11087,-8.21817 -0.57452,-11.84403 z"
       id="path22427"
       style="fill:#cb6100;fill-opacity:1;fill-rule:evenodd;stroke:none"
       transform="translate(-192.5785,-173.407)"
       inkscape:connector-curvature="0" />
    <path
       d="m 323.82673,291.23276 c -2.03919,2.50498 -4.36231,5.0901 -7.07906,7.63097 -11.51784,10.77211 -24.30892,16.85377 -29.12073,13.98075 0.23346,0.69657 0.59436,1.27793 1.12306,1.7248 4.2297,3.57515 16.59383,-2.75676 27.57849,-14.15022 2.96814,-3.07854 5.41662,-6.18147 7.49824,-9.1863 z"
       id="path22428"
       style="fill:#cb6100;fill-opacity:1;fill-rule:evenodd;stroke:none"
       transform="translate(-192.5785,-173.407)"
       inkscape:connector-curvature="0" />
    <path
       d="m 353.06805,235.51342 c 2.12539,-2.43228 4.53729,-4.93473 7.34106,-7.37924 11.88677,-10.36355 24.88226,-15.99513 29.59089,-12.95592 -0.20894,-0.7043 -0.54937,-1.2979 -1.06213,-1.76294 -4.10239,-3.72056 -16.67994,2.17601 -28.05553,13.17916 -3.07378,2.97308 -5.62908,5.98865 -7.81429,8.91894 z"
       id="path22429"
       style="fill:#cb6100;fill-opacity:1;fill-rule:evenodd;stroke:none"
       transform="translate(-192.5785,-173.407)"
       inkscape:connector-curvature="0" />
    <path
       d="m 311.25,248.6736 c -2.50496,-2.03925 -5.09011,-4.36234 -7.63092,-7.07912 -10.77207,-11.51782 -16.85376,-24.30882 -13.98074,-29.12069 -0.69659,0.23345 -1.27798,0.59436 -1.72485,1.12309 -3.57509,4.22968 2.75682,16.59377 14.15021,27.57847 3.07861,2.96811 6.18152,5.41662 9.1863,7.49825 z"
       id="path22430"
       style="fill:#cb6100;fill-opacity:1;fill-rule:evenodd;stroke:none"
       transform="translate(-192.5785,-173.407)"
       inkscape:connector-curvature="0" />
  </g>
</svg>
