<?xml version="1.0" encoding="UTF-8" standalone="no"?>
<!-- Created with Inkscape (http://www.inkscape.org/) -->

<svg
   xmlns:dc="http://purl.org/dc/elements/1.1/"
   xmlns:cc="http://creativecommons.org/ns#"
   xmlns:rdf="http://www.w3.org/1999/02/22-rdf-syntax-ns#"
   xmlns:svg="http://www.w3.org/2000/svg"
   xmlns="http://www.w3.org/2000/svg"
   xmlns:sodipodi="http://sodipodi.sourceforge.net/DTD/sodipodi-0.dtd"
   xmlns:inkscape="http://www.inkscape.org/namespaces/inkscape"
   sodipodi:docname="New document 1"
   inkscape:version="0.48.0 r9654"
   version="1.1"
   id="svg2"
   height="531.49603"
   width="531.49603">
  <sodipodi:namedview
     id="base"
     pagecolor="#ffffff"
     bordercolor="#666666"
     borderopacity="1.0"
     inkscape:pageopacity="0.0"
     inkscape:pageshadow="2"
     inkscape:zoom="1.1321709"
     inkscape:cx="142.60351"
     inkscape:cy="264.14305"
     inkscape:document-units="px"
     inkscape:current-layer="layer1"
     showgrid="false"
     units="cm"
     inkscape:window-width="1680"
     inkscape:window-height="1003"
     inkscape:window-x="-4"
     inkscape:window-y="-4"
     inkscape:window-maximized="1" />
  <defs
     id="defs4" />
  <metadata
     id="metadata7">
    <rdf:RDF>
      <cc:Work
         rdf:about="">
        <dc:format>image/svg+xml</dc:format>
        <dc:type
           rdf:resource="http://purl.org/dc/dcmitype/StillImage" />
        <dc:title></dc:title>
      </cc:Work>
    </rdf:RDF>
  </metadata>
  <g
     inkscape:label="Layer 1"
     inkscape:groupmode="layer"
     id="layer1"
     transform="translate(0,-520.86482)">
    <g
       id="g3959">
      <path
         id="path3889"
         d="m 9.1794485,594.44474 c 21.1152125,0 42.2304235,-16.00001 63.3456355,-16.00001 2.93e-4,0 5.86e-4,0 8.79e-4,0 21.114918,4.5e-4 42.229837,16.00001 63.344757,16.00001 2.9e-4,0 5.9e-4,0 8.8e-4,0 21.11492,-4.5e-4 42.22984,-16.00001 63.34476,-16.00001 2.9e-4,0 5.9e-4,0 8.8e-4,0 21.11492,4.5e-4 42.22983,16.00001 63.34475,16.00001 2.9e-4,0 5.9e-4,0 8.8e-4,0 21.11492,-4.5e-4 42.22984,-16.00001 63.34476,-16.00001 2.9e-4,0 5.9e-4,0 8.8e-4,0 21.11492,4.5e-4 42.22983,16.00001 63.34475,16.00001 2.9e-4,0 5.9e-4,0 8.8e-4,0 21.11492,-4.5e-4 42.22984,-16.00001 63.34476,-16.00001 2.9e-4,0 5.9e-4,0 8.8e-4,0 21.11492,4.5e-4 42.22983,16.00001 63.34475,16.00001 0,2.1e-4 0,4.2e-4 0,6.4e-4 0,7.72192 0,15.44383 0,23.16577 -2.9e-4,0 -5.9e-4,0 -8.8e-4,0 -21.11492,-4.5e-4 -42.22983,-16 -63.34475,-16 -2.9e-4,0 -5.9e-4,0 -8.8e-4,0 -21.11492,4.4e-4 -42.22984,16 -63.34476,16 -2.9e-4,0 -5.9e-4,0 -8.8e-4,0 -21.11492,-4.5e-4 -42.22983,-16 -63.34475,-16 -2.9e-4,0 -5.9e-4,0 -8.8e-4,0 -21.11492,4.4e-4 -42.22984,16 -63.34476,16 -2.9e-4,0 -5.9e-4,0 -8.8e-4,0 -21.11492,-4.5e-4 -42.22983,-16 -63.34475,-16 -2.9e-4,0 -5.9e-4,0 -8.8e-4,0 -21.11492,4.4e-4 -42.22984,16 -63.34476,16 -2.9e-4,0 -5.9e-4,0 -8.8e-4,0 -21.11492,-4.5e-4 -42.229838,-16 -63.344756,-16 -2.93e-4,0 -5.86e-4,0 -8.79e-4,0 -21.114919,4.4e-4 -42.229837,16 -63.3447565,16 0,-2.2e-4 0,-4.3e-4 0,-6.5e-4 0,-7.72193 0,-15.44384 0,-23.16576 0,0 0,0 0,0"
         style="fill:#002154;fill-opacity:1;stroke:none"
         inkscape:connector-curvature="0" />
      <path
         id="path3891"
         d="m 9.1794485,635.63672 c 21.1152125,0 42.2304235,-16 63.3456355,-16 2.64e-4,0 5.27e-4,0 7.91e-4,0 21.114947,4e-4 42.229895,16 63.344845,16 2.6e-4,0 5.3e-4,0 7.9e-4,0 21.11495,-4e-4 42.2299,-16 63.34485,-16 2.6e-4,0 5.3e-4,0 7.9e-4,0 21.11495,4e-4 42.22989,16 63.34484,16 2.6e-4,0 5.3e-4,0 7.9e-4,0 21.11495,-4e-4 42.2299,-16 63.34485,-16 2.6e-4,0 5.3e-4,0 7.9e-4,0 21.11495,4e-4 42.22989,16 63.34484,16 2.6e-4,0 5.3e-4,0 7.9e-4,0 21.11495,-4e-4 42.2299,-16 63.34485,-16 2.6e-4,0 5.3e-4,0 7.9e-4,0 21.11495,4e-4 42.22989,16 63.34484,16 0,2e-4 0,3.9e-4 0,5.8e-4 0,7.72194 0,15.44387 0,23.16583 -2.6e-4,0 -5.3e-4,0 -7.9e-4,0 -21.11495,-4e-4 -42.22989,-16 -63.34484,-16 -2.6e-4,0 -5.3e-4,0 -7.9e-4,0 -21.11495,4e-4 -42.2299,16 -63.34485,16 -2.6e-4,0 -5.3e-4,0 -7.9e-4,0 -21.11495,-4e-4 -42.22989,-16 -63.34484,-16 -2.6e-4,0 -5.3e-4,0 -7.9e-4,0 -21.11495,4e-4 -42.2299,16 -63.34485,16 -2.6e-4,0 -5.3e-4,0 -7.9e-4,0 -21.11495,-4e-4 -42.22989,-16 -63.34484,-16 -2.6e-4,0 -5.3e-4,0 -7.9e-4,0 -21.11495,4e-4 -42.2299,16 -63.34485,16 -2.6e-4,0 -5.3e-4,0 -7.9e-4,0 -21.11495,-4e-4 -42.229899,-16 -63.344846,-16 -2.64e-4,0 -5.27e-4,0 -7.91e-4,0 -21.114948,4e-4 -42.229896,16 -63.3448445,16 0,-1.9e-4 0,-3.8e-4 0,-5.8e-4 0,-7.72196 0,-15.44389 0,-23.16583 0,0 0,0 0,0"
         style="fill:#003380;fill-opacity:1;stroke:none"
         inkscape:connector-curvature="0" />
      <path
         id="path3893"
         d="m 9.1794485,676.82871 c 21.1152125,0 42.2304235,-16.00001 63.3456355,-16.00001 2.34e-4,0 4.69e-4,0 7.03e-4,0 21.114977,3.6e-4 42.229953,16.00001 63.344933,16.00001 2.3e-4,0 4.7e-4,0 7e-4,0 21.11498,-3.6e-4 42.22996,-16.00001 63.34494,-16.00001 2.3e-4,0 4.7e-4,0 7e-4,0 21.11498,3.6e-4 42.22995,16.00001 63.34493,16.00001 2.3e-4,0 4.7e-4,0 7e-4,0 21.11498,-3.6e-4 42.22996,-16.00001 63.34494,-16.00001 2.3e-4,0 4.7e-4,0 7e-4,0 21.11498,3.6e-4 42.22995,16.00001 63.34493,16.00001 2.3e-4,0 4.7e-4,0 7e-4,0 21.11498,-3.6e-4 42.22996,-16.00001 63.34494,-16.00001 2.3e-4,0 4.7e-4,0 7e-4,0 21.11498,3.6e-4 42.22995,16.00001 63.34493,16.00001 0,1.7e-4 0,3.4e-4 0,5.1e-4 0,7.72196 0,15.44391 0,23.1659 -2.3e-4,0 -4.7e-4,0 -7e-4,0 -21.11498,-3.6e-4 -42.22995,-16 -63.34493,-16 -2.3e-4,0 -4.7e-4,0 -7e-4,0 -21.11498,3.5e-4 -42.22996,16 -63.34494,16 -2.3e-4,0 -4.7e-4,0 -7e-4,0 -21.11498,-3.6e-4 -42.22995,-16 -63.34493,-16 -2.3e-4,0 -4.7e-4,0 -7e-4,0 -21.11498,3.5e-4 -42.22996,16 -63.34494,16 -2.3e-4,0 -4.7e-4,0 -7e-4,0 -21.11498,-3.6e-4 -42.22995,-16 -63.34493,-16 -2.3e-4,0 -4.7e-4,0 -7e-4,0 -21.11498,3.5e-4 -42.22996,16 -63.34494,16 -2.3e-4,0 -4.7e-4,0 -7e-4,0 -21.11498,-3.6e-4 -42.229959,-16 -63.344936,-16 -2.34e-4,0 -4.69e-4,0 -7.03e-4,0 -21.114978,3.5e-4 -42.229954,16 -63.3449325,16 0,-1.8e-4 0,-3.5e-4 0,-5.2e-4 0,-7.72198 0,-15.44393 0,-23.16589 0,0 0,0 0,0"
         style="fill:#0044aa;fill-opacity:1;stroke:none"
         inkscape:connector-curvature="0" />
      <path
         id="path3895"
         d="m 9.1794485,718.0207 c 21.1152125,0 42.2304235,-16.00002 63.3456355,-16.00002 2.05e-4,0 4.1e-4,0 6.15e-4,0 21.115006,3.2e-4 42.230021,16.00002 63.345021,16.00002 2.1e-4,0 4.1e-4,0 6.2e-4,0 21.115,-3.2e-4 42.23002,-16.00002 63.34502,-16.00002 2.1e-4,0 4.1e-4,0 6.2e-4,0 21.115,3.2e-4 42.23001,16.00002 63.34501,16.00002 2.1e-4,0 4.1e-4,0 6.2e-4,0 21.115,-3.2e-4 42.23002,-16.00002 63.34502,-16.00002 2.1e-4,0 4.1e-4,0 6.2e-4,0 21.115,3.2e-4 42.23001,16.00002 63.34501,16.00002 2.1e-4,0 4.1e-4,0 6.2e-4,0 21.115,-3.2e-4 42.23002,-16.00002 63.34502,-16.00002 2.1e-4,0 4.1e-4,0 6.2e-4,0 21.115,3.2e-4 42.23001,16.00002 63.34501,16.00002 0,1.5e-4 0,3e-4 0,4.5e-4 0,7.72197 0,15.44394 0,23.16595 -2.1e-4,0 -4.1e-4,0 -6.2e-4,0 -21.115,-3.1e-4 -42.23001,-16 -63.34501,-16 -2.1e-4,0 -4.1e-4,0 -6.2e-4,0 -21.115,3.1e-4 -42.23002,16 -63.34502,16 -2.1e-4,0 -4.1e-4,0 -6.2e-4,0 -21.115,-3.1e-4 -42.23001,-16 -63.34501,-16 -2.1e-4,0 -4.1e-4,0 -6.2e-4,0 -21.115,3.1e-4 -42.23002,16 -63.34502,16 -2.1e-4,0 -4.1e-4,0 -6.2e-4,0 -21.115,-3.1e-4 -42.23001,-16 -63.34501,-16 -2.1e-4,0 -4.1e-4,0 -6.2e-4,0 -21.115,3.1e-4 -42.23002,16 -63.34502,16 -2.1e-4,0 -4.1e-4,0 -6.2e-4,0 -21.115,-3.1e-4 -42.23001,-16 -63.345016,-16 -2.05e-4,0 -4.1e-4,0 -6.15e-4,0 -21.115007,3.1e-4 -42.230013,16 -63.3450205,16 0,-1.5e-4 0,-3e-4 0,-4.5e-4 0,-7.72201 0,-15.44398 0,-23.16595 0,0 0,0 0,0"
         style="fill:#0054d4;fill-opacity:1;stroke:none"
         inkscape:connector-curvature="0" />
      <path
         id="path3897"
         d="m 9.1794485,759.21268 c 21.1152125,0 42.2304235,-16.00001 63.3456355,-16.00001 1.76e-4,0 3.51e-4,0 5.27e-4,0 21.115035,2.6e-4 42.230079,16.00001 63.345109,16.00001 1.8e-4,0 3.5e-4,0 5.3e-4,0 21.11503,-2.6e-4 42.23008,-16.00001 63.34511,-16.00001 1.8e-4,0 3.5e-4,0 5.3e-4,0 21.11503,2.6e-4 42.23007,16.00001 63.3451,16.00001 1.8e-4,0 3.5e-4,0 5.3e-4,0 21.11503,-2.6e-4 42.23008,-16.00001 63.34511,-16.00001 1.8e-4,0 3.5e-4,0 5.3e-4,0 21.11503,2.6e-4 42.23007,16.00001 63.3451,16.00001 1.8e-4,0 3.5e-4,0 5.3e-4,0 21.11503,-2.6e-4 42.23008,-16.00001 63.34511,-16.00001 1.8e-4,0 3.5e-4,0 5.3e-4,0 21.11503,2.6e-4 42.23007,16.00001 63.3451,16.00001 0,1.3e-4 0,2.6e-4 0,3.9e-4 0,7.72199 0,15.44398 0,23.16602 -1.8e-4,0 -3.5e-4,0 -5.3e-4,0 -21.11503,-2.7e-4 -42.23007,-16 -63.3451,-16 -1.8e-4,0 -3.5e-4,0 -5.3e-4,0 -21.11503,2.6e-4 -42.23008,16 -63.34511,16 -1.8e-4,0 -3.5e-4,0 -5.3e-4,0 -21.11503,-2.7e-4 -42.23007,-16 -63.3451,-16 -1.8e-4,0 -3.5e-4,0 -5.3e-4,0 -21.11503,2.6e-4 -42.23008,16 -63.34511,16 -1.8e-4,0 -3.5e-4,0 -5.3e-4,0 -21.11503,-2.7e-4 -42.23007,-16 -63.3451,-16 -1.8e-4,0 -3.5e-4,0 -5.3e-4,0 -21.11503,2.6e-4 -42.23008,16 -63.34511,16 -1.8e-4,0 -3.5e-4,0 -5.3e-4,0 -21.11503,-2.7e-4 -42.230071,-16 -63.345106,-16 -1.76e-4,0 -3.51e-4,0 -5.27e-4,0 -21.115036,2.6e-4 -42.230072,16 -63.3451085,16 0,-1.3e-4 0,-2.6e-4 0,-3.9e-4 0,-7.72204 0,-15.44402 0,-23.16602 0,0 0,0 0,0"
         style="fill:#0066ff;fill-opacity:1;stroke:none"
         inkscape:connector-curvature="0" />
      <path
         id="path3899"
         d="m 9.1794485,800.40467 c 21.1152125,0 42.2304235,-16.00002 63.3456355,-16.00002 1.46e-4,0 2.93e-4,0 4.39e-4,0 21.115065,2.2e-4 42.230137,16.00002 63.345197,16.00002 1.5e-4,0 2.9e-4,0 4.4e-4,0 21.11506,-2.2e-4 42.23014,-16.00002 63.3452,-16.00002 1.5e-4,0 2.9e-4,0 4.4e-4,0 21.11506,2.2e-4 42.23013,16.00002 63.34519,16.00002 1.5e-4,0 2.9e-4,0 4.4e-4,0 21.11506,-2.2e-4 42.23014,-16.00002 63.3452,-16.00002 1.5e-4,0 2.9e-4,0 4.4e-4,0 21.11506,2.2e-4 42.23013,16.00002 63.34519,16.00002 1.5e-4,0 2.9e-4,0 4.4e-4,0 21.11506,-2.2e-4 42.23014,-16.00002 63.3452,-16.00002 1.5e-4,0 2.9e-4,0 4.4e-4,0 21.11506,2.2e-4 42.23013,16.00002 63.34519,16.00002 0,1.1e-4 0,2.1e-4 0,3.2e-4 0,7.72201 0,15.44402 0,23.16608 -1.5e-4,0 -2.9e-4,0 -4.4e-4,0 -21.11506,-2.2e-4 -42.23013,-16 -63.34519,-16 -1.5e-4,0 -2.9e-4,0 -4.4e-4,0 -21.11506,2.2e-4 -42.23014,16 -63.3452,16 -1.5e-4,0 -2.9e-4,0 -4.4e-4,0 -21.11506,-2.2e-4 -42.23013,-16 -63.34519,-16 -1.5e-4,0 -2.9e-4,0 -4.4e-4,0 -21.11506,2.2e-4 -42.23014,16 -63.3452,16 -1.5e-4,0 -2.9e-4,0 -4.4e-4,0 -21.11506,-2.2e-4 -42.23013,-16 -63.34519,-16 -1.5e-4,0 -2.9e-4,0 -4.4e-4,0 -21.11506,2.2e-4 -42.23014,16 -63.3452,16 -1.5e-4,0 -2.9e-4,0 -4.4e-4,0 -21.11506,-2.2e-4 -42.230131,-16 -63.345196,-16 -1.46e-4,0 -2.93e-4,0 -4.39e-4,0 -21.115066,2.2e-4 -42.23013,16 -63.3451965,16 0,-10e-5 0,-2.1e-4 0,-3.2e-4 0,-7.72206 0,-15.44407 0,-23.16608 0,0 0,0 0,0"
         style="fill:#2a7fff;fill-opacity:1;stroke:none"
         inkscape:connector-curvature="0" />
      <path
         id="path3901"
         d="m 9.1794485,841.59665 c 21.1152125,0 42.2304235,-16.00001 63.3456355,-16.00001 1.17e-4,0 2.34e-4,0 3.51e-4,0 21.115094,1.7e-4 42.230195,16.00001 63.345285,16.00001 1.2e-4,0 2.3e-4,0 3.5e-4,0 21.11509,-1.7e-4 42.2302,-16.00001 63.34529,-16.00001 1.2e-4,0 2.3e-4,0 3.5e-4,0 21.11509,1.7e-4 42.23019,16.00001 63.34528,16.00001 1.2e-4,0 2.3e-4,0 3.5e-4,0 21.11509,-1.7e-4 42.2302,-16.00001 63.34529,-16.00001 1.2e-4,0 2.3e-4,0 3.5e-4,0 21.11509,1.7e-4 42.23019,16.00001 63.34528,16.00001 1.2e-4,0 2.3e-4,0 3.5e-4,0 21.11509,-1.7e-4 42.2302,-16.00001 63.34529,-16.00001 1.2e-4,0 2.3e-4,0 3.5e-4,0 21.11509,1.7e-4 42.23019,16.00001 63.34528,16.00001 0,9e-5 0,1.8e-4 0,2.6e-4 0,7.72203 0,15.44406 0,23.16615 -1.2e-4,0 -2.3e-4,0 -3.5e-4,0 -21.11509,-1.8e-4 -42.23019,-16 -63.34528,-16 -1.2e-4,0 -2.3e-4,0 -3.5e-4,0 -21.11509,1.8e-4 -42.2302,16 -63.34529,16 -1.2e-4,0 -2.3e-4,0 -3.5e-4,0 -21.11509,-1.8e-4 -42.23019,-16 -63.34528,-16 -1.2e-4,0 -2.3e-4,0 -3.5e-4,0 -21.11509,1.8e-4 -42.2302,16 -63.34529,16 -1.2e-4,0 -2.3e-4,0 -3.5e-4,0 -21.11509,-1.8e-4 -42.23019,-16 -63.34528,-16 -1.2e-4,0 -2.3e-4,0 -3.5e-4,0 -21.11509,1.8e-4 -42.2302,16 -63.34529,16 -1.2e-4,0 -2.3e-4,0 -3.5e-4,0 -21.11509,-1.8e-4 -42.230192,-16 -63.345286,-16 -1.17e-4,0 -2.34e-4,0 -3.51e-4,0 -21.115095,1.8e-4 -42.230189,16 -63.3452845,16 0,-9e-5 0,-1.7e-4 0,-2.6e-4 0,-7.72209 0,-15.44412 0,-23.16615 0,0 0,0 0,0"
         style="fill:#5599ff;fill-opacity:1;stroke:none"
         inkscape:connector-curvature="0" />
      <path
         id="path3903"
         d="m 9.1794485,882.78864 c 21.1152125,0 42.2304235,-16.00002 63.3456355,-16.00002 8.8e-5,0 1.76e-4,0 2.64e-4,0 21.115123,1.3e-4 42.230252,16.00002 63.345372,16.00002 9e-5,0 1.8e-4,0 2.6e-4,0 21.11513,-1.3e-4 42.23026,-16.00002 63.34538,-16.00002 9e-5,0 1.8e-4,0 2.6e-4,0 21.11513,1.3e-4 42.23025,16.00002 63.34537,16.00002 9e-5,0 1.8e-4,0 2.6e-4,0 21.11513,-1.3e-4 42.23026,-16.00002 63.34538,-16.00002 9e-5,0 1.8e-4,0 2.6e-4,0 21.11513,1.3e-4 42.23025,16.00002 63.34537,16.00002 9e-5,0 1.8e-4,0 2.6e-4,0 21.11513,-1.3e-4 42.23026,-16.00002 63.34538,-16.00002 9e-5,0 1.8e-4,0 2.6e-4,0 21.11513,1.3e-4 42.23025,16.00002 63.34537,16.00002 0,7e-5 0,1.3e-4 0,1.9e-4 0,7.72205 0,15.44409 0,23.16621 -9e-5,0 -1.8e-4,0 -2.6e-4,0 -21.11513,-1.3e-4 -42.23025,-16 -63.34537,-16 -9e-5,0 -1.8e-4,0 -2.6e-4,0 -21.11513,1.4e-4 -42.23026,16 -63.34538,16 -9e-5,0 -1.8e-4,0 -2.6e-4,0 -21.11513,-1.3e-4 -42.23025,-16 -63.34537,-16 -9e-5,0 -1.8e-4,0 -2.6e-4,0 -21.11513,1.4e-4 -42.23026,16 -63.34538,16 -9e-5,0 -1.8e-4,0 -2.6e-4,0 -21.11513,-1.3e-4 -42.23025,-16 -63.34537,-16 -9e-5,0 -1.8e-4,0 -2.6e-4,0 -21.11513,1.4e-4 -42.23026,16 -63.34538,16 -9e-5,0 -1.8e-4,0 -2.6e-4,0 -21.11513,-1.3e-4 -42.230253,-16 -63.345376,-16 -8.8e-5,0 -1.76e-4,0 -2.64e-4,0 -21.115124,1.4e-4 -42.230247,16 -63.3453715,16 0,-6e-5 0,-1.2e-4 0,-1.9e-4 0,-7.72212 0,-15.44416 0,-23.16621 0,0 0,0 0,0"
         style="fill:#80b3ff;fill-opacity:1;stroke:none"
         inkscape:connector-curvature="0" />
      <path
         id="path3905"
         d="m 9.1794485,923.98063 c 21.1152125,0 42.2304235,-16.00003 63.3456355,-16.00003 5.9e-5,0 1.17e-4,0 1.76e-4,0 21.115152,9e-5 42.23031,16.00003 63.34546,16.00003 6e-5,0 1.2e-4,0 1.8e-4,0 21.11515,-9e-5 42.23031,-16.00003 63.34546,-16.00003 6e-5,0 1.2e-4,0 1.8e-4,0 21.11515,9e-5 42.2303,16.00003 63.34545,16.00003 6e-5,0 1.2e-4,0 1.8e-4,0 21.11515,-9e-5 42.23031,-16.00003 63.34546,-16.00003 6e-5,0 1.2e-4,0 1.8e-4,0 21.11515,9e-5 42.2303,16.00003 63.34545,16.00003 6e-5,0 1.2e-4,0 1.8e-4,0 21.11515,-9e-5 42.23031,-16.00003 63.34546,-16.00003 6e-5,0 1.2e-4,0 1.8e-4,0 21.11515,9e-5 42.2303,16.00003 63.34545,16.00003 0,4e-5 0,8e-5 0,1.3e-4 0,7.72206 0,15.44412 0,23.16627 -6e-5,0 -1.2e-4,0 -1.8e-4,0 -21.11515,-9e-5 -42.2303,-16 -63.34545,-16 -6e-5,0 -1.2e-4,0 -1.8e-4,0 -21.11515,9e-5 -42.23031,16 -63.34546,16 -6e-5,0 -1.2e-4,0 -1.8e-4,0 -21.11515,-9e-5 -42.2303,-16 -63.34545,-16 -6e-5,0 -1.2e-4,0 -1.8e-4,0 -21.11515,9e-5 -42.23031,16 -63.34546,16 -6e-5,0 -1.2e-4,0 -1.8e-4,0 -21.11515,-9e-5 -42.2303,-16 -63.34545,-16 -6e-5,0 -1.2e-4,0 -1.8e-4,0 -21.11515,9e-5 -42.23031,16 -63.34546,16 -6e-5,0 -1.2e-4,0 -1.8e-4,0 -21.11515,-9e-5 -42.230304,-16 -63.345456,-16 -5.9e-5,0 -1.17e-4,0 -1.76e-4,0 -21.115153,9e-5 -42.230306,16 -63.3454595,16 0,-4e-5 0,-9e-5 0,-1.3e-4 0,-7.72215 0,-15.44421 0,-23.16627 0,0 0,0 0,0"
         style="fill:#aaccff;fill-opacity:1;stroke:none"
         inkscape:connector-curvature="0" />
      <path
         id="path3907"
         d="m 9.1794485,965.17261 c 21.1152125,0 42.2304235,-16.00002 63.3456355,-16.00002 2.9e-5,0 5.9e-5,0 8.8e-5,0 21.115182,4e-5 42.230368,16.00002 63.345548,16.00002 3e-5,0 6e-5,0 9e-5,0 21.11518,-4e-5 42.23037,-16.00002 63.34555,-16.00002 3e-5,0 6e-5,0 9e-5,0 21.11518,4e-5 42.23036,16.00002 63.34554,16.00002 3e-5,0 6e-5,0 9e-5,0 21.11518,-4e-5 42.23037,-16.00002 63.34555,-16.00002 3e-5,0 6e-5,0 9e-5,0 21.11518,4e-5 42.23036,16.00002 63.34554,16.00002 3e-5,0 6e-5,0 9e-5,0 21.11518,-4e-5 42.23037,-16.00002 63.34555,-16.00002 3e-5,0 6e-5,0 9e-5,0 21.11518,4e-5 42.23036,16.00002 63.34554,16.00002 0,3e-5 0,5e-5 0,7e-5 0,7.72208 0,15.44416 0,23.16633 -3e-5,0 -6e-5,0 -9e-5,0 -21.11518,-4e-5 -42.23036,-16 -63.34554,-16 -3e-5,0 -6e-5,0 -9e-5,0 -21.11518,5e-5 -42.23037,16 -63.34555,16 -3e-5,0 -6e-5,0 -9e-5,0 -21.11518,-4e-5 -42.23036,-16 -63.34554,-16 -3e-5,0 -6e-5,0 -9e-5,0 -21.11518,5e-5 -42.23037,16 -63.34555,16 -3e-5,0 -6e-5,0 -9e-5,0 -21.11518,-4e-5 -42.23036,-16 -63.34554,-16 -3e-5,0 -6e-5,0 -9e-5,0 -21.11518,5e-5 -42.23037,16 -63.34555,16 -3e-5,0 -6e-5,0 -9e-5,0 -21.11518,-4e-5 -42.230364,-16 -63.345546,-16 -2.9e-5,0 -5.9e-5,0 -8.8e-5,0 -21.115183,5e-5 -42.230364,16 -63.3455475,16 0,-2e-5 0,-4e-5 0,-6e-5 0,-7.72217 0,-15.44425 0,-23.16634 0,0 0,0 0,0"
         style="fill:#d5e5ff;fill-opacity:1;stroke:none"
         inkscape:connector-curvature="0" />
      <path
         id="path3887"
         d="m 9.1794485,553.25275 c 21.1152125,0 42.2304235,-16 63.3456345,-16 3.23e-4,0 6.45e-4,0 9.68e-4,0 21.114889,4.9e-4 42.229779,16 63.344669,16 3.2e-4,0 6.4e-4,0 9.7e-4,0 21.11488,-4.9e-4 42.22978,-16 63.34467,-16 3.2e-4,0 6.4e-4,0 9.7e-4,0 21.11488,4.9e-4 42.22977,16 63.34466,16 3.2e-4,0 6.4e-4,0 9.7e-4,0 21.11488,-4.9e-4 42.22978,-16 63.34467,-16 3.2e-4,0 6.4e-4,0 9.7e-4,0 21.11488,4.9e-4 42.22977,16 63.34466,16 3.2e-4,0 6.4e-4,0 9.7e-4,0 21.11488,-4.9e-4 42.22978,-16 63.34467,-16 3.2e-4,0 6.4e-4,0 9.7e-4,0 21.11488,4.9e-4 42.22977,16 63.34466,16 0,2.4e-4 0,4.7e-4 0,7.1e-4 0,7.7219 0,15.4438 0,23.1657 -3.2e-4,0 -6.4e-4,0 -9.7e-4,0 -21.11488,-4.9e-4 -42.22977,-16 -63.34466,-16 -3.2e-4,0 -6.4e-4,0 -9.7e-4,0 -21.11488,4.9e-4 -42.22978,16 -63.34467,16 -3.2e-4,0 -6.4e-4,0 -9.7e-4,0 -21.11488,-4.9e-4 -42.22977,-16 -63.34466,-16 -3.2e-4,0 -6.4e-4,0 -9.7e-4,0 -21.11488,4.9e-4 -42.22978,16 -63.34467,16 -3.2e-4,0 -6.4e-4,0 -9.7e-4,0 -21.11488,-4.9e-4 -42.22977,-16 -63.34466,-16 -3.2e-4,0 -6.4e-4,0 -9.7e-4,0 -21.11488,4.9e-4 -42.22978,16 -63.34467,16 -3.2e-4,0 -6.4e-4,0 -9.7e-4,0 -21.11488,-4.9e-4 -42.229778,-16 -63.344666,-16 -3.21e-4,0 -6.43e-4,0 -9.67e-4,0 -21.114889,4.9e-4 -42.229778,16 -63.3446685,16 0,-2.4e-4 0,-4.7e-4 0,-7.1e-4 0,-7.7219 0,-15.4438 0,-23.1657 0,0 0,0 0,0"
         style="fill:#00112a;fill-opacity:1;stroke:none"
         inkscape:connector-curvature="0" />
    </g>
  </g>
</svg>
