<?xml version="1.0" encoding="UTF-8" standalone="no"?>
<!-- Created with Inkscape (http://www.inkscape.org/) -->

<svg
   xmlns:dc="http://purl.org/dc/elements/1.1/"
   xmlns:cc="http://creativecommons.org/ns#"
   xmlns:rdf="http://www.w3.org/1999/02/22-rdf-syntax-ns#"
   xmlns:svg="http://www.w3.org/2000/svg"
   xmlns="http://www.w3.org/2000/svg"
   xmlns:sodipodi="http://sodipodi.sourceforge.net/DTD/sodipodi-0.dtd"
   xmlns:inkscape="http://www.inkscape.org/namespaces/inkscape"
   width="984.20447"
   height="690.0647"
   id="svg4739"
   version="1.1"
   inkscape:version="0.48.2 r9819"
   sodipodi:docname="Boulders.svg">
  <defs
     id="defs4741" />
  <sodipodi:namedview
     id="base"
     pagecolor="#ffffff"
     bordercolor="#666666"
     borderopacity="1.0"
     inkscape:pageopacity="0.0"
     inkscape:pageshadow="2"
     inkscape:zoom="0.175"
     inkscape:cx="403.75084"
     inkscape:cy="167.60228"
     inkscape:document-units="px"
     inkscape:current-layer="layer1"
     showgrid="false"
     inkscape:window-width="1280"
     inkscape:window-height="738"
     inkscape:window-x="-8"
     inkscape:window-y="-8"
     inkscape:window-maximized="1"
     fit-margin-top="0"
     fit-margin-left="0"
     fit-margin-right="0"
     fit-margin-bottom="0" />
  <metadata
     id="metadata4744">
    <rdf:RDF>
      <cc:Work
         rdf:about="">
        <dc:format>image/svg+xml</dc:format>
        <dc:type
           rdf:resource="http://purl.org/dc/dcmitype/StillImage" />
        <dc:title></dc:title>
      </cc:Work>
    </rdf:RDF>
  </metadata>
  <g
     inkscape:label="Layer 1"
     inkscape:groupmode="layer"
     id="layer1"
     transform="translate(159.06308,-283.81817)">
    <g
       id="g4780"
       transform="translate(1480.2523,406.08555)">
      <path
         inkscape:connector-curvature="0"
         id="path4762"
         d="m -753.39661,337.44691 c 0,0 30,-27.14286 38.57142,-34.28571 8.57143,-7.14286 14.28572,-1.42858 27.14286,-30 12.85714,-28.57143 28.57143,-54.28572 28.57143,-60 0,-5.71429 -7.14286,-37.14286 -7.14286,-47.14286 0,-10 -4.28571,-28.57143 -8.57143,-40 -4.28571,-11.42857 -48.57142,-62.85714 -48.57142,-62.85714 l -75.71429,-144.28572 -57.14286,-27.14286 -45.7143,0 -41.4286,-10 -94.28574,17.14286 -47.1428,31.42857 -48.5715,50 c 0,0 -31.4285,24.2857198 -45.7142,31.42857 -14.2858,7.14286 -40,28.57143 -40,28.57143 l -8.5715,44.28572 -42.8571,85.71428 c 0,0 -84.2857,44.28572 -84.2857,68.57143 0,24.28572 27.1428,80 31.4285,85.71429 4.2858,5.71428 -7.1428,95.71428 -4.2857,104.28571 2.8572,8.57143 101.4286,41.42857 101.4286,41.42857 l 110,-7.14285 c 0,0 72.8571,-17.14286 82.8571,-20 10,-2.85715 34.28584,-1.42858 34.28584,-1.42858 0,0 50,-1.42857 60,-1.42857 10,0 122.8571,-35.71428 122.8571,-35.71428 l 68.57143,-62.85715 -2.85714,-18.57142 z"
         style="fill:#b2b2b2;fill-opacity:1;stroke:#000000;stroke-width:8;stroke-linecap:butt;stroke-linejoin:miter;stroke-opacity:1" />
      <path
         inkscape:connector-curvature="0"
         id="path4774"
         d="m -1234.9335,113.64332 c -23.1014,23.17612 -26.3471,64.56654 -61.1142,77.27667 -19.3194,15.18584 -50.2981,26.42095 -56.4423,52.14913 2.0386,32.9428 27.6694,60.08852 31.1498,91.66055 -1.215,31.79063 -4.1887,64.13435 -4.1282,95.59647 44.088,12.68503 85.8655,44.51254 133.709,33.30417 60.1679,0.27288 117.6784,-19.68761 177.1654,-24.08652 35.19168,11.13031 27.79488,-18.672 24.81228,-42.54036 0.3207,-20.81109 0.2127,-42.26795 -26.15778,-43.85422 -19.7499,-11.61666 -49.955,-16.65487 -60.0212,-38.99061 -3.3681,-20.78037 9.8682,-39.60284 17.9302,-56.82108 -50.7861,-24.46567 -100.8374,-50.98128 -144.5781,-86.74685 -24.4097,-6.68114 -27.1893,-34.56568 -29.0419,-55.68466 -0.6539,-1.13677 -2.0331,-1.738 -3.283,-1.26269 z"
         style="fill:#999999;fill-opacity:1;stroke:none" />
      <path
         inkscape:connector-curvature="0"
         id="path4778"
         d="m -941.73673,-110.91013 c -13.47623,2.88095 -35.58707,0.83083 -44.82552,10.35406 29.58962,4.442298 71.92925,5.066788 81.56982,40.279838 11.91413,39.14081 57.41998,51.6287198 86.20793,75.58338 30.77743,17.25902 58.38989,44.18955 91.70519,54.97883 6.08001,-9.29929 -10.9328,-23.02399 -12.50003,-33.21571 -19.63765,-38.3958702 -39.42345,-76.90306 -59.85215,-114.77163 -32.88809,-17.27799 -67.91366,-30.801138 -105.66984,-28.532258 -12.42431,-0.26974 -24.14384,-5.75636 -36.6354,-4.67651 z"
         style="fill:#cacaca;fill-opacity:1;stroke:none" />
    </g>
    <g
       id="g4793"
       transform="translate(517.96949,914.60338)">
      <path
         inkscape:connector-curvature="0"
         id="path4758"
         d="m -598.74686,-50.241403 -25.71428,-10 -42.85715,-34.28571 -5.71428,-52.857137 30,-62.85715 4.28571,-27.14285 25.71429,-21.42858 18.57143,-55.71428 28.57143,-21.42857 5.71428,-27.14286 31.42857,-45.71429 30,-58.57142 15.71429,-15.71429 105.71429,11.42857 c 0,0 28.57142,-2.85714 34.28571,-2.85714 5.71428,0 67.14286,21.42857 74.28571,25.71428 7.14286,4.28572 22.85715,5.71429 22.85715,5.71429 l 41.42857,14.28571 50,12.85715 10,67.14285 c 0,0 14.28571,12.85715 15.71428,20 1.42857,7.14286 4.28572,55.71429 4.28572,55.71429 l 12.85714,38.57143 17.14286,41.42857 -15.71429,42.85714 -17.14286,44.28572 -47.14285,67.142847 c 0,0 -95.71429,7.14286 -101.42857,7.14286 -5.71429,0 -104.28572,-7.14286 -104.28572,-7.14286 l -58.57143,-7.14285 -28.57143,-2.85715 -41.42857,18.57143 -37.14285,-11.42857 z"
         style="fill:#b2b2b2;fill-opacity:1;stroke:#000000;stroke-width:8;stroke-linecap:butt;stroke-linejoin:miter;stroke-opacity:1" />
      <path
         inkscape:connector-curvature="0"
         id="path4787"
         d="m -262.46011,-441.43762 c -27.40227,10.46526 -39.70074,42.88111 -58.58885,63.89215 -12.87282,12.89683 -13.61137,36.2952 6.81853,42.0476 32.37957,21.34458 73.54108,25.34362 105.56094,45.45686 20.86549,18.04982 17.12588,54.37062 46.71955,64.5235 20.10426,9.40294 39.22984,27.46962 60.8617,30.68338 -3.44701,-22.47142 -17.99773,-45.58427 -21.72489,-69.31797 -9.02721,-27.37652 -3.05301,-59.79597 -22.34302,-82.83626 -7.31151,-21.45881 -7.29881,-44.89043 -12.50064,-66.5438 -35.59309,-6.334 -69.06917,-24.15784 -104.80332,-27.90546 z"
         style="fill:#cacaca;fill-opacity:1;stroke:none" />
      <path
         inkscape:connector-curvature="0"
         id="path4791"
         d="m -468.27869,-477.91098 c -32.69831,-0.73421 -36.67742,40.84284 -53.28555,60.86169 -16.45946,27.0622 -35.15071,53.08806 -43.94164,83.46385 -15.27124,14.03999 -33.13196,26.86414 -36.23922,49.62375 -2.99054,26.21639 -28.83265,39.05807 -36.99684,61.87184 -7.40873,39.12785 -40.84206,73.36585 -26.39023,115.5362 9.32401,26.288404 39.75108,39.014512 63.2608,50.507623 33.10881,5.619438 66.06551,20.275499 99.75257,18.182746 29.28404,-18.216121 63.14213,-12.315659 95.20687,-7.323606 -0.54079,-19.625042 2.66729,-45.195639 -4.85838,-63.611503 -31.4135,-33.38687 -64.4778,-69.89326 -112.1869,-77.63123 -17.53164,-2.47739 -10.93093,-29.58045 -9.35005,-42.98384 40.79468,15.15427 86.04805,25.43623 129.8046,21.46574 19.09743,-4.08628 21.53717,-27.94385 6.69226,-39.01714 -15.33223,-16.30191 -43.92108,-41.68486 -28.53681,-65.53364 9.69156,0.20958 23.84871,18.00481 29.67323,1.01015 2.98664,-15.64079 25.29593,-39.03816 7.57614,-52.14913 -25.64231,-12.35934 -56.00062,-14.34187 -78.41309,-33.71384 9.10252,-25.52084 22.30939,-50.77838 30.30458,-75.88771 -10.4358,-2.99369 -21.11992,-5.55216 -32.07234,-4.67195 z"
         style="fill:#999999;fill-opacity:1;stroke:none" />
    </g>
    <g
       id="g4840"
       transform="translate(928.57143,108.57144)">
      <path
         inkscape:connector-curvature="0"
         id="path4834"
         d="m -445.71429,546.6479 -5.71428,-60 17.14285,-17.14286 57.14286,0 37.14286,0 14.28571,22.85715 45.71429,22.85714 34.28571,34.28571 42.85713,54.28572 51.4286,31.42857 -28.5714,40 -31.4286,22.85714 -37.14287,34.28572 -54.28572,-8.57143 -108.57142,-40 c 0,0 -42.85715,-77.14286 -54.28572,-77.14286 -11.42857,0 -17.14286,8.57143 -17.14286,-2.85714 0,-11.42857 37.14286,-57.14286 37.14286,-57.14286 z"
         style="fill:#b2b2b2;fill-opacity:1;stroke:#000000;stroke-width:8;stroke-linecap:butt;stroke-linejoin:miter;stroke-opacity:1" />
      <path
         inkscape:connector-curvature="0"
         id="path4838"
         d="m -363.95899,474.21209 c -15.00811,-0.0584 -14.46485,21.27241 -14.55357,32.05357 7.13726,21.33172 36.14575,20.81134 51.16071,34.28571 29.91516,19.77384 54.22657,46.35356 80.17858,71.07143 -9.01686,28.9168 -3.07459,61.03944 13.03571,85.98214 9.47106,13.09113 19.33127,-4.44737 27.71107,-9.06346 18.45514,-13.58172 36.96681,-30.89322 46.12822,-51.82939 -24.11311,-16.72915 -51.30587,-30.41334 -67.17258,-56.65062 -25.3819,-34.33724 -56.63269,-64.70473 -95.77385,-82.18867 -13.42729,-5.53425 -13.91207,-27.86888 -32.05357,-23.75 -2.88643,0.0425 -5.77772,-0.0999 -8.66072,0.0893 z"
         style="fill:#cacaca;fill-opacity:1;stroke:none" />
    </g>
    <g
       id="g4802"
       transform="translate(1462.8571,45.714287)">
      <path
         inkscape:connector-curvature="0"
         id="path4764"
         d="m -764.23933,786.49411 -8.57142,-88.57143 -34.28572,-55.71428 -64.28571,-34.28572 -51.42857,-20 -68.57143,-7.14285 c 0,0 -52.85712,-1.42857 -64.28572,0 -11.4286,1.42857 -57.1429,21.42857 -57.1429,21.42857 l -42.8571,48.57143 c 0,0 -8.5715,30 -14.2857,34.28571 -5.7143,4.28572 -17.1429,34.28572 -17.1429,34.28572 0,0 11.4286,50 11.4286,55.71428 0,5.71429 34.2857,52.85719 40,52.85719 5.7143,0 107.1429,-2.8572 114.2857,-5.7143 7.1429,-2.8572 41.42859,-14.28575 41.42859,-14.28575 l 52.85714,7.14285 c 0,0 31.42857,-2.85713 37.14286,-2.85713 5.71428,0 48.57143,5.71433 48.57143,5.71433 l 40,-14.28576 z"
         style="fill:#cacaca;fill-opacity:1;stroke:#000000;stroke-width:8;stroke-linecap:butt;stroke-linejoin:miter;stroke-opacity:1" />
      <path
         inkscape:connector-curvature="0"
         id="path4800"
         d="m -1120.9635,637.43845 c -28.6192,-2.08867 -36.3723,29.16611 -45.7095,49.37121 -11.3056,19.10529 -23.4711,38.00342 -13.0057,60.48288 6.4211,28.56147 19.6555,61.08081 45.5832,76.39279 51.374,2.58526 103.5594,-2.69621 152.91181,-16.92005 29.8122,-0.40486 64.25615,11.87103 90.91377,-1.89404 -29.33193,-21.76623 -63.59393,-39.48307 -89.97377,-63.69437 -14.9717,-30.45817 -24.11081,-65.99612 -44.12401,-93.00554 -31.029,-8.98579 -64.3758,-10.5645 -96.5958,-10.73288 z"
         style="fill:#b2b2b2;fill-opacity:1;stroke:none" />
    </g>
    <g
       id="g4816"
       transform="translate(614.28571,-122.85714)">
      <path
         inkscape:connector-curvature="0"
         id="path4766"
         d="m -598.57143,1035.2193 4.28571,-27.1428 12.85715,-21.4286 -17.14286,-21.42858 -10,-8.57142 c 0,0 -25.71429,-22.85715 -32.85714,-22.85715 -7.14286,0 -20,8.57143 -25.71429,11.42857 -5.71429,2.85715 -18.57143,2.85715 -18.57143,10 0,7.14286 -15.71428,28.57143 -15.71428,28.57143 0,0 -21.42858,20.00005 -21.42858,30.00005 0,10 2.85715,27.1428 11.42858,27.1428 8.57142,0 44.28571,-1.4286 44.28571,-1.4286 l 11.42857,14.2858 c 0,0 21.42857,8.5714 28.57143,1.4285 7.14286,-7.1428 28.57143,-20 28.57143,-20 z"
         style="fill:#b2b2b2;fill-opacity:1;stroke:#000000;stroke-width:8;stroke-linecap:butt;stroke-linejoin:miter;stroke-opacity:1" />
      <path
         inkscape:connector-curvature="0"
         id="path4814"
         d="m -694.28571,989.50504 -17.14286,20.00006 11.42857,22.8571 25.71429,0 25.71428,0 z"
         style="fill:#999999;fill-opacity:1;stroke:none" />
    </g>
    <g
       id="g4822"
       transform="translate(928.57143,300)">
      <path
         inkscape:connector-curvature="0"
         id="path4768"
         d="m -728.57143,606.64789 c 0,0 -14.28571,-18.57142 -14.28571,-28.57142 0,-10 2.85714,-21.42858 -4.28572,-24.28572 -7.14286,-2.85714 -75.71428,-20 -81.42857,-20 -5.71429,0 -62.85714,20 -62.85714,20 0,0 -27.14286,17.14286 -32.85715,21.42857 -5.71428,4.28572 -17.14285,8.57143 -21.42857,22.85715 -4.28571,14.28571 -11.42857,30 -11.42857,30 0,0 10,30 15.71429,30 5.71428,0 80,14.28571 88.57143,11.42857 8.57142,-2.85715 20,-11.42857 31.42857,-11.42857 11.42857,0 57.14285,5.71428 64.28571,5.71428 7.14286,0 27.14286,-11.42857 27.14286,-20 0,-8.57143 1.42857,-37.14286 1.42857,-37.14286 z"
         style="fill:#cacaca;fill-opacity:1;stroke:#000000;stroke-width:8;stroke-linecap:butt;stroke-linejoin:miter;stroke-opacity:1" />
      <path
         inkscape:connector-curvature="0"
         id="path4820"
         d="m -868.57143,572.36218 c 0,0 20,0 34.28572,0 14.28571,0 42.85714,20 42.85714,20 l 20,34.28572 22.85714,5.71428 11.42857,-8.57143 -28.57143,-60 -60,-20 L -880,578.07647 z"
         style="fill:#e4e4e4;fill-opacity:1;stroke:none" />
    </g>
    <g
       id="g4828"
       transform="translate(1451.4286,228.57143)">
      <path
         inkscape:connector-curvature="0"
         id="path4770"
         d="m -1087.1429,668.07646 c 0,0 10,-25.71428 10,-35.71428 0,-10 -1.4285,-44.28572 -1.4285,-44.28572 0,0 -22.8572,-10 -25.7143,-15.71428 -2.8572,-5.71429 -10,-21.42857 -15.7143,-27.14286 -5.7143,-5.71428 -30,-31.42857 -30,-31.42857 l -77.1429,10 -41.4285,32.85714 c 0,0 -25.7143,20 -25.7143,28.57143 0,8.57143 0,40 0,40 0,0 17.1428,18.57143 18.5714,25.71429 1.4286,7.14285 14.2857,30 20,30 5.7143,0 60,-14.28572 67.1429,-12.85715 7.1428,1.42858 38.5714,2.85715 38.5714,2.85715 z"
         style="fill:#e4e4e4;fill-opacity:1;stroke:#000000;stroke-width:8;stroke-linecap:butt;stroke-linejoin:miter;stroke-opacity:1" />
      <path
         inkscape:connector-curvature="0"
         id="path4826"
         d="m -1222.8571,546.6479 c 0,11.42857 42.8571,31.42857 42.8571,48.57143 0,17.14285 51.4286,48.57142 51.4286,48.57142 l 22.8571,5.71429 -25.7143,-60 22.8572,-17.14286 -37.1429,-48.57143 -20,57.14286 -20,-45.71428 z"
         style="fill:#f2f2f2;fill-opacity:1;stroke:none" />
    </g>
    <g
       id="g4808"
       transform="matrix(0.99903751,-0.0438641,0.0438641,0.99903751,1082.3204,307.15595)">
      <path
         inkscape:connector-curvature="0"
         id="path4760"
         d="m -545.71429,598.07646 -7.14285,-28.57143 1.42857,-18.57142 -8.57143,-32.85715 -10,-28.57143 -34.28571,-27.14285 -7.14286,-12.85715 -44.28572,-24.28571 -55.71428,1.42857 -22.85715,21.42857 -32.85714,10 -20,18.57143 c 0,0 -18.57143,10 -24.28571,17.14286 -5.71429,7.14286 -18.57143,20 -20,27.14286 -1.42857,7.14285 -7.14286,25.71428 -7.14286,25.71428 l -5.71428,20 8.57142,22.85714 44.28572,5.71429 30,5.71429 122.85714,8.57142 81.42857,1.42858 z"
         style="fill:#e4e4e4;fill-opacity:1;stroke:#000000;stroke-width:8;stroke-linecap:butt;stroke-linejoin:miter;stroke-opacity:1" />
      <path
         inkscape:connector-curvature="0"
         id="path4806"
         d="m -637.14286,460.93361 c 0,0 -25.71428,-2.85714 -37.14285,-2.85714 -11.42858,0 -40,2.85714 -22.85715,11.42857 17.14286,8.57143 37.14286,11.42857 54.28572,20 17.14285,8.57143 37.14285,34.28571 37.14285,34.28571 l 14.28572,5.71429 L -600,483.79075 z"
         style="fill:#f2f2f2;fill-opacity:1;stroke:none" />
    </g>
    <g
       id="g4848"
       transform="translate(688.57143,-3.1194527e-6)">
      <path
         sodipodi:nodetypes="cccssccsccc"
         inkscape:connector-curvature="0"
         id="path4844"
         d="m -63.639606,884.67686 c 0,-4.04061 -3.03046,-32.32488 -3.03046,-32.32488 l -30.30458,-23.23351 c 0,0 -20.203054,-4.04061 -26.263964,-5.05076 -6.06092,-1.01015 -18.18275,-9.09137 -22.22336,4.04061 -4.04061,13.13198 -7.07107,21.2132 -7.07107,21.2132 l -21.2132,26.26397 c 0,0 12.12183,25.25381 16.16244,26.26396 4.04061,1.01016 43.43656,2.02031 43.43656,2.02031 l 39.395954,0 z"
         style="fill:#e6e6e6;fill-opacity:1;stroke:#000000;stroke-width:8;stroke-linecap:butt;stroke-linejoin:miter;stroke-opacity:1" />
      <path
         inkscape:connector-curvature="0"
         id="path4846"
         d="m -115.1574,832.14893 c -2.0203,4.04061 -1.01015,10.10153 0,15.15229 1.01016,5.05076 1.01016,4.04061 6.06092,9.09137 5.05076,5.05076 28.284276,13.13198 28.284276,13.13198 l 4.040611,-19.19289 -21.213204,-12.12183 z"
         style="fill:#f2f2f2;fill-opacity:1;stroke:none" />
    </g>
  </g>
</svg>
