<?xml version="1.0" encoding="UTF-8" standalone="no"?>
<!-- Created with Inkscape (http://www.inkscape.org/) -->

<svg
   xmlns:dc="http://purl.org/dc/elements/1.1/"
   xmlns:cc="http://creativecommons.org/ns#"
   xmlns:rdf="http://www.w3.org/1999/02/22-rdf-syntax-ns#"
   xmlns:svg="http://www.w3.org/2000/svg"
   xmlns="http://www.w3.org/2000/svg"
   xmlns:xlink="http://www.w3.org/1999/xlink"
   xmlns:sodipodi="http://sodipodi.sourceforge.net/DTD/sodipodi-0.dtd"
   xmlns:inkscape="http://www.inkscape.org/namespaces/inkscape"
   height="50"
   id="svg1733"
   inkscape:version="0.48.1 r9760"
   sodipodi:docname="tree6.svg"
   sodipodi:version="0.32"
   width="50"
   inkscape:output_extension="org.inkscape.output.svg.inkscape"
   version="1.0">
  <metadata
     id="metadata3">
    <rdf:RDF>
      <cc:Work
         rdf:about="">
        <dc:title></dc:title>
        <dc:description>This is a simple tree designed for use in the elements and principles tutoral in Inkscape.</dc:description>
        <dc:subject>
          <rdf:Bag>
            <rdf:li />
            <rdf:li>plant</rdf:li>
            <rdf:li>flower</rdf:li>
            <rdf:li>park</rdf:li>
          </rdf:Bag>
        </dc:subject>
        <dc:publisher>
          <cc:Agent
             rdf:about="http://www.openclipart.org">
            <dc:title>Jon Phillips</dc:title>
          </cc:Agent>
        </dc:publisher>
        <dc:creator>
          <cc:Agent>
            <dc:title>Jon Phillips</dc:title>
          </cc:Agent>
        </dc:creator>
        <dc:rights>
          <cc:Agent>
            <dc:title>Jon Phillips</dc:title>
          </cc:Agent>
        </dc:rights>
        <dc:date />
        <dc:format>image/svg+xml</dc:format>
        <dc:type
           rdf:resource="http://purl.org/dc/dcmitype/StillImage" />
        <cc:license
           rdf:resource="http://web.resource.org/cc/PublicDomain" />
        <dc:language>en</dc:language>
      </cc:Work>
      <cc:License
         rdf:about="http://web.resource.org/cc/PublicDomain">
        <cc:permits
           rdf:resource="http://web.resource.org/cc/Reproduction" />
        <cc:permits
           rdf:resource="http://web.resource.org/cc/Distribution" />
        <cc:permits
           rdf:resource="http://web.resource.org/cc/DerivativeWorks" />
      </cc:License>
    </rdf:RDF>
  </metadata>
  <defs
     id="defs1735">
    <inkscape:perspective
       sodipodi:type="inkscape:persp3d"
       inkscape:vp_x="0 : 526.18109 : 1"
       inkscape:vp_y="0 : 1000 : 0"
       inkscape:vp_z="744.09448 : 526.18109 : 1"
       inkscape:persp3d-origin="372.04724 : 350.78739 : 1"
       id="perspective34" />
  </defs>
  <sodipodi:namedview
     bordercolor="#666666"
     borderopacity="1.0"
     id="base"
     inkscape:cx="36.12585"
     inkscape:cy="25.336785"
     inkscape:pageopacity="0.0"
     inkscape:pageshadow="2"
     inkscape:window-height="710"
     inkscape:window-width="1366"
     inkscape:window-x="0"
     inkscape:window-y="26"
     inkscape:zoom="7.0453956"
     pagecolor="#ffffff"
     showgrid="false"
     inkscape:current-layer="svg1733"
     inkscape:window-maximized="1"
     fit-margin-top="0"
     fit-margin-left="0"
     fit-margin-right="0"
     fit-margin-bottom="0" />
  <g
     id="g2488"
     transform="matrix(0.21865909,0,0,0.21865909,-57.141375,-57.206623)">
    <path
       d="m 364.37458,270.96875 -4.53125,0.15625 c 0.651,8.03375 1.76454,15.97574 3,23.9375 0.5484,3.49638 1.16385,7.09544 1.6875,10.6875 -4.14152,-7.43014 -9.46791,-14.24981 -16.53125,-20.25 -5.72819,-4.31637 -11.68252,-7.85664 -18.15625,-10.9375 L 324.24958,280 c 5.80159,2.67079 11.15086,5.76661 16.3125,9.53125 6.69699,5.52926 11.78465,11.89989 15.71875,18.875 -7.13722,-3.93831 -15.21841,-6.85796 -22.53125,-9.5625 -4.18865,-1.42463 -8.35445,-2.7175 -12.625,-3.875 l -1.8125,3.0625 c 4.08502,1.10095 8.06378,2.33795 12.0625,3.71875 8.13618,3.0653 16.0425,6.62287 23.5625,11 0.39277,0.22861 3.56542,3.07061 5.875,5.125 1.56325,4.01794 2.8198,8.22682 3.8125,12.5625 -4.12424,-1.57808 -13.20489,-4.86627 -16.71875,-5.71875 -3.56851,-0.73065 -7.06609,-1.26244 -10.6875,-1.65625 l -0.8125,3.375 c 3.30854,0.35953 6.49235,0.85056 9.75,1.53125 6.69668,1.65326 12.89856,4.68578 19.34375,6.75 0.27114,1.45013 0.561,2.89528 0.78125,4.375 0.56422,4.66911 1.0332,9.63007 1.125,14.59375 l -1.15625,4.53125 c -4.95302,-2.06482 -8.83625,-3.66492 -11.4375,-4.75 -12.99791,-5.37188 -26.10001,-10.10214 -39.84375,-13.1875 l -3,6.15625 c 10.87366,2.35408 21.22986,6.08203 31.46875,10.28125 -4.57387,0.28205 -9.12025,0.77039 -13.71875,1.875 -1.07475,0.31349 -2.14401,0.62402 -3.21875,0.9375 l 2.03125,3.15625 c 0.97563,-0.28107 1.93061,-0.56269 2.90625,-0.84375 6.80475,-1.63022 13.73519,-1.88322 20.6875,-1.75 5.43723,2.02636 10.83181,3.42954 12.6875,8.125 -0.28865,7.42059 0.26983,13.03675 0.59375,20.40625 0.0117,0.59052 0.0196,3.15456 0.0312,5.71875 -4.23153,-3.33127 -12.11222,-8.94039 -14.375,-10.375 -4.66634,-2.7824 -9.36068,-5.41183 -14.1875,-7.90625 l -2.9375,2.59375 c 4.66963,2.44062 9.21697,5.01316 13.71875,7.75 5.48492,3.56782 13.90144,9.30232 17.625,17.25 -1.18079,21.36104 -0.38497,33.6606 -0.75,56.375 -0.17721,9.15927 0.59084,19.25043 -1.15625,28.3125 l 11.53125,0 c -1.74707,-9.06207 -1.01029,-19.15324 -1.1875,-28.3125 -0.38795,-24.13976 -1.74389,-35.9759 0.3125,-60.0625 0.003,-0.0308 -0.003,-0.0629 0,-0.0937 4.81345,-7.33269 10.75358,-15.6987 13.75,-19.25 6.4444,-6.93616 16.24827,-14.46234 24.40625,-19.3125 l -6.59375,-5 c -4.03017,2.42794 -7.80607,5.1201 -11.40625,8.03125 1.70212,-4.04098 3.57269,-8.54221 4.125,-10.15625 l -3.5625,0.59375 c -1.1262,3.01132 -4.22402,9.62441 -6.65625,15.125 -2.08333,1.94244 -4.23903,3.78393 -6.21875,5.875 -2.81874,3.23084 -3.12149,3.65475 -5.5625,6.53125 1.82584,-12.0313 4.38908,-23.93047 8.75,-35.34375 0.25774,-0.65718 0.57336,-1.28553 0.84375,-1.9375 3.91233,-1.89928 7.69077,-4.32434 11.09375,-6.28125 3.60316,-1.9957 7.23683,-3.82429 11,-5.5 l -2.78125,-2.84375 c -3.94454,1.73783 -7.77473,3.60006 -11.5625,5.65625 -1.41655,0.79482 -3.33433,2.00982 -5.125,3.125 4.04972,-8.41094 9.0736,-16.37881 14.625,-23.875 7.3756,-0.19091 14.62438,0.17605 21.84375,2 l 1.8125,-3.21875 c -6.98674,-1.77718 -13.83942,-2.14801 -20.84375,-2.4375 4.68079,-5.89909 9.70615,-11.51213 14.71875,-17.125 l -8.625,-3.5 c -5.69298,6.38279 -11.4731,12.71558 -16.6875,19.5 -3.01006,4.01528 -5.78703,8.16212 -8.4375,12.40625 -0.087,-5.59135 -0.075,-11.18899 -0.125,-16.71875 -0.0649,-8.40805 -0.37986,-16.80402 -1.03125,-25.1875 l -4.5,0.15625 c 0.65673,8.32767 0.93946,16.67816 0.875,25.03125 -0.0774,8.55351 0.22124,17.28769 -0.46875,25.84375 -2.03832,3.87471 -3.91809,7.84587 -5.53125,11.9375 -0.15339,-1.84458 -0.30688,-3.68155 -0.59375,-5.5 -1.12943,-6.24887 -2.64166,-12.24023 -4.5625,-17.96875 -0.85382,-8.68289 -1.93838,-17.18377 -3.4375,-25.8125 -1.3426,-7.89844 -2.51752,-15.76302 -3.1875,-23.75 z"
       id="path1745"
       style="fill:#000000;fill-opacity:0.75;fill-rule:nonzero;stroke:none"
       inkscape:connector-curvature="0" />
    <path
       d="m 334.26087,336.29169 c 0,19.59736 -15.8868,35.48417 -35.48417,35.48417 -19.59736,0 -35.48417,-15.88681 -35.48417,-35.48417 0,-19.59737 15.88681,-35.48417 35.48417,-35.48417 19.59737,0 35.48417,15.8868 35.48417,35.48417 z"
       id="path2432"
       sodipodi:cx="298.7767"
       sodipodi:cy="336.29169"
       sodipodi:rx="35.484169"
       sodipodi:ry="35.484169"
       sodipodi:type="arc"
       style="fill:#38a600;fill-opacity:1;fill-rule:evenodd;stroke:none"
       transform="matrix(0.4,0,0,0.4,203.3953,214.5493)" />
    <use
       height="1052.3622"
       id="use2461"
       transform="translate(99.35567,-51.0972)"
       width="744.09448"
       x="0"
       xlink:href="#path2432"
       y="0" />
    <use
       height="1052.3622"
       id="use2462"
       transform="translate(48.25846,42.581)"
       width="744.09448"
       x="0"
       xlink:href="#path2432"
       y="0" />
    <path
       d="m 334.26087,336.29169 c 0,19.59736 -15.8868,35.48417 -35.48417,35.48417 -19.59736,0 -35.48417,-15.88681 -35.48417,-35.48417 0,-19.59737 15.88681,-35.48417 35.48417,-35.48417 19.59737,0 35.48417,15.8868 35.48417,35.48417 z"
       id="path2463"
       sodipodi:cx="298.7767"
       sodipodi:cy="336.29169"
       sodipodi:rx="35.484169"
       sodipodi:ry="35.484169"
       sodipodi:type="arc"
       style="fill:#2c8400;fill-opacity:1;fill-rule:evenodd;stroke:none"
       transform="matrix(0.4,0,0,0.4,217.5889,143.581)" />
    <use
       height="1052.3622"
       id="use2464"
       transform="translate(62.45214,28.38733)"
       width="744.09448"
       x="0"
       xlink:href="#path2463"
       y="0" />
    <use
       height="1052.3622"
       id="use2465"
       transform="translate(48.25847,102.1944)"
       width="744.09448"
       x="0"
       xlink:href="#path2463"
       y="0" />
    <path
       d="m 334.26087,336.29169 c 0,19.59736 -15.8868,35.48417 -35.48417,35.48417 -19.59736,0 -35.48417,-15.88681 -35.48417,-35.48417 0,-19.59737 15.88681,-35.48417 35.48417,-35.48417 19.59737,0 35.48417,15.8868 35.48417,35.48417 z"
       id="path2466"
       sodipodi:cx="298.7767"
       sodipodi:cy="336.29169"
       sodipodi:rx="35.484169"
       sodipodi:ry="35.484169"
       sodipodi:type="arc"
       style="fill:#43c800;fill-opacity:1;fill-rule:evenodd;stroke:none"
       transform="matrix(0.4,0,0,0.4,206.234,163.4521)" />
    <use
       height="1052.3622"
       id="use2467"
       transform="translate(22.70987,83.49911)"
       width="744.09448"
       x="0"
       xlink:href="#path2466"
       y="0" />
    <use
       height="1052.3622"
       id="use2468"
       transform="translate(73.80707,31.22607)"
       width="744.09448"
       x="0"
       xlink:href="#path2466"
       y="0" />
    <use
       height="1052.3622"
       id="use2470"
       transform="translate(2.838733,79.48454)"
       width="744.09448"
       x="0"
       xlink:href="#path2463"
       y="0" />
    <use
       height="1052.3622"
       id="use2471"
       transform="translate(48.25847,22.70987)"
       width="744.09448"
       x="0"
       xlink:href="#path2432"
       y="0" />
    <use
       height="1052.3622"
       id="use2472"
       transform="translate(36.90353,45.41973)"
       width="744.09448"
       x="0"
       xlink:href="#path2466"
       y="0" />
    <use
       height="1052.3622"
       id="use2473"
       transform="translate(2.838733,45.41973)"
       width="744.09448"
       x="0"
       xlink:href="#path2463"
       y="0" />
    <use
       height="1052.3622"
       id="use2474"
       transform="translate(79.48454,11.35493)"
       width="744.09448"
       x="0"
       xlink:href="#path2432"
       y="0" />
    <use
       height="1052.3622"
       id="use2475"
       transform="translate(36.90353,-17.0324)"
       width="744.09448"
       x="0"
       xlink:href="#path2466"
       y="0" />
    <use
       height="1052.3622"
       id="use2476"
       transform="translate(42.581,79.48453)"
       width="744.09448"
       x="0"
       xlink:href="#path2463"
       y="0" />
    <use
       height="1052.3622"
       id="use2477"
       transform="translate(56.77466,-14.19366)"
       width="744.09448"
       x="0"
       xlink:href="#path2432"
       y="0" />
    <use
       height="1052.3622"
       id="use2478"
       transform="translate(35.24065,14.19367)"
       width="744.09448"
       x="0"
       xlink:href="#path2432"
       y="0" />
    <path
       d="m 334.26087,336.29169 c 0,19.59736 -15.8868,35.48417 -35.48417,35.48417 -19.59736,0 -35.48417,-15.88681 -35.48417,-35.48417 0,-19.59737 15.88681,-35.48417 35.48417,-35.48417 19.59737,0 35.48417,15.8868 35.48417,35.48417 z"
       id="path2479"
       sodipodi:cx="298.7767"
       sodipodi:cy="336.29169"
       sodipodi:rx="35.484169"
       sodipodi:ry="35.484169"
       sodipodi:type="arc"
       style="fill:#47d900;fill-opacity:1;fill-rule:evenodd;stroke:none"
       transform="matrix(0.4,0,0,0.4,228.9438,163.4521)" />
    <use
       height="1052.3622"
       id="use2481"
       transform="translate(65.29087,17.0324)"
       width="744.09448"
       x="0"
       xlink:href="#path2479"
       y="0" />
    <use
       height="1052.3622"
       id="use2482"
       transform="translate(48.25847,0)"
       width="744.09448"
       x="0"
       xlink:href="#path2463"
       y="0" />
    <use
       height="1052.3622"
       id="use2483"
       transform="translate(31.22607,25.54861)"
       width="744.09448"
       x="0"
       xlink:href="#path2466"
       y="0" />
    <use
       height="1052.3622"
       id="use2484"
       transform="translate(45.41973,-45.41973)"
       width="744.09448"
       x="0"
       xlink:href="#path2432"
       y="0" />
    <use
       height="1052.3622"
       id="use2485"
       transform="translate(53.93593,19.87113)"
       width="744.09448"
       x="0"
       xlink:href="#path2466"
       y="0" />
    <use
       height="1052.3622"
       id="use2486"
       transform="translate(36.90353,-5.677467)"
       width="744.09448"
       x="0"
       xlink:href="#path2479"
       y="0" />
  </g>
</svg>
