<?xml version="1.0" encoding="UTF-8" standalone="no"?>
<!-- Created with Inkscape (http://www.inkscape.org/) -->
<svg
   xmlns:dc="http://purl.org/dc/elements/1.1/"
   xmlns:cc="http://web.resource.org/cc/"
   xmlns:rdf="http://www.w3.org/1999/02/22-rdf-syntax-ns#"
   xmlns:svg="http://www.w3.org/2000/svg"
   xmlns="http://www.w3.org/2000/svg"
   xmlns:xlink="http://www.w3.org/1999/xlink"
   xmlns:sodipodi="http://sodipodi.sourceforge.net/DTD/sodipodi-0.dtd"
   xmlns:inkscape="http://www.inkscape.org/namespaces/inkscape"
   width="450"
   height="730"
   id="svg2"
   sodipodi:version="0.32"
   inkscape:version="0.44.1"
   sodipodi:docbase="C:\Documents and Settings\Administrator\Desktop"
   sodipodi:docname="tree.svg"
   version="1.0">
  <defs
     id="defs4">
    <linearGradient
       id="linearGradient4602">
      <stop
         style="stop-color:#502c0a;stop-opacity:1;"
         offset="0"
         id="stop4604" />
      <stop
         style="stop-color:#090501;stop-opacity:1;"
         offset="1"
         id="stop4606" />
    </linearGradient>
    <linearGradient
       id="linearGradient3699">
      <stop
         style="stop-color:#1c6d1c;stop-opacity:1;"
         offset="0"
         id="stop3701" />
      <stop
         style="stop-color:#0b2a0b;stop-opacity:1;"
         offset="1"
         id="stop3703" />
    </linearGradient>
    <linearGradient
       id="linearGradient3691">
      <stop
         style="stop-color:#134813;stop-opacity:1;"
         offset="0"
         id="stop3693" />
      <stop
         style="stop-color:black;stop-opacity:1;"
         offset="1"
         id="stop3695" />
    </linearGradient>
    <linearGradient
       id="linearGradient3683">
      <stop
         style="stop-color:#124712;stop-opacity:1;"
         offset="0"
         id="stop3685" />
      <stop
         style="stop-color:black;stop-opacity:1;"
         offset="1"
         id="stop3687" />
    </linearGradient>
    <linearGradient
       id="linearGradient3675">
      <stop
         style="stop-color:#134813;stop-opacity:1;"
         offset="0"
         id="stop3677" />
      <stop
         style="stop-color:black;stop-opacity:1;"
         offset="1"
         id="stop3679" />
    </linearGradient>
    <linearGradient
       inkscape:collect="always"
       xlink:href="#linearGradient3675"
       id="linearGradient3681"
       x1="350.98654"
       y1="477.70328"
       x2="281.82761"
       y2="297.47092"
       gradientUnits="userSpaceOnUse" />
    <linearGradient
       inkscape:collect="always"
       xlink:href="#linearGradient3683"
       id="linearGradient3689"
       x1="354.944"
       y1="605.64819"
       x2="260.63638"
       y2="373.02271"
       gradientUnits="userSpaceOnUse" />
    <linearGradient
       inkscape:collect="always"
       xlink:href="#linearGradient3691"
       id="linearGradient3697"
       x1="342.13742"
       y1="764.25873"
       x2="268.51984"
       y2="586.12213"
       gradientUnits="userSpaceOnUse" />
    <linearGradient
       inkscape:collect="always"
       xlink:href="#linearGradient3699"
       id="linearGradient3705"
       x1="422.09732"
       y1="380.45709"
       x2="293.61911"
       y2="270.47354"
       gradientUnits="userSpaceOnUse" />
    <linearGradient
       inkscape:collect="always"
       xlink:href="#linearGradient4602"
       id="linearGradient4608"
       x1="380.34406"
       y1="838.07526"
       x2="321.43039"
       y2="808.96942"
       gradientUnits="userSpaceOnUse" />
    <linearGradient
       inkscape:collect="always"
       xlink:href="#linearGradient4602"
       id="linearGradient7085"
       gradientUnits="userSpaceOnUse"
       x1="380.34406"
       y1="838.07526"
       x2="321.43039"
       y2="808.96942" />
    <linearGradient
       inkscape:collect="always"
       xlink:href="#linearGradient3691"
       id="linearGradient7087"
       gradientUnits="userSpaceOnUse"
       x1="342.13742"
       y1="764.25873"
       x2="268.51984"
       y2="586.12213" />
    <linearGradient
       inkscape:collect="always"
       xlink:href="#linearGradient3683"
       id="linearGradient7089"
       gradientUnits="userSpaceOnUse"
       x1="354.944"
       y1="605.64819"
       x2="260.63638"
       y2="373.02271" />
    <linearGradient
       inkscape:collect="always"
       xlink:href="#linearGradient3675"
       id="linearGradient7091"
       gradientUnits="userSpaceOnUse"
       x1="350.98654"
       y1="477.70328"
       x2="281.82761"
       y2="297.47092" />
    <linearGradient
       inkscape:collect="always"
       xlink:href="#linearGradient3699"
       id="linearGradient7093"
       gradientUnits="userSpaceOnUse"
       x1="422.09732"
       y1="380.45709"
       x2="293.61911"
       y2="270.47354" />
  </defs>
  <sodipodi:namedview
     id="base"
     pagecolor="#ffffff"
     bordercolor="#666666"
     borderopacity="1.0"
     gridtolerance="10000"
     guidetolerance="10"
     objecttolerance="10"
     inkscape:pageopacity="0.0"
     inkscape:pageshadow="2"
     inkscape:zoom="0.51598205"
     inkscape:cx="444.29414"
     inkscape:cy="485.62716"
     inkscape:document-units="px"
     inkscape:current-layer="layer1"
     inkscape:window-width="1024"
     inkscape:window-height="744"
     inkscape:window-x="-4"
     inkscape:window-y="-4" />
  <metadata
     id="metadata7">
    <rdf:RDF>
      <cc:Work
         rdf:about="">
        <dc:format>image/svg+xml</dc:format>
        <dc:type
           rdf:resource="http://purl.org/dc/dcmitype/StillImage" />
      </cc:Work>
    </rdf:RDF>
  </metadata>
  <g
     inkscape:label="Layer 1"
     inkscape:groupmode="layer"
     id="layer1">
    <g
       id="g7067"
       transform="translate(-135.4778,-160.8583)">
      <g
         style="fill:#2c2c2c;fill-opacity:1;stroke:none"
         transform="matrix(1.040605,0,0,1.019152,-8.772186,-15.48387)"
         id="g6436">
        <path
           style="fill:#2c2c2c;fill-opacity:1;stroke:none;stroke-width:9;stroke-miterlimit:4;stroke-opacity:1"
           d="M 329.86632,734.35382 L 374.0641,734.35382 C 383.61944,734.35382 391.31201,742.04639 391.31201,751.60173 L 391.31201,872.33712 C 391.31201,881.89247 383.61944,883.58504 374.0641,883.58504 L 329.86632,883.58504 C 320.31098,883.58504 312.61841,881.89247 312.61841,872.33712 L 312.61841,751.60173 C 312.61841,742.04639 320.31098,734.35382 329.86632,734.35382 z "
           id="path6438"
           sodipodi:nodetypes="ccccccccc" />
        <g
           style="fill:#2c2c2c;fill-opacity:1;stroke:none"
           id="g6440">
          <path
             sodipodi:nodetypes="csccscsssssssssscc"
             id="path6442"
             d="M 229.14432,355.59638 C 217.62763,317.45978 338.3519,175.10402 357.14285,175.21932 C 377.25179,175.35079 474.8048,299.64016 475.53776,348.10014 C 474.41669,358.6983 443.54208,339.52299 428.82167,337.44939 C 413.24731,351.2399 512.27233,464.03459 520.00001,488.79076 C 525.60566,506.74887 460.28571,492.3622 443.14286,501.29076 C 443.14286,521.6479 558.85587,587.66398 565.71429,610.93362 C 570.85587,628.37827 484.85714,623.07649 484.85714,643.43363 C 484.85714,663.79077 562.91091,711.6757 565.71429,733.07648 C 568.24425,752.38998 526.278,766.25895 506.57144,765.57648 C 397.09622,761.78517 350.96057,767.03939 241.71428,768.43363 C 219.72668,768.71424 138.70503,751.18901 142.85714,733.07648 C 148.03836,710.47472 232.57143,658.07648 232.57143,637.71934 C 232.57143,617.3622 136.52692,627.74211 142.85714,610.93362 C 151.86026,587.02782 258.50437,516.15738 247.14286,507.00505 C 232.79008,495.4431 193.69228,529.11607 179.99999,511.64791 C 164.44472,491.80303 278.32675,377.45239 278.32675,356.82114 C 275.89581,352.39714 235.61896,365.5344 229.14432,355.59638 z "
             style="fill:#2c2c2c;fill-opacity:1;stroke:none;stroke-width:9;stroke-miterlimit:4;stroke-opacity:1" />
          <path
             sodipodi:nodetypes="cssssssssc"
             id="path6444"
             d="M 571.59554,745.26507 C 529.30527,781.46834 513.144,754.36985 494.61792,762.38743 C 480.63604,768.43841 463.58261,781.19598 442.04337,783.80916 C 427.63346,785.5574 414.0025,773.68902 397.10455,772.69331 C 377.39297,771.5318 365.52501,787.60049 343.10063,785.98317 C 317.91267,784.16654 308.08758,771.03012 282.97576,770.68336 C 263.11054,770.40906 223.74968,786.10158 211.55529,771.22106 C 192.53142,748.00672 147.84996,762.21172 143.53643,739.99666 C 136.33014,702.88363 353.16133,522.3687 371.33738,522.3687 C 389.51343,522.3687 583.44948,725.89836 571.59554,745.26507 z "
             style="fill:#2c2c2c;fill-opacity:1;stroke:none;stroke-width:9;stroke-miterlimit:4;stroke-opacity:1" />
          <path
             sodipodi:nodetypes="cssssssc"
             id="path6446"
             d="M 562.33567,616.27399 C 530.58224,626.13517 509.69103,614.36166 491.16495,622.37924 C 477.18307,628.43022 452.22701,645.67759 420.20915,646.19505 C 391.1818,646.66417 362.45443,611.29589 339.10917,628.01579 C 306.32179,651.49815 248.82649,652.94937 237.85725,634.32736 C 217.30385,599.43479 147.44761,630.58643 147.44761,608.37137 C 147.44761,570.56519 336.05704,426.61088 354.23309,426.61088 C 372.40914,426.61088 567.60409,589.00465 562.33567,616.27399 z "
             style="fill:#2c2c2c;fill-opacity:1;stroke:none;stroke-width:9;stroke-miterlimit:4;stroke-opacity:1" />
          <path
             sodipodi:nodetypes="cssssssc"
             id="path6448"
             d="M 521.18377,498.28034 C 509.91223,519.91853 471.11926,487.3425 452.70855,495.16391 C 444.71594,498.55941 419.52954,514.00728 397.85646,515.02942 C 379.57348,515.89168 355.62637,486.13694 330.52423,500.08107 C 309.59079,511.70949 273.40394,524.43527 258.24861,509.02685 C 238.7732,489.2262 184.96134,534.26222 184.96134,498.87611 C 184.96134,461.06993 340.64314,261.79722 358.81919,261.79722 C 376.99524,261.79722 526.45219,471.011 521.18377,498.28034 z "
             style="fill:#2c2c2c;fill-opacity:1;stroke:none;stroke-width:9;stroke-miterlimit:4;stroke-opacity:1" />
          <path
             sodipodi:nodetypes="csscsc"
             id="path6450"
             d="M 477.6018,350.85666 C 468.45019,362.00482 439.58996,334.12227 411.05831,349.6279 C 380.53824,366.21414 316.14574,361.75869 300.12768,353.88134 C 277.94949,342.97457 238.57794,367.19728 228.09931,353.81628 C 217.97086,317.39209 340.07652,181.7558 358.25257,181.7558 C 376.42862,181.7558 487.1822,331.13328 477.6018,350.85666 z "
             style="fill:#2c2c2c;fill-opacity:1;stroke:none;stroke-width:9;stroke-miterlimit:4;stroke-opacity:1" />
        </g>
      </g>
      <g
         id="g5504">
        <path
           style="fill:url(#linearGradient7085);fill-opacity:1;stroke:black;stroke-width:9;stroke-miterlimit:4;stroke-opacity:1"
           d="M 329.86632,734.35382 L 374.0641,734.35382 C 383.61944,734.35382 391.31201,742.04639 391.31201,751.60173 L 391.31201,872.33712 C 391.31201,881.89247 383.61944,883.58504 374.0641,883.58504 L 329.86632,883.58504 C 320.31098,883.58504 312.61841,881.89247 312.61841,872.33712 L 312.61841,751.60173 C 312.61841,742.04639 320.31098,734.35382 329.86632,734.35382 z "
           id="rect3714"
           sodipodi:nodetypes="ccccccccc" />
        <g
           id="g3707">
          <path
             sodipodi:nodetypes="csccscsssssssssscc"
             id="rect1872"
             d="M 229.14432,355.59638 C 217.62763,317.45978 338.3519,175.10402 357.14285,175.21932 C 377.25179,175.35079 474.8048,299.64016 475.53776,348.10014 C 474.41669,358.6983 443.54208,339.52299 428.82167,337.44939 C 413.24731,351.2399 512.27233,464.03459 520.00001,488.79076 C 525.60566,506.74887 460.28571,492.3622 443.14286,501.29076 C 443.14286,521.6479 558.85587,587.66398 565.71429,610.93362 C 570.85587,628.37827 484.85714,623.07649 484.85714,643.43363 C 484.85714,663.79077 562.91091,711.6757 565.71429,733.07648 C 568.24425,752.38998 526.278,766.25895 506.57144,765.57648 C 397.09622,761.78517 350.96057,767.03939 241.71428,768.43363 C 219.72668,768.71424 138.70503,751.18901 142.85714,733.07648 C 148.03836,710.47472 232.57143,658.07648 232.57143,637.71934 C 232.57143,617.3622 136.52692,627.74211 142.85714,610.93362 C 151.86026,587.02782 258.50437,516.15738 247.14286,507.00505 C 232.79008,495.4431 193.69228,529.11607 179.99999,511.64791 C 164.44472,491.80303 278.32675,377.45239 278.32675,356.82114 C 275.89581,352.39714 235.61896,365.5344 229.14432,355.59638 z "
             style="fill:#134813;fill-opacity:1;stroke:black;stroke-width:9;stroke-miterlimit:4;stroke-opacity:1" />
          <path
             sodipodi:nodetypes="cssssssssc"
             id="path2770"
             d="M 571.59554,745.26507 C 529.30527,781.46834 513.144,754.36985 494.61792,762.38743 C 480.63604,768.43841 463.58261,781.19598 442.04337,783.80916 C 427.63346,785.5574 414.0025,773.68902 397.10455,772.69331 C 377.39297,771.5318 365.52501,787.60049 343.10063,785.98317 C 317.91267,784.16654 308.08758,771.03012 282.97576,770.68336 C 263.11054,770.40906 223.74968,786.10158 211.55529,771.22106 C 192.53142,748.00672 147.84996,762.21172 143.53643,739.99666 C 136.33014,702.88363 353.16133,522.3687 371.33738,522.3687 C 389.51343,522.3687 583.44948,725.89836 571.59554,745.26507 z "
             style="fill:url(#linearGradient7087);fill-opacity:1;stroke:black;stroke-width:9;stroke-miterlimit:4;stroke-opacity:1" />
          <path
             sodipodi:nodetypes="cssssssc"
             id="path2768"
             d="M 562.33567,616.27399 C 530.58224,626.13517 509.69103,614.36166 491.16495,622.37924 C 477.18307,628.43022 452.22701,645.67759 420.20915,646.19505 C 391.1818,646.66417 362.45443,611.29589 339.10917,628.01579 C 306.32179,651.49815 248.82649,652.94937 237.85725,634.32736 C 217.30385,599.43479 147.44761,630.58643 147.44761,608.37137 C 147.44761,570.56519 336.05704,426.61088 354.23309,426.61088 C 372.40914,426.61088 567.60409,589.00465 562.33567,616.27399 z "
             style="fill:url(#linearGradient7089);fill-opacity:1;stroke:black;stroke-width:9;stroke-miterlimit:4;stroke-opacity:1" />
          <path
             sodipodi:nodetypes="cssssssc"
             id="path2766"
             d="M 521.18377,498.28034 C 509.91223,519.91853 471.11926,487.3425 452.70855,495.16391 C 444.71594,498.55941 419.52954,514.00728 397.85646,515.02942 C 379.57348,515.89168 355.62637,486.13694 330.52423,500.08107 C 309.59079,511.70949 273.40394,524.43527 258.24861,509.02685 C 238.7732,489.2262 184.96134,534.26222 184.96134,498.87611 C 184.96134,461.06993 340.64314,261.79722 358.81919,261.79722 C 376.99524,261.79722 526.45219,471.011 521.18377,498.28034 z "
             style="fill:url(#linearGradient7091);fill-opacity:1;stroke:black;stroke-width:9;stroke-miterlimit:4;stroke-opacity:1" />
          <path
             sodipodi:nodetypes="csscsc"
             id="path2763"
             d="M 477.6018,350.85666 C 468.45019,362.00482 439.58996,334.12227 411.05831,349.6279 C 380.53824,366.21414 316.14574,361.75869 300.12768,353.88134 C 277.94949,342.97457 238.57794,367.19728 228.09931,353.81628 C 217.97086,317.39209 340.07652,181.7558 358.25257,181.7558 C 376.42862,181.7558 487.1822,331.13328 477.6018,350.85666 z "
             style="fill:url(#linearGradient7093);fill-opacity:1;stroke:black;stroke-width:9;stroke-miterlimit:4;stroke-opacity:1" />
        </g>
      </g>
    </g>
  </g>
</svg>
