<?xml version="1.0" encoding="UTF-8" standalone="no"?>
<!-- Created with Inkscape (http://www.inkscape.org/) -->

<svg
   xmlns:dc="http://purl.org/dc/elements/1.1/"
   xmlns:cc="http://creativecommons.org/ns#"
   xmlns:rdf="http://www.w3.org/1999/02/22-rdf-syntax-ns#"
   xmlns:svg="http://www.w3.org/2000/svg"
   xmlns="http://www.w3.org/2000/svg"
   xmlns:sodipodi="http://sodipodi.sourceforge.net/DTD/sodipodi-0.dtd"
   xmlns:inkscape="http://www.inkscape.org/namespaces/inkscape"
   width="50"
   height="50"
   id="svg2"
   sodipodi:version="0.32"
   inkscape:version="0.48.1 r9760"
   version="1.0"
   sodipodi:docname="tree10.svg"
   inkscape:output_extension="org.inkscape.output.svg.inkscape">
  <defs
     id="defs4">
    <inkscape:perspective
       sodipodi:type="inkscape:persp3d"
       inkscape:vp_x="0 : 526.18109 : 1"
       inkscape:vp_y="0 : 1000 : 0"
       inkscape:vp_z="744.09448 : 526.18109 : 1"
       inkscape:persp3d-origin="372.04724 : 350.78739 : 1"
       id="perspective10" />
    <inkscape:perspective
       id="perspective2390"
       inkscape:persp3d-origin="372.04724 : 350.78739 : 1"
       inkscape:vp_z="744.09448 : 526.18109 : 1"
       inkscape:vp_y="0 : 1000 : 0"
       inkscape:vp_x="0 : 526.18109 : 1"
       sodipodi:type="inkscape:persp3d" />
  </defs>
  <sodipodi:namedview
     id="base"
     pagecolor="#ffffff"
     bordercolor="#666666"
     borderopacity="1.0"
     gridtolerance="10000"
     guidetolerance="10"
     objecttolerance="10"
     inkscape:pageopacity="0.0"
     inkscape:pageshadow="2"
     inkscape:zoom="6.24"
     inkscape:cx="63.092457"
     inkscape:cy="37.688988"
     inkscape:document-units="px"
     inkscape:current-layer="layer2"
     showgrid="false"
     width="1200px"
     inkscape:window-width="1364"
     inkscape:window-height="708"
     inkscape:window-x="0"
     inkscape:window-y="26"
     inkscape:window-maximized="0" />
  <metadata
     id="metadata7">
    <rdf:RDF>
      <cc:Work
         rdf:about="">
        <dc:format>image/svg+xml</dc:format>
        <dc:type
           rdf:resource="http://purl.org/dc/dcmitype/StillImage" />
      </cc:Work>
    </rdf:RDF>
  </metadata>
  <g
     inkscape:groupmode="layer"
     id="layer2"
     inkscape:label="line"
     transform="translate(0,-950)">
    <g
       id="g2752"
       transform="matrix(0.11084808,0,0,0.11084808,-77.795763,946.23701)">
      <path
         sodipodi:nodetypes="ccccccscccscccccscccc"
         id="path3167"
         d="m 900.98007,480.35461 c 59.37318,-30.53301 96.168,-120.40693 96.168,-127.18846 -9.04204,-9.04202 -47.47069,-20.34457 -84.76909,-29.38661 -29.38661,-38.42866 -64.57168,-57.2985 -77.98757,-85.89936 0.50224,-10.80054 0.18394,-20.31191 3.39076,-19.21432 16.24772,45.19081 129.92727,106.00531 140.15158,89.90145 -7.8802,-12.38485 -21.75054,-26.53168 -28.25637,-45.82152 -8.1161,-24.06435 -24.13619,-53.08547 -35.03788,-74.59681 4.00628,-5.32475 5.35719,-4.62143 12.4328,-4.52102 4.07036,17.5904 61.45471,141.57378 82.5086,127.71877 -1.9222,-21.14388 -10.65848,-120.23737 -18.44104,-156.95822 -1.76971,-8.35009 14.38204,-1.73784 18.44104,-3.53794 0.6281,17.69739 19.2143,145.80285 19.2143,145.80285 l 27.6877,-86.17679 31.0856,2.53795 -33.9077,70.07579 c 0,0 -14.6933,55.38248 -6.7815,50.86145 7.9118,-4.52101 22.6051,-13.56305 22.6051,-13.56305 l 4.521,15.82357 c -28.7849,5.14261 -69.2518,112.04945 -54.006,143.54234 -6.2792,-4.06049 -103.73322,-5.08824 -119.01933,0.59993 z"
         style="fill:#591f0f;fill-opacity:1;fill-rule:evenodd;stroke:#000000;stroke-width:1.19238877px;stroke-linecap:butt;stroke-linejoin:miter;stroke-opacity:1"
         inkscape:connector-curvature="0" />
      <path
         sodipodi:nodetypes="csssz"
         id="path3169"
         d="m 797.09302,154.24133 c 47.66508,-8.00345 90.36126,-72.015581 101.72291,13.56307 11.01263,82.94977 -40.68917,145.80285 -132.23979,149.19361 -91.55063,3.39076 -54.97347,0.86821 -55.38247,-55.38248 -0.53361,-74.6115 39.42386,-99.57049 85.89935,-107.3742 z"
         style="fill:#008500;fill-opacity:1;fill-rule:evenodd;stroke:#000000;stroke-width:1.19238877px;stroke-linecap:butt;stroke-linejoin:miter;stroke-opacity:1"
         inkscape:connector-curvature="0" />
      <path
         sodipodi:nodetypes="csssz"
         id="path3171"
         d="m 1104.3079,132.68241 c 25.9722,15.71068 90.0583,147.14491 4.8604,133.21144 -85.1977,-13.93347 -85.4337,30.21354 -140.2766,-43.17089 -54.84285,-73.38443 -47.69143,-121.6658 7.28862,-133.561202 54.98008,-11.895386 102.88588,28.251852 128.12758,43.520652 z"
         style="fill:#008500;fill-opacity:1;fill-rule:evenodd;stroke:#000000;stroke-width:1.19238877px;stroke-linecap:butt;stroke-linejoin:miter;stroke-opacity:1"
         inkscape:connector-curvature="0" />
      <path
         sodipodi:nodetypes="csssz"
         id="path3173"
         d="m 1051.6108,150.25304 c 6.8634,23.59562 -96.28713,127.54102 -167.5299,68.69282 -71.24263,-58.84813 -128.69871,-37.20958 -91.08487,-106.87399 37.61383,-69.664409 107.67572,-89.124325 180.71699,-61.45411 73.04128,27.670215 71.22748,76.70328 77.89778,99.63528 z"
         style="fill:#008500;fill-opacity:1;fill-rule:evenodd;stroke:#000000;stroke-width:1.36354089px;stroke-linecap:butt;stroke-linejoin:miter;stroke-opacity:1"
         inkscape:connector-curvature="0" />
      <path
         sodipodi:nodetypes="ccccc"
         id="path3177"
         d="m 774.4686,268.74272 c 0.40737,-1.50848 0.99239,-2.91265 1.78642,-4.19404 l 0.49722,0.18878 c -0.87636,1.38639 -1.42187,2.813 -1.64142,4.27921 l -0.64222,-0.27395 z"
         style="fill:#000000;fill-opacity:1;fill-rule:evenodd;stroke:#000000;stroke-width:1.19238877;stroke-linecap:butt;stroke-linejoin:miter;stroke-miterlimit:4;stroke-opacity:1;stroke-dasharray:none"
         inkscape:connector-curvature="0" />
      <path
         sodipodi:nodetypes="czzzczzzz"
         id="path3175"
         d="m 769.58867,286.39683 c 1.39007,0.28605 1.76693,2.36272 4.02828,3.0279 2.26137,0.66519 8.36741,-4.97148 10.15445,-10.72988 1.81121,-5.83632 -0.44502,-8.95905 -2.7727,-10.33181 -2.3277,-1.37274 -5.30035,0.50984 -6.22691,0.60183 -0.77045,-0.57868 -1.10063,-2.86599 -4.51543,-3.87046 -3.41481,-1.00448 -7.13548,0.81674 -8.766,5.81787 -1.64317,5.0399 -0.0866,14.90999 2.55996,15.6792 2.6857,0.7806 4.14827,-0.48068 5.53835,-0.19465 z"
         style="fill:#ff0000;fill-opacity:1;fill-rule:evenodd;stroke:#000000;stroke-width:1.19238877;stroke-linecap:butt;stroke-linejoin:miter;stroke-miterlimit:4;stroke-opacity:1;stroke-dasharray:none"
         inkscape:connector-curvature="0" />
      <path
         sodipodi:nodetypes="ccccc"
         id="path3215"
         d="m 1070.5705,224.56034 c -0.5986,-1.44329 -0.9929,-2.91247 -1.1467,-4.41207 l 0.5091,-0.15416 c 0.1527,1.63303 0.5919,3.09584 1.3135,4.39096 l -0.6759,0.17527 z"
         style="fill:#000000;fill-opacity:1;fill-rule:evenodd;stroke:#000000;stroke-width:1.19238877;stroke-linecap:butt;stroke-linejoin:miter;stroke-miterlimit:4;stroke-opacity:1;stroke-dasharray:none"
         inkscape:connector-curvature="0" />
      <path
         sodipodi:nodetypes="czzzczzzz"
         id="path3217"
         d="m 1077.4876,241.52015 c 1.2755,-0.62241 2.8421,0.79189 5.039,-0.0624 2.1969,-0.85428 3.5898,-9.0467 1.4882,-14.69791 -2.13,-5.72767 -5.8237,-6.82257 -8.5052,-6.48809 -2.6815,0.33449 -3.8858,3.64063 -4.5633,4.27933 -0.9635,0.0123 -2.6218,-1.59732 -5.9393,-0.30732 -3.3175,1.29001 -5.1515,5.00438 -3.3885,9.96034 1.7767,4.9944 9.0369,11.85956 11.6024,10.85243 2.6034,-1.02203 2.9913,-2.91398 4.2667,-3.5364 z"
         style="fill:#ff0000;fill-opacity:1;fill-rule:evenodd;stroke:#000000;stroke-width:1.19238877;stroke-linecap:butt;stroke-linejoin:miter;stroke-miterlimit:4;stroke-opacity:1;stroke-dasharray:none"
         inkscape:connector-curvature="0" />
      <path
         sodipodi:nodetypes="ccccc"
         id="path3221"
         d="m 938.83238,177.55526 c -0.63135,-1.4293 -1.05896,-2.88912 -1.24684,-4.38483 l 0.50537,-0.16571 c 0.18985,1.62913 0.6623,3.08156 1.41316,4.35993 l -0.67169,0.19061 z"
         style="fill:#000000;fill-opacity:1;fill-rule:evenodd;stroke:#000000;stroke-width:1.19238865;stroke-linecap:butt;stroke-linejoin:miter;stroke-miterlimit:4;stroke-opacity:1;stroke-dasharray:none"
         inkscape:connector-curvature="0" />
      <path
         sodipodi:nodetypes="czzzczzzz"
         id="path3223"
         d="m 946.1338,194.35319 c 1.26094,-0.65128 2.85936,0.72698 5.03626,-0.17709 2.17691,-0.90407 3.38288,-9.12608 1.1532,-14.72798 -2.25985,-5.67769 -5.97748,-6.68821 -8.65072,-6.29277 -2.67324,0.39545 -3.8019,3.72815 -4.46471,4.38211 -0.96296,0.0342 -2.65749,-1.53722 -5.94475,-0.17202 -3.28727,1.3652 -5.03627,5.12036 -3.16087,10.0349 1.88993,4.95266 9.30459,11.65074 11.84646,10.58547 2.57948,-1.08103 2.9242,-2.98133 4.18513,-3.63262 z"
         style="fill:#ff0000;fill-opacity:1;fill-rule:evenodd;stroke:#000000;stroke-width:1.19238865;stroke-linecap:butt;stroke-linejoin:miter;stroke-miterlimit:4;stroke-opacity:1;stroke-dasharray:none"
         inkscape:connector-curvature="0" />
      <path
         sodipodi:nodetypes="ccccc"
         id="path3227"
         d="m 935.34876,87.527463 c 0.71419,-1.389752 1.58026,-2.640298 2.62499,-3.727022 l 0.44667,0.288702 c -1.14723,1.172164 -1.97935,2.452922 -2.50104,3.840667 l -0.57062,-0.402347 z"
         style="fill:#000000;fill-opacity:1;fill-rule:evenodd;stroke:#000000;stroke-width:1.19238877;stroke-linecap:butt;stroke-linejoin:miter;stroke-miterlimit:4;stroke-opacity:1;stroke-dasharray:none"
         inkscape:connector-curvature="0" />
      <path
         sodipodi:nodetypes="czzzczzzz"
         id="path3229"
         d="m 926.8805,103.76846 c 1.29937,0.57076 1.23304,2.6803 3.30499,3.80424 2.07197,1.12394 9.22289,-3.10927 12.17603,-8.365856 2.9931,-5.32771 1.44073,-8.853637 -0.54792,-10.683344 -1.98866,-1.829702 -5.2896,-0.611274 -6.21489,-0.715328 -0.6322,-0.727175 -0.47613,-3.032916 -3.60492,-4.730132 -3.12879,-1.697222 -7.14832,-0.695419 -9.78986,3.853443 -2.66203,4.584129 -3.20659,14.561347 -0.77977,15.867667 2.46272,1.32564 4.15697,0.39855 5.45634,0.96931 z"
         style="fill:#ff0000;fill-opacity:1;fill-rule:evenodd;stroke:#000000;stroke-width:1.19238877;stroke-linecap:butt;stroke-linejoin:miter;stroke-miterlimit:4;stroke-opacity:1;stroke-dasharray:none"
         inkscape:connector-curvature="0" />
      <path
         sodipodi:nodetypes="ccccc"
         id="path3233"
         d="m 862.8499,145.73412 c 0.45124,-1.49596 1.07701,-2.88244 1.90812,-4.1401 l 0.49149,0.20322 c -0.91647,1.36021 -1.5034,2.77028 -1.76567,4.22946 l -0.63394,-0.29258 z"
         style="fill:#000000;fill-opacity:1;fill-rule:evenodd;stroke:#000000;stroke-width:1.19238877;stroke-linecap:butt;stroke-linejoin:miter;stroke-miterlimit:4;stroke-opacity:1;stroke-dasharray:none"
         inkscape:connector-curvature="0" />
      <path
         sodipodi:nodetypes="czzzczzzz"
         id="path3235"
         d="m 857.4566,163.23822 c 1.38112,0.32651 1.69718,2.41329 3.93815,3.14422 2.24099,0.73093 8.509,-4.72506 10.46341,-10.42883 1.98084,-5.78095 -0.18325,-8.96822 -2.46986,-10.40835 -2.28663,-1.44013 -5.31297,0.35486 -6.24183,0.41976 -0.75322,-0.60093 -1.01648,-2.8969 -4.40049,-4.00065 -3.38403,-1.10376 -7.15628,0.60806 -8.93213,5.55945 -1.78963,4.98977 -0.52189,14.9011 2.10107,15.74726 2.66177,0.85868 4.16054,-0.35936 5.54168,-0.0329 z"
         style="fill:#ff0000;fill-opacity:1;fill-rule:evenodd;stroke:#000000;stroke-width:1.19238877;stroke-linecap:butt;stroke-linejoin:miter;stroke-miterlimit:4;stroke-opacity:1;stroke-dasharray:none"
         inkscape:connector-curvature="0" />
      <path
         sodipodi:nodetypes="ccccc"
         id="path3239"
         d="m 778.85919,214.00173 c -0.75168,-1.36984 -1.30298,-2.78758 -1.61852,-4.26165 l 0.48928,-0.20847 c 0.32895,1.60683 0.9243,3.01336 1.78209,4.22257 l -0.65285,0.24755 z"
         style="fill:#000000;fill-opacity:1;fill-rule:evenodd;stroke:#000000;stroke-width:1.19238865;stroke-linecap:butt;stroke-linejoin:miter;stroke-miterlimit:4;stroke-opacity:1;stroke-dasharray:none"
         inkscape:connector-curvature="0" />
      <path
         sodipodi:nodetypes="czzzczzzz"
         id="path3241"
         d="m 787.57519,230.11113 c 1.20039,-0.75709 2.9112,0.47892 5.00248,-0.60862 2.09129,-1.08755 2.58725,-9.38272 -0.11493,-14.77261 -2.73874,-5.46282 -6.52938,-6.15059 -9.15882,-5.5272 -2.62945,0.6234 -3.46795,4.04066 -4.0722,4.74908 -0.95647,0.11672 -2.7796,-1.30349 -5.93758,0.33877 -3.15798,1.64226 -4.57829,5.53365 -2.28806,10.26913 2.30797,4.7722 10.27008,10.80929 12.71115,9.52982 2.4772,-1.29841 2.65757,-3.22127 3.85796,-3.97837 z"
         style="fill:#ff0000;fill-opacity:1;fill-rule:evenodd;stroke:#000000;stroke-width:1.19238865;stroke-linecap:butt;stroke-linejoin:miter;stroke-miterlimit:4;stroke-opacity:1;stroke-dasharray:none"
         inkscape:connector-curvature="0" />
      <path
         sodipodi:nodetypes="ccccc"
         id="path3245"
         d="m 1089.5393,162.71773 c -0.5553,-1.46053 -0.9055,-2.94082 -1.0145,-4.44434 l 0.5134,-0.1389 c 0.1039,1.63686 0.4993,3.11214 1.1818,4.42823 l -0.6807,0.15501 z"
         style="fill:#000000;fill-opacity:1;fill-rule:evenodd;stroke:#000000;stroke-width:1.19238877;stroke-linecap:butt;stroke-linejoin:miter;stroke-miterlimit:4;stroke-opacity:1;stroke-dasharray:none"
         inkscape:connector-curvature="0" />
      <path
         sodipodi:nodetypes="czzzczzzz"
         id="path3247"
         d="m 1095.9469,179.87652 c 1.2934,-0.58404 2.8171,0.8764 5.0386,0.0881 2.2214,-0.7883 3.8583,-8.93548 1.9264,-14.64692 -1.958,-5.78872 -5.6174,-6.99342 -8.3077,-6.73917 -2.6903,0.25428 -3.9928,3.52298 -4.6891,4.14116 -0.9634,-0.0165 -2.5729,-1.67489 -5.9274,-0.48452 -3.3546,1.19037 -5.2987,4.84831 -3.6845,9.85471 1.6268,5.04523 8.6788,12.12411 11.2732,11.19404 2.6328,-0.94383 3.077,-2.82336 4.3705,-3.40742 z"
         style="fill:#ff0000;fill-opacity:1;fill-rule:evenodd;stroke:#000000;stroke-width:1.19238877;stroke-linecap:butt;stroke-linejoin:miter;stroke-miterlimit:4;stroke-opacity:1;stroke-dasharray:none"
         inkscape:connector-curvature="0" />
      <path
         sodipodi:nodetypes="ccccc"
         id="path3191"
         d="m 799.84085,463.90866 c -1.06065,1.1474 -2.23028,2.11997 -3.52812,2.88681 l -0.35291,-0.39788 c 1.41948,-0.82168 2.56452,-1.83245 3.43917,-3.02953 l 0.44186,0.5406 z"
         style="fill:#000000;fill-opacity:1;fill-rule:evenodd;stroke:#000000;stroke-width:1.19238865;stroke-linecap:butt;stroke-linejoin:miter;stroke-miterlimit:4;stroke-opacity:1;stroke-dasharray:none"
         inkscape:connector-curvature="0" />
      <path
         sodipodi:nodetypes="czzzczzzz"
         id="path3193"
         d="m 812.35333,450.53261 c -1.09877,-0.89823 -0.4693,-2.91276 -2.16407,-4.55105 -1.69477,-1.63829 -9.71884,0.52277 -13.97317,4.79516 -4.31189,4.33021 -3.76167,8.14325 -2.33637,10.43913 1.42531,2.29588 4.93207,2.00705 5.79558,2.35537 0.4141,0.87005 -0.35443,3.04953 2.20479,5.52345 2.55922,2.47393 6.70018,2.58644 10.46457,-1.08768 3.79359,-3.70261 6.99314,-13.16857 5.00539,-15.0777 -2.01716,-1.93737 -3.89793,-1.49845 -4.99672,-2.39668 z"
         style="fill:#ff0000;fill-opacity:1;fill-rule:evenodd;stroke:#000000;stroke-width:1.19238865;stroke-linecap:butt;stroke-linejoin:miter;stroke-miterlimit:4;stroke-opacity:1;stroke-dasharray:none"
         inkscape:connector-curvature="0" />
      <path
         sodipodi:nodetypes="ccccc"
         id="path3197"
         d="m 817.72456,451.59723 c -1.25771,-0.92718 -2.35372,-1.98202 -3.25945,-3.18705 l 0.35639,-0.39477 c 0.97369,1.31986 2.10495,2.34603 3.39145,3.08286 l -0.48839,0.49896 z"
         style="fill:#000000;fill-opacity:1;fill-rule:evenodd;stroke:#000000;stroke-width:1.19238877;stroke-linecap:butt;stroke-linejoin:miter;stroke-miterlimit:4;stroke-opacity:1;stroke-dasharray:none"
         inkscape:connector-curvature="0" />
      <path
         sodipodi:nodetypes="czzzczzzz"
         id="path3199"
         d="m 832.40292,462.55291 c 0.77114,-1.1914 2.84295,-0.7887 4.28366,-2.65432 1.44071,-1.86564 -1.59489,-9.60134 -6.31177,-13.35683 -4.7807,-3.80631 -8.50945,-2.83758 -10.63353,-1.167 -2.12409,1.67059 -1.44903,5.12385 -1.69967,6.02061 -0.81888,0.50782 -3.07002,-0.0148 -5.24559,2.80238 -2.17557,2.81723 -1.82923,6.94521 2.23885,10.27998 4.09961,3.36062 13.86146,5.49317 15.53893,3.3064 1.70229,-2.21913 1.05798,-4.03979 1.82912,-5.23122 z"
         style="fill:#ff0000;fill-opacity:1;fill-rule:evenodd;stroke:#000000;stroke-width:1.19238877;stroke-linecap:butt;stroke-linejoin:miter;stroke-miterlimit:4;stroke-opacity:1;stroke-dasharray:none"
         inkscape:connector-curvature="0" />
      <path
         sodipodi:nodetypes="ccccc"
         id="path3203"
         d="m 791.18684,450.61396 c 1.09857,-1.11113 2.3002,-2.04388 3.62306,-2.76671 l 0.33935,0.40951 c -1.44627,0.77355 -2.6246,1.7453 -3.53895,2.91233 l -0.42346,-0.55513 z"
         style="fill:#000000;fill-opacity:1;fill-rule:evenodd;stroke:#000000;stroke-width:1.19238865;stroke-linecap:butt;stroke-linejoin:miter;stroke-miterlimit:4;stroke-opacity:1;stroke-dasharray:none"
         inkscape:connector-curvature="0" />
      <path
         sodipodi:nodetypes="czzzczzzz"
         id="path3205"
         d="m 778.23227,463.56233 c 1.06799,0.93462 0.37123,2.92688 2.01003,4.62114 1.63881,1.69428 9.73092,-0.19613 14.12631,-4.32326 4.45486,-4.18298 4.03298,-8.01234 2.68558,-10.35479 -1.34742,-2.34245 -4.8619,-2.17153 -5.71323,-2.54865 -0.38465,-0.88346 0.45662,-3.03591 -2.01808,-5.59436 -2.47471,-2.55847 -6.60955,-2.80997 -10.49519,0.73569 -3.91578,3.57314 -7.43137,12.92632 -5.50885,14.90112 1.95097,2.00401 3.84542,1.62849 4.91343,2.56311 z"
         style="fill:#ff0000;fill-opacity:1;fill-rule:evenodd;stroke:#000000;stroke-width:1.19238865;stroke-linecap:butt;stroke-linejoin:miter;stroke-miterlimit:4;stroke-opacity:1;stroke-dasharray:none"
         inkscape:connector-curvature="0" />
      <path
         sodipodi:nodetypes="ccccc"
         id="path3209"
         d="m 770.53944,449.63467 c -0.0349,-1.56214 0.13012,-3.07433 0.53027,-4.5277 l 0.53028,0.0408 c -0.44951,1.57735 -0.57026,3.09991 -0.36713,4.56849 l -0.69342,-0.0816 z"
         style="fill:#000000;fill-opacity:1;fill-rule:evenodd;stroke:#000000;stroke-width:1.19238865;stroke-linecap:butt;stroke-linejoin:miter;stroke-miterlimit:4;stroke-opacity:1;stroke-dasharray:none"
         inkscape:connector-curvature="0" />
      <path
         sodipodi:nodetypes="czzzczzzz"
         id="path3211"
         d="m 770.83981,467.94835 c 1.41429,-0.11785 2.36186,1.76806 4.71902,1.76806 2.35717,0 6.62438,-7.13068 6.71378,-13.15934 0.0906,-6.11023 -2.95516,-8.46934 -5.57562,-9.12943 -2.62048,-0.66008 -4.94105,1.98486 -5.80399,2.33459 -0.90244,-0.33774 -1.86467,-2.43891 -5.42414,-2.43891 -3.55949,0 -6.61498,2.79716 -6.76793,8.05516 -0.15414,5.29876 4.1245,14.32842 6.88055,14.31952 2.79683,-0.009 3.84402,-1.63178 5.25833,-1.74965 z"
         style="fill:#ff0000;fill-opacity:1;fill-rule:evenodd;stroke:#000000;stroke-width:1.19238865;stroke-linecap:butt;stroke-linejoin:miter;stroke-miterlimit:4;stroke-opacity:1;stroke-dasharray:none"
         inkscape:connector-curvature="0" />
      <path
         sodipodi:nodetypes="ccccc"
         id="path3362"
         d="m 810.65367,432.58645 c -1.2577,-0.92718 -2.35371,-1.98202 -3.25945,-3.18705 l 0.3564,-0.39477 c 0.97369,1.31986 2.10495,2.34603 3.39145,3.08286 l -0.4884,0.49896 z"
         style="fill:#000000;fill-opacity:1;fill-rule:evenodd;stroke:#000000;stroke-width:1.19238877;stroke-linecap:butt;stroke-linejoin:miter;stroke-miterlimit:4;stroke-opacity:1;stroke-dasharray:none"
         inkscape:connector-curvature="0" />
      <path
         sodipodi:nodetypes="czzzczzzz"
         id="path3364"
         d="m 825.33203,443.54213 c 0.77114,-1.1914 2.84295,-0.7887 4.28366,-2.65432 1.44072,-1.86564 -1.59488,-9.60134 -6.31176,-13.35683 -4.78071,-3.80631 -8.50945,-2.83758 -10.63354,-1.167 -2.12408,1.67059 -1.44903,5.12385 -1.69966,6.02061 -0.81889,0.50782 -3.07003,-0.0148 -5.24559,2.80238 -2.17558,2.81723 -1.82923,6.94521 2.23884,10.27998 4.09961,3.36062 13.86147,5.49317 15.53894,3.3064 1.70229,-2.21913 1.05797,-4.03979 1.82911,-5.23122 z"
         style="fill:#ff0000;fill-opacity:1;fill-rule:evenodd;stroke:#000000;stroke-width:1.19238877;stroke-linecap:butt;stroke-linejoin:miter;stroke-miterlimit:4;stroke-opacity:1;stroke-dasharray:none"
         inkscape:connector-curvature="0" />
      <path
         sodipodi:nodetypes="ccccc"
         id="path3368"
         d="m 760.52329,416.69144 c -1.2577,-0.92718 -2.35371,-1.98202 -3.25945,-3.18705 l 0.3564,-0.39477 c 0.97369,1.31986 2.10495,2.34603 3.39145,3.08286 l -0.4884,0.49896 z"
         style="fill:#000000;fill-opacity:1;fill-rule:evenodd;stroke:#000000;stroke-width:1.19238877;stroke-linecap:butt;stroke-linejoin:miter;stroke-miterlimit:4;stroke-opacity:1;stroke-dasharray:none"
         inkscape:connector-curvature="0" />
      <path
         sodipodi:nodetypes="czzzczzzz"
         id="path3370"
         d="m 775.20165,427.64712 c 0.77114,-1.1914 2.84295,-0.7887 4.28366,-2.65432 1.44072,-1.86564 -1.59488,-9.60134 -6.31176,-13.35683 -4.7807,-3.80631 -8.50945,-2.83758 -10.63354,-1.167 -2.12408,1.67059 -1.44902,5.12385 -1.69966,6.02061 -0.81889,0.50782 -3.07003,-0.0148 -5.24559,2.80238 -2.17558,2.81723 -1.82923,6.94521 2.23884,10.27998 4.09961,3.36062 13.86147,5.49317 15.53894,3.3064 1.70229,-2.21913 1.05797,-4.03979 1.82911,-5.23122 z"
         style="fill:#ff0000;fill-opacity:1;fill-rule:evenodd;stroke:#000000;stroke-width:1.19238877;stroke-linecap:butt;stroke-linejoin:miter;stroke-miterlimit:4;stroke-opacity:1;stroke-dasharray:none"
         inkscape:connector-curvature="0" />
      <path
         sodipodi:nodetypes="ccccc"
         id="path3374"
         d="m 789.86791,414.85738 c -1.2577,-0.92718 -2.35371,-1.98202 -3.25945,-3.18705 l 0.3564,-0.39477 c 0.97369,1.31986 2.10495,2.34603 3.39145,3.08286 l -0.4884,0.49896 z"
         style="fill:#000000;fill-opacity:1;fill-rule:evenodd;stroke:#000000;stroke-width:1.19238877;stroke-linecap:butt;stroke-linejoin:miter;stroke-miterlimit:4;stroke-opacity:1;stroke-dasharray:none"
         inkscape:connector-curvature="0" />
      <path
         sodipodi:nodetypes="czzzczzzz"
         id="path3376"
         d="m 804.54627,425.81306 c 0.77114,-1.1914 2.84295,-0.7887 4.28366,-2.65432 1.44072,-1.86564 -1.59488,-9.60134 -6.31176,-13.35683 -4.7807,-3.80631 -8.50945,-2.83758 -10.63354,-1.167 -2.12408,1.67059 -1.44902,5.12385 -1.69966,6.02061 -0.81889,0.50782 -3.07003,-0.0148 -5.24559,2.80238 -2.17558,2.81723 -1.82923,6.94521 2.23884,10.27998 4.09961,3.36062 13.86147,5.49317 15.53894,3.3064 1.70229,-2.21913 1.05797,-4.03979 1.82911,-5.23122 z"
         style="fill:#ff0000;fill-opacity:1;fill-rule:evenodd;stroke:#000000;stroke-width:1.19238877;stroke-linecap:butt;stroke-linejoin:miter;stroke-miterlimit:4;stroke-opacity:1;stroke-dasharray:none"
         inkscape:connector-curvature="0" />
      <path
         sodipodi:nodetypes="ccccc"
         id="path3380"
         d="m 790.23205,449.75896 c -1.06065,1.1474 -2.23028,2.11997 -3.52812,2.88681 l -0.35291,-0.39788 c 1.41948,-0.82168 2.56452,-1.83245 3.43917,-3.02953 l 0.44186,0.5406 z"
         style="fill:#000000;fill-opacity:1;fill-rule:evenodd;stroke:#000000;stroke-width:1.19238865;stroke-linecap:butt;stroke-linejoin:miter;stroke-miterlimit:4;stroke-opacity:1;stroke-dasharray:none"
         inkscape:connector-curvature="0" />
      <path
         sodipodi:nodetypes="czzzczzzz"
         id="path3382"
         d="m 802.74453,436.38291 c -1.09877,-0.89823 -0.4693,-2.91276 -2.16407,-4.55105 -1.69477,-1.63829 -9.71884,0.52277 -13.97317,4.79516 -4.31189,4.33021 -3.76167,8.14325 -2.33637,10.43913 1.42531,2.29588 4.93207,2.00705 5.79558,2.35537 0.4141,0.87005 -0.35443,3.04953 2.20479,5.52345 2.55922,2.47393 6.70018,2.58644 10.46457,-1.08768 3.79359,-3.70261 6.99314,-13.16857 5.00539,-15.0777 -2.01716,-1.93737 -3.89793,-1.49845 -4.99672,-2.39668 z"
         style="fill:#ff0000;fill-opacity:1;fill-rule:evenodd;stroke:#000000;stroke-width:1.19238865;stroke-linecap:butt;stroke-linejoin:miter;stroke-miterlimit:4;stroke-opacity:1;stroke-dasharray:none"
         inkscape:connector-curvature="0" />
      <path
         sodipodi:nodetypes="ccccc"
         id="path3386"
         d="m 765.77822,444.25676 c -1.06065,1.1474 -2.23028,2.11997 -3.52812,2.88681 l -0.35291,-0.39788 c 1.41948,-0.82168 2.56452,-1.83245 3.43917,-3.02953 l 0.44186,0.5406 z"
         style="fill:#000000;fill-opacity:1;fill-rule:evenodd;stroke:#000000;stroke-width:1.19238865;stroke-linecap:butt;stroke-linejoin:miter;stroke-miterlimit:4;stroke-opacity:1;stroke-dasharray:none"
         inkscape:connector-curvature="0" />
      <path
         sodipodi:nodetypes="czzzczzzz"
         id="path3388"
         d="m 778.2907,430.88071 c -1.09877,-0.89823 -0.4693,-2.91276 -2.16407,-4.55105 -1.69477,-1.63829 -9.71884,0.52277 -13.97317,4.79516 -4.31189,4.33021 -3.76167,8.14325 -2.33637,10.43913 1.42531,2.29588 4.93207,2.00705 5.79558,2.35537 0.4141,0.87005 -0.35443,3.04953 2.20479,5.52345 2.55922,2.47393 6.70018,2.58644 10.46457,-1.08768 3.79359,-3.70261 6.99314,-13.16857 5.00539,-15.0777 -2.01716,-1.93737 -3.89793,-1.49845 -4.99672,-2.39668 z"
         style="fill:#ff0000;fill-opacity:1;fill-rule:evenodd;stroke:#000000;stroke-width:1.19238865;stroke-linecap:butt;stroke-linejoin:miter;stroke-miterlimit:4;stroke-opacity:1;stroke-dasharray:none"
         inkscape:connector-curvature="0" />
      <path
         sodipodi:nodetypes="ccccc"
         id="path3392"
         d="m 811.62915,424.69366 c -1.06065,1.1474 -2.23028,2.11997 -3.52812,2.88681 l -0.35291,-0.39788 c 1.41948,-0.82168 2.56452,-1.83245 3.43917,-3.02953 l 0.44186,0.5406 z"
         style="fill:#000000;fill-opacity:1;fill-rule:evenodd;stroke:#000000;stroke-width:1.19238865;stroke-linecap:butt;stroke-linejoin:miter;stroke-miterlimit:4;stroke-opacity:1;stroke-dasharray:none"
         inkscape:connector-curvature="0" />
      <path
         sodipodi:nodetypes="czzzczzzz"
         id="path3394"
         d="m 824.14163,411.31761 c -1.09877,-0.89823 -0.4693,-2.91276 -2.16407,-4.55105 -1.69477,-1.63829 -9.71884,0.52277 -13.97317,4.79516 -4.31189,4.33021 -3.76167,8.14325 -2.33637,10.43913 1.42531,2.29588 4.93207,2.00705 5.79558,2.35537 0.4141,0.87005 -0.35443,3.04953 2.20479,5.52345 2.55922,2.47393 6.70018,2.58644 10.46457,-1.08768 3.79359,-3.70261 6.99314,-13.16857 5.00539,-15.0777 -2.01716,-1.93737 -3.89793,-1.49845 -4.99672,-2.39668 z"
         style="fill:#ff0000;fill-opacity:1;fill-rule:evenodd;stroke:#000000;stroke-width:1.19238865;stroke-linecap:butt;stroke-linejoin:miter;stroke-miterlimit:4;stroke-opacity:1;stroke-dasharray:none"
         inkscape:connector-curvature="0" />
      <path
         sodipodi:nodetypes="ccccc"
         id="path3398"
         d="m 788.1532,417.71024 c 1.09857,-1.11113 2.3002,-2.04388 3.62306,-2.76671 l 0.33935,0.40951 c -1.44627,0.77355 -2.6246,1.7453 -3.53895,2.91233 l -0.42346,-0.55513 z"
         style="fill:#000000;fill-opacity:1;fill-rule:evenodd;stroke:#000000;stroke-width:1.19238865;stroke-linecap:butt;stroke-linejoin:miter;stroke-miterlimit:4;stroke-opacity:1;stroke-dasharray:none"
         inkscape:connector-curvature="0" />
      <path
         sodipodi:nodetypes="czzzczzzz"
         id="path3400"
         d="m 775.19863,430.65861 c 1.06799,0.93462 0.37123,2.92688 2.01003,4.62114 1.63881,1.69428 9.73092,-0.19613 14.12631,-4.32326 4.45486,-4.18298 4.03298,-8.01234 2.68558,-10.35479 -1.34742,-2.34245 -4.8619,-2.17153 -5.71323,-2.54865 -0.38465,-0.88346 0.45662,-3.03591 -2.01808,-5.59436 -2.47471,-2.55847 -6.60955,-2.80997 -10.49519,0.73569 -3.91578,3.57314 -7.43137,12.92632 -5.50885,14.90112 1.95097,2.00401 3.84542,1.62849 4.91343,2.56311 z"
         style="fill:#ff0000;fill-opacity:1;fill-rule:evenodd;stroke:#000000;stroke-width:1.19238865;stroke-linecap:butt;stroke-linejoin:miter;stroke-miterlimit:4;stroke-opacity:1;stroke-dasharray:none"
         inkscape:connector-curvature="0" />
      <path
         sodipodi:nodetypes="ccccc"
         id="path3404"
         d="m 838.89491,416.48754 c 1.09857,-1.11113 2.3002,-2.04388 3.62306,-2.76671 l 0.33935,0.40951 c -1.44627,0.77355 -2.6246,1.7453 -3.53895,2.91233 l -0.42346,-0.55513 z"
         style="fill:#000000;fill-opacity:1;fill-rule:evenodd;stroke:#000000;stroke-width:1.19238865;stroke-linecap:butt;stroke-linejoin:miter;stroke-miterlimit:4;stroke-opacity:1;stroke-dasharray:none"
         inkscape:connector-curvature="0" />
      <path
         sodipodi:nodetypes="czzzczzzz"
         id="path3406"
         d="m 825.94034,429.43591 c 1.06799,0.93462 0.37123,2.92688 2.01003,4.62114 1.63881,1.69428 9.73092,-0.19613 14.12631,-4.32326 4.45486,-4.18298 4.03298,-8.01234 2.68558,-10.35479 -1.34742,-2.34245 -4.8619,-2.17153 -5.71323,-2.54865 -0.38465,-0.88346 0.45662,-3.03591 -2.01808,-5.59436 -2.47471,-2.55847 -6.60955,-2.80997 -10.49519,0.73569 -3.91578,3.57314 -7.43137,12.92632 -5.50885,14.90112 1.95097,2.00401 3.84542,1.62849 4.91343,2.56311 z"
         style="fill:#ff0000;fill-opacity:1;fill-rule:evenodd;stroke:#000000;stroke-width:1.19238865;stroke-linecap:butt;stroke-linejoin:miter;stroke-miterlimit:4;stroke-opacity:1;stroke-dasharray:none"
         inkscape:connector-curvature="0" />
      <path
         sodipodi:nodetypes="ccccc"
         id="path3422"
         d="m 804.66652,399.70255 c 0.63618,-1.42715 1.4317,-2.72372 2.41469,-3.8666 l 0.46196,0.26354 c -1.08059,1.23386 -1.84056,2.55871 -2.28464,3.9732 l -0.59201,-0.37014 z"
         style="fill:#000000;fill-opacity:1;fill-rule:evenodd;stroke:#000000;stroke-width:1.19238877;stroke-linecap:butt;stroke-linejoin:miter;stroke-miterlimit:4;stroke-opacity:1;stroke-dasharray:none"
         inkscape:connector-curvature="0" />
      <path
         sodipodi:nodetypes="czzzczzzz"
         id="path3424"
         d="m 797.11012,416.38733 c 1.32896,0.49798 1.37949,2.60796 3.51047,3.61549 2.13099,1.00755 9.03666,-3.61495 11.69435,-9.02692 2.69364,-5.4852 0.94851,-8.91981 -1.13836,-10.63665 -2.08689,-1.71683 -5.31533,-0.31758 -6.24496,-0.37026 -0.67148,-0.69107 -0.64326,-3.00192 -3.86119,-4.52336 -3.21793,-1.52146 -7.17585,-0.29873 -9.56158,4.38936 -2.40423,4.72444 -2.39576,14.71651 0.0996,15.8865 2.53232,1.18731 4.17266,0.16787 5.50164,0.66584 z"
         style="fill:#ff0000;fill-opacity:1;fill-rule:evenodd;stroke:#000000;stroke-width:1.19238877;stroke-linecap:butt;stroke-linejoin:miter;stroke-miterlimit:4;stroke-opacity:1;stroke-dasharray:none"
         inkscape:connector-curvature="0" />
      <path
         sodipodi:nodetypes="ccccc"
         id="path3428"
         d="m 773.22555,398.93331 c -0.0349,-1.56214 0.13011,-3.07433 0.53026,-4.52771 l 0.53028,0.0408 c -0.4495,1.57736 -0.57026,3.09992 -0.36712,4.5685 l -0.69342,-0.0816 z"
         style="fill:#000000;fill-opacity:1;fill-rule:evenodd;stroke:#000000;stroke-width:1.19238865;stroke-linecap:butt;stroke-linejoin:miter;stroke-miterlimit:4;stroke-opacity:1;stroke-dasharray:none"
         inkscape:connector-curvature="0" />
      <path
         sodipodi:nodetypes="czzzczzzz"
         id="path3430"
         d="m 773.52591,417.24699 c 1.41429,-0.11786 2.36186,1.76806 4.71902,1.76806 2.35717,0 6.62439,-7.13069 6.71378,-13.15934 0.0906,-6.11023 -2.95516,-8.46934 -5.57562,-9.12943 -2.62048,-0.66008 -4.94105,1.98486 -5.80399,2.33459 -0.90243,-0.33775 -1.86467,-2.43891 -5.42414,-2.43891 -3.55948,0 -6.61498,2.79716 -6.76793,8.05515 -0.15414,5.29876 4.1245,14.32843 6.88055,14.31953 2.79683,-0.009 3.84402,-1.63178 5.25833,-1.74965 z"
         style="fill:#ff0000;fill-opacity:1;fill-rule:evenodd;stroke:#000000;stroke-width:1.19238865;stroke-linecap:butt;stroke-linejoin:miter;stroke-miterlimit:4;stroke-opacity:1;stroke-dasharray:none"
         inkscape:connector-curvature="0" />
      <path
         sodipodi:nodetypes="ccccc"
         id="path3434"
         d="m 834.97147,433.78002 c -0.0349,-1.56213 0.13011,-3.07432 0.53026,-4.5277 l 0.53028,0.0408 c -0.4495,1.57735 -0.57026,3.09991 -0.36712,4.5685 l -0.69342,-0.0816 z"
         style="fill:#000000;fill-opacity:1;fill-rule:evenodd;stroke:#000000;stroke-width:1.19238865;stroke-linecap:butt;stroke-linejoin:miter;stroke-miterlimit:4;stroke-opacity:1;stroke-dasharray:none"
         inkscape:connector-curvature="0" />
      <path
         sodipodi:nodetypes="czzzczzzz"
         id="path3436"
         d="m 835.27183,452.09371 c 1.41429,-0.11786 2.36186,1.76806 4.71902,1.76806 2.35717,0 6.62439,-7.13069 6.71378,-13.15935 0.0906,-6.11023 -2.95516,-8.46933 -5.57562,-9.12943 -2.62048,-0.66008 -4.94105,1.98487 -5.80399,2.33459 -0.90243,-0.33774 -1.86467,-2.43891 -5.42414,-2.43891 -3.55948,0 -6.61498,2.79717 -6.76793,8.05516 -0.15414,5.29876 4.1245,14.32842 6.88055,14.31953 2.79683,-0.009 3.84402,-1.63179 5.25833,-1.74965 z"
         style="fill:#ff0000;fill-opacity:1;fill-rule:evenodd;stroke:#000000;stroke-width:1.19238865;stroke-linecap:butt;stroke-linejoin:miter;stroke-miterlimit:4;stroke-opacity:1;stroke-dasharray:none"
         inkscape:connector-curvature="0" />
      <path
         sodipodi:nodetypes="ccccc"
         id="path3325"
         d="m 747.72549,417.32506 c 39.11535,1.95713 69.53127,2.03223 103.22707,0 -0.005,5.13286 -0.67615,10.02647 -2.04488,14.66899 -33.54684,-2.36411 -66.72188,-1.51864 -99.81894,0 -1.29296,-4.88966 -1.88576,-9.77933 -1.36325,-14.66899 z"
         style="fill:#00ba00;fill-opacity:1;fill-rule:evenodd;stroke:#000000;stroke-width:1.01456046px;stroke-linecap:butt;stroke-linejoin:miter;stroke-opacity:1"
         inkscape:connector-curvature="0" />
      <path
         sodipodi:nodetypes="ccccc"
         id="path3331"
         d="m 755.55798,462.72512 c 33.16859,1.65958 58.96033,1.72327 87.53332,0 -0.005,4.3525 -0.57337,8.50214 -1.734,12.43885 -28.44668,-2.00469 -56.57806,-1.28776 -84.64333,0 -1.09638,-4.14628 -1.59906,-8.29257 -1.15599,-12.43885 z"
         style="fill:#00ba00;fill-opacity:1;fill-rule:evenodd;stroke:#000000;stroke-width:0.86031532px;stroke-linecap:butt;stroke-linejoin:miter;stroke-opacity:1"
         inkscape:connector-curvature="0" />
      <path
         sodipodi:nodetypes="ccccc"
         id="path3335"
         d="m 791.90997,474.95378 c 1.84776,-22.04342 1.91867,-39.18427 0,-58.17352 4.6698,-0.28935 9.87911,-0.47016 14.37005,0.096 -2.23199,18.9053 -1.95457,39.32965 -0.5208,57.98146 -4.61641,0.72865 -9.23284,0.3905 -13.84925,0.096 z"
         style="fill:#00ba00;fill-opacity:1;fill-rule:evenodd;stroke:#000000;stroke-width:0.74004281px;stroke-linecap:butt;stroke-linejoin:miter;stroke-opacity:1"
         inkscape:connector-curvature="0" />
      <path
         sodipodi:nodetypes="ccccc"
         id="path3337"
         d="m 767.40609,475.04572 c 1.84776,-22.04342 -4.04557,-39.36816 -5.96423,-58.3574 4.6698,-0.28935 9.8791,-0.47016 14.37005,0.096 -2.232,18.9053 0.26071,39.51352 1.69448,58.16533 -4.61641,0.72865 -5.48389,0.3905 -10.1003,0.096 z"
         style="fill:#00ba00;fill-opacity:1;fill-rule:evenodd;stroke:#000000;stroke-width:0.74004281px;stroke-linecap:butt;stroke-linejoin:miter;stroke-opacity:1"
         inkscape:connector-curvature="0" />
      <path
         sodipodi:nodetypes="ccccc"
         id="path3343"
         d="m 830.94476,475.04572 c -1.84775,-22.04342 4.04558,-39.36816 5.96424,-58.3574 -4.6698,-0.28935 -9.87911,-0.47016 -14.37005,0.096 2.232,18.9053 -0.26072,39.51352 -1.69448,58.16533 4.61641,0.72865 5.48388,0.3905 10.10029,0.096 z"
         style="fill:#00ba00;fill-opacity:1;fill-rule:evenodd;stroke:#000000;stroke-width:0.74004281px;stroke-linecap:butt;stroke-linejoin:miter;stroke-opacity:1"
         inkscape:connector-curvature="0" />
      <path
         sodipodi:nodetypes="ccccc"
         id="path3327"
         d="m 750.13548,432.99286 c 37.28559,1.86558 66.27868,1.93717 98.39823,0 -0.005,4.89275 -0.64453,9.55744 -1.94923,13.98279 -31.97755,-2.25351 -63.6007,-1.44759 -95.14951,0 -1.23248,-4.66092 -1.79755,-9.32186 -1.29949,-13.98279 z"
         style="fill:#00ba00;fill-opacity:1;fill-rule:evenodd;stroke:#000000;stroke-width:0.9671005px;stroke-linecap:butt;stroke-linejoin:miter;stroke-opacity:1"
         inkscape:connector-curvature="0" />
      <path
         sodipodi:nodetypes="ccccc"
         id="path3329"
         d="m 752.54547,448.22983 c 35.45583,1.77402 63.0261,1.8421 93.56939,0 -0.005,4.65264 -0.6129,9.08841 -1.85357,13.29659 -30.40828,-2.14292 -60.47953,-1.37655 -90.4801,0 -1.17199,-4.4322 -1.70934,-8.86441 -1.23572,-13.29659 z"
         style="fill:#00ba00;fill-opacity:1;fill-rule:evenodd;stroke:#000000;stroke-width:0.91964042px;stroke-linecap:butt;stroke-linejoin:miter;stroke-opacity:1"
         inkscape:connector-curvature="0" />
      <path
         sodipodi:nodetypes="ccccc"
         id="path3333"
         d="m 779.3567,474.8033 c 1.84776,-22.04342 -0.80784,-39.0004 -2.72651,-57.98965 4.6698,-0.28936 9.87911,-0.47016 14.37006,0.096 -2.232,18.9053 -1.95457,39.32965 -0.52081,57.98146 -4.61641,0.72865 -6.50632,0.20662 -11.12274,-0.0878 z"
         style="fill:#00ba00;fill-opacity:1;fill-rule:evenodd;stroke:#000000;stroke-width:0.74004281px;stroke-linecap:butt;stroke-linejoin:miter;stroke-opacity:1"
         inkscape:connector-curvature="0" />
      <path
         sodipodi:nodetypes="ccccc"
         id="path3339"
         d="m 757.14701,475.27651 c 1.84776,-22.04342 -6.60168,-39.55203 -8.52034,-58.54127 4.6698,-0.28936 7.66382,-0.65403 12.15476,-0.0878 -2.232,18.9053 4.18007,39.51352 5.61384,58.16533 -4.61641,0.72865 -4.63185,0.75824 -9.24826,0.46378 z"
         style="fill:#00ba00;fill-opacity:1;fill-rule:evenodd;stroke:#000000;stroke-width:0.74004281px;stroke-linecap:butt;stroke-linejoin:miter;stroke-opacity:1"
         inkscape:connector-curvature="0" />
      <path
         sodipodi:nodetypes="ccccc"
         id="path3341"
         d="m 818.74185,474.8033 c -1.84776,-22.04342 0.80785,-39.0004 2.72651,-57.98965 -4.6698,-0.28936 -9.8791,-0.47016 -14.37005,0.096 2.232,18.9053 1.95457,39.32965 0.52081,57.98146 4.61641,0.72865 6.50632,0.20662 11.12273,-0.0878 z"
         style="fill:#00ba00;fill-opacity:1;fill-rule:evenodd;stroke:#000000;stroke-width:0.74004281px;stroke-linecap:butt;stroke-linejoin:miter;stroke-opacity:1"
         inkscape:connector-curvature="0" />
      <path
         sodipodi:nodetypes="ccccc"
         id="path3345"
         d="m 841.37425,475.27651 c -1.84775,-22.04342 6.60168,-39.55203 8.52034,-58.54127 -4.6698,-0.28936 -7.66381,-0.65403 -12.15476,-0.0878 2.232,18.9053 -4.18007,39.51352 -5.61383,58.16533 4.61641,0.72865 4.63184,0.75824 9.24825,0.46378 z"
         style="fill:#00ba00;fill-opacity:1;fill-rule:evenodd;stroke:#000000;stroke-width:0.74004281px;stroke-linecap:butt;stroke-linejoin:miter;stroke-opacity:1"
         inkscape:connector-curvature="0" />
    </g>
  </g>
</svg>
