<?xml version="1.0" encoding="UTF-8" standalone="no"?>
<!-- Created with Inkscape (http://www.inkscape.org/) -->
<svg
   xmlns:dc="http://purl.org/dc/elements/1.1/"
   xmlns:cc="http://creativecommons.org/ns#"
   xmlns:rdf="http://www.w3.org/1999/02/22-rdf-syntax-ns#"
   xmlns:svg="http://www.w3.org/2000/svg"
   xmlns="http://www.w3.org/2000/svg"
   xmlns:xlink="http://www.w3.org/1999/xlink"
   xmlns:sodipodi="http://sodipodi.sourceforge.net/DTD/sodipodi-0.dtd"
   xmlns:inkscape="http://www.inkscape.org/namespaces/inkscape"
   height="320.78949"
   id="svg1733"
   inkscape:version="0.46"
   sodipodi:docbase="/home/phillipsjd/Documents/projects/clipart-project/art"
   sodipodi:docname="cartoon_tree_01.svg"
   sodipodi:version="0.32"
   width="182.5818"
   inkscape:output_extension="org.inkscape.output.svg.inkscape"
   version="1.0">
  <metadata
     id="metadata3">
    <rdf:RDF>
      <cc:Work
         rdf:about="">
        <dc:title>Cartoon Tree</dc:title>
        <dc:description>This is a simple tree designed for use in the elements and principles tutoral in Inkscape.</dc:description>
        <dc:subject>
          <rdf:Bag>
            <rdf:li />
            <rdf:li>plant</rdf:li>
            <rdf:li>flower</rdf:li>
            <rdf:li>park</rdf:li>
          </rdf:Bag>
        </dc:subject>
        <dc:publisher>
          <cc:Agent
             rdf:about="http://www.openclipart.org">
            <dc:title>Jon Phillips</dc:title>
          </cc:Agent>
        </dc:publisher>
        <dc:creator>
          <cc:Agent>
            <dc:title>Jon Phillips</dc:title>
          </cc:Agent>
        </dc:creator>
        <dc:rights>
          <cc:Agent>
            <dc:title>Jon Phillips</dc:title>
          </cc:Agent>
        </dc:rights>
        <dc:date />
        <dc:format>image/svg+xml</dc:format>
        <dc:type
           rdf:resource="http://purl.org/dc/dcmitype/StillImage" />
        <cc:license
           rdf:resource="http://web.resource.org/cc/PublicDomain" />
        <dc:language>en</dc:language>
      </cc:Work>
      <cc:License
         rdf:about="http://web.resource.org/cc/PublicDomain">
        <cc:permits
           rdf:resource="http://web.resource.org/cc/Reproduction" />
        <cc:permits
           rdf:resource="http://web.resource.org/cc/Distribution" />
        <cc:permits
           rdf:resource="http://web.resource.org/cc/DerivativeWorks" />
      </cc:License>
    </rdf:RDF>
  </metadata>
  <defs
     id="defs1735">
    <inkscape:perspective
       sodipodi:type="inkscape:persp3d"
       inkscape:vp_x="0 : 526.18109 : 1"
       inkscape:vp_y="0 : 1000 : 0"
       inkscape:vp_z="744.09448 : 526.18109 : 1"
       inkscape:persp3d-origin="372.04724 : 350.78739 : 1"
       id="perspective34" />
  </defs>
  <sodipodi:namedview
     bordercolor="#666666"
     borderopacity="1.0"
     id="base"
     inkscape:cx="329.5637"
     inkscape:cy="546.54688"
     inkscape:pageopacity="0.0"
     inkscape:pageshadow="2"
     inkscape:window-height="739"
     inkscape:window-width="1012"
     inkscape:window-x="132"
     inkscape:window-y="27"
     inkscape:zoom="0.62273088"
     pagecolor="#ffffff"
     showgrid="false"
     inkscape:current-layer="svg1733" />
  <g
     id="g2488"
     transform="matrix(1.42929,0,0,1.42929,-441.23942,-377.19536)">
    <path
       d="M 364.37458,270.96875 L 359.84333,271.125 C 360.49433,279.15875 361.60787,287.10074 362.84333,295.0625 C 363.39173,298.55888 364.00718,302.15794 364.53083,305.75 C 360.38931,298.31986 355.06292,291.50019 347.99958,285.5 C 342.27139,281.18363 336.31706,277.64336 329.84333,274.5625 L 324.24958,280 C 330.05117,282.67079 335.40044,285.76661 340.56208,289.53125 C 347.25907,295.06051 352.34673,301.43114 356.28083,308.40625 C 349.14361,304.46794 341.06242,301.54829 333.74958,298.84375 C 329.56093,297.41912 325.39513,296.12625 321.12458,294.96875 L 319.31208,298.03125 C 323.3971,299.1322 327.37586,300.3692 331.37458,301.75 C 339.51076,304.8153 347.41708,308.37287 354.93708,312.75 C 355.32985,312.97861 358.5025,315.82061 360.81208,317.875 C 362.37533,321.89294 363.63188,326.10182 364.62458,330.4375 C 360.50034,328.85942 351.41969,325.57123 347.90583,324.71875 C 344.33732,323.9881 340.83974,323.45631 337.21833,323.0625 L 336.40583,326.4375 C 339.71437,326.79703 342.89818,327.28806 346.15583,327.96875 C 352.85251,329.62201 359.05439,332.65453 365.49958,334.71875 C 365.77072,336.16888 366.06058,337.61403 366.28083,339.09375 C 366.84505,343.76286 367.31403,348.72382 367.40583,353.6875 L 366.24958,358.21875 C 361.29656,356.15393 357.41333,354.55383 354.81208,353.46875 C 341.81417,348.09687 328.71207,343.36661 314.96833,340.28125 L 311.96833,346.4375 C 322.84199,348.79158 333.19819,352.51953 343.43708,356.71875 C 338.86321,357.0008 334.31683,357.48914 329.71833,358.59375 C 328.64358,358.90724 327.57432,359.21777 326.49958,359.53125 L 328.53083,362.6875 C 329.50646,362.40643 330.46144,362.12481 331.43708,361.84375 C 338.24183,360.21353 345.17227,359.96053 352.12458,360.09375 C 357.56181,362.12011 362.95639,363.52329 364.81208,368.21875 C 364.52343,375.63934 365.08191,381.2555 365.40583,388.625 C 365.41751,389.21552 365.4254,391.77956 365.43708,394.34375 C 361.20555,391.01248 353.32486,385.40336 351.06208,383.96875 C 346.39574,381.18635 341.7014,378.55692 336.87458,376.0625 L 333.93708,378.65625 C 338.60671,381.09687 343.15405,383.66941 347.65583,386.40625 C 353.14075,389.97407 361.55727,395.70857 365.28083,403.65625 C 364.10004,425.01729 364.89586,437.31685 364.53083,460.03125 C 364.35362,469.19052 365.12167,479.28168 363.37458,488.34375 L 374.90583,488.34375 C 373.15876,479.28168 373.89554,469.19051 373.71833,460.03125 C 373.33038,435.89149 371.97444,424.05535 374.03083,399.96875 C 374.034,399.93793 374.02766,399.90582 374.03083,399.875 C 378.84428,392.54231 384.78441,384.1763 387.78083,380.625 C 394.22523,373.68884 404.0291,366.16266 412.18708,361.3125 L 405.59333,356.3125 C 401.56316,358.74044 397.78726,361.4326 394.18708,364.34375 C 395.8892,360.30277 397.75977,355.80154 398.31208,354.1875 L 394.74958,354.78125 C 393.62338,357.79257 390.52556,364.40566 388.09333,369.90625 C 386.01,371.84869 383.8543,373.69018 381.87458,375.78125 C 379.05584,379.01209 378.75309,379.436 376.31208,382.3125 C 378.13792,370.2812 380.70116,358.38203 385.06208,346.96875 C 385.31982,346.31157 385.63544,345.68322 385.90583,345.03125 C 389.81816,343.13197 393.5966,340.70691 396.99958,338.75 C 400.60274,336.7543 404.23641,334.92571 407.99958,333.25 L 405.21833,330.40625 C 401.27379,332.14408 397.4436,334.00631 393.65583,336.0625 C 392.23928,336.85732 390.3215,338.07232 388.53083,339.1875 C 392.58055,330.77656 397.60443,322.80869 403.15583,315.3125 C 410.53143,315.12159 417.78021,315.48855 424.99958,317.3125 L 426.81208,314.09375 C 419.82534,312.31657 412.97266,311.94574 405.96833,311.65625 C 410.64912,305.75716 415.67448,300.14412 420.68708,294.53125 L 412.06208,291.03125 C 406.3691,297.41404 400.58898,303.74683 395.37458,310.53125 C 392.36452,314.54653 389.58755,318.69337 386.93708,322.9375 C 386.85007,317.34615 386.86212,311.74851 386.81208,306.21875 C 386.74721,297.8107 386.43222,289.41473 385.78083,281.03125 L 381.28083,281.1875 C 381.93756,289.51517 382.22029,297.86566 382.15583,306.21875 C 382.07843,314.77226 382.37707,323.50644 381.68708,332.0625 C 379.64876,335.93721 377.76899,339.90837 376.15583,344 C 376.00244,342.15542 375.84895,340.31845 375.56208,338.5 C 374.43265,332.25113 372.92042,326.25977 370.99958,320.53125 C 370.14576,311.84836 369.0612,303.34748 367.56208,294.71875 C 366.21948,286.82031 365.04456,278.95573 364.37458,270.96875 z"
       id="path1745"
       style="fill:#000000;fill-opacity:0.75;fill-rule:nonzero;stroke:none;stroke-width:1pt;stroke-linecap:butt;stroke-linejoin:miter;stroke-opacity:1" />
    <path
       d="M 334.26087,336.29169 A 35.484169,35.484169 0 1 1 263.29253,336.29169 A 35.484169,35.484169 0 1 1 334.26087,336.29169 z"
       id="path2432"
       sodipodi:cx="298.7767"
       sodipodi:cy="336.29169"
       sodipodi:rx="35.484169"
       sodipodi:ry="35.484169"
       sodipodi:type="arc"
       style="fill:#38a600;fill-opacity:1;fill-rule:evenodd;stroke:none;stroke-width:1pt;stroke-linecap:butt;stroke-linejoin:miter;stroke-opacity:1"
       transform="matrix(0.4,0,0,0.4,203.3953,214.5493)" />
    <use
       height="1052.3622"
       id="use2461"
       transform="translate(99.35567,-51.0972)"
       width="744.09448"
       x="0"
       xlink:href="#path2432"
       y="0" />
    <use
       height="1052.3622"
       id="use2462"
       transform="translate(48.25846,42.581)"
       width="744.09448"
       x="0"
       xlink:href="#path2432"
       y="0" />
    <path
       d="M 334.26087,336.29169 A 35.484169,35.484169 0 1 1 263.29253,336.29169 A 35.484169,35.484169 0 1 1 334.26087,336.29169 z"
       id="path2463"
       sodipodi:cx="298.7767"
       sodipodi:cy="336.29169"
       sodipodi:rx="35.484169"
       sodipodi:ry="35.484169"
       sodipodi:type="arc"
       style="fill:#2c8400;fill-opacity:1;fill-rule:evenodd;stroke:none;stroke-width:1pt;stroke-linecap:butt;stroke-linejoin:miter;stroke-opacity:1"
       transform="matrix(0.4,0,0,0.4,217.5889,143.581)" />
    <use
       height="1052.3622"
       id="use2464"
       transform="translate(62.45214,28.38733)"
       width="744.09448"
       x="0"
       xlink:href="#path2463"
       y="0" />
    <use
       height="1052.3622"
       id="use2465"
       transform="translate(48.25847,102.1944)"
       width="744.09448"
       x="0"
       xlink:href="#path2463"
       y="0" />
    <path
       d="M 334.26087,336.29169 A 35.484169,35.484169 0 1 1 263.29253,336.29169 A 35.484169,35.484169 0 1 1 334.26087,336.29169 z"
       id="path2466"
       sodipodi:cx="298.7767"
       sodipodi:cy="336.29169"
       sodipodi:rx="35.484169"
       sodipodi:ry="35.484169"
       sodipodi:type="arc"
       style="fill:#43c800;fill-opacity:1;fill-rule:evenodd;stroke:none;stroke-width:1pt;stroke-linecap:butt;stroke-linejoin:miter;stroke-opacity:1"
       transform="matrix(0.4,0,0,0.4,206.234,163.4521)" />
    <use
       height="1052.3622"
       id="use2467"
       transform="translate(22.70987,83.49911)"
       width="744.09448"
       x="0"
       xlink:href="#path2466"
       y="0" />
    <use
       height="1052.3622"
       id="use2468"
       transform="translate(73.80707,31.22607)"
       width="744.09448"
       x="0"
       xlink:href="#path2466"
       y="0" />
    <use
       height="1052.3622"
       id="use2470"
       transform="translate(2.838733,79.48454)"
       width="744.09448"
       x="0"
       xlink:href="#path2463"
       y="0" />
    <use
       height="1052.3622"
       id="use2471"
       transform="translate(48.25847,22.70987)"
       width="744.09448"
       x="0"
       xlink:href="#path2432"
       y="0" />
    <use
       height="1052.3622"
       id="use2472"
       transform="translate(36.90353,45.41973)"
       width="744.09448"
       x="0"
       xlink:href="#path2466"
       y="0" />
    <use
       height="1052.3622"
       id="use2473"
       transform="translate(2.838733,45.41973)"
       width="744.09448"
       x="0"
       xlink:href="#path2463"
       y="0" />
    <use
       height="1052.3622"
       id="use2474"
       transform="translate(79.48454,11.35493)"
       width="744.09448"
       x="0"
       xlink:href="#path2432"
       y="0" />
    <use
       height="1052.3622"
       id="use2475"
       transform="translate(36.90353,-17.0324)"
       width="744.09448"
       x="0"
       xlink:href="#path2466"
       y="0" />
    <use
       height="1052.3622"
       id="use2476"
       transform="translate(42.581,79.48453)"
       width="744.09448"
       x="0"
       xlink:href="#path2463"
       y="0" />
    <use
       height="1052.3622"
       id="use2477"
       transform="translate(56.77466,-14.19366)"
       width="744.09448"
       x="0"
       xlink:href="#path2432"
       y="0" />
    <use
       height="1052.3622"
       id="use2478"
       transform="translate(35.24065,14.19367)"
       width="744.09448"
       x="0"
       xlink:href="#path2432"
       y="0" />
    <path
       d="M 334.26087,336.29169 A 35.484169,35.484169 0 1 1 263.29253,336.29169 A 35.484169,35.484169 0 1 1 334.26087,336.29169 z"
       id="path2479"
       sodipodi:cx="298.7767"
       sodipodi:cy="336.29169"
       sodipodi:rx="35.484169"
       sodipodi:ry="35.484169"
       sodipodi:type="arc"
       style="fill:#47d900;fill-opacity:1;fill-rule:evenodd;stroke:none;stroke-width:1pt;stroke-linecap:butt;stroke-linejoin:miter;stroke-opacity:1"
       transform="matrix(0.4,0,0,0.4,228.9438,163.4521)" />
    <use
       height="1052.3622"
       id="use2481"
       transform="translate(65.29087,17.0324)"
       width="744.09448"
       x="0"
       xlink:href="#path2479"
       y="0" />
    <use
       height="1052.3622"
       id="use2482"
       transform="translate(48.25847,0)"
       width="744.09448"
       x="0"
       xlink:href="#path2463"
       y="0" />
    <use
       height="1052.3622"
       id="use2483"
       transform="translate(31.22607,25.54861)"
       width="744.09448"
       x="0"
       xlink:href="#path2466"
       y="0" />
    <use
       height="1052.3622"
       id="use2484"
       transform="translate(45.41973,-45.41973)"
       width="744.09448"
       x="0"
       xlink:href="#path2432"
       y="0" />
    <use
       height="1052.3622"
       id="use2485"
       transform="translate(53.93593,19.87113)"
       width="744.09448"
       x="0"
       xlink:href="#path2466"
       y="0" />
    <use
       height="1052.3622"
       id="use2486"
       transform="translate(36.90353,-5.677467)"
       width="744.09448"
       x="0"
       xlink:href="#path2479"
       y="0" />
  </g>
</svg>
