<?xml version="1.0" encoding="UTF-8" standalone="no"?>
<!-- Created with Inkscape (http://www.inkscape.org/) --><svg height="800" id="svg2" inkscape:version="0.43" sodipodi:docbase="D:\LW_F\MaKra\SVG - Dateien" sodipodi:docname="Tanne.svg" sodipodi:version="0.32" version="1.0" width="800" xmlns="http://www.w3.org/2000/svg" xmlns:cc="http://web.resource.org/cc/" xmlns:dc="http://purl.org/dc/elements/1.1/" xmlns:inkscape="http://www.inkscape.org/namespaces/inkscape" xmlns:rdf="http://www.w3.org/1999/02/22-rdf-syntax-ns#" xmlns:sodipodi="http://inkscape.sourceforge.net/DTD/sodipodi-0.dtd" xmlns:svg="http://www.w3.org/2000/svg">
  <metadata>
    <rdf:RDF xmlns:cc="http://web.resource.org/cc/" xmlns:dc="http://purl.org/dc/elements/1.1/" xmlns:rdf="http://www.w3.org/1999/02/22-rdf-syntax-ns#">
      <cc:Work rdf:about="">
        <dc:title>MaKra</dc:title>
        <dc:description></dc:description>
        <dc:subject>
          <rdf:Bag>
            <rdf:li>Tanne Baum Tree Christmas</rdf:li>
          </rdf:Bag>
        </dc:subject>
        <dc:publisher>
          <cc:Agent rdf:about="http://www.openclipart.org/">
            <dc:title>Open Clip Art Library</dc:title>
          </cc:Agent>
        </dc:publisher>
        <dc:creator>
          <cc:Agent>
            <dc:title>MaKra</dc:title>
          </cc:Agent>
        </dc:creator>
        <dc:rights>
          <cc:Agent>
            <dc:title>MaKra</dc:title>
          </cc:Agent>
        </dc:rights>
        <dc:date></dc:date>
        <dc:format>image/svg+xml</dc:format>
        <dc:type rdf:resource="http://purl.org/dc/dcmitype/StillImage"/>
        <cc:license rdf:resource="http://web.resource.org/cc/PublicDomain"/>
        <dc:language>en</dc:language>
      </cc:Work>
      <cc:License rdf:about="http://web.resource.org/cc/PublicDomain">
        <cc:permits rdf:resource="http://web.resource.org/cc/Reproduction"/>
        <cc:permits rdf:resource="http://web.resource.org/cc/Distribution"/>
        <cc:permits rdf:resource="http://web.resource.org/cc/DerivativeWorks"/>
      </cc:License>
    </rdf:RDF>
  </metadata>
  <defs id="defs5"/>
  <g id="g5538" transform="matrix(1.003662,0,0,0.989904,584.9642,-123.1147)">
    <path d="M -215.05573,573.86113 C -212.73306,583.9964 -213.15258,615.93175 -213.15258,637.16296 C -213.15258,660.6081 -213.15258,684.05322 -213.15258,707.49836 C -213.15258,733.13474 -216.95888,752.1978 -216.95888,774.31696 C -216.95888,790.85046 -222.55602,819.20487 -224.57147,834.10203 C -227.20241,853.54854 -224.57147,880.92155 -224.57147,900.92063" id="path4884" style="color:#000000;fill:none;fill-opacity:0.16605165;fill-rule:evenodd;stroke:#7e4400;stroke-width:53.32240295;stroke-linecap:round;stroke-linejoin:round;marker:none;marker-start:none;marker-mid:none;marker-end:none;stroke-miterlimit:4;stroke-dasharray:none;stroke-dashoffset:0;stroke-opacity:1;visibility:visible;display:inline;overflow:visible"/>
    <path d="M -215.05573,573.86113 C -212.73306,583.9964 -213.15258,615.93175 -213.15258,637.16296 C -213.15258,660.6081 -213.15258,684.05322 -213.15258,707.49836 C -213.15258,733.13474 -216.95888,752.1978 -216.95888,774.31696 C -216.95888,790.85046 -222.55602,819.20487 -224.57147,834.10203 C -227.20241,853.54854 -224.57147,880.92155 -224.57147,900.92063" id="path4886" style="color:#000000;fill:none;fill-opacity:0.16605165;fill-rule:evenodd;stroke:#834600;stroke-width:49.3596077;stroke-linecap:round;stroke-linejoin:round;marker:none;marker-start:none;marker-mid:none;marker-end:none;stroke-miterlimit:4;stroke-dasharray:none;stroke-dashoffset:0;stroke-opacity:1;visibility:visible;display:inline;overflow:visible"/>
    <path d="M -215.05573,573.86113 C -212.73306,583.9964 -213.15258,615.93175 -213.15258,637.16296 C -213.15258,660.6081 -213.15258,684.05322 -213.15258,707.49836 C -213.15258,733.13474 -216.95888,752.1978 -216.95888,774.31696 C -216.95888,790.85046 -222.55602,819.20487 -224.57147,834.10203 C -227.20241,853.54854 -224.57147,880.92155 -224.57147,900.92063" id="path4888" style="color:#000000;fill:none;fill-opacity:0.16605165;fill-rule:evenodd;stroke:#884900;stroke-width:45.39678574;stroke-linecap:round;stroke-linejoin:round;marker:none;marker-start:none;marker-mid:none;marker-end:none;stroke-miterlimit:4;stroke-dasharray:none;stroke-dashoffset:0;stroke-opacity:1;visibility:visible;display:inline;overflow:visible"/>
    <path d="M -215.05573,573.86113 C -212.73306,583.9964 -213.15258,615.93175 -213.15258,637.16296 C -213.15258,660.6081 -213.15258,684.05322 -213.15258,707.49836 C -213.15258,733.13474 -216.95888,752.1978 -216.95888,774.31696 C -216.95888,790.85046 -222.55602,819.20487 -224.57147,834.10203 C -227.20241,853.54854 -224.57147,880.92155 -224.57147,900.92063" id="path4890" style="color:#000000;fill:none;fill-opacity:0.16605165;fill-rule:evenodd;stroke:#8e4c00;stroke-width:41.43397141;stroke-linecap:round;stroke-linejoin:round;marker:none;marker-start:none;marker-mid:none;marker-end:none;stroke-miterlimit:4;stroke-dasharray:none;stroke-dashoffset:0;stroke-opacity:1;visibility:visible;display:inline;overflow:visible"/>
    <path d="M -215.05573,573.86113 C -212.73306,583.9964 -213.15258,615.93175 -213.15258,637.16296 C -213.15258,660.6081 -213.15258,684.05322 -213.15258,707.49836 C -213.15258,733.13474 -216.95888,752.1978 -216.95888,774.31696 C -216.95888,790.85046 -222.55602,819.20487 -224.57147,834.10203 C -227.20241,853.54854 -224.57147,880.92155 -224.57147,900.92063" id="path4892" style="color:#000000;fill:none;fill-opacity:0.16605165;fill-rule:evenodd;stroke:#934f00;stroke-width:37.47117233;stroke-linecap:round;stroke-linejoin:round;marker:none;marker-start:none;marker-mid:none;marker-end:none;stroke-miterlimit:4;stroke-dasharray:none;stroke-dashoffset:0;stroke-opacity:1;visibility:visible;display:inline;overflow:visible"/>
    <path d="M -213.15261,155.97921 C -203.65478,191.79273 -236.1808,211.99913 -249.31243,239.71775 C -248.06142,268.79956 -199.80381,246.45964 -181.51003,264.37725 C -146.76888,256.62733 -139.60368,289.46388 -169.11959,305.53439 C -198.17704,334.31758 -242.36535,314.23443 -276.87522,328.34964 C -298.94902,331.28273 -325.05616,349.085 -292.29226,362.92613 C -248.96216,387.36926 -197.97276,376.07749 -150.69811,378.6476 C -113.36853,376.38635 -71.454614,389.64251 -55.191274,426.22632 C -45.775854,454.19942 -99.086964,456.79529 -118.5799,466.75899 C -177.23412,476.83342 -237.12527,474.71014 -296.28667,479.59806 C -341.13862,481.35659 -393.73489,470.66141 -430.11155,504.25541 C -445.1166,536.48184 -386.14705,543.8615 -363.06496,544.22611 C -318.50768,544.62546 -273.42537,539.54186 -229.69069,550.9519 C -151.24767,557.12367 -72.079274,545.49038 6.3222959,554.67837 C 43.131036,563.84943 68.886966,594.34152 98.058896,616.36722 C 121.63817,664.8985 53.633366,645.27943 16.144346,653.3711 C -55.740674,673.0212 -131.46027,662.8642 -204.81144,659.58722 C -300.91876,651.87338 -397.45638,654.27882 -493.77743,652.84595 C -518.21289,655.50319 -553.16597,670.88315 -555.08736,697.35865 C -530.48738,715.76417 -494.7586,709.73058 -465.20819,714.12939 C -404.06488,714.38614 -343.17375,719.50046 -282.17233,722.92932 C -169.26661,724.76924 -56.361144,726.77098 56.542966,727.8066 C 99.304296,729.47442 142.2494,732.23873 184.96926,730.03244 C 184.96926,730.03244 186.50861,728.82695 186.50861,728.82695" id="path3071" style="color:#000000;fill:none;fill-opacity:0.16605165;fill-rule:evenodd;stroke:#007900;stroke-width:53.3224144;stroke-linecap:round;stroke-linejoin:round;marker:none;marker-start:none;marker-mid:none;marker-end:none;stroke-miterlimit:4;stroke-dasharray:none;stroke-dashoffset:0;stroke-opacity:1;visibility:visible;display:inline;overflow:visible"/>
    <path d="M -215.05573,573.86113 C -212.73306,583.9964 -213.15258,615.93175 -213.15258,637.16296 C -213.15258,660.6081 -213.15258,684.05322 -213.15258,707.49836 C -213.15258,733.13474 -216.95888,752.1978 -216.95888,774.31696 C -216.95888,790.85046 -222.55602,819.20487 -224.57147,834.10203 C -227.20241,853.54854 -224.57147,880.92155 -224.57147,900.92063" id="path4894" style="color:#000000;fill:none;fill-opacity:0.16605165;fill-rule:evenodd;stroke:#985200;stroke-width:33.508358;stroke-linecap:round;stroke-linejoin:round;marker:none;marker-start:none;marker-mid:none;marker-end:none;stroke-miterlimit:4;stroke-dasharray:none;stroke-dashoffset:0;stroke-opacity:1;visibility:visible;display:inline;overflow:visible"/>
    <path d="M -213.15261,155.97921 C -203.65478,191.79273 -236.1808,211.99913 -249.31243,239.71775 C -248.06142,268.79956 -199.80381,246.45964 -181.51003,264.37725 C -146.76888,256.62733 -139.60368,289.46388 -169.11959,305.53439 C -198.17704,334.31758 -242.36535,314.23443 -276.87522,328.34964 C -298.94902,331.28273 -325.05616,349.085 -292.29226,362.92613 C -248.96216,387.36926 -197.97276,376.07749 -150.69811,378.6476 C -113.36853,376.38635 -71.454614,389.64251 -55.191274,426.22632 C -45.775854,454.19942 -99.086964,456.79529 -118.5799,466.75899 C -177.23412,476.83342 -237.12527,474.71014 -296.28667,479.59806 C -341.13862,481.35659 -393.73489,470.66141 -430.11155,504.25541 C -445.1166,536.48184 -386.14705,543.8615 -363.06496,544.22611 C -318.50768,544.62546 -273.42537,539.54186 -229.69069,550.9519 C -151.24767,557.12367 -72.079274,545.49038 6.3222959,554.67837 C 43.131036,563.84943 68.886966,594.34152 98.058896,616.36722 C 121.63817,664.8985 53.633366,645.27943 16.144346,653.3711 C -55.740674,673.0212 -131.46027,662.8642 -204.81144,659.58722 C -300.91876,651.87338 -397.45638,654.27882 -493.77743,652.84595 C -518.21289,655.50319 -553.16597,670.88315 -555.08736,697.35865 C -530.48738,715.76417 -494.7586,709.73058 -465.20819,714.12939 C -404.06488,714.38614 -343.17375,719.50046 -282.17233,722.92932 C -169.26661,724.76924 -56.361144,726.77098 56.542966,727.8066 C 99.304296,729.47442 142.2494,732.23873 184.96926,730.03244 C 184.96926,730.03244 186.50861,728.82695 186.50861,728.82695" id="path3073" style="color:#000000;fill:none;fill-opacity:0.16605165;fill-rule:evenodd;stroke:#008100;stroke-width:49.03582764;stroke-linecap:round;stroke-linejoin:round;marker:none;marker-start:none;marker-mid:none;marker-end:none;stroke-miterlimit:4;stroke-dasharray:none;stroke-dashoffset:0;stroke-opacity:1;visibility:visible;display:inline;overflow:visible"/>
    <path d="M -215.05573,573.86113 C -212.73306,583.9964 -213.15258,615.93175 -213.15258,637.16296 C -213.15258,660.6081 -213.15258,684.05322 -213.15258,707.49836 C -213.15258,733.13474 -216.95888,752.1978 -216.95888,774.31696 C -216.95888,790.85046 -222.55602,819.20487 -224.57147,834.10203 C -227.20241,853.54854 -224.57147,880.92155 -224.57147,900.92063" id="path4896" style="color:#000000;fill:none;fill-opacity:0.16605165;fill-rule:evenodd;stroke:#9e5400;stroke-width:29.54556274;stroke-linecap:round;stroke-linejoin:round;marker:none;marker-start:none;marker-mid:none;marker-end:none;stroke-miterlimit:4;stroke-dasharray:none;stroke-dashoffset:0;stroke-opacity:1;visibility:visible;display:inline;overflow:visible"/>
    <path d="M -213.15261,155.97921 C -203.65478,191.79273 -236.1808,211.99913 -249.31243,239.71775 C -248.06142,268.79956 -199.80381,246.45964 -181.51003,264.37725 C -146.76888,256.62733 -139.60368,289.46388 -169.11959,305.53439 C -198.17704,334.31758 -242.36535,314.23443 -276.87522,328.34964 C -298.94902,331.28273 -325.05616,349.085 -292.29226,362.92613 C -248.96216,387.36926 -197.97276,376.07749 -150.69811,378.6476 C -113.36853,376.38635 -71.454614,389.64251 -55.191274,426.22632 C -45.775854,454.19942 -99.086964,456.79529 -118.5799,466.75899 C -177.23412,476.83342 -237.12527,474.71014 -296.28667,479.59806 C -341.13862,481.35659 -393.73489,470.66141 -430.11155,504.25541 C -445.1166,536.48184 -386.14705,543.8615 -363.06496,544.22611 C -318.50768,544.62546 -273.42537,539.54186 -229.69069,550.9519 C -151.24767,557.12367 -72.079274,545.49038 6.3222959,554.67837 C 43.131036,563.84943 68.886966,594.34152 98.058896,616.36722 C 121.63817,664.8985 53.633366,645.27943 16.144346,653.3711 C -55.740674,673.0212 -131.46027,662.8642 -204.81144,659.58722 C -300.91876,651.87338 -397.45638,654.27882 -493.77743,652.84595 C -518.21289,655.50319 -553.16597,670.88315 -555.08736,697.35865 C -530.48738,715.76417 -494.7586,709.73058 -465.20819,714.12939 C -404.06488,714.38614 -343.17375,719.50046 -282.17233,722.92932 C -169.26661,724.76924 -56.361144,726.77098 56.542966,727.8066 C 99.304296,729.47442 142.2494,732.23873 184.96926,730.03244 C 184.96926,730.03244 186.50861,728.82695 186.50861,728.82695" id="path3075" style="color:#000000;fill:none;fill-opacity:0.16605165;fill-rule:evenodd;stroke:#008900;stroke-width:44.7492485;stroke-linecap:round;stroke-linejoin:round;marker:none;marker-start:none;marker-mid:none;marker-end:none;stroke-miterlimit:4;stroke-dasharray:none;stroke-dashoffset:0;stroke-opacity:1;visibility:visible;display:inline;overflow:visible"/>
    <path d="M -215.05573,573.86113 C -212.73306,583.9964 -213.15258,615.93175 -213.15258,637.16296 C -213.15258,660.6081 -213.15258,684.05322 -213.15258,707.49836 C -213.15258,733.13474 -216.95888,752.1978 -216.95888,774.31696 C -216.95888,790.85046 -222.55602,819.20487 -224.57147,834.10203 C -227.20241,853.54854 -224.57147,880.92155 -224.57147,900.92063" id="path4898" style="color:#000000;fill:none;fill-opacity:0.16605165;fill-rule:evenodd;stroke:#a35700;stroke-width:25.58276558;stroke-linecap:round;stroke-linejoin:round;marker:none;marker-start:none;marker-mid:none;marker-end:none;stroke-miterlimit:4;stroke-dasharray:none;stroke-dashoffset:0;stroke-opacity:1;visibility:visible;display:inline;overflow:visible"/>
    <path d="M -213.15261,155.97921 C -203.65478,191.79273 -236.1808,211.99913 -249.31243,239.71775 C -248.06142,268.79956 -199.80381,246.45964 -181.51003,264.37725 C -146.76888,256.62733 -139.60368,289.46388 -169.11959,305.53439 C -198.17704,334.31758 -242.36535,314.23443 -276.87522,328.34964 C -298.94902,331.28273 -325.05616,349.085 -292.29226,362.92613 C -248.96216,387.36926 -197.97276,376.07749 -150.69811,378.6476 C -113.36853,376.38635 -71.454614,389.64251 -55.191274,426.22632 C -45.775854,454.19942 -99.086964,456.79529 -118.5799,466.75899 C -177.23412,476.83342 -237.12527,474.71014 -296.28667,479.59806 C -341.13862,481.35659 -393.73489,470.66141 -430.11155,504.25541 C -445.1166,536.48184 -386.14705,543.8615 -363.06496,544.22611 C -318.50768,544.62546 -273.42537,539.54186 -229.69069,550.9519 C -151.24767,557.12367 -72.079274,545.49038 6.3222959,554.67837 C 43.131036,563.84943 68.886966,594.34152 98.058896,616.36722 C 121.63817,664.8985 53.633366,645.27943 16.144346,653.3711 C -55.740674,673.0212 -131.46027,662.8642 -204.81144,659.58722 C -300.91876,651.87338 -397.45638,654.27882 -493.77743,652.84595 C -518.21289,655.50319 -553.16597,670.88315 -555.08736,697.35865 C -530.48738,715.76417 -494.7586,709.73058 -465.20819,714.12939 C -404.06488,714.38614 -343.17375,719.50046 -282.17233,722.92932 C -169.26661,724.76924 -56.361144,726.77098 56.542966,727.8066 C 99.304296,729.47442 142.2494,732.23873 184.96926,730.03244 C 184.96926,730.03244 186.50861,728.82695 186.50861,728.82695" id="path3077" style="color:#000000;fill:none;fill-opacity:0.16605165;fill-rule:evenodd;stroke:#009200;stroke-width:40.46266174;stroke-linecap:round;stroke-linejoin:round;marker:none;marker-start:none;marker-mid:none;marker-end:none;stroke-miterlimit:4;stroke-dasharray:none;stroke-dashoffset:0;stroke-opacity:1;visibility:visible;display:inline;overflow:visible"/>
    <path d="M -215.05573,573.86113 C -212.73306,583.9964 -213.15258,615.93175 -213.15258,637.16296 C -213.15258,660.6081 -213.15258,684.05322 -213.15258,707.49836 C -213.15258,733.13474 -216.95888,752.1978 -216.95888,774.31696 C -216.95888,790.85046 -222.55602,819.20487 -224.57147,834.10203 C -227.20241,853.54854 -224.57147,880.92155 -224.57147,900.92063" id="path4900" style="color:#000000;fill:none;fill-opacity:0.16605165;fill-rule:evenodd;stroke:#a85a00;stroke-width:21.61994553;stroke-linecap:round;stroke-linejoin:round;marker:none;marker-start:none;marker-mid:none;marker-end:none;stroke-miterlimit:4;stroke-dasharray:none;stroke-dashoffset:0;stroke-opacity:1;visibility:visible;display:inline;overflow:visible"/>
    <path d="M -213.15261,155.97921 C -203.65478,191.79273 -236.1808,211.99913 -249.31243,239.71775 C -248.06142,268.79956 -199.80381,246.45964 -181.51003,264.37725 C -146.76888,256.62733 -139.60368,289.46388 -169.11959,305.53439 C -198.17704,334.31758 -242.36535,314.23443 -276.87522,328.34964 C -298.94902,331.28273 -325.05616,349.085 -292.29226,362.92613 C -248.96216,387.36926 -197.97276,376.07749 -150.69811,378.6476 C -113.36853,376.38635 -71.454614,389.64251 -55.191274,426.22632 C -45.775854,454.19942 -99.086964,456.79529 -118.5799,466.75899 C -177.23412,476.83342 -237.12527,474.71014 -296.28667,479.59806 C -341.13862,481.35659 -393.73489,470.66141 -430.11155,504.25541 C -445.1166,536.48184 -386.14705,543.8615 -363.06496,544.22611 C -318.50768,544.62546 -273.42537,539.54186 -229.69069,550.9519 C -151.24767,557.12367 -72.079274,545.49038 6.3222959,554.67837 C 43.131036,563.84943 68.886966,594.34152 98.058896,616.36722 C 121.63817,664.8985 53.633366,645.27943 16.144346,653.3711 C -55.740674,673.0212 -131.46027,662.8642 -204.81144,659.58722 C -300.91876,651.87338 -397.45638,654.27882 -493.77743,652.84595 C -518.21289,655.50319 -553.16597,670.88315 -555.08736,697.35865 C -530.48738,715.76417 -494.7586,709.73058 -465.20819,714.12939 C -404.06488,714.38614 -343.17375,719.50046 -282.17233,722.92932 C -169.26661,724.76924 -56.361144,726.77098 56.542966,727.8066 C 99.304296,729.47442 142.2494,732.23873 184.96926,730.03244 C 184.96926,730.03244 186.50861,728.82695 186.50861,728.82695" id="path3079" style="color:#000000;fill:none;fill-opacity:0.16605165;fill-rule:evenodd;stroke:#009a00;stroke-width:36.17607498;stroke-linecap:round;stroke-linejoin:round;marker:none;marker-start:none;marker-mid:none;marker-end:none;stroke-miterlimit:4;stroke-dasharray:none;stroke-dashoffset:0;stroke-opacity:1;visibility:visible;display:inline;overflow:visible"/>
    <path d="M -215.05573,573.86113 C -212.73306,583.9964 -213.15258,615.93175 -213.15258,637.16296 C -213.15258,660.6081 -213.15258,684.05322 -213.15258,707.49836 C -213.15258,733.13474 -216.95888,752.1978 -216.95888,774.31696 C -216.95888,790.85046 -222.55602,819.20487 -224.57147,834.10203 C -227.20241,853.54854 -224.57147,880.92155 -224.57147,900.92063" id="path4902" style="color:#000000;fill:none;fill-opacity:0.16605165;fill-rule:evenodd;stroke:#ae5d00;stroke-width:17.65714645;stroke-linecap:round;stroke-linejoin:round;marker:none;marker-start:none;marker-mid:none;marker-end:none;stroke-miterlimit:4;stroke-dasharray:none;stroke-dashoffset:0;stroke-opacity:1;visibility:visible;display:inline;overflow:visible"/>
    <path d="M -213.15261,155.97921 C -203.65478,191.79273 -236.1808,211.99913 -249.31243,239.71775 C -248.06142,268.79956 -199.80381,246.45964 -181.51003,264.37725 C -146.76888,256.62733 -139.60368,289.46388 -169.11959,305.53439 C -198.17704,334.31758 -242.36535,314.23443 -276.87522,328.34964 C -298.94902,331.28273 -325.05616,349.085 -292.29226,362.92613 C -248.96216,387.36926 -197.97276,376.07749 -150.69811,378.6476 C -113.36853,376.38635 -71.454614,389.64251 -55.191274,426.22632 C -45.775854,454.19942 -99.086964,456.79529 -118.5799,466.75899 C -177.23412,476.83342 -237.12527,474.71014 -296.28667,479.59806 C -341.13862,481.35659 -393.73489,470.66141 -430.11155,504.25541 C -445.1166,536.48184 -386.14705,543.8615 -363.06496,544.22611 C -318.50768,544.62546 -273.42537,539.54186 -229.69069,550.9519 C -151.24767,557.12367 -72.079274,545.49038 6.3222959,554.67837 C 43.131036,563.84943 68.886966,594.34152 98.058896,616.36722 C 121.63817,664.8985 53.633366,645.27943 16.144346,653.3711 C -55.740674,673.0212 -131.46027,662.8642 -204.81144,659.58722 C -300.91876,651.87338 -397.45638,654.27882 -493.77743,652.84595 C -518.21289,655.50319 -553.16597,670.88315 -555.08736,697.35865 C -530.48738,715.76417 -494.7586,709.73058 -465.20819,714.12939 C -404.06488,714.38614 -343.17375,719.50046 -282.17233,722.92932 C -169.26661,724.76924 -56.361144,726.77098 56.542966,727.8066 C 99.304296,729.47442 142.2494,732.23873 184.96926,730.03244 C 184.96926,730.03244 186.50861,728.82695 186.50861,728.82695" id="path3081" style="color:#000000;fill:none;fill-opacity:0.16605165;fill-rule:evenodd;stroke:#00a300;stroke-width:31.88948631;stroke-linecap:round;stroke-linejoin:round;marker:none;marker-start:none;marker-mid:none;marker-end:none;stroke-miterlimit:4;stroke-dasharray:none;stroke-dashoffset:0;stroke-opacity:1;visibility:visible;display:inline;overflow:visible"/>
    <path d="M -215.05573,573.86113 C -212.73306,583.9964 -213.15258,615.93175 -213.15258,637.16296 C -213.15258,660.6081 -213.15258,684.05322 -213.15258,707.49836 C -213.15258,733.13474 -216.95888,752.1978 -216.95888,774.31696 C -216.95888,790.85046 -222.55602,819.20487 -224.57147,834.10203 C -227.20241,853.54854 -224.57147,880.92155 -224.57147,900.92063" id="path4904" style="color:#000000;fill:none;fill-opacity:0.16605165;fill-rule:evenodd;stroke:#b36000;stroke-width:13.69434452;stroke-linecap:round;stroke-linejoin:round;marker:none;marker-start:none;marker-mid:none;marker-end:none;stroke-miterlimit:4;stroke-dasharray:none;stroke-dashoffset:0;stroke-opacity:1;visibility:visible;display:inline;overflow:visible"/>
    <path d="M -213.15261,155.97921 C -203.65478,191.79273 -236.1808,211.99913 -249.31243,239.71775 C -248.06142,268.79956 -199.80381,246.45964 -181.51003,264.37725 C -146.76888,256.62733 -139.60368,289.46388 -169.11959,305.53439 C -198.17704,334.31758 -242.36535,314.23443 -276.87522,328.34964 C -298.94902,331.28273 -325.05616,349.085 -292.29226,362.92613 C -248.96216,387.36926 -197.97276,376.07749 -150.69811,378.6476 C -113.36853,376.38635 -71.454614,389.64251 -55.191274,426.22632 C -45.775854,454.19942 -99.086964,456.79529 -118.5799,466.75899 C -177.23412,476.83342 -237.12527,474.71014 -296.28667,479.59806 C -341.13862,481.35659 -393.73489,470.66141 -430.11155,504.25541 C -445.1166,536.48184 -386.14705,543.8615 -363.06496,544.22611 C -318.50768,544.62546 -273.42537,539.54186 -229.69069,550.9519 C -151.24767,557.12367 -72.079274,545.49038 6.3222959,554.67837 C 43.131036,563.84943 68.886966,594.34152 98.058896,616.36722 C 121.63817,664.8985 53.633366,645.27943 16.144346,653.3711 C -55.740674,673.0212 -131.46027,662.8642 -204.81144,659.58722 C -300.91876,651.87338 -397.45638,654.27882 -493.77743,652.84595 C -518.21289,655.50319 -553.16597,670.88315 -555.08736,697.35865 C -530.48738,715.76417 -494.7586,709.73058 -465.20819,714.12939 C -404.06488,714.38614 -343.17375,719.50046 -282.17233,722.92932 C -169.26661,724.76924 -56.361144,726.77098 56.542966,727.8066 C 99.304296,729.47442 142.2494,732.23873 184.96926,730.03244 C 184.96926,730.03244 186.50861,728.82695 186.50861,728.82695" id="path3083" style="color:#000000;fill:none;fill-opacity:0.16605165;fill-rule:evenodd;stroke:#00ab00;stroke-width:27.60291672;stroke-linecap:round;stroke-linejoin:round;marker:none;marker-start:none;marker-mid:none;marker-end:none;stroke-miterlimit:4;stroke-dasharray:none;stroke-dashoffset:0;stroke-opacity:1;visibility:visible;display:inline;overflow:visible"/>
    <path d="M -215.05573,573.86113 C -212.73306,583.9964 -213.15258,615.93175 -213.15258,637.16296 C -213.15258,660.6081 -213.15258,684.05322 -213.15258,707.49836 C -213.15258,733.13474 -216.95888,752.1978 -216.95888,774.31696 C -216.95888,790.85046 -222.55602,819.20487 -224.57147,834.10203 C -227.20241,853.54854 -224.57147,880.92155 -224.57147,900.92063" id="path4906" style="color:#000000;fill:none;fill-opacity:0.16605165;fill-rule:evenodd;stroke:#b96300;stroke-width:9.73153973;stroke-linecap:round;stroke-linejoin:round;marker:none;marker-start:none;marker-mid:none;marker-end:none;stroke-miterlimit:4;stroke-dasharray:none;stroke-dashoffset:0;stroke-opacity:1;visibility:visible;display:inline;overflow:visible"/>
    <path d="M -213.15261,155.97921 C -203.65478,191.79273 -236.1808,211.99913 -249.31243,239.71775 C -248.06142,268.79956 -199.80381,246.45964 -181.51003,264.37725 C -146.76888,256.62733 -139.60368,289.46388 -169.11959,305.53439 C -198.17704,334.31758 -242.36535,314.23443 -276.87522,328.34964 C -298.94902,331.28273 -325.05616,349.085 -292.29226,362.92613 C -248.96216,387.36926 -197.97276,376.07749 -150.69811,378.6476 C -113.36853,376.38635 -71.454614,389.64251 -55.191274,426.22632 C -45.775854,454.19942 -99.086964,456.79529 -118.5799,466.75899 C -177.23412,476.83342 -237.12527,474.71014 -296.28667,479.59806 C -341.13862,481.35659 -393.73489,470.66141 -430.11155,504.25541 C -445.1166,536.48184 -386.14705,543.8615 -363.06496,544.22611 C -318.50768,544.62546 -273.42537,539.54186 -229.69069,550.9519 C -151.24767,557.12367 -72.079274,545.49038 6.3222959,554.67837 C 43.131036,563.84943 68.886966,594.34152 98.058896,616.36722 C 121.63817,664.8985 53.633366,645.27943 16.144346,653.3711 C -55.740674,673.0212 -131.46027,662.8642 -204.81144,659.58722 C -300.91876,651.87338 -397.45638,654.27882 -493.77743,652.84595 C -518.21289,655.50319 -553.16597,670.88315 -555.08736,697.35865 C -530.48738,715.76417 -494.7586,709.73058 -465.20819,714.12939 C -404.06488,714.38614 -343.17375,719.50046 -282.17233,722.92932 C -169.26661,724.76924 -56.361144,726.77098 56.542966,727.8066 C 99.304296,729.47442 142.2494,732.23873 184.96926,730.03244 C 184.96926,730.03244 186.50861,728.82695 186.50861,728.82695" id="path3085" style="color:#000000;fill:none;fill-opacity:0.16605165;fill-rule:evenodd;stroke:#00b400;stroke-width:23.31632805;stroke-linecap:round;stroke-linejoin:round;marker:none;marker-start:none;marker-mid:none;marker-end:none;stroke-miterlimit:4;stroke-dasharray:none;stroke-dashoffset:0;stroke-opacity:1;visibility:visible;display:inline;overflow:visible"/>
    <path d="M -213.15261,155.97921 C -203.65478,191.79273 -236.1808,211.99913 -249.31243,239.71775 C -248.06142,268.79956 -199.80381,246.45964 -181.51003,264.37725 C -146.76888,256.62733 -139.60368,289.46388 -169.11959,305.53439 C -198.17704,334.31758 -242.36535,314.23443 -276.87522,328.34964 C -298.94902,331.28273 -325.05616,349.085 -292.29226,362.92613 C -248.96216,387.36926 -197.97276,376.07749 -150.69811,378.6476 C -113.36853,376.38635 -71.454614,389.64251 -55.191274,426.22632 C -45.775854,454.19942 -99.086964,456.79529 -118.5799,466.75899 C -177.23412,476.83342 -237.12527,474.71014 -296.28667,479.59806 C -341.13862,481.35659 -393.73489,470.66141 -430.11155,504.25541 C -445.1166,536.48184 -386.14705,543.8615 -363.06496,544.22611 C -318.50768,544.62546 -273.42537,539.54186 -229.69069,550.9519 C -151.24767,557.12367 -72.079274,545.49038 6.3222959,554.67837 C 43.131036,563.84943 68.886966,594.34152 98.058896,616.36722 C 121.63817,664.8985 53.633366,645.27943 16.144346,653.3711 C -55.740674,673.0212 -131.46027,662.8642 -204.81144,659.58722 C -300.91876,651.87338 -397.45638,654.27882 -493.77743,652.84595 C -518.21289,655.50319 -553.16597,670.88315 -555.08736,697.35865 C -530.48738,715.76417 -494.7586,709.73058 -465.20819,714.12939 C -404.06488,714.38614 -343.17375,719.50046 -282.17233,722.92932 C -169.26661,724.76924 -56.361144,726.77098 56.542966,727.8066 C 99.304296,729.47442 142.2494,732.23873 184.96926,730.03244 C 184.96926,730.03244 186.50861,728.82695 186.50861,728.82695" id="path3087" style="color:#000000;fill:none;fill-opacity:0.16605165;fill-rule:evenodd;stroke:#00bc00;stroke-width:19.0297451;stroke-linecap:round;stroke-linejoin:round;marker:none;marker-start:none;marker-mid:none;marker-end:none;stroke-miterlimit:4;stroke-dasharray:none;stroke-dashoffset:0;stroke-opacity:1;visibility:visible;display:inline;overflow:visible"/>
    <path d="M -213.15261,155.97921 C -203.65478,191.79273 -236.1808,211.99913 -249.31243,239.71775 C -248.06142,268.79956 -199.80381,246.45964 -181.51003,264.37725 C -146.76888,256.62733 -139.60368,289.46388 -169.11959,305.53439 C -198.17704,334.31758 -242.36535,314.23443 -276.87522,328.34964 C -298.94902,331.28273 -325.05616,349.085 -292.29226,362.92613 C -248.96216,387.36926 -197.97276,376.07749 -150.69811,378.6476 C -113.36853,376.38635 -71.454614,389.64251 -55.191274,426.22632 C -45.775854,454.19942 -99.086964,456.79529 -118.5799,466.75899 C -177.23412,476.83342 -237.12527,474.71014 -296.28667,479.59806 C -341.13862,481.35659 -393.73489,470.66141 -430.11155,504.25541 C -445.1166,536.48184 -386.14705,543.8615 -363.06496,544.22611 C -318.50768,544.62546 -273.42537,539.54186 -229.69069,550.9519 C -151.24767,557.12367 -72.079274,545.49038 6.3222959,554.67837 C 43.131036,563.84943 68.886966,594.34152 98.058896,616.36722 C 121.63817,664.8985 53.633366,645.27943 16.144346,653.3711 C -55.740674,673.0212 -131.46027,662.8642 -204.81144,659.58722 C -300.91876,651.87338 -397.45638,654.27882 -493.77743,652.84595 C -518.21289,655.50319 -553.16597,670.88315 -555.08736,697.35865 C -530.48738,715.76417 -494.7586,709.73058 -465.20819,714.12939 C -404.06488,714.38614 -343.17375,719.50046 -282.17233,722.92932 C -169.26661,724.76924 -56.361144,726.77098 56.542966,727.8066 C 99.304296,729.47442 142.2494,732.23873 184.96926,730.03244 C 184.96926,730.03244 186.50861,728.82695 186.50861,728.82695" id="path3089" style="color:#000000;fill:none;fill-opacity:0.16605165;fill-rule:evenodd;stroke:#00c500;stroke-width:14.7431612;stroke-linecap:round;stroke-linejoin:round;marker:none;marker-start:none;marker-mid:none;marker-end:none;stroke-miterlimit:4;stroke-dasharray:none;stroke-dashoffset:0;stroke-opacity:1;visibility:visible;display:inline;overflow:visible"/>
    <path d="M -213.15261,155.97921 C -203.65478,191.79273 -236.1808,211.99913 -249.31243,239.71775 C -248.06142,268.79956 -199.80381,246.45964 -181.51003,264.37725 C -146.76888,256.62733 -139.60368,289.46388 -169.11959,305.53439 C -198.17704,334.31758 -242.36535,314.23443 -276.87522,328.34964 C -298.94902,331.28273 -325.05616,349.085 -292.29226,362.92613 C -248.96216,387.36926 -197.97276,376.07749 -150.69811,378.6476 C -113.36853,376.38635 -71.454614,389.64251 -55.191274,426.22632 C -45.775854,454.19942 -99.086964,456.79529 -118.5799,466.75899 C -177.23412,476.83342 -237.12527,474.71014 -296.28667,479.59806 C -341.13862,481.35659 -393.73489,470.66141 -430.11155,504.25541 C -445.1166,536.48184 -386.14705,543.8615 -363.06496,544.22611 C -318.50768,544.62546 -273.42537,539.54186 -229.69069,550.9519 C -151.24767,557.12367 -72.079274,545.49038 6.3222959,554.67837 C 43.131036,563.84943 68.886966,594.34152 98.058896,616.36722 C 121.63817,664.8985 53.633366,645.27943 16.144346,653.3711 C -55.740674,673.0212 -131.46027,662.8642 -204.81144,659.58722 C -300.91876,651.87338 -397.45638,654.27882 -493.77743,652.84595 C -518.21289,655.50319 -553.16597,670.88315 -555.08736,697.35865 C -530.48738,715.76417 -494.7586,709.73058 -465.20819,714.12939 C -404.06488,714.38614 -343.17375,719.50046 -282.17233,722.92932 C -169.26661,724.76924 -56.361144,726.77098 56.542966,727.8066 C 99.304296,729.47442 142.2494,732.23873 184.96926,730.03244 C 184.96926,730.03244 186.50861,728.82695 186.50861,728.82695" id="path3091" style="color:#000000;fill:none;fill-opacity:0.16605165;fill-rule:evenodd;stroke:#00cd00;stroke-width:10.4565773;stroke-linecap:round;stroke-linejoin:round;marker:none;marker-start:none;marker-mid:none;marker-end:none;stroke-miterlimit:4;stroke-dasharray:none;stroke-dashoffset:0;stroke-opacity:1;visibility:visible;display:inline;overflow:visible"/>
    <path d="M -213.15261,155.97921 C -203.65478,191.79273 -236.1808,211.99913 -249.31243,239.71775 C -248.06142,268.79956 -199.80381,246.45964 -181.51003,264.37725 C -146.76888,256.62733 -139.60368,289.46388 -169.11959,305.53439 C -198.17704,334.31758 -242.36535,314.23443 -276.87522,328.34964 C -298.94902,331.28273 -325.05616,349.085 -292.29226,362.92613 C -248.96216,387.36926 -197.97276,376.07749 -150.69811,378.6476 C -113.36853,376.38635 -71.454614,389.64251 -55.191274,426.22632 C -45.775854,454.19942 -99.086964,456.79529 -118.5799,466.75899 C -177.23412,476.83342 -237.12527,474.71014 -296.28667,479.59806 C -341.13862,481.35659 -393.73489,470.66141 -430.11155,504.25541 C -445.1166,536.48184 -386.14705,543.8615 -363.06496,544.22611 C -318.50768,544.62546 -273.42537,539.54186 -229.69069,550.9519 C -151.24767,557.12367 -72.079274,545.49038 6.3222959,554.67837 C 43.131036,563.84943 68.886966,594.34152 98.058896,616.36722 C 121.63817,664.8985 53.633366,645.27943 16.144346,653.3711 C -55.740674,673.0212 -131.46027,662.8642 -204.81144,659.58722 C -300.91876,651.87338 -397.45638,654.27882 -493.77743,652.84595 C -518.21289,655.50319 -553.16597,670.88315 -555.08736,697.35865 C -530.48738,715.76417 -494.7586,709.73058 -465.20819,714.12939 C -404.06488,714.38614 -343.17375,719.50046 -282.17233,722.92932 C -169.26661,724.76924 -56.361144,726.77098 56.542966,727.8066 C 99.304296,729.47442 142.2494,732.23873 184.96926,730.03244 C 184.96926,730.03244 186.50861,728.82695 186.50861,728.82695" id="path3093" style="color:#000000;fill:none;fill-opacity:0.16605165;fill-rule:evenodd;stroke:#00d600;stroke-width:6.16999483;stroke-linecap:round;stroke-linejoin:round;marker:none;marker-start:none;marker-mid:none;marker-end:none;stroke-miterlimit:4;stroke-dasharray:none;stroke-dashoffset:0;stroke-opacity:1;visibility:visible;display:inline;overflow:visible"/>
  </g>
</svg>
