<?xml version="1.0" encoding="UTF-8" standalone="no"?>
<!-- Created with Inkscape (http://www.inkscape.org/) -->

<svg
   xmlns:dc="http://purl.org/dc/elements/1.1/"
   xmlns:cc="http://creativecommons.org/ns#"
   xmlns:rdf="http://www.w3.org/1999/02/22-rdf-syntax-ns#"
   xmlns:svg="http://www.w3.org/2000/svg"
   xmlns="http://www.w3.org/2000/svg"
   xmlns:sodipodi="http://sodipodi.sourceforge.net/DTD/sodipodi-0.dtd"
   xmlns:inkscape="http://www.inkscape.org/namespaces/inkscape"
   width="390.71643"
   height="334.98782"
   id="svg2"
   sodipodi:version="0.32"
   inkscape:version="0.48.3.1 r9886"
   version="1.0"
   sodipodi:docname="bee2.svg"
   inkscape:output_extension="org.inkscape.output.svg.inkscape">
  <defs
     id="defs4">
    <inkscape:perspective
       sodipodi:type="inkscape:persp3d"
       inkscape:vp_x="0 : 526.18109 : 1"
       inkscape:vp_y="0 : 1000 : 0"
       inkscape:vp_z="744.09448 : 526.18109 : 1"
       inkscape:persp3d-origin="372.04724 : 350.78739 : 1"
       id="perspective10" />
  </defs>
  <sodipodi:namedview
     id="base"
     pagecolor="#ffffff"
     bordercolor="#666666"
     borderopacity="1.0"
     inkscape:pageopacity="0.0"
     inkscape:pageshadow="2"
     inkscape:zoom="0.66962762"
     inkscape:cx="39.97599"
     inkscape:cy="317.915"
     inkscape:document-units="px"
     inkscape:current-layer="layer1"
     showgrid="false"
     showguides="true"
     inkscape:guide-bbox="true"
     inkscape:window-width="1280"
     inkscape:window-height="708"
     inkscape:window-x="0"
     inkscape:window-y="27"
     inkscape:window-maximized="0" />
  <metadata
     id="metadata7">
    <rdf:RDF>
      <cc:Work
         rdf:about="">
        <dc:format>image/svg+xml</dc:format>
        <dc:type
           rdf:resource="http://purl.org/dc/dcmitype/StillImage" />
        <dc:title></dc:title>
      </cc:Work>
    </rdf:RDF>
  </metadata>
  <g
     inkscape:label="Camada 1"
     inkscape:groupmode="layer"
     id="layer1"
     transform="translate(-147.29507,-470.14295)">
    <g
       id="g5171"
       transform="matrix(-1,0,0,-1,685.30656,1275.2737)">
      <g
         transform="translate(617.02589,790.34002)"
         id="g4368">
        <path
           style="opacity:0.5;fill:#e6e6e6;fill-opacity:1;fill-rule:evenodd;stroke:#c8c8c8;stroke-width:5;stroke-linecap:butt;stroke-linejoin:miter;stroke-miterlimit:4;stroke-opacity:1;stroke-dasharray:none;stroke-dashoffset:0;marker:none;visibility:visible;display:inline;overflow:visible;enable-background:accumulate"
           d="m -206.16418,-81.285048 c 35.42165,59.829157 129.668231,40.571124 124.440787,-30.053762 -5.578219,-75.36405 -89.753357,-101.34835 -142.531647,-48.96227 -6.64666,8.04015 -2.25012,7.75076 -3.14429,11.66668"
           id="path4370"
           sodipodi:nodetypes="cscc"
           inkscape:connector-curvature="0" />
        <path
           style="opacity:0.5;fill:#e6e6e6;fill-opacity:1;fill-rule:evenodd;stroke:#c8c8c8;stroke-width:5;stroke-linecap:butt;stroke-linejoin:miter;stroke-miterlimit:4;stroke-opacity:1;stroke-dasharray:none;stroke-dashoffset:0;marker:none;visibility:visible;display:inline;overflow:visible;enable-background:accumulate"
           d="m -342.58103,-81.285047 c -35.42165,59.829158 -129.66824,40.571123 -124.44079,-30.053763 5.57822,-75.36405 89.75336,-101.34835 142.53165,-48.96227 6.64666,8.04015 2.25012,7.75076 3.14429,11.66669"
           id="path4372"
           sodipodi:nodetypes="cscc"
           inkscape:connector-curvature="0" />
        <path
           id="path4374"
           style="fill:#ffff00;fill-opacity:1;stroke:#000000;stroke-width:10;stroke-miterlimit:4;stroke-opacity:1;stroke-dashoffset:0"
           d="m -246.05475,-28.213531 c 8.60556,-3.713072 16.07867,-9.91 22.47831,-17.15 6.39964,-7.24 11.57947,-15.86 15.15938,-25.43 3.57991,-9.569999 5.55991,-20.089999 5.55991,-31.129999 0,-44.16 -31.68001,-80 -70.71429,-80 -39.03429,0 -70.71429,35.84 -70.71429,80 0,11.04 1.98,21.56 5.55991,31.129999 3.57991,9.57 8.75973,18.19 15.15938,25.43 6.39964,7.24 13.61089,14.401805 22.4783,17.15 9.28823,2.878615 16.4416,7.494392 22.51669,16.575713 3.09523,5.9523813 3.55688,14.2857146 4.98545,21.428572 1.90476,-7.6190482 1.68122,-15.7142844 5.01455,-21.428572 7.27514,-11.737359 12.67081,-12.327474 22.5167,-16.575713 z"
           sodipodi:nodetypes="csssssssscccs"
           inkscape:connector-curvature="0" />
        <path
           id="path4376"
           sodipodi:type="arc"
           style="fill:#ffff00;fill-opacity:1;stroke:#000000;stroke-width:10;stroke-miterlimit:4;stroke-opacity:1;stroke-dasharray:none;stroke-dashoffset:0"
           sodipodi:cx="-276.7818"
           sodipodi:cy="-226.99602"
           sodipodi:rx="58.588848"
           sodipodi:ry="55.053314"
           d="m -218.19295,-226.99602 c 0,30.40511 -26.23112,55.05332 -58.58885,55.05332 -32.35773,0 -58.58885,-24.64821 -58.58885,-55.05332 0,-30.4051 26.23112,-55.05331 58.58885,-55.05331 32.35773,0 58.58885,24.64821 58.58885,55.05331 z"
           transform="translate(3.2103593,-12)" />
        <path
           sodipodi:type="spiral"
           style="fill:none;stroke:#000000;stroke-width:5;stroke-linecap:butt;stroke-linejoin:miter;stroke-miterlimit:4;stroke-opacity:1;stroke-dasharray:none"
           id="path4378"
           sodipodi:cx="-423.25391"
           sodipodi:cy="-329.52649"
           sodipodi:expansion="3"
           sodipodi:revolution="3"
           sodipodi:radius="33.089241"
           sodipodi:argument="-18.303902"
           sodipodi:t0="0.6377188"
           d="m -414.67218,-329.52649 c 1.44603,5.79411 -3.07527,11.1893 -8.58172,12.40472 -8.1805,1.80565 -15.67623,-4.59302 -17.22184,-12.40472 -2.20502,-11.14438 6.53682,-21.23231 17.22183,-23.14798 14.74837,-2.64417 27.97247,8.95899 30.29804,23.14797 0.94643,5.77448 0.19596,11.76342 -2.01375,17.17258"
           transform="translate(78.771593,35.355339)" />
        <path
           sodipodi:type="spiral"
           style="fill:none;stroke:#000000;stroke-width:5;stroke-linecap:butt;stroke-linejoin:miter;stroke-miterlimit:4;stroke-opacity:1;stroke-dasharray:none"
           id="path4380"
           sodipodi:cx="-423.25391"
           sodipodi:cy="-329.52649"
           sodipodi:expansion="3"
           sodipodi:revolution="3"
           sodipodi:radius="33.089241"
           sodipodi:argument="-18.303902"
           sodipodi:t0="0.6377188"
           d="m -414.67218,-329.52649 c 1.44603,5.79411 -3.07527,11.1893 -8.58172,12.40472 -8.1805,1.80565 -15.67623,-4.59302 -17.22184,-12.40472 -2.20502,-11.14438 6.53682,-21.23231 17.22183,-23.14798 14.74837,-2.64417 27.97247,8.95899 30.29804,23.14797 0.94643,5.77448 0.19596,11.76342 -2.01375,17.17258"
           transform="matrix(-1,0,0,1,-626.7781,35.355339)" />
        <path
           style="fill:#000000;fill-opacity:1;stroke:none"
           d="m -326.85714,-155.3521 c 36,4.0607 72,3.55124 108,0 l 8,18.0891 2,10.64064 c -43.33334,4.26925 -86.66667,4.30215 -130.00001,0 0,0 -2,12.76878 -2,0 0,-12.76877 6,-12.76877 6,-12.76877 l 8.00001,-15.96097 z"
           id="path4382"
           sodipodi:nodetypes="cccccscc"
           inkscape:connector-curvature="0" />
        <path
           style="fill:#000000;fill-opacity:1;stroke:none"
           d="m -343.92856,-98.240571 c 45.76437,3.609189 92.33194,4.005577 140,0 l -6,18.0891 2,10.64064 c -43.82904,4.461365 -87.12301,4.107033 -130.00001,0 0,0 -2,12.76878 -2,0 0,-12.76877 0,-12.76877 0,-12.76877 l -3.99999,-15.96097 z"
           id="path4384"
           sodipodi:nodetypes="cccccscc"
           inkscape:connector-curvature="0" />
        <path
           style="fill:#000000;fill-opacity:1;stroke:none"
           d="m -317.92857,-41.257817 c 28.92857,4.441761 57.85714,4.127284 86.78571,0 l -1.28571,7.721007 -17.64286,6.354926 -23.57144,15.928571 c 3.50597,-0.09767 -30.71339,-19.118735 -28.85714,-14.76877 l -15.42856,-15.235734 z"
           id="path4386"
           sodipodi:nodetypes="ccccccc"
           inkscape:connector-curvature="0" />
        <path
           sodipodi:type="arc"
           style="fill:#000000;fill-opacity:1;stroke:none"
           id="path4388"
           sodipodi:cx="-297.14285"
           sodipodi:cy="-237.81639"
           sodipodi:rx="8.9285717"
           sodipodi:ry="10.178572"
           d="m -288.21428,-237.81639 c 0,5.62147 -3.99746,10.17857 -8.92857,10.17857 -4.93112,0 -8.92857,-4.5571 -8.92857,-10.17857 0,-5.62147 3.99745,-10.17857 8.92857,-10.17857 4.93111,0 8.92857,4.5571 8.92857,10.17857 z"
           transform="matrix(1.12,0,0,0.9824561,39.228555,-5.3518534)" />
        <path
           sodipodi:type="arc"
           style="fill:#000000;fill-opacity:1;stroke:none"
           id="path4390"
           sodipodi:cx="-297.14285"
           sodipodi:cy="-237.81639"
           sodipodi:rx="8.9285717"
           sodipodi:ry="10.178572"
           d="m -288.21428,-237.81639 c 0,5.62147 -3.99746,10.17857 -8.92857,10.17857 -4.93112,0 -8.92857,-4.5571 -8.92857,-10.17857 0,-5.62147 3.99745,-10.17857 8.92857,-10.17857 4.93111,0 8.92857,4.5571 8.92857,10.17857 z"
           transform="matrix(1.12,0,0,0.9824561,79.228555,-5.3518534)" />
      </g>
      <path
         sodipodi:nodetypes="css"
         id="path4660"
         d="m 328.65328,571.15221 c 0,0 7.85905,14.93367 14,14.93367 6.14095,0 14,-14.93367 14,-14.93367"
         style="fill:#000000;fill-opacity:1;stroke:none"
         inkscape:connector-curvature="0" />
    </g>
  </g>
</svg>
