<?xml version="1.0" encoding="utf-8"?>
<!-- Generator: Adobe Illustrator 16.0.0, SVG Export Plug-In . SVG Version: 6.00 Build 0)  -->
<!DOCTYPE svg PUBLIC "-//W3C//DTD SVG 1.1//EN" "http://www.w3.org/Graphics/SVG/1.1/DTD/svg11.dtd">
<svg version="1.1" id="Layer_1" xmlns="http://www.w3.org/2000/svg" xmlns:xlink="http://www.w3.org/1999/xlink" x="0px" y="0px"
	 width="179.167px" height="232.5px" viewBox="0 0 179.167 232.5" enable-background="new 0 0 179.167 232.5" xml:space="preserve">
<g id="Layer_2">
	<g>
		<path fill="#FFFFFF" stroke="#010101" stroke-width="5" stroke-miterlimit="10" d="M16.574,113.315
			c15.69,20.322,58.41,26.503,58.41,26.503s4.827-42.894-10.863-63.216c-15.696-20.324-32.84-20.524-45.97-10.387
			C5.021,76.354,0.878,92.99,16.574,113.315z"/>
		<path fill="#FFFFFF" stroke="#010101" stroke-width="5" stroke-miterlimit="10" d="M142.248,163.254
			c-25.361,4.01-60.671-20.814-60.671-20.814s25.929-34.51,51.29-38.52c25.364-4.01,37.97,7.611,40.56,23.996
			C176.018,144.301,167.614,159.245,142.248,163.254z"/>
	</g>
	<g>
		<g>
			<path fill="#010101" stroke="#010101" stroke-miterlimit="10" d="M129.636,59.188c0,0,4.616-7.479,8.813-11.836
				c4.194-4.358,17.268-10.942,17.268-10.942s-9.698,8.869-12.278,11.786c-2.579,2.918-8.084,13.265-8.084,13.265L129.636,59.188z"
				/>
			<circle fill="#FCEE23" stroke="#010101" stroke-width="5" stroke-miterlimit="10" cx="152.161" cy="38.467" r="8.655"/>
		</g>
		<g>
			<path fill="#010101" stroke="#010101" stroke-miterlimit="10" d="M95.143,45.48c0,0,1.776-8.606,1.716-14.656
				c-0.062-6.05-5.049-19.809-5.049-19.809s0.968,13.105,0.843,16.999c-0.126,3.894-3.228,15.195-3.228,15.195L95.143,45.48z"/>
			<circle fill="#FCEE23" stroke="#010101" stroke-width="5" stroke-miterlimit="10" cx="92.985" cy="14.952" r="8.656"/>
		</g>
	</g>
	<path fill="#150E0F" stroke="#010101" stroke-width="5" stroke-miterlimit="10" d="M76.181,188.59
		c-5.274,13.282-33.239,36.55-33.239,36.55s-4.364-36.111,0.911-49.396L76.181,188.59z"/>
	
		<ellipse transform="matrix(-0.9293 -0.3693 0.3693 -0.9293 87.3528 316.5901)" fill="#FCEE23" stroke="#010101" stroke-width="5" stroke-miterlimit="10" cx="73.977" cy="149.935" rx="39.878" ry="42.847"/>
	<path fill="#FCEE23" stroke="#010101" stroke-width="5" stroke-miterlimit="10" d="M143.73,100.487
		c-9.861,24.82-37.98,36.946-62.803,27.086c-24.82-9.863-36.947-37.982-27.085-62.804c9.862-24.822,34.223-27.486,59.042-17.623
		C137.708,57.008,153.594,75.666,143.73,100.487z"/>
	<g>
		<path fill="#010101" stroke="#010101" stroke-width="5" stroke-miterlimit="10" d="M99.582,72.093
			c0.699-5.092-1.186-9.708-4.966-11.209c-4.737-1.882-10.661,1.835-13.231,8.305c-2.568,6.468-0.812,13.239,3.923,15.123
			c3.597,1.428,7.872-0.368,10.852-4.143l-6.416-7.659L99.582,72.093z"/>
		<path fill="#010101" stroke="#010101" stroke-width="5" stroke-miterlimit="10" d="M124.181,81.869
			c0.7-5.091-1.184-9.707-4.964-11.208c-4.735-1.882-10.661,1.835-13.231,8.304c-2.57,6.468-0.814,13.239,3.925,15.123
			c3.595,1.427,7.872-0.368,10.85-4.143l-6.418-7.659L124.181,81.869z"/>
	</g>
	<path fill="#010101" stroke="#010101" stroke-width="5" stroke-miterlimit="10" d="M83.013,93.94
		c-3.223,11.218-1.188,21.646,4.541,23.293c5.731,1.646,12.989-6.112,16.213-17.328L83.013,93.94z"/>
	<path fill="#150E0F" stroke="#010101" stroke-width="5" stroke-miterlimit="10" d="M39.905,129.833
		c-0.979,1.75-1.861,3.582-2.624,5.502c-2.094,5.27-3.131,10.677-3.229,15.968c6.176,8.476,17.39,16.774,31.423,22.354
		c13.407,5.326,26.644,7.072,36.783,5.545c3.798-4.033,6.943-8.882,9.142-14.414c0.68-1.707,1.233-3.434,1.696-5.16
		c-10.467,2.529-25.174,1.037-40.101-4.895C57.554,148.594,45.562,139.165,39.905,129.833z"/>
</g>
</svg>
