<?xml version="1.0" encoding="UTF-8" standalone="no"?>
<svg
   xmlns:dc="http://purl.org/dc/elements/1.1/"
   xmlns:cc="http://creativecommons.org/ns#"
   xmlns:rdf="http://www.w3.org/1999/02/22-rdf-syntax-ns#"
   xmlns:svg="http://www.w3.org/2000/svg"
   xmlns="http://www.w3.org/2000/svg"
   xmlns:sodipodi="http://sodipodi.sourceforge.net/DTD/sodipodi-0.dtd"
   xmlns:inkscape="http://www.inkscape.org/namespaces/inkscape"
   width="50"
   height="50"
   id="svg2"
   version="1.1"
   inkscape:version="0.48.1 r9760"
   sodipodi:docname="blue-cow.svg">
  <metadata
     id="metadata32">
    <rdf:RDF>
      <cc:Work
         rdf:about="">
        <dc:format>image/svg+xml</dc:format>
        <dc:type
           rdf:resource="http://purl.org/dc/dcmitype/StillImage" />
      </cc:Work>
    </rdf:RDF>
  </metadata>
  <defs
     id="defs30" />
  <sodipodi:namedview
     pagecolor="#ffffff"
     bordercolor="#666666"
     borderopacity="1"
     objecttolerance="10"
     gridtolerance="10"
     guidetolerance="10"
     inkscape:pageopacity="0"
     inkscape:pageshadow="2"
     inkscape:window-width="1366"
     inkscape:window-height="710"
     id="namedview28"
     showgrid="false"
     inkscape:zoom="6.2738917"
     inkscape:cx="25.703643"
     inkscape:cy="18.482588"
     inkscape:window-x="0"
     inkscape:window-y="26"
     inkscape:window-maximized="1"
     inkscape:current-layer="svg2" />
  <g
     id="g4"
     transform="matrix(0.19584063,0,0,0.19584063,3.8439378,0.20454766)">
    <title
       id="title6">Layer 1</title>
    <path
       stroke-miterlimit="4"
       id="path2383"
       d="m 221.88599,132.30415 c 0.0181,60.50823 -49.02852,109.56938 -109.53674,109.56938 C 51.841022,241.87353 2.794462,192.81238 2.812509,132.30415 2.794462,71.795921 51.841022,22.734733 112.34925,22.734733 c 60.50822,0 109.55479,49.061188 109.53674,109.569417 z"
       inkscape:connector-curvature="0"
       style="fill:#ffffff;fill-rule:nonzero;stroke:#000000;stroke-width:3.2873559;stroke-linecap:round;stroke-linejoin:round;stroke-miterlimit:4" />
    <path
       id="path3173"
       d="m 202.16429,72.414154 c -5.40118,6.554108 -6.24203,17.009399 -4.56036,21.04541 1.24066,2.9776 9.47406,4.442017 17.34784,5.176636 -3.0835,-9.370178 -7.40519,-18.181213 -12.78748,-26.222046 z M 8.749694,101.80997 c -2.867569,9.71753 -4.40947,19.98108 -4.406296,30.62835 -0.00166,5.56183 0.423386,11.02619 1.232529,16.36182 8.181549,4.75049 18.801376,20.38831 27.855148,21.56927 11.339264,1.47901 8.874207,-21.6925 1.972046,-23.17157 C 28.50096,145.71884 25.542892,134.87253 25.04988,123.04031 24.718825,115.0947 20.368606,107.37015 8.749694,101.80997 z M 220.28245,129.5419 c -2.9151,1.35712 -5.62338,3.39136 -7.88815,6.31671 -11.8323,15.28333 -21.69253,4.93012 -33.52481,10.35321 -11.83227,5.42316 -3.94409,19.22748 0.49301,32.53876 3.21228,9.63684 -2.60519,28.82147 4.40628,34.75732 22.43607,-19.79773 36.58493,-48.79431 36.57532,-81.06958 2.8e-4,-0.97363 -0.005,-1.92901 -0.0308,-2.89642 -0.009,0.004 -0.0222,-0.004 -0.0308,0 z m -146.917445,9.27478 c 4.930145,15.28333 -5.916138,9.86023 -7.888153,20.21344 -1.972076,10.35327 33.031769,13.31134 38.947908,34.5108 5.91614,21.19953 32.53875,9.86023 32.04574,-1.97204 -0.49301,-11.83228 -17.74841,-17.25537 -13.31131,-24.15753 4.43711,-6.90217 13.31131,-21.19953 13.31131,-21.19953 l -63.105495,-7.39514 z"
       inkscape:connector-curvature="0"
       style="fill:#56aaff;fill-rule:evenodd;stroke-width:1px" />
    <path
       stroke-miterlimit="4"
       id="path3221"
       d="m 215.26372,94.723297 c 0.0768,1.68158 0.125,3.393311 0.125,5.09375 0,60.464293 -49.06696,109.531253 -109.53125,109.531253 -47.262179,0 -87.591189,-29.99927 -102.937502,-71.96875 2.653503,58.11218 50.673645,104.46875 109.437502,104.46875 60.46429,0 109.53125,-49.06696 109.53125,-109.53125 0,-13.20221 -2.33814,-25.87006 -6.625,-37.593753 z"
       inkscape:connector-curvature="0"
       style="fill:#000000;fill-opacity:0.31372501;fill-rule:nonzero;stroke-width:4;stroke-linecap:round;stroke-linejoin:round;stroke-miterlimit:4" />
    <path
       stroke-miterlimit="4"
       id="path3172"
       d="m 120.52953,242.87381 c 0,9.09076 14.66534,9.38135 32.7351,9.38135 18.0698,0 32.73514,0.69348 32.73514,-9.38135 0,-17.71594 -14.66534,-32.09412 -32.73514,-32.09412 -18.06976,0 -32.7351,14.37818 -32.7351,32.09412 z"
       inkscape:connector-curvature="0"
       style="fill:#005fbf;fill-rule:nonzero;stroke:#000000;stroke-width:4;stroke-linecap:round;stroke-linejoin:round;stroke-miterlimit:4" />
    <path
       stroke-miterlimit="4"
       id="path3236"
       d="m 196.98448,97.018768 c 0,45.174502 -55.12121,81.837832 -81.8378,81.837832 -25.718259,0 -81.837827,-36.66333 -81.837827,-81.837832 0,-45.174438 24.625031,-81.837769 81.837827,-81.837769 57.22257,0 81.8378,36.66333 81.8378,81.837769 z"
       inkscape:connector-curvature="0"
       style="fill:#000000;fill-opacity:0.31372501;fill-rule:nonzero;stroke-width:4;stroke-linecap:round;stroke-linejoin:round;stroke-miterlimit:4" />
    <path
       stroke-miterlimit="4"
       id="path3174"
       d="m 165.85506,251.6542 c 0,-16.36755 -9.44281,-26.43994 -9.44281,-26.43994 0,0 3.77713,13.84949 3.14761,26.43994 l 6.2952,0 z"
       inkscape:connector-curvature="0"
       style="fill:#000000;fill-opacity:0.31372501;fill-rule:evenodd;stroke:#000000;stroke-width:4;stroke-linejoin:round;stroke-miterlimit:4" />
    <path
       stroke-miterlimit="4"
       id="path3155"
       d="M 109.6875,2.007904 C 79.558243,2.6185 58.755829,13.661163 46.0625,30.757904 21.998062,28.170105 2,54.382904 2,54.382904 c 0,0 18.891129,9.44632 32.0625,1.53125 -2.399231,8.711731 -3.5625,18.105957 -3.5625,27.90625 0,45.174486 56.125504,81.843746 81.84375,81.843746 26.71661,0 81.84375,-36.66926 81.84375,-81.843746 0,-9.800293 -1.1639,-19.194519 -3.5625,-27.90625 13.17137,7.91507 32.03125,-1.53125 32.03125,-1.53125 0,0 -19.97122,-26.204559 -44.03125,-23.625 -13.06166,-17.595001 -34.70769,-28.75 -66.28125,-28.75 -0.89395,0 -1.77818,-0.017792 -2.65625,0 z"
       inkscape:connector-curvature="0"
       style="fill:#ffffff;fill-rule:nonzero;stroke:#000000;stroke-width:4;stroke-linecap:round;stroke-linejoin:round;stroke-miterlimit:4" />
    <path
       id="path3185"
       d="m 126.56248,3.976654 c 25.72098,17.926147 -3.04956,17.142303 -8.75,23.28125 -6.5,7 -9,17 -1.5,23.5 7.5,6.5 46,17.5 51.5,-0.5 2.83536,-9.279297 -0.56613,-20.802155 -2.34375,-30.96875 -10.01751,-7.86145 -22.90448,-13.242218 -38.90625,-15.3125 z"
       inkscape:connector-curvature="0"
       style="fill:#56aaff;fill-rule:evenodd;stroke-width:1px" />
    <path
       stroke-miterlimit="4"
       id="path3157"
       d="m 108.71972,71.833878 c 0.004,12.518944 -10.143838,22.66954 -22.662782,22.66954 -12.518944,0 -22.666496,-10.150597 -22.662762,-22.66954 -0.0037,-12.51894 10.143818,-22.669506 22.662762,-22.669506 12.518944,0 22.666512,10.150566 22.662782,22.669506 z"
       inkscape:connector-curvature="0"
       style="fill:#ffffff;fill-rule:nonzero;stroke:#000000;stroke-width:3.88889003;stroke-linecap:round;stroke-linejoin:round;stroke-miterlimit:4" />
    <path
       stroke-miterlimit="4"
       id="path3159"
       d="m 161.45192,71.833878 c 0.004,12.518944 -10.14383,22.66954 -22.66277,22.66954 -12.51895,0 -22.6665,-10.150597 -22.66277,-22.66954 -0.004,-12.51894 10.14382,-22.669506 22.66277,-22.669506 12.51894,0 22.66651,10.150566 22.66277,22.669506 z"
       inkscape:connector-curvature="0"
       style="fill:#ffffff;fill-rule:nonzero;stroke:#000000;stroke-width:3.88889003;stroke-linecap:round;stroke-linejoin:round;stroke-miterlimit:4" />
    <path
       stroke-miterlimit="4"
       id="path3161"
       d="m 141.30724,75.8339 c 0.001,4.172981 -3.38129,7.556503 -7.55426,7.556503 -4.17299,0 -7.55551,-3.383522 -7.55426,-7.556503 -10e-4,-4.172974 3.38127,-7.556541 7.55426,-7.556541 4.17297,0 7.55551,3.383568 7.55426,7.556541 z"
       inkscape:connector-curvature="0"
       style="fill:#000000;fill-rule:nonzero;stroke-width:47.66669083;stroke-linecap:round;stroke-linejoin:round;stroke-miterlimit:4" />
    <path
       stroke-miterlimit="4"
       id="path3163"
       d="m 99.276901,75.8339 c 0.0013,4.172981 -3.381287,7.556503 -7.554268,7.556503 -4.172974,0 -7.555496,-3.383522 -7.554245,-7.556503 -0.0013,-4.172974 3.381271,-7.556541 7.554245,-7.556541 4.172981,0 7.555519,3.383568 7.554268,7.556541 z"
       inkscape:connector-curvature="0"
       style="fill:#000000;fill-rule:nonzero;stroke-width:47.66669083;stroke-linecap:round;stroke-linejoin:round;stroke-miterlimit:4" />
    <path
       stroke-miterlimit="4"
       id="path3210"
       d="m 112.34375,115.2579 c -19.862076,0 -35.96875,13.21601 -35.96875,29.5 0,3.01957 0.564102,5.94364 1.59375,8.6875 12.711624,7.74343 25.39435,12.21875 34.375,12.21875 9.19823,0 21.75693,-4.3312 34.28125,-11.875 1.11317,-2.84274 1.71875,-5.88658 1.71875,-9.03125 0,-16.28399 -16.13792,-29.5 -36,-29.5 z"
       inkscape:connector-curvature="0"
       style="fill:#ffd5e5;fill-rule:nonzero;stroke:#000000;stroke-width:4;stroke-linecap:round;stroke-linejoin:round;stroke-miterlimit:4" />
    <path
       stroke-miterlimit="4"
       id="path3231"
       d="m 190.90625,57.007904 -1.875,2.65625 c 0.24889,3.07547 0.34375,6.202637 0.34375,9.375 0,45.174466 -55.12714,81.843746 -81.84375,81.843746 -20.705811,2e-5 -61.096725,-23.75564 -76.0625,-56.593746 7.615814,40.246276 57.17189,71.375016 80.875,71.374996 26.71661,0 81.84375,-36.66929 81.84375,-81.843746 0,-9.391541 -1.07538,-18.410248 -3.28125,-26.8125 z"
       inkscape:connector-curvature="0"
       style="fill:#000000;fill-opacity:0.31372501;fill-rule:nonzero;stroke-width:4;stroke-linecap:round;stroke-linejoin:round;stroke-miterlimit:4" />
    <path
       stroke-miterlimit="4"
       id="path3329"
       d="m 105.53172,242.87381 c 0,9.09076 -14.665341,9.38135 -32.735104,9.38135 -18.069794,0 -32.735138,0.69348 -32.735138,-9.38135 0,-17.71594 14.665344,-32.09412 32.735138,-32.09412 18.069763,0 32.735104,14.37818 32.735104,32.09412 z"
       inkscape:connector-curvature="0"
       style="fill:#005fbf;fill-rule:nonzero;stroke:#000000;stroke-width:4;stroke-linecap:round;stroke-linejoin:round;stroke-miterlimit:4" />
    <path
       stroke-miterlimit="4"
       id="path3331"
       d="m 60.206192,251.6542 c 0,-16.36755 9.44281,-26.43994 9.44281,-26.43994 0,0 -3.77713,13.84949 -3.147614,26.43994 l -6.295197,0 z"
       inkscape:connector-curvature="0"
       style="fill:#000000;fill-opacity:0.31372501;fill-rule:evenodd;stroke:#000000;stroke-width:4;stroke-linejoin:round;stroke-miterlimit:4" />
    <path
       stroke-miterlimit="4"
       id="path2398"
       d="m 128.94469,140.46524 c -2.29273,3.97308 -6.50025,5.83856 -9.39676,4.16626 -2.89655,-1.6723 -3.38474,-6.2489 -1.0903,-10.22101 2.29272,-3.97308 6.50027,-5.83856 9.39679,-4.16626 2.89654,1.6723 3.3847,6.2489 1.09027,10.22101 z"
       inkscape:connector-curvature="0"
       style="fill:#000000;fill-rule:nonzero;stroke-width:47.66669083;stroke-linecap:round;stroke-linejoin:round;stroke-miterlimit:4" />
    <path
       stroke-miterlimit="4"
       id="path2412"
       d="m 96.207626,140.46524 c 2.292725,3.97308 6.500274,5.83856 9.396794,4.16626 2.89654,-1.6723 3.3847,-6.2489 1.09027,-10.22101 -2.29273,-3.97308 -6.50025,-5.83856 -9.396793,-4.16626 -2.896515,1.6723 -3.384705,6.2489 -1.090271,10.22101 z"
       inkscape:connector-curvature="0"
       style="fill:#000000;fill-rule:nonzero;stroke-width:47.66669083;stroke-linecap:round;stroke-linejoin:round;stroke-miterlimit:4" />
    <path
       stroke-miterlimit="4"
       id="path2399"
       d="m 53.312485,32.265289 c -7.332886,-1.328064 -15.5,-21.5 -12.5,-25.5 3,-4 26.374115,4.466278 27,13.5 0.552185,7.969421 -5.385925,13.650635 -14.5,12 z"
       inkscape:connector-curvature="0"
       style="fill:#005fbf;fill-rule:evenodd;stroke:#000000;stroke-width:4;stroke-miterlimit:4" />
    <path
       stroke-miterlimit="4"
       id="path3171"
       d="m 170.21074,32.265289 c 7.33291,-1.328064 15.5,-21.5 12.5,-25.5 -3,-4 -26.37409,4.466278 -27,13.5 -0.55216,7.969421 5.38595,13.650635 14.5,12 z"
       inkscape:connector-curvature="0"
       style="fill:#005fbf;fill-rule:evenodd;stroke:#000000;stroke-width:4;stroke-miterlimit:4" />
  </g>
</svg>
