<?xml version="1.0"?><svg width="224.65625" height="254.26529" xmlns="http://www.w3.org/2000/svg">

 <g>
  <title>Layer 1</title>
  <g externalResourcesRequired="false" id="layer1">
   <path fill="#ffffff" fill-rule="nonzero" stroke="#000000" stroke-width="3.287356" stroke-linecap="round" stroke-linejoin="round" stroke-miterlimit="4" id="path2383" d="m221.882492,132.304153c0.018143,60.508224 -49.250717,109.569382 -110.03315,109.569382c-60.782463,0 -110.051298,-49.061157 -110.03317,-109.569382c-0.018128,-60.508232 49.250706,-109.569429 110.03317,-109.569429c60.782433,0 110.051292,49.061197 110.03315,109.569429z"/>
   <path fill="#4d4d4d" fill-rule="evenodd" stroke-width="1px" id="path3173" d="m202.071426,72.414154c-5.425659,6.554108 -6.270325,17.009399 -4.581039,21.04541c1.246292,2.9776 9.516998,4.442017 17.426468,5.176636c-3.097473,-9.370178 -7.438751,-18.181213 -12.845428,-26.222046zm-194.291152,29.395813c-2.880565,9.717529 -4.429453,19.981079 -4.426265,30.628357c-0.001671,5.561829 0.425304,11.026184 1.238114,16.361816c8.218628,4.750488 18.886584,20.388306 27.981389,21.569275c11.390652,1.479004 8.914421,-21.692505 1.98098,-23.17157c-6.933439,-1.479004 -9.904915,-12.325317 -10.40016,-24.157532c-0.332556,-7.945618 -4.70249,-15.670166 -16.374059,-21.230347zm212.491424,27.731934c-2.928314,1.357117 -5.648895,3.391357 -7.923904,6.316711c-11.885925,15.283325 -21.790848,4.930115 -33.676743,10.35321c-11.885895,5.423157 -3.96196,19.227478 0.495239,32.538757c3.226837,9.636841 -2.616989,28.821472 4.426254,34.757324c22.53775,-19.797729 36.750732,-48.794312 36.741074,-81.06958c0.000275,-0.973633 -0.005508,-1.929016 -0.03096,-2.896423c-0.008698,0.003967 -0.022247,-0.004089 -0.03096,0zm-147.583275,9.27478c4.952484,15.283325 -5.942955,9.860229 -7.923904,20.21344c-1.981014,10.353271 33.181465,13.31134 39.12442,34.510803c5.942947,21.199524 32.686226,9.860229 32.190971,-1.972046c-0.495239,-11.832275 -17.82885,-17.255371 -13.371635,-24.157532c4.457214,-6.902161 13.371635,-21.199524 13.371635,-21.199524l-63.391487,-7.395142z"/>
   <path fill="#000000" fill-opacity="0.313725" fill-rule="nonzero" stroke-width="4" stroke-linecap="round" stroke-linejoin="round" stroke-miterlimit="4" id="path3221" d="m215.230209,94.723297c0.077133,1.68158 0.125565,3.393311 0.125565,5.09375c0,60.464294 -49.289322,109.53125 -110.027634,109.53125c-47.476372,0 -87.98815,-29.999268 -103.404013,-71.96875c2.665529,58.112183 50.903296,104.46875 109.93347,104.46875c60.738319,0 110.027641,-49.066956 110.027641,-109.53125c0,-13.202209 -2.348724,-25.870056 -6.655029,-37.59375z"/>
   <path fill="#333333" fill-rule="nonzero" stroke="#000000" stroke-width="4" stroke-linecap="round" stroke-linejoin="round" stroke-miterlimit="4" id="path3172" d="m120.066689,242.87381c0,9.090759 14.731804,9.381348 32.883461,9.381348c18.151688,0 32.883499,0.693481 32.883499,-9.381348c0,-17.715942 -14.731812,-32.094116 -32.883499,-32.094116c-18.151657,0 -32.883461,14.378174 -32.883461,32.094116z"/>
   <path fill="#000000" fill-opacity="0.313725" fill-rule="nonzero" stroke-width="4" stroke-linecap="round" stroke-linejoin="round" stroke-miterlimit="4" id="path3236" d="m196.868134,97.018768c0,45.1745 -55.371017,81.83783 -82.208679,81.83783c-25.834816,0 -82.208721,-36.66333 -82.208721,-81.83783c0,-45.174438 24.736633,-81.837769 82.208721,-81.837769c57.481888,0 82.208679,36.66333 82.208679,81.837769z"/>
   <path fill="#000000" fill-opacity="0.313725" fill-rule="evenodd" stroke="#000000" stroke-width="4" stroke-linejoin="round" stroke-miterlimit="4" id="path3174" d="m165.597641,251.654205c0,-16.367554 -9.485611,-26.439941 -9.485611,-26.439941c0,0 3.79425,13.849487 3.16188,26.439941l6.32373,0z"/>
   <path fill="#ffffff" fill-rule="nonzero" stroke="#000000" stroke-width="4" stroke-linecap="round" stroke-linejoin="round" stroke-miterlimit="4" id="path3155" d="m109.175529,2.007904c-30.2658,0.610596 -51.162495,11.653259 -63.913349,28.75c-24.173496,-2.587799 -44.26219,23.625 -44.26219,23.625c0,0 18.976742,9.44632 32.207808,1.53125c-2.410105,8.711731 -3.578646,18.105957 -3.578646,27.90625c0,45.174484 56.379866,81.84375 82.214666,81.84375c26.837685,0 82.214668,-36.669266 82.214668,-81.84375c0,-9.800293 -1.169174,-19.194519 -3.578659,-27.90625c13.231064,7.91507 32.176422,-1.53125 32.176422,-1.53125c0,0 -20.061737,-26.204559 -44.230804,-23.625c-13.12085,-17.595001 -34.864975,-28.75 -66.581627,-28.75c-0.898003,0 -1.786247,-0.017792 -2.668289,0z"/>
   <path fill="#4d4d4d" fill-rule="evenodd" stroke-width="1px" id="path3185" d="m126.126991,3.976654c25.837547,17.926147 -3.063385,17.142303 -8.789658,23.28125c-6.529457,7 -9.040787,17 -1.506798,23.5c7.533989,6.5 46.208466,17.5 51.733398,-0.5c2.848206,-9.279297 -0.568695,-20.802155 -2.35437,-30.96875c-10.062912,-7.86145 -23.008286,-13.242218 -39.082573,-15.3125z"/>
   <path transform="rotate(-0.717313 84.4379 71.8339)" fill="#ffffff" fill-rule="nonzero" stroke="#000000" stroke-width="3.88889" stroke-linecap="round" stroke-linejoin="round" stroke-miterlimit="4" id="path3157" d="m107.203346,71.833855c0.003746,12.518936 -10.189796,22.669533 -22.765472,22.669533c-12.575676,0 -22.769234,-10.150597 -22.76548,-22.669533c-0.003754,-12.518944 10.189804,-22.669506 22.76548,-22.669506c12.575676,0 22.769218,10.150562 22.765472,22.669506z"/>
   <path fill="#ffffff" fill-rule="nonzero" stroke="#000000" stroke-width="3.8" stroke-linecap="round" stroke-linejoin="round" stroke-miterlimit="4" id="path3159" d="m161.175003,71.8339c0.002991,12.518898 -10.190002,22.669502 -22.766006,22.669502c-12.575996,0 -22.768997,-10.150604 -22.764999,-22.669502c-0.003998,-12.519001 10.189003,-22.669601 22.764999,-22.669601c12.576004,0 22.768997,10.1506 22.766006,22.669601z"/>
   <path fill="#000000" fill-rule="nonzero" stroke-width="47.666691" stroke-linecap="round" stroke-linejoin="round" stroke-miterlimit="4" id="path3161" d="m140.938553,75.8339c0.001251,4.172981 -3.396606,7.556503 -7.588486,7.556503c-4.191895,0 -7.589745,-3.383522 -7.588486,-7.556503c-0.001259,-4.172974 3.396591,-7.556541 7.588486,-7.556541c4.191879,0 7.589737,3.383568 7.588486,7.556541z"/>
   <path fill="#000000" fill-rule="nonzero" stroke-width="47.666691" stroke-linecap="round" stroke-linejoin="round" stroke-miterlimit="4" id="path3163" d="m98.717728,75.8339c0.001251,4.172981 -3.396591,7.556503 -7.588486,7.556503c-4.191879,0 -7.589737,-3.383522 -7.588478,-7.556503c-0.001259,-4.172974 3.396599,-7.556541 7.588478,-7.556541c4.191895,0 7.589737,3.383568 7.588486,7.556541z"/>
   <path fill="#ffffff" fill-rule="nonzero" stroke="#000000" stroke-width="4" stroke-linecap="round" stroke-linejoin="round" stroke-miterlimit="4" id="path3210" d="m111.843819,115.257904c-19.952095,0 -36.13176,13.216003 -36.13176,29.5c0,3.019562 0.566658,5.943634 1.600967,8.6875c12.769234,7.743423 25.509438,12.21875 34.530792,12.21875c9.239914,0 21.855522,-4.331207 34.436607,-11.875c1.118225,-2.842743 1.726547,-5.886581 1.726547,-9.03125c0,-16.283997 -16.21106,-29.5 -36.163155,-29.5z"/>
   <path fill="#000000" fill-opacity="0.313725" fill-rule="nonzero" stroke-width="4" stroke-linecap="round" stroke-linejoin="round" stroke-miterlimit="4" id="path3231" d="m190.76236,57.007904l-1.883499,2.65625c0.250015,3.07547 0.345306,6.202637 0.345306,9.375c0,45.1745 -55.376968,81.84375 -82.214661,81.84375c-20.799652,0.000015 -61.373615,-23.755646 -76.407213,-56.59375c7.650328,40.246277 57.430994,71.375015 81.241526,71.375c26.837685,0 82.214668,-36.669296 82.214668,-81.84375c0,-9.391541 -1.080261,-18.410278 -3.296127,-26.8125z"/>
   <path fill="#333333" fill-rule="nonzero" stroke="#000000" stroke-width="4" stroke-linecap="round" stroke-linejoin="round" stroke-miterlimit="4" id="path3329" d="m105.000916,242.87381c0,9.090759 -14.731804,9.381348 -32.883461,9.381348c-18.151684,0 -32.883492,0.693481 -32.883492,-9.381348c0,-17.715942 14.731808,-32.094116 32.883492,-32.094116c18.151657,0 32.883461,14.378174 32.883461,32.094116z"/>
   <path fill="#000000" fill-opacity="0.313725" fill-rule="evenodd" stroke="#000000" stroke-width="4" stroke-linejoin="round" stroke-miterlimit="4" id="path3331" d="m59.469971,251.654205c0,-16.367554 9.485603,-26.439941 9.485603,-26.439941c0,0 -3.794243,13.849487 -3.161873,26.439941l-6.32373,0z"/>
   <path fill="#000000" fill-rule="nonzero" stroke-width="47.666691" stroke-linecap="round" stroke-linejoin="round" stroke-miterlimit="4" id="path2398" d="m128.519989,140.46524c-2.303116,3.973083 -6.529701,5.838562 -9.439346,4.16626c-2.909676,-1.672302 -3.400078,-6.248901 -1.095245,-10.221008c2.303116,-3.973083 6.529739,-5.838562 9.439377,-4.16626c2.909668,1.672302 3.40004,6.248901 1.095215,10.221008z"/>
   <path fill="#000000" fill-rule="nonzero" stroke-width="47.666691" stroke-linecap="round" stroke-linejoin="round" stroke-miterlimit="4" id="path2412" d="m95.634567,140.46524c2.303108,3.973083 6.529732,5.838562 9.439369,4.16626c2.909676,-1.672302 3.400047,-6.248901 1.095215,-10.221008c-2.303116,-3.973083 -6.529701,-5.838562 -9.439377,-4.16626c-2.909637,1.672302 -3.40004,6.248901 -1.095207,10.221008z"/>
   <path fill="#333333" fill-rule="evenodd" stroke="#000000" stroke-width="4" stroke-miterlimit="4" id="path2399" d="m52.545021,32.265289c-7.366116,-1.328064 -15.570244,-21.5 -12.556648,-25.5c3.013596,-4 26.493645,4.466278 27.12236,13.5c0.554688,7.969421 -5.410332,13.650635 -14.565712,12z"/>
   <path fill="#333333" fill-rule="evenodd" stroke="#000000" stroke-width="4" stroke-miterlimit="4" id="path3171" d="m169.973053,32.265289c7.36615,-1.328064 15.570251,-21.5 12.556656,-25.5c-3.013596,-4 -26.493607,4.466278 -27.12236,13.5c-0.554657,7.969421 5.410355,13.650635 14.565704,12z"/>
  </g>
 </g>
</svg>