<?xml version="1.0" encoding="UTF-8" standalone="no"?>
<!-- Created with Inkscape (http://www.inkscape.org/) -->

<svg
   xmlns:dc="http://purl.org/dc/elements/1.1/"
   xmlns:cc="http://creativecommons.org/ns#"
   xmlns:rdf="http://www.w3.org/1999/02/22-rdf-syntax-ns#"
   xmlns:svg="http://www.w3.org/2000/svg"
   xmlns="http://www.w3.org/2000/svg"
   xmlns:sodipodi="http://sodipodi.sourceforge.net/DTD/sodipodi-0.dtd"
   xmlns:inkscape="http://www.inkscape.org/namespaces/inkscape"
   version="1.0"
   width="50"
   height="50"
   id="svg2"
   inkscape:version="0.48.1 r9760"
   sodipodi:docname="elephant.svg">
  <metadata
     id="metadata40">
    <rdf:RDF>
      <cc:Work
         rdf:about="">
        <dc:format>image/svg+xml</dc:format>
        <dc:type
           rdf:resource="http://purl.org/dc/dcmitype/StillImage" />
      </cc:Work>
    </rdf:RDF>
  </metadata>
  <sodipodi:namedview
     pagecolor="#ffffff"
     bordercolor="#666666"
     borderopacity="1"
     objecttolerance="10"
     gridtolerance="10"
     guidetolerance="10"
     inkscape:pageopacity="0"
     inkscape:pageshadow="2"
     inkscape:window-width="1366"
     inkscape:window-height="710"
     id="namedview38"
     showgrid="false"
     inkscape:zoom="6.1917418"
     inkscape:cx="19.928017"
     inkscape:cy="30.514839"
     inkscape:window-x="0"
     inkscape:window-y="26"
     inkscape:window-maximized="1"
     inkscape:current-layer="svg2" />
  <defs
     id="defs4" />
  <path
     d="m 44.94974,25.415334 c 0.0033,11.157547 -9.040718,20.204289 -20.198267,20.204289 -11.157545,0 -20.2015896,-9.046742 -20.1982644,-20.204289 C 4.5498839,14.257789 13.593928,5.2110464 24.751473,5.2110464 c 11.157549,0 20.201592,9.0467426 20.198267,20.2042876 z"
     id="path2383"
     style="fill:#939dac;fill-opacity:1;fill-rule:nonzero;stroke:#000000;stroke-width:0.7375887;stroke-linecap:round;stroke-linejoin:round;stroke-miterlimit:4;stroke-opacity:1;stroke-dasharray:none"
     inkscape:connector-curvature="0" />
  <path
     d="m 44.871899,27.183126 c -3.841783,8.426248 -12.34275,14.285018 -22.208334,14.285018 -5.5922,0 -10.741296,-1.882835 -14.8554974,-5.047872 3.6020114,5.537609 9.8428434,9.196809 16.9414904,9.196809 10.562046,0 19.229978,-8.103902 20.122341,-18.433955 z"
     id="path3353"
     style="fill:#000000;fill-opacity:0.31372549;fill-rule:nonzero;stroke:none"
     inkscape:connector-curvature="0" />
  <path
     d="m 9.2516396,43.947252 c -0.00125,4.182131 3.3886614,4.714927 7.5707554,4.714927 4.182095,0 7.572002,-0.532796 7.570756,-4.714927 0.0013,-4.182134 -3.531163,-6.490677 -7.570756,-7.573083 -6.284421,-1.683906 -7.5720019,3.390949 -7.5707554,7.573083 z"
     id="path3245"
     style="fill:#939dac;fill-opacity:1;fill-rule:nonzero;stroke:#000000;stroke-width:0.73758864;stroke-linecap:round;stroke-linejoin:round;stroke-miterlimit:4;stroke-opacity:1;stroke-dasharray:none"
     inkscape:connector-curvature="0" />
  <path
     d="m 22.715382,46.305684 c 0.303097,1.129789 -0.599352,1.525876 -1.760272,1.836944 -1.160922,0.311067 -2.140508,0.41927 -2.442914,-0.710705 -0.303095,-1.129787 0.392445,-2.298061 1.553367,-2.60913 1.160921,-0.311066 2.347413,0.352918 2.649819,1.482891 z"
     id="path3239"
     style="fill:#ffffff;fill-opacity:1;fill-rule:nonzero;stroke:#000000;stroke-width:0.73758864;stroke-linecap:round;stroke-linejoin:round;stroke-miterlimit:4;stroke-opacity:1;stroke-dasharray:none"
     inkscape:connector-curvature="0" />
  <path
     d="m 41.539635,20.805411 c 0.0026,8.815436 -7.142949,15.963152 -15.958372,15.963152 -8.815426,0 -15.9610005,-7.147716 -15.9583729,-15.963152 -0.00263,-8.815438 7.1429469,-15.9631534 15.9583729,-15.9631534 8.815423,0 15.960998,7.1477154 15.958372,15.9631534 z"
     id="path3307"
     style="fill:#000000;fill-opacity:0.31372549;fill-rule:nonzero;stroke:none"
     inkscape:connector-curvature="0" />
  <path
     d="m 48.95951,18.137852 c -1.650853,6.166454 -6.649935,10.185487 -11.164563,8.975797 -4.514629,-1.209692 -6.834445,-7.189816 -5.180898,-13.355551 1.650854,-6.1664565 5.528387,-5.9998131 10.043016,-4.7901216 4.514628,1.2096916 7.955993,3.0041396 6.302445,9.1698756 z"
     id="path2400"
     style="fill:#939dac;fill-opacity:1;fill-rule:nonzero;stroke:#000000;stroke-width:0.7375887;stroke-linecap:round;stroke-linejoin:round;stroke-miterlimit:4;stroke-opacity:1;stroke-dasharray:none"
     inkscape:connector-curvature="0" />
  <path
     d="M 0.79037221,18.137852 C 2.4412256,24.304306 7.4403086,28.323339 11.954935,27.113649 16.469564,25.903957 18.78938,19.923833 17.135834,13.758098 15.48498,7.5916415 11.607446,7.7582849 7.0928171,8.9679764 2.5781905,10.177668 -0.86317493,11.972116 0.79037221,18.137852 z"
     id="path3218"
     style="fill:#939dac;fill-opacity:1;fill-rule:nonzero;stroke:#000000;stroke-width:0.7375887;stroke-linecap:round;stroke-linejoin:round;stroke-miterlimit:4;stroke-opacity:1;stroke-dasharray:none"
     inkscape:connector-curvature="0" />
  <path
     d="m 36.684414,8.5632781 c -1.796698,0.5482662 -3.223895,2.0437139 -4.068263,5.1976949 -1.653547,6.165734 0.665779,12.141817 5.180408,13.351507 0.491868,0.131796 0.988289,0.195796 1.486702,0.207447 1.231959,-2.264538 1.93123,-4.864237 1.930408,-7.62367 0.0013,-4.331901 -1.728406,-8.256754 -4.529255,-11.1329789 z"
     id="path3309"
     style="fill:#000000;fill-opacity:0.31372549;fill-rule:nonzero;stroke:none"
     inkscape:connector-curvature="0" />
  <path
     d="m 37.831133,9.4967883 c -2.723332,-0.02831 -4.909807,1.2233257 -6.044769,5.4627667 -0.916165,3.416188 -0.615782,6.772357 0.605053,9.294769 0.915473,-4.329291 5.015083,-9.692754 11.075355,-9.957447 2.457647,-0.107341 5.3122,1.483739 4.483156,-0.45523 -0.829044,-1.93897 -3.395086,-2.944823 -6.125443,-3.676419 C 40.413664,9.7871993 39.069012,9.5096563 37.831133,9.4967883 z"
     id="path3314"
     style="fill:#000000;fill-opacity:0.31372549;fill-rule:nonzero;stroke:none"
     inkscape:connector-curvature="0" />
  <path
     d="m 12.013522,9.4967883 c 2.723332,-0.02831 4.909807,1.2233257 6.04477,5.4627667 0.916164,3.416188 0.615781,6.772357 -0.605054,9.294769 C 16.537766,19.925033 12.438155,14.56157 6.3778835,14.296877 3.9202362,14.189536 1.0656833,15.780616 1.8947273,13.841647 2.7237715,11.902677 5.289813,10.896824 8.0201708,10.165228 9.4309917,9.7871993 10.775644,9.5096563 12.013522,9.4967883 z"
     id="path3321"
     style="fill:#000000;fill-opacity:0.31372549;fill-rule:nonzero;stroke:none"
     inkscape:connector-curvature="0" />
  <path
     d="m 40.709848,17.855057 c 0.0026,8.815436 -7.142949,15.963151 -15.958373,15.963151 -8.815425,0 -15.9609998,-7.147715 -15.9583721,-15.963151 C 8.7904752,9.0396183 11.75773,1.8919029 24.751475,1.8919029 c 13.254406,0 15.960999,7.1477154 15.958373,15.9631541 z"
     id="path2398"
     style="fill:#939dac;fill-opacity:1;fill-rule:nonzero;stroke:#000000;stroke-width:0.7375887;stroke-linecap:round;stroke-linejoin:round;stroke-miterlimit:4;stroke-opacity:1;stroke-dasharray:none"
     inkscape:connector-curvature="0" />
  <path
     d="m 24.082198,14.817978 c 7.38e-4,2.308459 -1.870493,4.180197 -4.17895,4.180197 -2.308459,0 -4.17964,-1.871738 -4.178952,-4.180197 -6.83e-4,-2.308457 1.870493,-4.180195 4.178952,-4.180195 2.308457,0 4.179638,1.871738 4.17895,4.180195 z"
     id="path3157"
     style="fill:#ffffff;fill-opacity:1;fill-rule:nonzero;stroke:#000000;stroke-width:0.73758858;stroke-linecap:round;stroke-linejoin:round;stroke-miterlimit:4;stroke-opacity:1;stroke-dasharray:none"
     inkscape:connector-curvature="0" />
  <path
     d="m 33.805867,14.817978 c 7.37e-4,2.308459 -1.870494,4.180197 -4.178951,4.180197 -2.308459,0 -4.17964,-1.871738 -4.178952,-4.180197 -7.38e-4,-2.308457 1.870493,-4.180195 4.178952,-4.180195 2.308457,0 4.179639,1.871738 4.178951,4.180195 z"
     id="path3159"
     style="fill:#ffffff;fill-opacity:1;fill-rule:nonzero;stroke:#000000;stroke-width:0.73758858;stroke-linecap:round;stroke-linejoin:round;stroke-miterlimit:4;stroke-opacity:1;stroke-dasharray:none"
     inkscape:connector-curvature="0" />
  <path
     d="m 30.091243,15.555567 c 1.84e-4,0.769486 -0.623497,1.393399 -1.392982,1.393399 -0.769486,0 -1.393213,-0.623913 -1.392983,-1.393399 -1.84e-4,-0.769486 0.623497,-1.393397 1.392983,-1.393397 0.769485,0 1.393212,0.623911 1.392982,1.393397 z"
     id="path3161"
     style="fill:#000000;fill-opacity:1;fill-rule:nonzero;stroke:none"
     inkscape:connector-curvature="0" />
  <path
     d="m 22.340967,15.555567 c 1.85e-4,0.769486 -0.623496,1.393399 -1.392982,1.393399 -0.769486,0 -1.393213,-0.623913 -1.392982,-1.393399 -1.85e-4,-0.769486 0.623496,-1.393397 1.392982,-1.393397 0.769486,0 1.393213,0.623911 1.392982,1.393397 z"
     id="path3163"
     style="fill:#000000;fill-opacity:1;fill-rule:nonzero;stroke:none"
     inkscape:connector-curvature="0" />
  <path
     d="m 41.357691,43.947252 c 0.0013,4.182131 -3.388662,4.714927 -7.570756,4.714927 -4.182095,0 -7.572003,-0.532796 -7.570756,-4.714927 -0.0013,-4.182134 3.531163,-6.490677 7.570756,-7.573083 6.284421,-1.683906 7.572002,3.390949 7.570756,7.573083 z"
     id="path3220"
     style="fill:#939dac;fill-opacity:1;fill-rule:nonzero;stroke:#000000;stroke-width:0.73758864;stroke-linecap:round;stroke-linejoin:round;stroke-miterlimit:4;stroke-opacity:1;stroke-dasharray:none"
     inkscape:connector-curvature="0" />
  <path
     d="m 19.218544,37.202462 c 1.035875,1.357514 1.671627,3.052624 1.671099,5.145834 0.0013,4.946015 -3.389713,5.578012 -7.571808,5.578014 -0.647187,0 -1.273171,-0.01955 -1.872784,-0.06339 1.371896,0.66576 3.273302,0.800975 5.37633,0.800975 4.182095,2e-6 7.573055,-0.537284 7.571809,-4.719415 9.22e-4,-3.323713 -2.231023,-5.460076 -5.174646,-6.742022 z"
     id="path3297"
     style="fill:#000000;fill-opacity:0.31372549;fill-rule:nonzero;stroke:none"
     inkscape:connector-curvature="0" />
  <path
     d="m 29.034286,42.181778 c 9.22e-4,2.911192 -2.35884,5.27164 -5.26999,5.27164 -2.911148,0 -5.270857,-2.360448 -5.26999,-5.27164 -9.22e-4,-2.911192 2.358842,-5.27164 5.26999,-5.27164 2.91115,0 5.270858,2.360448 5.26999,5.27164 z"
     id="path2404"
     style="fill:#939dac;fill-opacity:1;fill-rule:nonzero;stroke:#000000;stroke-width:0.7375887;stroke-linecap:round;stroke-linejoin:round;stroke-miterlimit:4;stroke-opacity:1;stroke-dasharray:none"
     inkscape:connector-curvature="0" />
  <path
     d="m 15.073744,47.529768 c -0.302404,1.129973 -1.281992,1.02177 -2.442912,0.710705 -1.160922,-0.31107 -2.063369,-0.707157 -1.760274,-1.836948 0.302406,-1.129969 1.488899,-1.793956 2.649821,-1.482887 1.160918,0.311067 1.856459,1.479341 1.553365,2.60913 z"
     id="path3241"
     style="fill:#ffffff;fill-opacity:1;fill-rule:nonzero;stroke:#000000;stroke-width:0.73758864;stroke-linecap:round;stroke-linejoin:round;stroke-miterlimit:4;stroke-opacity:1;stroke-dasharray:none"
     inkscape:connector-curvature="0" />
  <path
     d="m 40.429981,14.884643 c -0.909192,8.773302 -8.3248,15.616135 -17.339096,15.616135 -4.914369,0 -9.352789,-2.035892 -12.52172,-5.307181 2.655256,5.125164 8.010467,8.62633 14.181294,8.62633 8.815424,0 15.964504,-7.152206 15.96188,-15.967642 3.69e-4,-1.014911 -0.101527,-2.005302 -0.282358,-2.967642 z"
     id="path3302"
     style="fill:#000000;fill-opacity:0.31372549;fill-rule:nonzero;stroke:none"
     inkscape:connector-curvature="0" />
  <path
     d="m 29.022683,41.90459 -8.423437,0 c 1.412805,-11.669768 -1.357652,-17.471632 -1.357652,-17.471632 0,0 11.138741,0 11.138741,0 0,0 -2.770457,5.932251 -1.357652,17.471632 z"
     id="path3188"
     style="fill:#939dac;fill-opacity:1;fill-rule:evenodd;stroke:none"
     inkscape:connector-curvature="0" />
  <path
     d="m 30.380335,24.432958 c 0,0 -2.770457,5.932251 -1.357652,17.471632 m -8.423437,0 C 22.012051,30.234822 19.241594,24.432958 19.241594,24.432958"
     id="path3183"
     style="fill:none;stroke:#000000;stroke-width:0.7375887;stroke-linecap:round;stroke-linejoin:miter;stroke-miterlimit:4;stroke-opacity:1;stroke-dasharray:none"
     inkscape:connector-curvature="0" />
  <path
     d="m 34.563418,25.822063 c 1.202216,0.960254 1.116075,6.180377 0.40319,7.046334 -0.712883,0.865957 -4.952224,-4.34855 -4.227657,-5.954078 0.762292,-1.689124 2.693427,-1.99566 3.824467,-1.092256 z"
     id="path3190"
     style="fill:#ffffff;fill-opacity:1;fill-rule:evenodd;stroke:#000000;stroke-width:0.7375887;stroke-linecap:butt;stroke-linejoin:round;stroke-miterlimit:4;stroke-opacity:1;stroke-dasharray:none"
     inkscape:connector-curvature="0" />
  <path
     d="m 21.886541,22.365615 c 2.673759,-2.673758 5.716312,-0.0922 5.716312,-0.0922"
     id="path3192"
     style="fill:none;stroke:#000000;stroke-width:0.7375887;stroke-linecap:round;stroke-linejoin:miter;stroke-miterlimit:4;stroke-opacity:1;stroke-dasharray:none"
     inkscape:connector-curvature="0" />
  <path
     d="m 22.801844,26.514555 c 1.817509,-1.454104 3.885709,-0.05014 3.885709,-0.05014"
     id="path3194"
     style="fill:none;stroke:#000000;stroke-width:0.7375887;stroke-linecap:round;stroke-linejoin:miter;stroke-miterlimit:4;stroke-opacity:1;stroke-dasharray:none"
     inkscape:connector-curvature="0" />
  <path
     d="m 23.106946,30.663492 c 1.532091,-1.047553 3.275507,-0.03612 3.275507,-0.03612"
     id="path3196"
     style="fill:none;stroke:#000000;stroke-width:0.7375887;stroke-linecap:round;stroke-linejoin:miter;stroke-miterlimit:4;stroke-opacity:1;stroke-dasharray:none"
     inkscape:connector-curvature="0" />
  <path
     d="m 14.892757,25.822063 c -1.202217,0.960254 -1.116075,6.180377 -0.40319,7.046334 0.712883,0.865957 4.952223,-4.34855 4.227657,-5.954078 -0.762292,-1.689124 -2.693427,-1.99566 -3.824467,-1.092256 z"
     id="path3214"
     style="fill:#ffffff;fill-opacity:1;fill-rule:evenodd;stroke:#000000;stroke-width:0.7375887;stroke-linecap:butt;stroke-linejoin:round;stroke-miterlimit:4;stroke-opacity:1;stroke-dasharray:none"
     inkscape:connector-curvature="0" />
  <path
     d="m 39.864319,46.305684 c 0.303097,1.129789 -0.599352,1.525876 -1.760272,1.836944 -1.160922,0.311067 -2.140508,0.41927 -2.442914,-0.710705 -0.303096,-1.129787 0.392445,-2.298061 1.553367,-2.60913 1.16092,-0.311066 2.347413,0.352918 2.649819,1.482891 z"
     id="path3235"
     style="fill:#ffffff;fill-opacity:1;fill-rule:nonzero;stroke:#000000;stroke-width:0.73758864;stroke-linecap:round;stroke-linejoin:round;stroke-miterlimit:4;stroke-opacity:1;stroke-dasharray:none"
     inkscape:connector-curvature="0" />
  <path
     d="m 32.222681,47.529768 c -0.302404,1.129973 -1.281992,1.02177 -2.442913,0.710705 -1.160922,-0.31107 -2.063369,-0.707157 -1.760273,-1.836948 0.302405,-1.129969 1.488898,-1.793956 2.64982,-1.482887 1.160919,0.311067 1.856459,1.479341 1.553366,2.60913 z"
     id="path3237"
     style="fill:#ffffff;fill-opacity:1;fill-rule:nonzero;stroke:#000000;stroke-width:0.73758864;stroke-linecap:round;stroke-linejoin:round;stroke-miterlimit:4;stroke-opacity:1;stroke-dasharray:none"
     inkscape:connector-curvature="0" />
  <path
     d="m 35.962665,47.343416 c 3.68e-4,1.16974 -0.973855,1.318761 -2.175728,1.318761 -1.201875,0 -2.176088,-0.149021 -2.17573,-1.318761 -3.69e-4,-1.169738 0.973855,-2.118185 2.17573,-2.118185 1.201873,0 2.176085,0.948447 2.175728,2.118185 z"
     id="path3224"
     style="fill:#ffffff;fill-opacity:1;fill-rule:nonzero;stroke:#000000;stroke-width:0.7375887;stroke-linecap:round;stroke-linejoin:round;stroke-miterlimit:4;stroke-opacity:1;stroke-dasharray:none"
     inkscape:connector-curvature="0" />
  <path
     d="m 18.813728,47.343416 c 3.69e-4,1.16974 -0.973855,1.318761 -2.175728,1.318761 -1.201875,0 -2.176087,-0.149021 -2.17573,-1.318761 -3.5e-4,-1.169738 0.973855,-2.118185 2.17573,-2.118185 1.201873,0 2.176086,0.948447 2.175728,2.118185 z"
     id="path3243"
     style="fill:#ffffff;fill-opacity:1;fill-rule:nonzero;stroke:#000000;stroke-width:0.7375887;stroke-linecap:round;stroke-linejoin:round;stroke-miterlimit:4;stroke-opacity:1;stroke-dasharray:none"
     inkscape:connector-curvature="0" />
  <path
     d="m 28.640087,40.175867 c -0.07582,2.844311 -2.404078,5.128546 -5.266844,5.128546 -2.202547,-2e-6 -4.0873,-1.354445 -4.875,-3.27305 -0.0015,0.05001 -0.0058,0.09948 -0.0058,0.149823 -9.22e-4,2.911192 2.361458,5.272608 5.272606,5.272607 2.91115,0 5.267713,-2.361413 5.266844,-5.272607 1.85e-4,-0.710504 -0.13714,-1.386733 -0.391844,-2.005319 z"
     id="path3287"
     style="fill:#000000;fill-opacity:0.31372549;fill-rule:nonzero;stroke:none"
     inkscape:connector-curvature="0" />
  <path
     d="m 37.202129,36.155201 c 1.947477,1.503311 2.46135,4.549417 2.46055,7.237589 0.0013,4.327525 -3.504968,4.880762 -7.831118,4.880762 -0.938744,0 -1.833892,-0.03038 -2.667996,-0.115248 1.278809,0.409343 2.880748,0.50133 4.621454,0.50133 4.182094,0 7.573055,-0.531523 7.571809,-4.713653 9.22e-4,-3.276542 -0.790299,-7.097899 -4.154699,-7.79078 z"
     id="path3358"
     style="fill:#000000;fill-opacity:0.31372549;fill-rule:nonzero;stroke:none"
     inkscape:connector-curvature="0" />
  <path
     d="m 17.454345,25.581176 c 0.143199,0.155515 0.277156,0.334642 0.391843,0.535904 0.83803,1.470632 -2.574093,6.690652 -3.543883,6.390514 0.05634,0.155958 0.115901,0.279829 0.184398,0.363032 0.712883,0.865955 4.954176,-4.352806 4.22961,-5.958333 -0.288935,-0.640235 -0.744404,-1.078744 -1.261968,-1.331117 z"
     id="path3363"
     style="fill:#000000;fill-opacity:0.31372549;fill-rule:evenodd;stroke:none"
     inkscape:connector-curvature="0" />
</svg>
