<?xml version="1.0"?><svg width="224.65625" height="254.26529" xmlns="http://www.w3.org/2000/svg">
 <title>Red Cow 2</title>

 <g>
  <title>Layer 1</title>
  <path fill="#5fbf00" fill-rule="nonzero" stroke="#000000" stroke-width="3.287356" stroke-linecap="round" stroke-linejoin="round" stroke-miterlimit="4" id="path2383" d="m221.885986,133.304153c0.018051,60.508224 -49.028519,109.569382 -109.536736,109.569382c-60.508228,0 -109.554788,-49.061157 -109.536741,-109.569382c-0.018047,-60.508232 49.028513,-109.56942 109.536741,-109.56942c60.508217,0 109.554787,49.061188 109.536736,109.56942z"/>
  <path fill="#3f7f00" fill-rule="evenodd" stroke-width="1px" id="path3173" d="m202.164291,73.414154c-5.401184,6.554108 -6.242035,17.009399 -4.560364,21.04541c1.240662,2.9776 9.47406,4.442017 17.347839,5.176636c-3.083496,-9.370178 -7.405182,-18.181213 -12.787476,-26.222046zm-193.414597,29.395813c-2.867569,9.717529 -4.40947,19.981079 -4.406296,30.628357c-0.001663,5.561829 0.423386,11.026184 1.232529,16.361816c8.181549,4.750488 18.801376,20.388306 27.855148,21.569275c11.339264,1.479004 8.874207,-21.692505 1.972046,-23.17157c-6.902161,-1.479004 -9.860229,-12.325317 -10.353241,-24.157532c-0.331055,-7.945618 -4.681274,-15.670166 -16.300186,-21.230347zm211.532761,27.731934c-2.9151,1.357117 -5.623383,3.391357 -7.888153,6.316711c-11.832306,15.283325 -21.692535,4.930115 -33.524811,10.35321c-11.832275,5.423157 -3.944092,19.227478 0.493011,32.538757c3.21228,9.636841 -2.605194,28.821472 4.406281,34.757324c22.436066,-19.797729 36.58493,-48.794312 36.575317,-81.06958c0.000275,-0.973633 -0.005493,-1.929016 -0.030823,-2.896423c-0.008667,0.003967 -0.022156,-0.004089 -0.030823,0zm-146.91745,9.27478c4.930145,15.283325 -5.916138,9.860229 -7.888153,20.21344c-1.972076,10.353271 33.031769,13.31134 38.947906,34.510803c5.916138,21.199524 32.538757,9.860229 32.045746,-1.972046c-0.493011,-11.832275 -17.748413,-17.255371 -13.31131,-24.157532c4.437103,-6.902161 13.31131,-21.199524 13.31131,-21.199524l-63.105499,-7.395142z"/>
  <path fill="#000000" fill-opacity="0.313725" fill-rule="nonzero" stroke-width="4" stroke-linecap="round" stroke-linejoin="round" stroke-miterlimit="4" id="path3221" d="m215.263718,95.723297c0.076782,1.68158 0.125,3.393311 0.125,5.09375c0,60.464294 -49.066956,109.53125 -109.53125,109.53125c-47.262177,0 -87.591187,-29.999268 -102.9375,-71.96875c2.653503,58.112183 50.673645,104.46875 109.4375,104.46875c60.464294,0 109.53125,-49.066956 109.53125,-109.53125c0,-13.202209 -2.338135,-25.870056 -6.625,-37.59375z"/>
  <path fill="#3f7f00" fill-rule="nonzero" stroke="#000000" stroke-width="4" stroke-linecap="round" stroke-linejoin="round" stroke-miterlimit="4" id="path3172" d="m120.529526,243.87381c0,9.090759 14.665344,9.381348 32.735107,9.381348c18.069794,0 32.735138,0.693481 32.735138,-9.381348c0,-17.715942 -14.665344,-32.094116 -32.735138,-32.094116c-18.069763,0 -32.735107,14.378174 -32.735107,32.094116z"/>
  <path fill="#000000" fill-opacity="0.313725" fill-rule="nonzero" stroke-width="4" stroke-linecap="round" stroke-linejoin="round" stroke-miterlimit="4" id="path3236" d="m196.984482,98.018768c0,45.1745 -55.121216,81.83783 -81.837799,81.83783c-25.718262,0 -81.83783,-36.66333 -81.83783,-81.83783c0,-45.174438 24.625031,-81.837769 81.83783,-81.837769c57.222565,0 81.837799,36.66333 81.837799,81.837769z"/>
  <path fill="#000000" fill-opacity="0.313725" fill-rule="evenodd" stroke="#000000" stroke-width="4" stroke-linejoin="round" stroke-miterlimit="4" id="path3174" d="m165.855057,252.654205c0,-16.367554 -9.44281,-26.439941 -9.44281,-26.439941c0,0 3.77713,13.849487 3.147614,26.439941l6.295197,0z"/>
  <path fill="#5fbf00" fill-rule="nonzero" stroke="#000000" stroke-width="4" stroke-linecap="round" stroke-linejoin="round" stroke-miterlimit="4" id="path3155" d="m109.6875,3.007904c-30.129257,0.610596 -50.931671,11.653259 -63.625,28.75c-24.064438,-2.587799 -44.0625,23.625 -44.0625,23.625c0,0 18.891129,9.44632 32.0625,1.53125c-2.399231,8.711731 -3.5625,18.105957 -3.5625,27.90625c0,45.174484 56.125504,81.84375 81.84375,81.84375c26.716614,0 81.84375,-36.669266 81.84375,-81.84375c0,-9.800293 -1.163895,-19.194519 -3.5625,-27.90625c13.171371,7.91507 32.03125,-1.53125 32.03125,-1.53125c0,0 -19.971222,-26.204559 -44.03125,-23.625c-13.061661,-17.595001 -34.707687,-28.75 -66.28125,-28.75c-0.893951,0 -1.778183,-0.017792 -2.65625,0z"/>
  <path fill="#3f7f00" fill-rule="evenodd" stroke-width="1px" id="path3185" d="m126.562485,4.976654c25.720978,17.926147 -3.049561,17.142303 -8.75,23.28125c-6.5,7 -9,17 -1.5,23.5c7.5,6.5 46,17.5 51.5,-0.5c2.835358,-9.279297 -0.566132,-20.802155 -2.34375,-30.96875c-10.017517,-7.86145 -22.90448,-13.242218 -38.90625,-15.3125z"/>
  <path fill="#ffffff" fill-rule="nonzero" stroke="#000000" stroke-width="3.88889" stroke-linecap="round" stroke-linejoin="round" stroke-miterlimit="4" id="path3157" d="m108.719719,72.833878c0.003731,12.518944 -10.143837,22.66954 -22.662781,22.66954c-12.518944,0 -22.666496,-10.150597 -22.662762,-22.66954c-0.003735,-12.51894 10.143818,-22.669506 22.662762,-22.669506c12.518944,0 22.666512,10.150566 22.662781,22.669506z"/>
  <path fill="#ffffff" fill-rule="nonzero" stroke="#000000" stroke-width="3.88889" stroke-linecap="round" stroke-linejoin="round" stroke-miterlimit="4" id="path3159" d="m161.45192,72.833878c0.003738,12.518944 -10.143829,22.66954 -22.662766,22.66954c-12.518951,0 -22.666504,-10.150597 -22.662773,-22.66954c-0.003731,-12.51894 10.143822,-22.669506 22.662773,-22.669506c12.518936,0 22.666504,10.150566 22.662766,22.669506z"/>
  <path fill="#000000" fill-rule="nonzero" stroke-width="47.666691" stroke-linecap="round" stroke-linejoin="round" stroke-miterlimit="4" id="path3161" d="m141.307236,76.8339c0.001251,4.172981 -3.381287,7.556503 -7.55426,7.556503c-4.172989,0 -7.555504,-3.383522 -7.554253,-7.556503c-0.001251,-4.172974 3.381264,-7.556541 7.554253,-7.556541c4.172974,0 7.555511,3.383568 7.55426,7.556541z"/>
  <path fill="#000000" fill-rule="nonzero" stroke-width="47.666691" stroke-linecap="round" stroke-linejoin="round" stroke-miterlimit="4" id="path3163" d="m99.276901,76.8339c0.001251,4.172981 -3.381287,7.556503 -7.554268,7.556503c-4.172974,0 -7.555496,-3.383522 -7.554245,-7.556503c-0.001251,-4.172974 3.381271,-7.556541 7.554245,-7.556541c4.172981,0 7.555519,3.383568 7.554268,7.556541z"/>
  <path fill="#ffd5e5" fill-rule="nonzero" stroke="#000000" stroke-width="4" stroke-linecap="round" stroke-linejoin="round" stroke-miterlimit="4" id="path3210" d="m112.34375,116.257904c-19.862076,0 -35.96875,13.216003 -35.96875,29.5c0,3.019562 0.564102,5.943634 1.59375,8.6875c12.711624,7.743423 25.394348,12.21875 34.375,12.21875c9.198227,0 21.756927,-4.331207 34.28125,-11.875c1.113174,-2.842743 1.71875,-5.886581 1.71875,-9.03125c0,-16.283997 -16.137924,-29.5 -36,-29.5z"/>
  <path fill="#000000" fill-opacity="0.313725" fill-rule="nonzero" stroke-width="4" stroke-linecap="round" stroke-linejoin="round" stroke-miterlimit="4" id="path3231" d="m190.90625,58.007904l-1.875,2.65625c0.248886,3.07547 0.34375,6.202637 0.34375,9.375c0,45.174469 -55.127136,81.84375 -81.84375,81.84375c-20.705811,0.000015 -61.096725,-23.755646 -76.0625,-56.59375c7.615814,40.246277 57.17189,71.375015 80.875,71.375c26.716614,0 81.84375,-36.669296 81.84375,-81.84375c0,-9.391541 -1.075378,-18.410248 -3.28125,-26.8125z"/>
  <path fill="#3f7f00" fill-rule="nonzero" stroke="#000000" stroke-width="4" stroke-linecap="round" stroke-linejoin="round" stroke-miterlimit="4" id="path3329" d="m105.531723,243.87381c0,9.090759 -14.665344,9.381348 -32.735107,9.381348c-18.069794,0 -32.735138,0.693481 -32.735138,-9.381348c0,-17.715942 14.665344,-32.094116 32.735138,-32.094116c18.069763,0 32.735107,14.378174 32.735107,32.094116z"/>
  <path fill="#000000" fill-opacity="0.313725" fill-rule="evenodd" stroke="#000000" stroke-width="4" stroke-linejoin="round" stroke-miterlimit="4" id="path3331" d="m60.206192,252.654205c0,-16.367554 9.44281,-26.439941 9.44281,-26.439941c0,0 -3.77713,13.849487 -3.147614,26.439941l-6.295197,0z"/>
  <path fill="#000000" fill-rule="nonzero" stroke-width="47.666691" stroke-linecap="round" stroke-linejoin="round" stroke-miterlimit="4" id="path2398" d="m128.944687,141.46524c-2.292725,3.973083 -6.500244,5.838562 -9.396759,4.16626c-2.896545,-1.672302 -3.384735,-6.248901 -1.090302,-10.221008c2.292725,-3.973083 6.500275,-5.838562 9.39679,-4.16626c2.896545,1.672302 3.384705,6.248901 1.090271,10.221008z"/>
  <path fill="#000000" fill-rule="nonzero" stroke-width="47.666691" stroke-linecap="round" stroke-linejoin="round" stroke-miterlimit="4" id="path2412" d="m96.207626,141.46524c2.292725,3.973083 6.500275,5.838562 9.39679,4.16626c2.896545,-1.672302 3.384705,-6.248901 1.090271,-10.221008c-2.292725,-3.973083 -6.500244,-5.838562 -9.39679,-4.16626c-2.896515,1.672302 -3.384705,6.248901 -1.090271,10.221008z"/>
  <path fill="#3f7f00" fill-rule="evenodd" stroke="#000000" stroke-width="4" stroke-miterlimit="4" id="path2399" d="m53.312485,33.265289c-7.332886,-1.328064 -15.5,-21.5 -12.5,-25.5c3,-4 26.374115,4.466278 27,13.5c0.552185,7.969421 -5.385925,13.650635 -14.5,12z"/>
  <path fill="#3f7f00" fill-rule="evenodd" stroke="#000000" stroke-width="4" stroke-miterlimit="4" id="path3171" d="m170.210739,33.265289c7.332916,-1.328064 15.5,-21.5 12.5,-25.5c-3,-4 -26.374084,4.466278 -27,13.5c-0.552155,7.969421 5.385956,13.650635 14.5,12z"/>
 </g>
</svg>