<?xml version="1.0" encoding="UTF-8" standalone="no"?>
<!-- Created with Inkscape (http://www.inkscape.org/) -->

<svg
   xmlns:dc="http://purl.org/dc/elements/1.1/"
   xmlns:cc="http://creativecommons.org/ns#"
   xmlns:rdf="http://www.w3.org/1999/02/22-rdf-syntax-ns#"
   xmlns:svg="http://www.w3.org/2000/svg"
   xmlns="http://www.w3.org/2000/svg"
   xmlns:sodipodi="http://sodipodi.sourceforge.net/DTD/sodipodi-0.dtd"
   xmlns:inkscape="http://www.inkscape.org/namespaces/inkscape"
   version="1.0"
   width="50"
   height="50"
   id="svg2"
   inkscape:version="0.48.1 r9760"
   sodipodi:docname="mouse.svg">
  <metadata
     id="metadata3063">
    <rdf:RDF>
      <cc:Work
         rdf:about="">
        <dc:format>image/svg+xml</dc:format>
        <dc:type
           rdf:resource="http://purl.org/dc/dcmitype/StillImage" />
      </cc:Work>
    </rdf:RDF>
  </metadata>
  <sodipodi:namedview
     pagecolor="#ffffff"
     bordercolor="#666666"
     borderopacity="1"
     objecttolerance="10"
     gridtolerance="10"
     guidetolerance="10"
     inkscape:pageopacity="0"
     inkscape:pageshadow="2"
     inkscape:window-width="1366"
     inkscape:window-height="710"
     id="namedview3061"
     showgrid="false"
     inkscape:zoom="6.9212782"
     inkscape:cx="52.553096"
     inkscape:cy="20.531464"
     inkscape:window-x="0"
     inkscape:window-y="26"
     inkscape:window-maximized="1"
     inkscape:current-layer="svg2" />
  <defs
     id="defs4" />
  <path
     d="M 34.323938,8.5995926 C 34.038532,5.0796105 22.527241,-4.33872 12.442965,5.1747464 2.3586933,14.688212 1.5024805,10.216883 0.55113479,10.407152 -0.40021244,10.59742 1.4980375,12.657871 4.1662504,12.309844 10.730542,11.453633 15.106736,3.272052 21.195355,3.3671863 c 6.135253,0.095863 9.418331,5.4226769 9.418331,5.4226769 l 3.710252,-0.1902706 z"
     id="path3264"
     style="fill:#cccccc;fill-opacity:1;fill-rule:evenodd;stroke:#000000;stroke-width:0.60448861;stroke-linecap:butt;stroke-linejoin:miter;stroke-miterlimit:4;stroke-opacity:1;stroke-dasharray:none"
     inkscape:connector-curvature="0" />
  <path
     d="M 21.185438,2.4322207 C 18.457027,2.4637538 15.504792,3.5383836 12.680093,6.3708419 10.079332,8.9787468 8.1646117,10.476531 6.7343812,11.301202 l 0,0.2928 C 11.952307,9.3803385 15.935569,3.2851119 21.194883,3.3672891 c 6.135255,0.095862 9.416798,5.4215077 9.416798,5.4215077 l 1.426216,-0.07084 C 30.937213,6.2258931 26.47885,2.3710419 21.185438,2.4322207 z"
     id="path2407"
     style="fill:#000000;fill-opacity:0.31372549;fill-rule:evenodd;stroke:none"
     inkscape:connector-curvature="0" />
  <path
     d="m 47.928193,23.63087 c 0,8.612348 -9.342023,24.449605 -15.602085,24.449605 -6.435514,0 -15.602084,-15.837257 -15.602084,-24.449605 0,-8.612353 6.989734,-15.6020862 15.602084,-15.6020862 8.612352,0 15.602085,6.9897332 15.602085,15.6020862 z"
     id="path2383"
     style="fill:#cccccc;fill-opacity:1;fill-rule:nonzero;stroke:#000000;stroke-width:0.60448861;stroke-linecap:round;stroke-linejoin:miter;stroke-miterlimit:4;stroke-opacity:1;stroke-dasharray:none"
     inkscape:connector-curvature="0" />
  <path
     d="m 47.718442,21.083681 c 0.03752,0.441094 0.05667,0.885732 0.05667,1.336486 -2e-6,8.612351 -9.338578,24.453455 -15.59864,24.453455 -5.869572,-10e-7 -14.013766,-13.174771 -15.400293,-22.026054 0.772393,8.802417 9.408592,23.235029 15.551416,23.23503 6.260061,0 15.598637,-15.841103 15.598639,-24.453453 0,-0.867273 -0.07151,-1.71658 -0.207792,-2.545464 z"
     id="path3397"
     style="fill:#000000;fill-opacity:0.31372549;fill-rule:nonzero;stroke:none"
     inkscape:connector-curvature="0" />
  <path
     d="m 43.170609,35.959768 c 3.631497,-0.357352 6.469919,-3.420323 6.469918,-7.145245 0,-3.96483 -3.218194,-7.183029 -7.183026,-7.183024 -3.964832,0 -7.183026,3.21819 -7.183024,7.183024 0,0.278672 0.01629,0.556017 0.04723,0.82645"
     id="path2386"
     style="fill:#cccccc;fill-opacity:1;fill-rule:nonzero;stroke:#000000;stroke-width:0.60448861;stroke-linecap:round;stroke-linejoin:miter;stroke-miterlimit:4;stroke-opacity:1;stroke-dasharray:none"
     inkscape:connector-curvature="0" />
  <path
     d="m 28.842339,29.721256 c 0.03733,-0.296474 0.05667,-0.600186 0.05667,-0.906733 0,-3.96483 -3.213472,-7.183029 -7.178302,-7.183024 -3.964833,0 -7.183027,3.21819 -7.183025,7.183024 0,3.816815 2.979293,6.940882 6.739103,7.168858"
     id="path2388"
     style="fill:#cccccc;fill-opacity:1;fill-rule:nonzero;stroke:#000000;stroke-width:0.60448861;stroke-linecap:round;stroke-linejoin:miter;stroke-miterlimit:4;stroke-opacity:1;stroke-dasharray:none"
     inkscape:connector-curvature="0" />
  <path
     d="m 34.051127,44.80937 c 0,0.925953 -1.108404,2.034356 -1.677452,2.034356 -0.640427,0 -1.67745,-1.108403 -1.67745,-2.034356 0,-0.925951 0.751498,-0.820879 1.67745,-0.820879 0.925953,0 1.677452,-0.105071 1.677452,0.820879 z"
     id="path2390"
     style="fill:#000000;fill-opacity:1;fill-rule:nonzero;stroke:none"
     inkscape:connector-curvature="0" />
  <path
     d="m 28.996398,38.61458 c 3.02e-4,0.867201 -0.532212,1.570409 -1.189186,1.570409 -0.656969,0 -1.189469,-0.703208 -1.189182,-1.570409 -3.01e-4,-0.867203 0.532213,-1.570411 1.189182,-1.570411 0.656974,0 1.189474,0.703208 1.189186,1.570411 z"
     id="path2397"
     style="fill:#000000;fill-opacity:1;fill-rule:nonzero;stroke:#000000;stroke-width:0.30224431;stroke-linecap:round;stroke-linejoin:miter;stroke-miterlimit:4;stroke-opacity:1;stroke-dasharray:none"
     inkscape:connector-curvature="0" />
  <path
     d="m 37.558517,38.61458 c 3.02e-4,0.867201 -0.532212,1.570409 -1.189186,1.570409 -0.656971,0 -1.18947,-0.703208 -1.189181,-1.570409 -3.01e-4,-0.867203 0.53221,-1.570411 1.189181,-1.570411 0.656974,0 1.189475,0.703208 1.189186,1.570411 z"
     id="path2399"
     style="fill:#000000;fill-opacity:1;fill-rule:nonzero;stroke:#000000;stroke-width:0.30224431;stroke-linecap:round;stroke-linejoin:miter;stroke-miterlimit:4;stroke-opacity:1;stroke-dasharray:none"
     inkscape:connector-curvature="0" />
  <path
     d="m 28.282889,38.249563 c 1.23e-4,0.297688 -0.148989,0.539121 -0.332971,0.539121 -0.183984,0 -0.333096,-0.241433 -0.332972,-0.539121 -1.24e-4,-0.29769 0.148988,-0.539124 0.332972,-0.539124 0.183982,0 0.333094,0.241434 0.332971,0.539124 l 0,0 z"
     id="path2401"
     style="fill:#ffffff;fill-opacity:1;fill-rule:nonzero;stroke:none"
     inkscape:connector-curvature="0" />
  <path
     d="m 36.60717,38.392264 c 1.24e-4,0.297689 -0.148988,0.539122 -0.332971,0.539122 -0.183984,0 -0.333096,-0.241433 -0.332972,-0.539122 -1.24e-4,-0.29769 0.148988,-0.539123 0.332972,-0.539123 0.183983,0 0.333095,0.241433 0.332971,0.539123 l 0,0 z"
     id="path2403"
     style="fill:#ffffff;fill-opacity:1;fill-rule:nonzero;stroke:none"
     inkscape:connector-curvature="0" />
  <path
     d="m 42.476392,22.651574 c -2.694448,0.03795 -5.192194,2.130074 -5.837094,4.722565 1.266511,-0.833163 2.855921,-1.331761 4.580891,-1.331761 3.466817,-4e-6 6.383556,2.005566 7.234973,4.722566 1.355903,-3.620419 -1.747215,-8.139654 -5.667081,-8.108648 -0.104315,-0.0047 -0.207864,-0.0062 -0.311689,-0.0047 z"
     id="path2427"
     style="fill:#000000;fill-opacity:0.31372549;fill-rule:nonzero;stroke:none"
     inkscape:connector-curvature="0" />
  <g
     transform="matrix(0.21032279,0,0,0.21245073,-36.155454,-98.98165)"
     id="g3221"
     style="stroke:#000000;stroke-width:2.85966969;stroke-linecap:round;stroke-miterlimit:4;stroke-opacity:1;stroke-dasharray:none">
    <path
       d="m 340.57116,672.76068 c 32.73512,-15.10851 47.84364,-1.25904 47.84364,-1.25904"
       id="path2445"
       style="fill:none;stroke:#000000;stroke-width:2.85966969;stroke-linecap:round;stroke-linejoin:miter;stroke-miterlimit:4;stroke-opacity:1;stroke-dasharray:none"
       inkscape:connector-curvature="0" />
    <path
       d="m 337.42356,678.42638 c 23.92181,-15.10852 44.69602,9.44282 44.69602,9.44282"
       id="path2447"
       style="fill:none;stroke:#000000;stroke-width:2.85966969;stroke-linecap:round;stroke-linejoin:miter;stroke-miterlimit:4;stroke-opacity:1;stroke-dasharray:none"
       inkscape:connector-curvature="0" />
    <path
       d="m 337.42356,681.57398 c 25.18086,-12.59043 29.58751,18.25613 29.58751,18.25613"
       id="path2449"
       style="fill:none;stroke:#000000;stroke-width:2.85966969;stroke-linecap:round;stroke-linejoin:miter;stroke-miterlimit:4;stroke-opacity:1;stroke-dasharray:none"
       inkscape:connector-curvature="0" />
  </g>
  <g
     transform="matrix(-0.21032279,0,0,0.21245073,100.80767,-98.98165)"
     id="g3384"
     style="stroke:#000000;stroke-width:2.85966969;stroke-linecap:round;stroke-miterlimit:4;stroke-opacity:1;stroke-dasharray:none">
    <path
       d="m 340.57116,672.76068 c 32.73512,-15.10851 47.84364,-1.25904 47.84364,-1.25904"
       id="path3386"
       style="fill:none;stroke:#000000;stroke-width:2.85966969;stroke-linecap:round;stroke-linejoin:miter;stroke-miterlimit:4;stroke-opacity:1;stroke-dasharray:none"
       inkscape:connector-curvature="0" />
    <path
       d="m 337.42356,678.42638 c 23.92181,-15.10852 44.69602,9.44282 44.69602,9.44282"
       id="path3388"
       style="fill:none;stroke:#000000;stroke-width:2.85966969;stroke-linecap:round;stroke-linejoin:miter;stroke-miterlimit:4;stroke-opacity:1;stroke-dasharray:none"
       inkscape:connector-curvature="0" />
    <path
       d="m 337.42356,681.57398 c 25.18086,-12.59043 29.58751,18.25613 29.58751,18.25613"
       id="path3390"
       style="fill:none;stroke:#000000;stroke-width:2.85966969;stroke-linecap:round;stroke-linejoin:miter;stroke-miterlimit:4;stroke-opacity:1;stroke-dasharray:none"
       inkscape:connector-curvature="0" />
  </g>
  <path
     d="m 21.997001,22.651574 c 2.694449,0.03795 5.192193,2.130074 5.837094,4.722565 -1.266511,-0.833163 -2.85592,-1.331761 -4.580891,-1.331761 -3.466816,-4e-6 -6.383557,2.005566 -7.234973,4.722566 -1.355902,-3.620419 1.747216,-8.139654 5.667081,-8.108648 0.104314,-0.0047 0.207864,-0.0062 0.311689,-0.0047 z"
     id="path3405"
     style="fill:#000000;fill-opacity:0.31372549;fill-rule:nonzero;stroke:none"
     inkscape:connector-curvature="0" />
</svg>
